%TF.GenerationSoftware,KiCad,Pcbnew,9.0.6*%
%TF.CreationDate,2026-01-13T10:53:28-05:00*%
%TF.ProjectId,payload-pcb,7061796c-6f61-4642-9d70-63622e6b6963,v5.1*%
%TF.SameCoordinates,Original*%
%TF.FileFunction,AssemblyDrawing,Bot*%
%FSLAX46Y46*%
G04 Gerber Fmt 4.6, Leading zero omitted, Abs format (unit mm)*
G04 Created by KiCad (PCBNEW 9.0.6) date 2026-01-13 10:53:28*
%MOMM*%
%LPD*%
G01*
G04 APERTURE LIST*
%ADD10C,0.150000*%
G04 APERTURE END LIST*
D10*
X96713319Y-91092905D02*
X96713319Y-91664333D01*
X97713319Y-91378619D02*
X96713319Y-91378619D01*
X97713319Y-91997667D02*
X96713319Y-91997667D01*
X96713319Y-91997667D02*
X96713319Y-92378619D01*
X96713319Y-92378619D02*
X96760938Y-92473857D01*
X96760938Y-92473857D02*
X96808557Y-92521476D01*
X96808557Y-92521476D02*
X96903795Y-92569095D01*
X96903795Y-92569095D02*
X97046652Y-92569095D01*
X97046652Y-92569095D02*
X97141890Y-92521476D01*
X97141890Y-92521476D02*
X97189509Y-92473857D01*
X97189509Y-92473857D02*
X97237128Y-92378619D01*
X97237128Y-92378619D02*
X97237128Y-91997667D01*
X97713319Y-93521476D02*
X97713319Y-92950048D01*
X97713319Y-93235762D02*
X96713319Y-93235762D01*
X96713319Y-93235762D02*
X96856176Y-93140524D01*
X96856176Y-93140524D02*
X96951414Y-93045286D01*
X96951414Y-93045286D02*
X96999033Y-92950048D01*
X97713319Y-94473857D02*
X97713319Y-93902429D01*
X97713319Y-94188143D02*
X96713319Y-94188143D01*
X96713319Y-94188143D02*
X96856176Y-94092905D01*
X96856176Y-94092905D02*
X96951414Y-93997667D01*
X96951414Y-93997667D02*
X96999033Y-93902429D01*
X104959819Y-91575095D02*
X104959819Y-92146523D01*
X105959819Y-91860809D02*
X104959819Y-91860809D01*
X105959819Y-92479857D02*
X104959819Y-92479857D01*
X104959819Y-92479857D02*
X104959819Y-92860809D01*
X104959819Y-92860809D02*
X105007438Y-92956047D01*
X105007438Y-92956047D02*
X105055057Y-93003666D01*
X105055057Y-93003666D02*
X105150295Y-93051285D01*
X105150295Y-93051285D02*
X105293152Y-93051285D01*
X105293152Y-93051285D02*
X105388390Y-93003666D01*
X105388390Y-93003666D02*
X105436009Y-92956047D01*
X105436009Y-92956047D02*
X105483628Y-92860809D01*
X105483628Y-92860809D02*
X105483628Y-92479857D01*
X104959819Y-93956047D02*
X104959819Y-93479857D01*
X104959819Y-93479857D02*
X105436009Y-93432238D01*
X105436009Y-93432238D02*
X105388390Y-93479857D01*
X105388390Y-93479857D02*
X105340771Y-93575095D01*
X105340771Y-93575095D02*
X105340771Y-93813190D01*
X105340771Y-93813190D02*
X105388390Y-93908428D01*
X105388390Y-93908428D02*
X105436009Y-93956047D01*
X105436009Y-93956047D02*
X105531247Y-94003666D01*
X105531247Y-94003666D02*
X105769342Y-94003666D01*
X105769342Y-94003666D02*
X105864580Y-93956047D01*
X105864580Y-93956047D02*
X105912200Y-93908428D01*
X105912200Y-93908428D02*
X105959819Y-93813190D01*
X105959819Y-93813190D02*
X105959819Y-93575095D01*
X105959819Y-93575095D02*
X105912200Y-93479857D01*
X105912200Y-93479857D02*
X105864580Y-93432238D01*
X95879819Y-98941095D02*
X95879819Y-99512523D01*
X96879819Y-99226809D02*
X95879819Y-99226809D01*
X96879819Y-99845857D02*
X95879819Y-99845857D01*
X95879819Y-99845857D02*
X95879819Y-100226809D01*
X95879819Y-100226809D02*
X95927438Y-100322047D01*
X95927438Y-100322047D02*
X95975057Y-100369666D01*
X95975057Y-100369666D02*
X96070295Y-100417285D01*
X96070295Y-100417285D02*
X96213152Y-100417285D01*
X96213152Y-100417285D02*
X96308390Y-100369666D01*
X96308390Y-100369666D02*
X96356009Y-100322047D01*
X96356009Y-100322047D02*
X96403628Y-100226809D01*
X96403628Y-100226809D02*
X96403628Y-99845857D01*
X96308390Y-100988714D02*
X96260771Y-100893476D01*
X96260771Y-100893476D02*
X96213152Y-100845857D01*
X96213152Y-100845857D02*
X96117914Y-100798238D01*
X96117914Y-100798238D02*
X96070295Y-100798238D01*
X96070295Y-100798238D02*
X95975057Y-100845857D01*
X95975057Y-100845857D02*
X95927438Y-100893476D01*
X95927438Y-100893476D02*
X95879819Y-100988714D01*
X95879819Y-100988714D02*
X95879819Y-101179190D01*
X95879819Y-101179190D02*
X95927438Y-101274428D01*
X95927438Y-101274428D02*
X95975057Y-101322047D01*
X95975057Y-101322047D02*
X96070295Y-101369666D01*
X96070295Y-101369666D02*
X96117914Y-101369666D01*
X96117914Y-101369666D02*
X96213152Y-101322047D01*
X96213152Y-101322047D02*
X96260771Y-101274428D01*
X96260771Y-101274428D02*
X96308390Y-101179190D01*
X96308390Y-101179190D02*
X96308390Y-100988714D01*
X96308390Y-100988714D02*
X96356009Y-100893476D01*
X96356009Y-100893476D02*
X96403628Y-100845857D01*
X96403628Y-100845857D02*
X96498866Y-100798238D01*
X96498866Y-100798238D02*
X96689342Y-100798238D01*
X96689342Y-100798238D02*
X96784580Y-100845857D01*
X96784580Y-100845857D02*
X96832200Y-100893476D01*
X96832200Y-100893476D02*
X96879819Y-100988714D01*
X96879819Y-100988714D02*
X96879819Y-101179190D01*
X96879819Y-101179190D02*
X96832200Y-101274428D01*
X96832200Y-101274428D02*
X96784580Y-101322047D01*
X96784580Y-101322047D02*
X96689342Y-101369666D01*
X96689342Y-101369666D02*
X96498866Y-101369666D01*
X96498866Y-101369666D02*
X96403628Y-101322047D01*
X96403628Y-101322047D02*
X96356009Y-101274428D01*
X96356009Y-101274428D02*
X96308390Y-101179190D01*
X97339819Y-87130095D02*
X97339819Y-87701523D01*
X98339819Y-87415809D02*
X97339819Y-87415809D01*
X98339819Y-88034857D02*
X97339819Y-88034857D01*
X97339819Y-88034857D02*
X97339819Y-88415809D01*
X97339819Y-88415809D02*
X97387438Y-88511047D01*
X97387438Y-88511047D02*
X97435057Y-88558666D01*
X97435057Y-88558666D02*
X97530295Y-88606285D01*
X97530295Y-88606285D02*
X97673152Y-88606285D01*
X97673152Y-88606285D02*
X97768390Y-88558666D01*
X97768390Y-88558666D02*
X97816009Y-88511047D01*
X97816009Y-88511047D02*
X97863628Y-88415809D01*
X97863628Y-88415809D02*
X97863628Y-88034857D01*
X97339819Y-88939619D02*
X97339819Y-89606285D01*
X97339819Y-89606285D02*
X98339819Y-89177714D01*
M02*
