%TF.GenerationSoftware,KiCad,Pcbnew,9.0.4*%
%TF.CreationDate,2026-01-03T14:11:15-05:00*%
%TF.ProjectId,payload-pcb,7061796c-6f61-4642-9d70-63622e6b6963,rev?*%
%TF.SameCoordinates,Original*%
%TF.FileFunction,Soldermask,Bot*%
%TF.FilePolarity,Negative*%
%FSLAX46Y46*%
G04 Gerber Fmt 4.6, Leading zero omitted, Abs format (unit mm)*
G04 Created by KiCad (PCBNEW 9.0.4) date 2026-01-03 14:11:15*
%MOMM*%
%LPD*%
G01*
G04 APERTURE LIST*
G04 Aperture macros list*
%AMRoundRect*
0 Rectangle with rounded corners*
0 $1 Rounding radius*
0 $2 $3 $4 $5 $6 $7 $8 $9 X,Y pos of 4 corners*
0 Add a 4 corners polygon primitive as box body*
4,1,4,$2,$3,$4,$5,$6,$7,$8,$9,$2,$3,0*
0 Add four circle primitives for the rounded corners*
1,1,$1+$1,$2,$3*
1,1,$1+$1,$4,$5*
1,1,$1+$1,$6,$7*
1,1,$1+$1,$8,$9*
0 Add four rect primitives between the rounded corners*
20,1,$1+$1,$2,$3,$4,$5,0*
20,1,$1+$1,$4,$5,$6,$7,0*
20,1,$1+$1,$6,$7,$8,$9,0*
20,1,$1+$1,$8,$9,$2,$3,0*%
G04 Aperture macros list end*
%ADD10C,3.000000*%
%ADD11RoundRect,0.250001X0.499999X-0.499999X0.499999X0.499999X-0.499999X0.499999X-0.499999X-0.499999X0*%
%ADD12C,1.500000*%
%ADD13O,0.800000X0.800000*%
%ADD14O,1.150000X1.800000*%
%ADD15O,1.450000X2.000000*%
%ADD16R,1.448000X1.448000*%
%ADD17C,1.448000*%
%ADD18R,1.700000X1.700000*%
%ADD19C,1.700000*%
%ADD20RoundRect,0.250000X-0.750000X-0.750000X0.750000X-0.750000X0.750000X0.750000X-0.750000X0.750000X0*%
%ADD21C,2.000000*%
%ADD22RoundRect,0.200000X-0.200000X-0.450000X0.200000X-0.450000X0.200000X0.450000X-0.200000X0.450000X0*%
%ADD23O,0.800000X1.300000*%
%ADD24O,1.700000X1.700000*%
%ADD25C,5.600000*%
%ADD26RoundRect,0.200000X-0.450000X0.200000X-0.450000X-0.200000X0.450000X-0.200000X0.450000X0.200000X0*%
%ADD27O,1.300000X0.800000*%
%ADD28R,1.600000X1.600000*%
%ADD29C,1.600000*%
%ADD30RoundRect,0.250000X-0.550000X0.550000X-0.550000X-0.550000X0.550000X-0.550000X0.550000X0.550000X0*%
%ADD31RoundRect,0.250000X0.750000X-0.750000X0.750000X0.750000X-0.750000X0.750000X-0.750000X-0.750000X0*%
%ADD32RoundRect,0.250000X0.750000X0.750000X-0.750000X0.750000X-0.750000X-0.750000X0.750000X-0.750000X0*%
%ADD33RoundRect,0.200000X0.450000X-0.200000X0.450000X0.200000X-0.450000X0.200000X-0.450000X-0.200000X0*%
G04 APERTURE END LIST*
D10*
%TO.C,J1*%
X96436000Y-128905000D03*
D11*
X100756000Y-128905000D03*
D12*
X103756000Y-128905000D03*
%TD*%
D13*
%TO.C,J4*%
X156297000Y-72174000D03*
X151297000Y-72174000D03*
D14*
X157672000Y-69424000D03*
D15*
X157522000Y-73224000D03*
X150072000Y-73224000D03*
D14*
X149922000Y-69424000D03*
%TD*%
D16*
%TO.C,U9*%
X103505000Y-97663000D03*
D17*
X100965000Y-97663000D03*
X98425000Y-97663000D03*
%TD*%
D18*
%TO.C,J20*%
X127660000Y-91059000D03*
D19*
X130200000Y-91059000D03*
X132740000Y-91059000D03*
X135280000Y-91059000D03*
X137820000Y-91059000D03*
X140360000Y-91059000D03*
%TD*%
D20*
%TO.C,C1*%
X112694323Y-102997000D03*
D21*
X117694323Y-102997000D03*
%TD*%
D22*
%TO.C,J9*%
X190697000Y-138250000D03*
D23*
X191947000Y-138250000D03*
X193197000Y-138250000D03*
X194447000Y-138250000D03*
X195697000Y-138250000D03*
X196947000Y-138250000D03*
X198197000Y-138250000D03*
X199447000Y-138250000D03*
%TD*%
D18*
%TO.C,J23*%
X159106000Y-120040000D03*
D19*
X156566000Y-120040000D03*
X154026000Y-120040000D03*
X151486000Y-120040000D03*
X148946000Y-120040000D03*
X146406000Y-120040000D03*
%TD*%
D24*
%TO.C,U14*%
X213868000Y-98298000D03*
X211328000Y-98298000D03*
D18*
X208788000Y-98298000D03*
D24*
X206248000Y-98298000D03*
X203708000Y-98298000D03*
X201168000Y-98298000D03*
X198628000Y-98298000D03*
D18*
X196088000Y-98298000D03*
D24*
X193548000Y-98298000D03*
X191008000Y-98298000D03*
X188468000Y-98298000D03*
X185928000Y-98298000D03*
D18*
X183388000Y-98298000D03*
D24*
X180848000Y-98298000D03*
X178308000Y-98298000D03*
X175768000Y-98298000D03*
X173228000Y-98298000D03*
D18*
X170688000Y-98298000D03*
D24*
X168148000Y-98298000D03*
X165608000Y-98298000D03*
X165608000Y-116078000D03*
X168148000Y-116078000D03*
D18*
X170688000Y-116078000D03*
D24*
X173228000Y-116078000D03*
X175768000Y-116078000D03*
X178308000Y-116078000D03*
X180848000Y-116078000D03*
D18*
X183388000Y-116078000D03*
D24*
X185928000Y-116078000D03*
X188468000Y-116078000D03*
X191008000Y-116078000D03*
X193548000Y-116078000D03*
D18*
X196088000Y-116078000D03*
D24*
X198628000Y-116078000D03*
X201168000Y-116078000D03*
X203708000Y-116078000D03*
X206248000Y-116078000D03*
D18*
X208788000Y-116078000D03*
D24*
X211328000Y-116078000D03*
X213868000Y-116078000D03*
X165838000Y-104648000D03*
D18*
X165838000Y-107188000D03*
D24*
X165838000Y-109728000D03*
%TD*%
D25*
%TO.C,H4*%
X214503002Y-71373998D03*
%TD*%
D26*
%TO.C,J17*%
X131826000Y-71394000D03*
D27*
X131826000Y-72644000D03*
X131826000Y-73894000D03*
%TD*%
D25*
%TO.C,H3*%
X95123000Y-71373998D03*
%TD*%
D28*
%TO.C,SW1*%
X110871000Y-94609500D03*
D29*
X110871000Y-92109500D03*
X110871000Y-89609500D03*
X114071000Y-94609500D03*
X114071000Y-92109500D03*
X114071000Y-89609500D03*
%TD*%
D30*
%TO.C,C20*%
X209296000Y-128143000D03*
D29*
X209296000Y-130643000D03*
%TD*%
D26*
%TO.C,J5*%
X189410000Y-126385000D03*
D27*
X189410000Y-127635000D03*
X189410000Y-128885000D03*
%TD*%
D31*
%TO.C,C10*%
X115951000Y-83901677D03*
D21*
X115951000Y-78901677D03*
%TD*%
D26*
%TO.C,J18*%
X137086000Y-71394000D03*
D27*
X137086000Y-72644000D03*
X137086000Y-73894000D03*
%TD*%
D26*
%TO.C,J7*%
X199824000Y-126385000D03*
D27*
X199824000Y-127635000D03*
X199824000Y-128885000D03*
%TD*%
D32*
%TO.C,C25*%
X107015677Y-75692000D03*
D21*
X102015677Y-75692000D03*
%TD*%
D18*
%TO.C,J22*%
X146456000Y-91034000D03*
D19*
X148996000Y-91034000D03*
X151536000Y-91034000D03*
X154076000Y-91034000D03*
X156616000Y-91034000D03*
X159156000Y-91034000D03*
%TD*%
D22*
%TO.C,J15*%
X144409000Y-140663000D03*
D23*
X145659000Y-140663000D03*
X146909000Y-140663000D03*
X148159000Y-140663000D03*
%TD*%
D16*
%TO.C,U12*%
X103505000Y-88392000D03*
D17*
X100965000Y-88392000D03*
X98425000Y-88392000D03*
%TD*%
D25*
%TO.C,H1*%
X95123000Y-139954000D03*
%TD*%
D28*
%TO.C,SW2*%
X117526000Y-94609500D03*
D29*
X117526000Y-92109500D03*
X117526000Y-89609500D03*
X120726000Y-94609500D03*
X120726000Y-92109500D03*
X120726000Y-89609500D03*
%TD*%
D33*
%TO.C,J12*%
X210767000Y-87092000D03*
D27*
X210767000Y-85842000D03*
X210767000Y-84592000D03*
X210767000Y-83342000D03*
%TD*%
D25*
%TO.C,H2*%
X214503002Y-139954000D03*
%TD*%
D26*
%TO.C,J19*%
X142346000Y-71394000D03*
D27*
X142346000Y-72644000D03*
X142346000Y-73894000D03*
%TD*%
D10*
%TO.C,J2*%
X96393000Y-115443000D03*
D11*
X100713000Y-118443000D03*
D12*
X100713000Y-115443000D03*
X100713000Y-112443000D03*
X103713000Y-118443000D03*
X103713000Y-115443000D03*
X103713000Y-112443000D03*
%TD*%
D33*
%TO.C,J3*%
X205052000Y-87092000D03*
D27*
X205052000Y-85842000D03*
X205052000Y-84592000D03*
X205052000Y-83342000D03*
%TD*%
D26*
%TO.C,J16*%
X126566000Y-71394000D03*
D27*
X126566000Y-72644000D03*
X126566000Y-73894000D03*
%TD*%
D26*
%TO.C,J6*%
X194617000Y-126385000D03*
D27*
X194617000Y-127635000D03*
X194617000Y-128885000D03*
%TD*%
D22*
%TO.C,J14*%
X144409000Y-135583000D03*
D23*
X145659000Y-135583000D03*
X146909000Y-135583000D03*
X148159000Y-135583000D03*
%TD*%
D18*
%TO.C,J21*%
X140310000Y-120040000D03*
D19*
X137770000Y-120040000D03*
X135230000Y-120040000D03*
X132690000Y-120040000D03*
X130150000Y-120040000D03*
X127610000Y-120040000D03*
%TD*%
D21*
%TO.C,TP11*%
X99258500Y-92831000D03*
%TD*%
%TO.C,TP5*%
X103505000Y-92837000D03*
%TD*%
%TO.C,TP8*%
X98425000Y-100203000D03*
%TD*%
%TO.C,TP7*%
X95885000Y-88392000D03*
%TD*%
M02*
