%TF.GenerationSoftware,KiCad,Pcbnew,9.0.6*%
%TF.CreationDate,2026-01-13T10:53:27-05:00*%
%TF.ProjectId,payload-pcb,7061796c-6f61-4642-9d70-63622e6b6963,v5.1*%
%TF.SameCoordinates,Original*%
%TF.FileFunction,OtherDrawing,Comment*%
%FSLAX46Y46*%
G04 Gerber Fmt 4.6, Leading zero omitted, Abs format (unit mm)*
G04 Created by KiCad (PCBNEW 9.0.6) date 2026-01-13 10:53:27*
%MOMM*%
%LPD*%
G01*
G04 APERTURE LIST*
%ADD10C,0.150000*%
%ADD11C,0.254000*%
%ADD12C,0.080000*%
%ADD13C,0.100000*%
G04 APERTURE END LIST*
D10*
X125857000Y-92837000D02*
X142113000Y-92837000D01*
X142113000Y-118237000D01*
X125857000Y-118237000D01*
X125857000Y-92837000D01*
X76454000Y-34112200D02*
X233172000Y-34112200D01*
X233172000Y-161239200D01*
X76454000Y-161239200D01*
X76454000Y-34112200D01*
X144653000Y-92837000D02*
X160909000Y-92837000D01*
X160909000Y-118237000D01*
X144653000Y-118237000D01*
X144653000Y-92837000D01*
D11*
X191604485Y-147532368D02*
X191604485Y-146262368D01*
X191604485Y-146262368D02*
X192027819Y-147169511D01*
X192027819Y-147169511D02*
X192451152Y-146262368D01*
X192451152Y-146262368D02*
X192451152Y-147532368D01*
X192934962Y-146262368D02*
X193721153Y-146262368D01*
X193721153Y-146262368D02*
X193297819Y-146746177D01*
X193297819Y-146746177D02*
X193479248Y-146746177D01*
X193479248Y-146746177D02*
X193600200Y-146806653D01*
X193600200Y-146806653D02*
X193660676Y-146867130D01*
X193660676Y-146867130D02*
X193721153Y-146988082D01*
X193721153Y-146988082D02*
X193721153Y-147290463D01*
X193721153Y-147290463D02*
X193660676Y-147411415D01*
X193660676Y-147411415D02*
X193600200Y-147471892D01*
X193600200Y-147471892D02*
X193479248Y-147532368D01*
X193479248Y-147532368D02*
X193116391Y-147532368D01*
X193116391Y-147532368D02*
X192995438Y-147471892D01*
X192995438Y-147471892D02*
X192934962Y-147411415D01*
X195112105Y-147532368D02*
X195777343Y-146685701D01*
X195112105Y-146685701D02*
X195777343Y-147532368D01*
X196805438Y-146685701D02*
X196805438Y-147532368D01*
X196503057Y-146201892D02*
X196200676Y-147109034D01*
X196200676Y-147109034D02*
X196986867Y-147109034D01*
X187687857Y-149926318D02*
X187687857Y-148656318D01*
X187687857Y-149261080D02*
X188413572Y-149261080D01*
X188413572Y-149926318D02*
X188413572Y-148656318D01*
X189199762Y-149926318D02*
X189078810Y-149865842D01*
X189078810Y-149865842D02*
X189018333Y-149805365D01*
X189018333Y-149805365D02*
X188957857Y-149684413D01*
X188957857Y-149684413D02*
X188957857Y-149321556D01*
X188957857Y-149321556D02*
X189018333Y-149200603D01*
X189018333Y-149200603D02*
X189078810Y-149140127D01*
X189078810Y-149140127D02*
X189199762Y-149079651D01*
X189199762Y-149079651D02*
X189381191Y-149079651D01*
X189381191Y-149079651D02*
X189502143Y-149140127D01*
X189502143Y-149140127D02*
X189562619Y-149200603D01*
X189562619Y-149200603D02*
X189623095Y-149321556D01*
X189623095Y-149321556D02*
X189623095Y-149684413D01*
X189623095Y-149684413D02*
X189562619Y-149805365D01*
X189562619Y-149805365D02*
X189502143Y-149865842D01*
X189502143Y-149865842D02*
X189381191Y-149926318D01*
X189381191Y-149926318D02*
X189199762Y-149926318D01*
X190348810Y-149926318D02*
X190227858Y-149865842D01*
X190227858Y-149865842D02*
X190167381Y-149744889D01*
X190167381Y-149744889D02*
X190167381Y-148656318D01*
X191316429Y-149865842D02*
X191195477Y-149926318D01*
X191195477Y-149926318D02*
X190953572Y-149926318D01*
X190953572Y-149926318D02*
X190832619Y-149865842D01*
X190832619Y-149865842D02*
X190772143Y-149744889D01*
X190772143Y-149744889D02*
X190772143Y-149261080D01*
X190772143Y-149261080D02*
X190832619Y-149140127D01*
X190832619Y-149140127D02*
X190953572Y-149079651D01*
X190953572Y-149079651D02*
X191195477Y-149079651D01*
X191195477Y-149079651D02*
X191316429Y-149140127D01*
X191316429Y-149140127D02*
X191376905Y-149261080D01*
X191376905Y-149261080D02*
X191376905Y-149382032D01*
X191376905Y-149382032D02*
X190772143Y-149502984D01*
X192888809Y-149926318D02*
X192888809Y-148656318D01*
X192888809Y-148656318D02*
X193191190Y-148656318D01*
X193191190Y-148656318D02*
X193372619Y-148716794D01*
X193372619Y-148716794D02*
X193493571Y-148837746D01*
X193493571Y-148837746D02*
X193554048Y-148958699D01*
X193554048Y-148958699D02*
X193614524Y-149200603D01*
X193614524Y-149200603D02*
X193614524Y-149382032D01*
X193614524Y-149382032D02*
X193554048Y-149623937D01*
X193554048Y-149623937D02*
X193493571Y-149744889D01*
X193493571Y-149744889D02*
X193372619Y-149865842D01*
X193372619Y-149865842D02*
X193191190Y-149926318D01*
X193191190Y-149926318D02*
X192888809Y-149926318D01*
X195005476Y-148656318D02*
X195791667Y-148656318D01*
X195791667Y-148656318D02*
X195368333Y-149140127D01*
X195368333Y-149140127D02*
X195549762Y-149140127D01*
X195549762Y-149140127D02*
X195670714Y-149200603D01*
X195670714Y-149200603D02*
X195731190Y-149261080D01*
X195731190Y-149261080D02*
X195791667Y-149382032D01*
X195791667Y-149382032D02*
X195791667Y-149684413D01*
X195791667Y-149684413D02*
X195731190Y-149805365D01*
X195731190Y-149805365D02*
X195670714Y-149865842D01*
X195670714Y-149865842D02*
X195549762Y-149926318D01*
X195549762Y-149926318D02*
X195186905Y-149926318D01*
X195186905Y-149926318D02*
X195065952Y-149865842D01*
X195065952Y-149865842D02*
X195005476Y-149805365D01*
X196335952Y-149805365D02*
X196396429Y-149865842D01*
X196396429Y-149865842D02*
X196335952Y-149926318D01*
X196335952Y-149926318D02*
X196275476Y-149865842D01*
X196275476Y-149865842D02*
X196335952Y-149805365D01*
X196335952Y-149805365D02*
X196335952Y-149926318D01*
X196880238Y-148777270D02*
X196940714Y-148716794D01*
X196940714Y-148716794D02*
X197061667Y-148656318D01*
X197061667Y-148656318D02*
X197364048Y-148656318D01*
X197364048Y-148656318D02*
X197485000Y-148716794D01*
X197485000Y-148716794D02*
X197545476Y-148777270D01*
X197545476Y-148777270D02*
X197605953Y-148898222D01*
X197605953Y-148898222D02*
X197605953Y-149019175D01*
X197605953Y-149019175D02*
X197545476Y-149200603D01*
X197545476Y-149200603D02*
X196819762Y-149926318D01*
X196819762Y-149926318D02*
X197605953Y-149926318D01*
X198150238Y-149926318D02*
X198150238Y-149079651D01*
X198150238Y-149200603D02*
X198210715Y-149140127D01*
X198210715Y-149140127D02*
X198331667Y-149079651D01*
X198331667Y-149079651D02*
X198513096Y-149079651D01*
X198513096Y-149079651D02*
X198634048Y-149140127D01*
X198634048Y-149140127D02*
X198694524Y-149261080D01*
X198694524Y-149261080D02*
X198694524Y-149926318D01*
X198694524Y-149261080D02*
X198755000Y-149140127D01*
X198755000Y-149140127D02*
X198875953Y-149079651D01*
X198875953Y-149079651D02*
X199057381Y-149079651D01*
X199057381Y-149079651D02*
X199178334Y-149140127D01*
X199178334Y-149140127D02*
X199238810Y-149261080D01*
X199238810Y-149261080D02*
X199238810Y-149926318D01*
X199843571Y-149926318D02*
X199843571Y-149079651D01*
X199843571Y-149200603D02*
X199904048Y-149140127D01*
X199904048Y-149140127D02*
X200025000Y-149079651D01*
X200025000Y-149079651D02*
X200206429Y-149079651D01*
X200206429Y-149079651D02*
X200327381Y-149140127D01*
X200327381Y-149140127D02*
X200387857Y-149261080D01*
X200387857Y-149261080D02*
X200387857Y-149926318D01*
X200387857Y-149261080D02*
X200448333Y-149140127D01*
X200448333Y-149140127D02*
X200569286Y-149079651D01*
X200569286Y-149079651D02*
X200750714Y-149079651D01*
X200750714Y-149079651D02*
X200871667Y-149140127D01*
X200871667Y-149140127D02*
X200932143Y-149261080D01*
X200932143Y-149261080D02*
X200932143Y-149926318D01*
X213418016Y-141362577D02*
X207264000Y-149352000D01*
X213418016Y-141362577D02*
X213195169Y-142612873D01*
X213418016Y-141362577D02*
X212266014Y-141897172D01*
X207264000Y-149352000D02*
X202123524Y-149352000D01*
X188401475Y-151958318D02*
X188401475Y-150688318D01*
X188401475Y-150688318D02*
X188885285Y-150688318D01*
X188885285Y-150688318D02*
X189006237Y-150748794D01*
X189006237Y-150748794D02*
X189066714Y-150809270D01*
X189066714Y-150809270D02*
X189127190Y-150930222D01*
X189127190Y-150930222D02*
X189127190Y-151111651D01*
X189127190Y-151111651D02*
X189066714Y-151232603D01*
X189066714Y-151232603D02*
X189006237Y-151293080D01*
X189006237Y-151293080D02*
X188885285Y-151353556D01*
X188885285Y-151353556D02*
X188401475Y-151353556D01*
X190215761Y-151958318D02*
X190215761Y-151293080D01*
X190215761Y-151293080D02*
X190155285Y-151172127D01*
X190155285Y-151172127D02*
X190034333Y-151111651D01*
X190034333Y-151111651D02*
X189792428Y-151111651D01*
X189792428Y-151111651D02*
X189671475Y-151172127D01*
X190215761Y-151897842D02*
X190094809Y-151958318D01*
X190094809Y-151958318D02*
X189792428Y-151958318D01*
X189792428Y-151958318D02*
X189671475Y-151897842D01*
X189671475Y-151897842D02*
X189610999Y-151776889D01*
X189610999Y-151776889D02*
X189610999Y-151655937D01*
X189610999Y-151655937D02*
X189671475Y-151534984D01*
X189671475Y-151534984D02*
X189792428Y-151474508D01*
X189792428Y-151474508D02*
X190094809Y-151474508D01*
X190094809Y-151474508D02*
X190215761Y-151414032D01*
X191364809Y-151958318D02*
X191364809Y-150688318D01*
X191364809Y-151897842D02*
X191243857Y-151958318D01*
X191243857Y-151958318D02*
X191001952Y-151958318D01*
X191001952Y-151958318D02*
X190881000Y-151897842D01*
X190881000Y-151897842D02*
X190820523Y-151837365D01*
X190820523Y-151837365D02*
X190760047Y-151716413D01*
X190760047Y-151716413D02*
X190760047Y-151353556D01*
X190760047Y-151353556D02*
X190820523Y-151232603D01*
X190820523Y-151232603D02*
X190881000Y-151172127D01*
X190881000Y-151172127D02*
X191001952Y-151111651D01*
X191001952Y-151111651D02*
X191243857Y-151111651D01*
X191243857Y-151111651D02*
X191364809Y-151172127D01*
X192937190Y-151958318D02*
X192937190Y-150688318D01*
X192937190Y-150688318D02*
X193239571Y-150688318D01*
X193239571Y-150688318D02*
X193421000Y-150748794D01*
X193421000Y-150748794D02*
X193541952Y-150869746D01*
X193541952Y-150869746D02*
X193602429Y-150990699D01*
X193602429Y-150990699D02*
X193662905Y-151232603D01*
X193662905Y-151232603D02*
X193662905Y-151414032D01*
X193662905Y-151414032D02*
X193602429Y-151655937D01*
X193602429Y-151655937D02*
X193541952Y-151776889D01*
X193541952Y-151776889D02*
X193421000Y-151897842D01*
X193421000Y-151897842D02*
X193239571Y-151958318D01*
X193239571Y-151958318D02*
X192937190Y-151958318D01*
X195779571Y-150688318D02*
X195174809Y-150688318D01*
X195174809Y-150688318D02*
X195114333Y-151293080D01*
X195114333Y-151293080D02*
X195174809Y-151232603D01*
X195174809Y-151232603D02*
X195295762Y-151172127D01*
X195295762Y-151172127D02*
X195598143Y-151172127D01*
X195598143Y-151172127D02*
X195719095Y-151232603D01*
X195719095Y-151232603D02*
X195779571Y-151293080D01*
X195779571Y-151293080D02*
X195840048Y-151414032D01*
X195840048Y-151414032D02*
X195840048Y-151716413D01*
X195840048Y-151716413D02*
X195779571Y-151837365D01*
X195779571Y-151837365D02*
X195719095Y-151897842D01*
X195719095Y-151897842D02*
X195598143Y-151958318D01*
X195598143Y-151958318D02*
X195295762Y-151958318D01*
X195295762Y-151958318D02*
X195174809Y-151897842D01*
X195174809Y-151897842D02*
X195114333Y-151837365D01*
X196384333Y-151837365D02*
X196444810Y-151897842D01*
X196444810Y-151897842D02*
X196384333Y-151958318D01*
X196384333Y-151958318D02*
X196323857Y-151897842D01*
X196323857Y-151897842D02*
X196384333Y-151837365D01*
X196384333Y-151837365D02*
X196384333Y-151958318D01*
X197533381Y-151111651D02*
X197533381Y-151958318D01*
X197231000Y-150627842D02*
X196928619Y-151534984D01*
X196928619Y-151534984D02*
X197714810Y-151534984D01*
X198198619Y-151958318D02*
X198198619Y-151111651D01*
X198198619Y-151232603D02*
X198259096Y-151172127D01*
X198259096Y-151172127D02*
X198380048Y-151111651D01*
X198380048Y-151111651D02*
X198561477Y-151111651D01*
X198561477Y-151111651D02*
X198682429Y-151172127D01*
X198682429Y-151172127D02*
X198742905Y-151293080D01*
X198742905Y-151293080D02*
X198742905Y-151958318D01*
X198742905Y-151293080D02*
X198803381Y-151172127D01*
X198803381Y-151172127D02*
X198924334Y-151111651D01*
X198924334Y-151111651D02*
X199105762Y-151111651D01*
X199105762Y-151111651D02*
X199226715Y-151172127D01*
X199226715Y-151172127D02*
X199287191Y-151293080D01*
X199287191Y-151293080D02*
X199287191Y-151958318D01*
X199891952Y-151958318D02*
X199891952Y-151111651D01*
X199891952Y-151232603D02*
X199952429Y-151172127D01*
X199952429Y-151172127D02*
X200073381Y-151111651D01*
X200073381Y-151111651D02*
X200254810Y-151111651D01*
X200254810Y-151111651D02*
X200375762Y-151172127D01*
X200375762Y-151172127D02*
X200436238Y-151293080D01*
X200436238Y-151293080D02*
X200436238Y-151958318D01*
X200436238Y-151293080D02*
X200496714Y-151172127D01*
X200496714Y-151172127D02*
X200617667Y-151111651D01*
X200617667Y-151111651D02*
X200799095Y-151111651D01*
X200799095Y-151111651D02*
X200920048Y-151172127D01*
X200920048Y-151172127D02*
X200980524Y-151293080D01*
X200980524Y-151293080D02*
X200980524Y-151958318D01*
X213344051Y-142773066D02*
X209804000Y-151384000D01*
X213344051Y-142773066D02*
X213458092Y-144037935D01*
X213344051Y-142773066D02*
X212373342Y-143591982D01*
X209804000Y-151384000D02*
X202171905Y-151384000D01*
X107825888Y-70197394D02*
X107100173Y-70197394D01*
X107463030Y-70197394D02*
X107463030Y-68927394D01*
X107463030Y-68927394D02*
X107342078Y-69108822D01*
X107342078Y-69108822D02*
X107221126Y-69229775D01*
X107221126Y-69229775D02*
X107100173Y-69290251D01*
X108974935Y-68927394D02*
X108370173Y-68927394D01*
X108370173Y-68927394D02*
X108309697Y-69532156D01*
X108309697Y-69532156D02*
X108370173Y-69471679D01*
X108370173Y-69471679D02*
X108491126Y-69411203D01*
X108491126Y-69411203D02*
X108793507Y-69411203D01*
X108793507Y-69411203D02*
X108914459Y-69471679D01*
X108914459Y-69471679D02*
X108974935Y-69532156D01*
X108974935Y-69532156D02*
X109035412Y-69653108D01*
X109035412Y-69653108D02*
X109035412Y-69955489D01*
X109035412Y-69955489D02*
X108974935Y-70076441D01*
X108974935Y-70076441D02*
X108914459Y-70136918D01*
X108914459Y-70136918D02*
X108793507Y-70197394D01*
X108793507Y-70197394D02*
X108491126Y-70197394D01*
X108491126Y-70197394D02*
X108370173Y-70136918D01*
X108370173Y-70136918D02*
X108309697Y-70076441D01*
X109821602Y-68927394D02*
X109942555Y-68927394D01*
X109942555Y-68927394D02*
X110063507Y-68987870D01*
X110063507Y-68987870D02*
X110123983Y-69048346D01*
X110123983Y-69048346D02*
X110184459Y-69169298D01*
X110184459Y-69169298D02*
X110244936Y-69411203D01*
X110244936Y-69411203D02*
X110244936Y-69713584D01*
X110244936Y-69713584D02*
X110184459Y-69955489D01*
X110184459Y-69955489D02*
X110123983Y-70076441D01*
X110123983Y-70076441D02*
X110063507Y-70136918D01*
X110063507Y-70136918D02*
X109942555Y-70197394D01*
X109942555Y-70197394D02*
X109821602Y-70197394D01*
X109821602Y-70197394D02*
X109700650Y-70136918D01*
X109700650Y-70136918D02*
X109640174Y-70076441D01*
X109640174Y-70076441D02*
X109579697Y-69955489D01*
X109579697Y-69955489D02*
X109519221Y-69713584D01*
X109519221Y-69713584D02*
X109519221Y-69411203D01*
X109519221Y-69411203D02*
X109579697Y-69169298D01*
X109579697Y-69169298D02*
X109640174Y-69048346D01*
X109640174Y-69048346D02*
X109700650Y-68987870D01*
X109700650Y-68987870D02*
X109821602Y-68927394D01*
X111756840Y-70197394D02*
X111756840Y-69350727D01*
X111756840Y-69471679D02*
X111817317Y-69411203D01*
X111817317Y-69411203D02*
X111938269Y-69350727D01*
X111938269Y-69350727D02*
X112119698Y-69350727D01*
X112119698Y-69350727D02*
X112240650Y-69411203D01*
X112240650Y-69411203D02*
X112301126Y-69532156D01*
X112301126Y-69532156D02*
X112301126Y-70197394D01*
X112301126Y-69532156D02*
X112361602Y-69411203D01*
X112361602Y-69411203D02*
X112482555Y-69350727D01*
X112482555Y-69350727D02*
X112663983Y-69350727D01*
X112663983Y-69350727D02*
X112784936Y-69411203D01*
X112784936Y-69411203D02*
X112845412Y-69532156D01*
X112845412Y-69532156D02*
X112845412Y-70197394D01*
X113450173Y-70197394D02*
X113450173Y-69350727D01*
X113450173Y-68927394D02*
X113389697Y-68987870D01*
X113389697Y-68987870D02*
X113450173Y-69048346D01*
X113450173Y-69048346D02*
X113510650Y-68987870D01*
X113510650Y-68987870D02*
X113450173Y-68927394D01*
X113450173Y-68927394D02*
X113450173Y-69048346D01*
X114236364Y-70197394D02*
X114115412Y-70136918D01*
X114115412Y-70136918D02*
X114054935Y-70015965D01*
X114054935Y-70015965D02*
X114054935Y-68927394D01*
X114659697Y-70136918D02*
X114780650Y-70197394D01*
X114780650Y-70197394D02*
X115022554Y-70197394D01*
X115022554Y-70197394D02*
X115143507Y-70136918D01*
X115143507Y-70136918D02*
X115203983Y-70015965D01*
X115203983Y-70015965D02*
X115203983Y-69955489D01*
X115203983Y-69955489D02*
X115143507Y-69834537D01*
X115143507Y-69834537D02*
X115022554Y-69774060D01*
X115022554Y-69774060D02*
X114841126Y-69774060D01*
X114841126Y-69774060D02*
X114720173Y-69713584D01*
X114720173Y-69713584D02*
X114659697Y-69592632D01*
X114659697Y-69592632D02*
X114659697Y-69532156D01*
X114659697Y-69532156D02*
X114720173Y-69411203D01*
X114720173Y-69411203D02*
X114841126Y-69350727D01*
X114841126Y-69350727D02*
X115022554Y-69350727D01*
X115022554Y-69350727D02*
X115143507Y-69411203D01*
X97663001Y-67563999D02*
X105763924Y-67563999D01*
X105763924Y-71373999D02*
X97663001Y-71373999D01*
X105128924Y-67563999D02*
X105128924Y-71373999D01*
X105128924Y-67563999D02*
X105715345Y-68690503D01*
X105128924Y-67563999D02*
X104542503Y-68690503D01*
X105128924Y-71373999D02*
X104542503Y-70247495D01*
X105128924Y-71373999D02*
X105715345Y-70247495D01*
X150761097Y-61095727D02*
X150761097Y-61942394D01*
X150458716Y-60611918D02*
X150156335Y-61519060D01*
X150156335Y-61519060D02*
X150942526Y-61519060D01*
X151305383Y-60672394D02*
X152152050Y-60672394D01*
X152152050Y-60672394D02*
X151607764Y-61942394D01*
X152877764Y-60672394D02*
X152998717Y-60672394D01*
X152998717Y-60672394D02*
X153119669Y-60732870D01*
X153119669Y-60732870D02*
X153180145Y-60793346D01*
X153180145Y-60793346D02*
X153240621Y-60914298D01*
X153240621Y-60914298D02*
X153301098Y-61156203D01*
X153301098Y-61156203D02*
X153301098Y-61458584D01*
X153301098Y-61458584D02*
X153240621Y-61700489D01*
X153240621Y-61700489D02*
X153180145Y-61821441D01*
X153180145Y-61821441D02*
X153119669Y-61881918D01*
X153119669Y-61881918D02*
X152998717Y-61942394D01*
X152998717Y-61942394D02*
X152877764Y-61942394D01*
X152877764Y-61942394D02*
X152756812Y-61881918D01*
X152756812Y-61881918D02*
X152696336Y-61821441D01*
X152696336Y-61821441D02*
X152635859Y-61700489D01*
X152635859Y-61700489D02*
X152575383Y-61458584D01*
X152575383Y-61458584D02*
X152575383Y-61156203D01*
X152575383Y-61156203D02*
X152635859Y-60914298D01*
X152635859Y-60914298D02*
X152696336Y-60793346D01*
X152696336Y-60793346D02*
X152756812Y-60732870D01*
X152756812Y-60732870D02*
X152877764Y-60672394D01*
X154087288Y-60672394D02*
X154208241Y-60672394D01*
X154208241Y-60672394D02*
X154329193Y-60732870D01*
X154329193Y-60732870D02*
X154389669Y-60793346D01*
X154389669Y-60793346D02*
X154450145Y-60914298D01*
X154450145Y-60914298D02*
X154510622Y-61156203D01*
X154510622Y-61156203D02*
X154510622Y-61458584D01*
X154510622Y-61458584D02*
X154450145Y-61700489D01*
X154450145Y-61700489D02*
X154389669Y-61821441D01*
X154389669Y-61821441D02*
X154329193Y-61881918D01*
X154329193Y-61881918D02*
X154208241Y-61942394D01*
X154208241Y-61942394D02*
X154087288Y-61942394D01*
X154087288Y-61942394D02*
X153966336Y-61881918D01*
X153966336Y-61881918D02*
X153905860Y-61821441D01*
X153905860Y-61821441D02*
X153845383Y-61700489D01*
X153845383Y-61700489D02*
X153784907Y-61458584D01*
X153784907Y-61458584D02*
X153784907Y-61156203D01*
X153784907Y-61156203D02*
X153845383Y-60914298D01*
X153845383Y-60914298D02*
X153905860Y-60793346D01*
X153905860Y-60793346D02*
X153966336Y-60732870D01*
X153966336Y-60732870D02*
X154087288Y-60672394D01*
X156022526Y-61942394D02*
X156022526Y-61095727D01*
X156022526Y-61216679D02*
X156083003Y-61156203D01*
X156083003Y-61156203D02*
X156203955Y-61095727D01*
X156203955Y-61095727D02*
X156385384Y-61095727D01*
X156385384Y-61095727D02*
X156506336Y-61156203D01*
X156506336Y-61156203D02*
X156566812Y-61277156D01*
X156566812Y-61277156D02*
X156566812Y-61942394D01*
X156566812Y-61277156D02*
X156627288Y-61156203D01*
X156627288Y-61156203D02*
X156748241Y-61095727D01*
X156748241Y-61095727D02*
X156929669Y-61095727D01*
X156929669Y-61095727D02*
X157050622Y-61156203D01*
X157050622Y-61156203D02*
X157111098Y-61277156D01*
X157111098Y-61277156D02*
X157111098Y-61942394D01*
X157715859Y-61942394D02*
X157715859Y-61095727D01*
X157715859Y-60672394D02*
X157655383Y-60732870D01*
X157655383Y-60732870D02*
X157715859Y-60793346D01*
X157715859Y-60793346D02*
X157776336Y-60732870D01*
X157776336Y-60732870D02*
X157715859Y-60672394D01*
X157715859Y-60672394D02*
X157715859Y-60793346D01*
X158502050Y-61942394D02*
X158381098Y-61881918D01*
X158381098Y-61881918D02*
X158320621Y-61760965D01*
X158320621Y-61760965D02*
X158320621Y-60672394D01*
X158925383Y-61881918D02*
X159046336Y-61942394D01*
X159046336Y-61942394D02*
X159288240Y-61942394D01*
X159288240Y-61942394D02*
X159409193Y-61881918D01*
X159409193Y-61881918D02*
X159469669Y-61760965D01*
X159469669Y-61760965D02*
X159469669Y-61700489D01*
X159469669Y-61700489D02*
X159409193Y-61579537D01*
X159409193Y-61579537D02*
X159288240Y-61519060D01*
X159288240Y-61519060D02*
X159106812Y-61519060D01*
X159106812Y-61519060D02*
X158985859Y-61458584D01*
X158985859Y-61458584D02*
X158925383Y-61337632D01*
X158925383Y-61337632D02*
X158925383Y-61277156D01*
X158925383Y-61277156D02*
X158985859Y-61156203D01*
X158985859Y-61156203D02*
X159106812Y-61095727D01*
X159106812Y-61095727D02*
X159288240Y-61095727D01*
X159288240Y-61095727D02*
X159409193Y-61156203D01*
X95123001Y-68833999D02*
X95123001Y-60733076D01*
X214503002Y-60733076D02*
X214503002Y-68833998D01*
X95123001Y-61368076D02*
X149025431Y-61368076D01*
X160600574Y-61368076D02*
X214503002Y-61368076D01*
X95123001Y-61368076D02*
X97376009Y-60195235D01*
X95123001Y-61368076D02*
X97376009Y-62540917D01*
X214503002Y-61368076D02*
X212249994Y-62540917D01*
X214503002Y-61368076D02*
X212249994Y-60195235D01*
X97030888Y-82897394D02*
X96305173Y-82897394D01*
X96668030Y-82897394D02*
X96668030Y-81627394D01*
X96668030Y-81627394D02*
X96547078Y-81808822D01*
X96547078Y-81808822D02*
X96426126Y-81929775D01*
X96426126Y-81929775D02*
X96305173Y-81990251D01*
X98179935Y-81627394D02*
X97575173Y-81627394D01*
X97575173Y-81627394D02*
X97514697Y-82232156D01*
X97514697Y-82232156D02*
X97575173Y-82171679D01*
X97575173Y-82171679D02*
X97696126Y-82111203D01*
X97696126Y-82111203D02*
X97998507Y-82111203D01*
X97998507Y-82111203D02*
X98119459Y-82171679D01*
X98119459Y-82171679D02*
X98179935Y-82232156D01*
X98179935Y-82232156D02*
X98240412Y-82353108D01*
X98240412Y-82353108D02*
X98240412Y-82655489D01*
X98240412Y-82655489D02*
X98179935Y-82776441D01*
X98179935Y-82776441D02*
X98119459Y-82836918D01*
X98119459Y-82836918D02*
X97998507Y-82897394D01*
X97998507Y-82897394D02*
X97696126Y-82897394D01*
X97696126Y-82897394D02*
X97575173Y-82836918D01*
X97575173Y-82836918D02*
X97514697Y-82776441D01*
X99026602Y-81627394D02*
X99147555Y-81627394D01*
X99147555Y-81627394D02*
X99268507Y-81687870D01*
X99268507Y-81687870D02*
X99328983Y-81748346D01*
X99328983Y-81748346D02*
X99389459Y-81869298D01*
X99389459Y-81869298D02*
X99449936Y-82111203D01*
X99449936Y-82111203D02*
X99449936Y-82413584D01*
X99449936Y-82413584D02*
X99389459Y-82655489D01*
X99389459Y-82655489D02*
X99328983Y-82776441D01*
X99328983Y-82776441D02*
X99268507Y-82836918D01*
X99268507Y-82836918D02*
X99147555Y-82897394D01*
X99147555Y-82897394D02*
X99026602Y-82897394D01*
X99026602Y-82897394D02*
X98905650Y-82836918D01*
X98905650Y-82836918D02*
X98845174Y-82776441D01*
X98845174Y-82776441D02*
X98784697Y-82655489D01*
X98784697Y-82655489D02*
X98724221Y-82413584D01*
X98724221Y-82413584D02*
X98724221Y-82111203D01*
X98724221Y-82111203D02*
X98784697Y-81869298D01*
X98784697Y-81869298D02*
X98845174Y-81748346D01*
X98845174Y-81748346D02*
X98905650Y-81687870D01*
X98905650Y-81687870D02*
X99026602Y-81627394D01*
X100961840Y-82897394D02*
X100961840Y-82050727D01*
X100961840Y-82171679D02*
X101022317Y-82111203D01*
X101022317Y-82111203D02*
X101143269Y-82050727D01*
X101143269Y-82050727D02*
X101324698Y-82050727D01*
X101324698Y-82050727D02*
X101445650Y-82111203D01*
X101445650Y-82111203D02*
X101506126Y-82232156D01*
X101506126Y-82232156D02*
X101506126Y-82897394D01*
X101506126Y-82232156D02*
X101566602Y-82111203D01*
X101566602Y-82111203D02*
X101687555Y-82050727D01*
X101687555Y-82050727D02*
X101868983Y-82050727D01*
X101868983Y-82050727D02*
X101989936Y-82111203D01*
X101989936Y-82111203D02*
X102050412Y-82232156D01*
X102050412Y-82232156D02*
X102050412Y-82897394D01*
X102655173Y-82897394D02*
X102655173Y-82050727D01*
X102655173Y-81627394D02*
X102594697Y-81687870D01*
X102594697Y-81687870D02*
X102655173Y-81748346D01*
X102655173Y-81748346D02*
X102715650Y-81687870D01*
X102715650Y-81687870D02*
X102655173Y-81627394D01*
X102655173Y-81627394D02*
X102655173Y-81748346D01*
X103441364Y-82897394D02*
X103320412Y-82836918D01*
X103320412Y-82836918D02*
X103259935Y-82715965D01*
X103259935Y-82715965D02*
X103259935Y-81627394D01*
X103864697Y-82836918D02*
X103985650Y-82897394D01*
X103985650Y-82897394D02*
X104227554Y-82897394D01*
X104227554Y-82897394D02*
X104348507Y-82836918D01*
X104348507Y-82836918D02*
X104408983Y-82715965D01*
X104408983Y-82715965D02*
X104408983Y-82655489D01*
X104408983Y-82655489D02*
X104348507Y-82534537D01*
X104348507Y-82534537D02*
X104227554Y-82474060D01*
X104227554Y-82474060D02*
X104046126Y-82474060D01*
X104046126Y-82474060D02*
X103925173Y-82413584D01*
X103925173Y-82413584D02*
X103864697Y-82292632D01*
X103864697Y-82292632D02*
X103864697Y-82232156D01*
X103864697Y-82232156D02*
X103925173Y-82111203D01*
X103925173Y-82111203D02*
X104046126Y-82050727D01*
X104046126Y-82050727D02*
X104227554Y-82050727D01*
X104227554Y-82050727D02*
X104348507Y-82111203D01*
X95123002Y-73913998D02*
X95123002Y-82958076D01*
X91313002Y-82958076D02*
X91313002Y-73913998D01*
X95123002Y-82323076D02*
X91313002Y-82323076D01*
X95123002Y-82323076D02*
X93996498Y-82909497D01*
X95123002Y-82323076D02*
X93996498Y-81736655D01*
X91313002Y-82323076D02*
X92439506Y-81736655D01*
X91313002Y-82323076D02*
X92439506Y-82909497D01*
X150821572Y-53052394D02*
X150216810Y-53052394D01*
X150216810Y-53052394D02*
X150156334Y-53657156D01*
X150156334Y-53657156D02*
X150216810Y-53596679D01*
X150216810Y-53596679D02*
X150337763Y-53536203D01*
X150337763Y-53536203D02*
X150640144Y-53536203D01*
X150640144Y-53536203D02*
X150761096Y-53596679D01*
X150761096Y-53596679D02*
X150821572Y-53657156D01*
X150821572Y-53657156D02*
X150882049Y-53778108D01*
X150882049Y-53778108D02*
X150882049Y-54080489D01*
X150882049Y-54080489D02*
X150821572Y-54201441D01*
X150821572Y-54201441D02*
X150761096Y-54261918D01*
X150761096Y-54261918D02*
X150640144Y-54322394D01*
X150640144Y-54322394D02*
X150337763Y-54322394D01*
X150337763Y-54322394D02*
X150216810Y-54261918D01*
X150216810Y-54261918D02*
X150156334Y-54201441D01*
X151668239Y-53052394D02*
X151789192Y-53052394D01*
X151789192Y-53052394D02*
X151910144Y-53112870D01*
X151910144Y-53112870D02*
X151970620Y-53173346D01*
X151970620Y-53173346D02*
X152031096Y-53294298D01*
X152031096Y-53294298D02*
X152091573Y-53536203D01*
X152091573Y-53536203D02*
X152091573Y-53838584D01*
X152091573Y-53838584D02*
X152031096Y-54080489D01*
X152031096Y-54080489D02*
X151970620Y-54201441D01*
X151970620Y-54201441D02*
X151910144Y-54261918D01*
X151910144Y-54261918D02*
X151789192Y-54322394D01*
X151789192Y-54322394D02*
X151668239Y-54322394D01*
X151668239Y-54322394D02*
X151547287Y-54261918D01*
X151547287Y-54261918D02*
X151486811Y-54201441D01*
X151486811Y-54201441D02*
X151426334Y-54080489D01*
X151426334Y-54080489D02*
X151365858Y-53838584D01*
X151365858Y-53838584D02*
X151365858Y-53536203D01*
X151365858Y-53536203D02*
X151426334Y-53294298D01*
X151426334Y-53294298D02*
X151486811Y-53173346D01*
X151486811Y-53173346D02*
X151547287Y-53112870D01*
X151547287Y-53112870D02*
X151668239Y-53052394D01*
X152877763Y-53052394D02*
X152998716Y-53052394D01*
X152998716Y-53052394D02*
X153119668Y-53112870D01*
X153119668Y-53112870D02*
X153180144Y-53173346D01*
X153180144Y-53173346D02*
X153240620Y-53294298D01*
X153240620Y-53294298D02*
X153301097Y-53536203D01*
X153301097Y-53536203D02*
X153301097Y-53838584D01*
X153301097Y-53838584D02*
X153240620Y-54080489D01*
X153240620Y-54080489D02*
X153180144Y-54201441D01*
X153180144Y-54201441D02*
X153119668Y-54261918D01*
X153119668Y-54261918D02*
X152998716Y-54322394D01*
X152998716Y-54322394D02*
X152877763Y-54322394D01*
X152877763Y-54322394D02*
X152756811Y-54261918D01*
X152756811Y-54261918D02*
X152696335Y-54201441D01*
X152696335Y-54201441D02*
X152635858Y-54080489D01*
X152635858Y-54080489D02*
X152575382Y-53838584D01*
X152575382Y-53838584D02*
X152575382Y-53536203D01*
X152575382Y-53536203D02*
X152635858Y-53294298D01*
X152635858Y-53294298D02*
X152696335Y-53173346D01*
X152696335Y-53173346D02*
X152756811Y-53112870D01*
X152756811Y-53112870D02*
X152877763Y-53052394D01*
X154087287Y-53052394D02*
X154208240Y-53052394D01*
X154208240Y-53052394D02*
X154329192Y-53112870D01*
X154329192Y-53112870D02*
X154389668Y-53173346D01*
X154389668Y-53173346D02*
X154450144Y-53294298D01*
X154450144Y-53294298D02*
X154510621Y-53536203D01*
X154510621Y-53536203D02*
X154510621Y-53838584D01*
X154510621Y-53838584D02*
X154450144Y-54080489D01*
X154450144Y-54080489D02*
X154389668Y-54201441D01*
X154389668Y-54201441D02*
X154329192Y-54261918D01*
X154329192Y-54261918D02*
X154208240Y-54322394D01*
X154208240Y-54322394D02*
X154087287Y-54322394D01*
X154087287Y-54322394D02*
X153966335Y-54261918D01*
X153966335Y-54261918D02*
X153905859Y-54201441D01*
X153905859Y-54201441D02*
X153845382Y-54080489D01*
X153845382Y-54080489D02*
X153784906Y-53838584D01*
X153784906Y-53838584D02*
X153784906Y-53536203D01*
X153784906Y-53536203D02*
X153845382Y-53294298D01*
X153845382Y-53294298D02*
X153905859Y-53173346D01*
X153905859Y-53173346D02*
X153966335Y-53112870D01*
X153966335Y-53112870D02*
X154087287Y-53052394D01*
X156022525Y-54322394D02*
X156022525Y-53475727D01*
X156022525Y-53596679D02*
X156083002Y-53536203D01*
X156083002Y-53536203D02*
X156203954Y-53475727D01*
X156203954Y-53475727D02*
X156385383Y-53475727D01*
X156385383Y-53475727D02*
X156506335Y-53536203D01*
X156506335Y-53536203D02*
X156566811Y-53657156D01*
X156566811Y-53657156D02*
X156566811Y-54322394D01*
X156566811Y-53657156D02*
X156627287Y-53536203D01*
X156627287Y-53536203D02*
X156748240Y-53475727D01*
X156748240Y-53475727D02*
X156929668Y-53475727D01*
X156929668Y-53475727D02*
X157050621Y-53536203D01*
X157050621Y-53536203D02*
X157111097Y-53657156D01*
X157111097Y-53657156D02*
X157111097Y-54322394D01*
X157715858Y-54322394D02*
X157715858Y-53475727D01*
X157715858Y-53052394D02*
X157655382Y-53112870D01*
X157655382Y-53112870D02*
X157715858Y-53173346D01*
X157715858Y-53173346D02*
X157776335Y-53112870D01*
X157776335Y-53112870D02*
X157715858Y-53052394D01*
X157715858Y-53052394D02*
X157715858Y-53173346D01*
X158502049Y-54322394D02*
X158381097Y-54261918D01*
X158381097Y-54261918D02*
X158320620Y-54140965D01*
X158320620Y-54140965D02*
X158320620Y-53052394D01*
X158925382Y-54261918D02*
X159046335Y-54322394D01*
X159046335Y-54322394D02*
X159288239Y-54322394D01*
X159288239Y-54322394D02*
X159409192Y-54261918D01*
X159409192Y-54261918D02*
X159469668Y-54140965D01*
X159469668Y-54140965D02*
X159469668Y-54080489D01*
X159469668Y-54080489D02*
X159409192Y-53959537D01*
X159409192Y-53959537D02*
X159288239Y-53899060D01*
X159288239Y-53899060D02*
X159106811Y-53899060D01*
X159106811Y-53899060D02*
X158985858Y-53838584D01*
X158985858Y-53838584D02*
X158925382Y-53717632D01*
X158925382Y-53717632D02*
X158925382Y-53657156D01*
X158925382Y-53657156D02*
X158985858Y-53536203D01*
X158985858Y-53536203D02*
X159106811Y-53475727D01*
X159106811Y-53475727D02*
X159288239Y-53475727D01*
X159288239Y-53475727D02*
X159409192Y-53536203D01*
X91313001Y-68833999D02*
X91313001Y-53113076D01*
X218313001Y-53113076D02*
X218313001Y-68833999D01*
X91313001Y-53748076D02*
X149025430Y-53748076D01*
X160600573Y-53748076D02*
X218313001Y-53748076D01*
X91313001Y-53748076D02*
X93566009Y-52575235D01*
X91313001Y-53748076D02*
X93566009Y-54920917D01*
X218313001Y-53748076D02*
X216059993Y-54920917D01*
X218313001Y-53748076D02*
X216059993Y-52575235D01*
D12*
X152082714Y-67851149D02*
X152082714Y-67351149D01*
X152082714Y-67351149D02*
X152273190Y-67351149D01*
X152273190Y-67351149D02*
X152320809Y-67374959D01*
X152320809Y-67374959D02*
X152344619Y-67398768D01*
X152344619Y-67398768D02*
X152368428Y-67446387D01*
X152368428Y-67446387D02*
X152368428Y-67517816D01*
X152368428Y-67517816D02*
X152344619Y-67565435D01*
X152344619Y-67565435D02*
X152320809Y-67589244D01*
X152320809Y-67589244D02*
X152273190Y-67613054D01*
X152273190Y-67613054D02*
X152082714Y-67613054D01*
X152868428Y-67803530D02*
X152844619Y-67827340D01*
X152844619Y-67827340D02*
X152773190Y-67851149D01*
X152773190Y-67851149D02*
X152725571Y-67851149D01*
X152725571Y-67851149D02*
X152654143Y-67827340D01*
X152654143Y-67827340D02*
X152606524Y-67779720D01*
X152606524Y-67779720D02*
X152582714Y-67732101D01*
X152582714Y-67732101D02*
X152558905Y-67636863D01*
X152558905Y-67636863D02*
X152558905Y-67565435D01*
X152558905Y-67565435D02*
X152582714Y-67470197D01*
X152582714Y-67470197D02*
X152606524Y-67422578D01*
X152606524Y-67422578D02*
X152654143Y-67374959D01*
X152654143Y-67374959D02*
X152725571Y-67351149D01*
X152725571Y-67351149D02*
X152773190Y-67351149D01*
X152773190Y-67351149D02*
X152844619Y-67374959D01*
X152844619Y-67374959D02*
X152868428Y-67398768D01*
X153249381Y-67589244D02*
X153320809Y-67613054D01*
X153320809Y-67613054D02*
X153344619Y-67636863D01*
X153344619Y-67636863D02*
X153368428Y-67684482D01*
X153368428Y-67684482D02*
X153368428Y-67755911D01*
X153368428Y-67755911D02*
X153344619Y-67803530D01*
X153344619Y-67803530D02*
X153320809Y-67827340D01*
X153320809Y-67827340D02*
X153273190Y-67851149D01*
X153273190Y-67851149D02*
X153082714Y-67851149D01*
X153082714Y-67851149D02*
X153082714Y-67351149D01*
X153082714Y-67351149D02*
X153249381Y-67351149D01*
X153249381Y-67351149D02*
X153297000Y-67374959D01*
X153297000Y-67374959D02*
X153320809Y-67398768D01*
X153320809Y-67398768D02*
X153344619Y-67446387D01*
X153344619Y-67446387D02*
X153344619Y-67494006D01*
X153344619Y-67494006D02*
X153320809Y-67541625D01*
X153320809Y-67541625D02*
X153297000Y-67565435D01*
X153297000Y-67565435D02*
X153249381Y-67589244D01*
X153249381Y-67589244D02*
X153082714Y-67589244D01*
X153963666Y-67589244D02*
X154130333Y-67589244D01*
X154201761Y-67851149D02*
X153963666Y-67851149D01*
X153963666Y-67851149D02*
X153963666Y-67351149D01*
X153963666Y-67351149D02*
X154201761Y-67351149D01*
X154630333Y-67851149D02*
X154630333Y-67351149D01*
X154630333Y-67827340D02*
X154582714Y-67851149D01*
X154582714Y-67851149D02*
X154487476Y-67851149D01*
X154487476Y-67851149D02*
X154439857Y-67827340D01*
X154439857Y-67827340D02*
X154416047Y-67803530D01*
X154416047Y-67803530D02*
X154392238Y-67755911D01*
X154392238Y-67755911D02*
X154392238Y-67613054D01*
X154392238Y-67613054D02*
X154416047Y-67565435D01*
X154416047Y-67565435D02*
X154439857Y-67541625D01*
X154439857Y-67541625D02*
X154487476Y-67517816D01*
X154487476Y-67517816D02*
X154582714Y-67517816D01*
X154582714Y-67517816D02*
X154630333Y-67541625D01*
X155082714Y-67517816D02*
X155082714Y-67922578D01*
X155082714Y-67922578D02*
X155058904Y-67970197D01*
X155058904Y-67970197D02*
X155035095Y-67994006D01*
X155035095Y-67994006D02*
X154987476Y-68017816D01*
X154987476Y-68017816D02*
X154916047Y-68017816D01*
X154916047Y-68017816D02*
X154868428Y-67994006D01*
X155082714Y-67827340D02*
X155035095Y-67851149D01*
X155035095Y-67851149D02*
X154939857Y-67851149D01*
X154939857Y-67851149D02*
X154892238Y-67827340D01*
X154892238Y-67827340D02*
X154868428Y-67803530D01*
X154868428Y-67803530D02*
X154844619Y-67755911D01*
X154844619Y-67755911D02*
X154844619Y-67613054D01*
X154844619Y-67613054D02*
X154868428Y-67565435D01*
X154868428Y-67565435D02*
X154892238Y-67541625D01*
X154892238Y-67541625D02*
X154939857Y-67517816D01*
X154939857Y-67517816D02*
X155035095Y-67517816D01*
X155035095Y-67517816D02*
X155082714Y-67541625D01*
X155511285Y-67827340D02*
X155463666Y-67851149D01*
X155463666Y-67851149D02*
X155368428Y-67851149D01*
X155368428Y-67851149D02*
X155320809Y-67827340D01*
X155320809Y-67827340D02*
X155297000Y-67779720D01*
X155297000Y-67779720D02*
X155297000Y-67589244D01*
X155297000Y-67589244D02*
X155320809Y-67541625D01*
X155320809Y-67541625D02*
X155368428Y-67517816D01*
X155368428Y-67517816D02*
X155463666Y-67517816D01*
X155463666Y-67517816D02*
X155511285Y-67541625D01*
X155511285Y-67541625D02*
X155535095Y-67589244D01*
X155535095Y-67589244D02*
X155535095Y-67636863D01*
X155535095Y-67636863D02*
X155297000Y-67684482D01*
D13*
%TO.C,U14*%
X203238000Y-105688000D02*
X201238000Y-105688000D01*
X201238000Y-103688000D01*
X203238000Y-103688000D01*
X203238000Y-105688000D01*
G36*
X203238000Y-105688000D02*
G01*
X201238000Y-105688000D01*
X201238000Y-103688000D01*
X203238000Y-103688000D01*
X203238000Y-105688000D01*
G37*
X205738000Y-105688000D02*
X203738000Y-105688000D01*
X203738000Y-103688000D01*
X205738000Y-103688000D01*
X205738000Y-105688000D01*
G36*
X205738000Y-105688000D02*
G01*
X203738000Y-105688000D01*
X203738000Y-103688000D01*
X205738000Y-103688000D01*
X205738000Y-105688000D01*
G37*
X208238000Y-105688000D02*
X206238000Y-105688000D01*
X206238000Y-103688000D01*
X208238000Y-103688000D01*
X208238000Y-105688000D01*
G36*
X208238000Y-105688000D02*
G01*
X206238000Y-105688000D01*
X206238000Y-103688000D01*
X208238000Y-103688000D01*
X208238000Y-105688000D01*
G37*
X214638000Y-110888000D02*
X209938000Y-110888000D01*
X209938000Y-103488000D01*
X214638000Y-103488000D01*
X214638000Y-110888000D01*
G36*
X214638000Y-110888000D02*
G01*
X209938000Y-110888000D01*
X209938000Y-103488000D01*
X214638000Y-103488000D01*
X214638000Y-110888000D01*
G37*
%TD*%
M02*
