%TF.GenerationSoftware,KiCad,Pcbnew,9.0.4*%
%TF.CreationDate,2026-01-03T01:05:21-05:00*%
%TF.ProjectId,payload-pcb,7061796c-6f61-4642-9d70-63622e6b6963,rev?*%
%TF.SameCoordinates,Original*%
%TF.FileFunction,Legend,Bot*%
%TF.FilePolarity,Positive*%
%FSLAX46Y46*%
G04 Gerber Fmt 4.6, Leading zero omitted, Abs format (unit mm)*
G04 Created by KiCad (PCBNEW 9.0.4) date 2026-01-03 01:05:21*
%MOMM*%
%LPD*%
G01*
G04 APERTURE LIST*
G04 Aperture macros list*
%AMRoundRect*
0 Rectangle with rounded corners*
0 $1 Rounding radius*
0 $2 $3 $4 $5 $6 $7 $8 $9 X,Y pos of 4 corners*
0 Add a 4 corners polygon primitive as box body*
4,1,4,$2,$3,$4,$5,$6,$7,$8,$9,$2,$3,0*
0 Add four circle primitives for the rounded corners*
1,1,$1+$1,$2,$3*
1,1,$1+$1,$4,$5*
1,1,$1+$1,$6,$7*
1,1,$1+$1,$8,$9*
0 Add four rect primitives between the rounded corners*
20,1,$1+$1,$2,$3,$4,$5,0*
20,1,$1+$1,$4,$5,$6,$7,0*
20,1,$1+$1,$6,$7,$8,$9,0*
20,1,$1+$1,$8,$9,$2,$3,0*%
G04 Aperture macros list end*
%ADD10C,0.152400*%
%ADD11C,0.120000*%
%ADD12C,3.000000*%
%ADD13RoundRect,0.250001X0.499999X-0.499999X0.499999X0.499999X-0.499999X0.499999X-0.499999X-0.499999X0*%
%ADD14C,1.500000*%
%ADD15O,0.800000X0.800000*%
%ADD16O,1.150000X1.800000*%
%ADD17O,1.450000X2.000000*%
%ADD18R,1.448000X1.448000*%
%ADD19C,1.448000*%
%ADD20R,1.700000X1.700000*%
%ADD21C,1.700000*%
%ADD22RoundRect,0.250000X-0.750000X-0.750000X0.750000X-0.750000X0.750000X0.750000X-0.750000X0.750000X0*%
%ADD23C,2.000000*%
%ADD24RoundRect,0.200000X-0.200000X-0.450000X0.200000X-0.450000X0.200000X0.450000X-0.200000X0.450000X0*%
%ADD25O,0.800000X1.300000*%
%ADD26O,1.700000X1.700000*%
%ADD27C,5.600000*%
%ADD28RoundRect,0.200000X-0.450000X0.200000X-0.450000X-0.200000X0.450000X-0.200000X0.450000X0.200000X0*%
%ADD29O,1.300000X0.800000*%
%ADD30R,1.600000X1.600000*%
%ADD31C,1.600000*%
%ADD32RoundRect,0.250000X-0.550000X0.550000X-0.550000X-0.550000X0.550000X-0.550000X0.550000X0.550000X0*%
%ADD33RoundRect,0.250000X0.750000X-0.750000X0.750000X0.750000X-0.750000X0.750000X-0.750000X-0.750000X0*%
%ADD34RoundRect,0.250000X0.750000X0.750000X-0.750000X0.750000X-0.750000X-0.750000X0.750000X-0.750000X0*%
%ADD35RoundRect,0.200000X0.450000X-0.200000X0.450000X0.200000X-0.450000X0.200000X-0.450000X-0.200000X0*%
G04 APERTURE END LIST*
D10*
X99843771Y-94233876D02*
X99916343Y-94197590D01*
X99916343Y-94197590D02*
X100025200Y-94197590D01*
X100025200Y-94197590D02*
X100134057Y-94233876D01*
X100134057Y-94233876D02*
X100206628Y-94306447D01*
X100206628Y-94306447D02*
X100242914Y-94379019D01*
X100242914Y-94379019D02*
X100279200Y-94524162D01*
X100279200Y-94524162D02*
X100279200Y-94633019D01*
X100279200Y-94633019D02*
X100242914Y-94778162D01*
X100242914Y-94778162D02*
X100206628Y-94850733D01*
X100206628Y-94850733D02*
X100134057Y-94923305D01*
X100134057Y-94923305D02*
X100025200Y-94959590D01*
X100025200Y-94959590D02*
X99952628Y-94959590D01*
X99952628Y-94959590D02*
X99843771Y-94923305D01*
X99843771Y-94923305D02*
X99807485Y-94887019D01*
X99807485Y-94887019D02*
X99807485Y-94633019D01*
X99807485Y-94633019D02*
X99952628Y-94633019D01*
X99480914Y-94959590D02*
X99480914Y-94197590D01*
X99480914Y-94197590D02*
X99045485Y-94959590D01*
X99045485Y-94959590D02*
X99045485Y-94197590D01*
X98682628Y-94959590D02*
X98682628Y-94197590D01*
X98682628Y-94197590D02*
X98501199Y-94197590D01*
X98501199Y-94197590D02*
X98392342Y-94233876D01*
X98392342Y-94233876D02*
X98319771Y-94306447D01*
X98319771Y-94306447D02*
X98283485Y-94379019D01*
X98283485Y-94379019D02*
X98247199Y-94524162D01*
X98247199Y-94524162D02*
X98247199Y-94633019D01*
X98247199Y-94633019D02*
X98283485Y-94778162D01*
X98283485Y-94778162D02*
X98319771Y-94850733D01*
X98319771Y-94850733D02*
X98392342Y-94923305D01*
X98392342Y-94923305D02*
X98501199Y-94959590D01*
X98501199Y-94959590D02*
X98682628Y-94959590D01*
X104847571Y-91037105D02*
X104267000Y-91037105D01*
X104557285Y-91327390D02*
X104557285Y-90746819D01*
X103504999Y-91327390D02*
X103940428Y-91327390D01*
X103722713Y-91327390D02*
X103722713Y-90565390D01*
X103722713Y-90565390D02*
X103795285Y-90674247D01*
X103795285Y-90674247D02*
X103867856Y-90746819D01*
X103867856Y-90746819D02*
X103940428Y-90783105D01*
X103214714Y-90637962D02*
X103178428Y-90601676D01*
X103178428Y-90601676D02*
X103105857Y-90565390D01*
X103105857Y-90565390D02*
X102924428Y-90565390D01*
X102924428Y-90565390D02*
X102851857Y-90601676D01*
X102851857Y-90601676D02*
X102815571Y-90637962D01*
X102815571Y-90637962D02*
X102779285Y-90710533D01*
X102779285Y-90710533D02*
X102779285Y-90783105D01*
X102779285Y-90783105D02*
X102815571Y-90891962D01*
X102815571Y-90891962D02*
X103250999Y-91327390D01*
X103250999Y-91327390D02*
X102779285Y-91327390D01*
X102561571Y-90565390D02*
X102307571Y-91327390D01*
X102307571Y-91327390D02*
X102053571Y-90565390D01*
X99767571Y-102136905D02*
X99187000Y-102136905D01*
X99477285Y-102427190D02*
X99477285Y-101846619D01*
X98896713Y-101665190D02*
X98424999Y-101665190D01*
X98424999Y-101665190D02*
X98678999Y-101955476D01*
X98678999Y-101955476D02*
X98570142Y-101955476D01*
X98570142Y-101955476D02*
X98497571Y-101991762D01*
X98497571Y-101991762D02*
X98461285Y-102028047D01*
X98461285Y-102028047D02*
X98424999Y-102100619D01*
X98424999Y-102100619D02*
X98424999Y-102282047D01*
X98424999Y-102282047D02*
X98461285Y-102354619D01*
X98461285Y-102354619D02*
X98497571Y-102390905D01*
X98497571Y-102390905D02*
X98570142Y-102427190D01*
X98570142Y-102427190D02*
X98787856Y-102427190D01*
X98787856Y-102427190D02*
X98860428Y-102390905D01*
X98860428Y-102390905D02*
X98896713Y-102354619D01*
X98207285Y-101665190D02*
X97953285Y-102427190D01*
X97953285Y-102427190D02*
X97699285Y-101665190D01*
X97517856Y-101665190D02*
X97046142Y-101665190D01*
X97046142Y-101665190D02*
X97300142Y-101955476D01*
X97300142Y-101955476D02*
X97191285Y-101955476D01*
X97191285Y-101955476D02*
X97118714Y-101991762D01*
X97118714Y-101991762D02*
X97082428Y-102028047D01*
X97082428Y-102028047D02*
X97046142Y-102100619D01*
X97046142Y-102100619D02*
X97046142Y-102282047D01*
X97046142Y-102282047D02*
X97082428Y-102354619D01*
X97082428Y-102354619D02*
X97118714Y-102390905D01*
X97118714Y-102390905D02*
X97191285Y-102427190D01*
X97191285Y-102427190D02*
X97408999Y-102427190D01*
X97408999Y-102427190D02*
X97481571Y-102390905D01*
X97481571Y-102390905D02*
X97517856Y-102354619D01*
X96864714Y-90325905D02*
X96284143Y-90325905D01*
X96574428Y-90616190D02*
X96574428Y-90035619D01*
X95558428Y-89854190D02*
X95921285Y-89854190D01*
X95921285Y-89854190D02*
X95957571Y-90217047D01*
X95957571Y-90217047D02*
X95921285Y-90180762D01*
X95921285Y-90180762D02*
X95848714Y-90144476D01*
X95848714Y-90144476D02*
X95667285Y-90144476D01*
X95667285Y-90144476D02*
X95594714Y-90180762D01*
X95594714Y-90180762D02*
X95558428Y-90217047D01*
X95558428Y-90217047D02*
X95522142Y-90289619D01*
X95522142Y-90289619D02*
X95522142Y-90471047D01*
X95522142Y-90471047D02*
X95558428Y-90543619D01*
X95558428Y-90543619D02*
X95594714Y-90579905D01*
X95594714Y-90579905D02*
X95667285Y-90616190D01*
X95667285Y-90616190D02*
X95848714Y-90616190D01*
X95848714Y-90616190D02*
X95921285Y-90579905D01*
X95921285Y-90579905D02*
X95957571Y-90543619D01*
X95304428Y-89854190D02*
X95050428Y-90616190D01*
X95050428Y-90616190D02*
X94796428Y-89854190D01*
D11*
%TO.C,TP11*%
X100458500Y-92831000D02*
G75*
G02*
X98058500Y-92831000I-1200000J0D01*
G01*
X98058500Y-92831000D02*
G75*
G02*
X100458500Y-92831000I1200000J0D01*
G01*
%TO.C,TP5*%
X104705000Y-92837000D02*
G75*
G02*
X102305000Y-92837000I-1200000J0D01*
G01*
X102305000Y-92837000D02*
G75*
G02*
X104705000Y-92837000I1200000J0D01*
G01*
%TO.C,TP8*%
X99625000Y-100203000D02*
G75*
G02*
X97225000Y-100203000I-1200000J0D01*
G01*
X97225000Y-100203000D02*
G75*
G02*
X99625000Y-100203000I1200000J0D01*
G01*
%TO.C,TP7*%
X97085000Y-88392000D02*
G75*
G02*
X94685000Y-88392000I-1200000J0D01*
G01*
X94685000Y-88392000D02*
G75*
G02*
X97085000Y-88392000I1200000J0D01*
G01*
%TD*%
%LPC*%
D12*
%TO.C,J1*%
X96436000Y-128905000D03*
D13*
X100756000Y-128905000D03*
D14*
X103756000Y-128905000D03*
%TD*%
D15*
%TO.C,J4*%
X156297000Y-72174000D03*
X151297000Y-72174000D03*
D16*
X157672000Y-69424000D03*
D17*
X157522000Y-73224000D03*
X150072000Y-73224000D03*
D16*
X149922000Y-69424000D03*
%TD*%
D18*
%TO.C,U9*%
X103505000Y-97663000D03*
D19*
X100965000Y-97663000D03*
X98425000Y-97663000D03*
%TD*%
D20*
%TO.C,J20*%
X127660000Y-91059000D03*
D21*
X130200000Y-91059000D03*
X132740000Y-91059000D03*
X135280000Y-91059000D03*
X137820000Y-91059000D03*
X140360000Y-91059000D03*
%TD*%
D22*
%TO.C,C1*%
X112694323Y-102997000D03*
D23*
X117694323Y-102997000D03*
%TD*%
D24*
%TO.C,J9*%
X190697000Y-138250000D03*
D25*
X191947000Y-138250000D03*
X193197000Y-138250000D03*
X194447000Y-138250000D03*
X195697000Y-138250000D03*
X196947000Y-138250000D03*
X198197000Y-138250000D03*
X199447000Y-138250000D03*
%TD*%
D20*
%TO.C,J23*%
X159106000Y-120040000D03*
D21*
X156566000Y-120040000D03*
X154026000Y-120040000D03*
X151486000Y-120040000D03*
X148946000Y-120040000D03*
X146406000Y-120040000D03*
%TD*%
D26*
%TO.C,U14*%
X213868000Y-98298000D03*
X211328000Y-98298000D03*
D20*
X208788000Y-98298000D03*
D26*
X206248000Y-98298000D03*
X203708000Y-98298000D03*
X201168000Y-98298000D03*
X198628000Y-98298000D03*
D20*
X196088000Y-98298000D03*
D26*
X193548000Y-98298000D03*
X191008000Y-98298000D03*
X188468000Y-98298000D03*
X185928000Y-98298000D03*
D20*
X183388000Y-98298000D03*
D26*
X180848000Y-98298000D03*
X178308000Y-98298000D03*
X175768000Y-98298000D03*
X173228000Y-98298000D03*
D20*
X170688000Y-98298000D03*
D26*
X168148000Y-98298000D03*
X165608000Y-98298000D03*
X165608000Y-116078000D03*
X168148000Y-116078000D03*
D20*
X170688000Y-116078000D03*
D26*
X173228000Y-116078000D03*
X175768000Y-116078000D03*
X178308000Y-116078000D03*
X180848000Y-116078000D03*
D20*
X183388000Y-116078000D03*
D26*
X185928000Y-116078000D03*
X188468000Y-116078000D03*
X191008000Y-116078000D03*
X193548000Y-116078000D03*
D20*
X196088000Y-116078000D03*
D26*
X198628000Y-116078000D03*
X201168000Y-116078000D03*
X203708000Y-116078000D03*
X206248000Y-116078000D03*
D20*
X208788000Y-116078000D03*
D26*
X211328000Y-116078000D03*
X213868000Y-116078000D03*
X165838000Y-104648000D03*
D20*
X165838000Y-107188000D03*
D26*
X165838000Y-109728000D03*
%TD*%
D27*
%TO.C,H4*%
X214503002Y-71373998D03*
%TD*%
D28*
%TO.C,J17*%
X131826000Y-71394000D03*
D29*
X131826000Y-72644000D03*
X131826000Y-73894000D03*
%TD*%
D27*
%TO.C,H3*%
X95123000Y-71373998D03*
%TD*%
D30*
%TO.C,SW1*%
X110871000Y-94609500D03*
D31*
X110871000Y-92109500D03*
X110871000Y-89609500D03*
X114071000Y-94609500D03*
X114071000Y-92109500D03*
X114071000Y-89609500D03*
%TD*%
D32*
%TO.C,C20*%
X209296000Y-128143000D03*
D31*
X209296000Y-130643000D03*
%TD*%
D28*
%TO.C,J5*%
X189410000Y-126385000D03*
D29*
X189410000Y-127635000D03*
X189410000Y-128885000D03*
%TD*%
D33*
%TO.C,C10*%
X115951000Y-83901677D03*
D23*
X115951000Y-78901677D03*
%TD*%
D28*
%TO.C,J18*%
X137086000Y-71394000D03*
D29*
X137086000Y-72644000D03*
X137086000Y-73894000D03*
%TD*%
D28*
%TO.C,J7*%
X199824000Y-126385000D03*
D29*
X199824000Y-127635000D03*
X199824000Y-128885000D03*
%TD*%
D34*
%TO.C,C25*%
X107015677Y-75692000D03*
D23*
X102015677Y-75692000D03*
%TD*%
D20*
%TO.C,J22*%
X146456000Y-91034000D03*
D21*
X148996000Y-91034000D03*
X151536000Y-91034000D03*
X154076000Y-91034000D03*
X156616000Y-91034000D03*
X159156000Y-91034000D03*
%TD*%
D24*
%TO.C,J15*%
X144409000Y-140663000D03*
D25*
X145659000Y-140663000D03*
X146909000Y-140663000D03*
X148159000Y-140663000D03*
%TD*%
D18*
%TO.C,U12*%
X103505000Y-88392000D03*
D19*
X100965000Y-88392000D03*
X98425000Y-88392000D03*
%TD*%
D27*
%TO.C,H1*%
X95123000Y-139954000D03*
%TD*%
D30*
%TO.C,SW2*%
X117526000Y-94609500D03*
D31*
X117526000Y-92109500D03*
X117526000Y-89609500D03*
X120726000Y-94609500D03*
X120726000Y-92109500D03*
X120726000Y-89609500D03*
%TD*%
D35*
%TO.C,J12*%
X210767000Y-87092000D03*
D29*
X210767000Y-85842000D03*
X210767000Y-84592000D03*
X210767000Y-83342000D03*
%TD*%
D27*
%TO.C,H2*%
X214503002Y-139954000D03*
%TD*%
D28*
%TO.C,J19*%
X142346000Y-71394000D03*
D29*
X142346000Y-72644000D03*
X142346000Y-73894000D03*
%TD*%
D12*
%TO.C,J2*%
X96393000Y-115443000D03*
D13*
X100713000Y-118443000D03*
D14*
X100713000Y-115443000D03*
X100713000Y-112443000D03*
X103713000Y-118443000D03*
X103713000Y-115443000D03*
X103713000Y-112443000D03*
%TD*%
D35*
%TO.C,J3*%
X205052000Y-87092000D03*
D29*
X205052000Y-85842000D03*
X205052000Y-84592000D03*
X205052000Y-83342000D03*
%TD*%
D28*
%TO.C,J16*%
X126566000Y-71394000D03*
D29*
X126566000Y-72644000D03*
X126566000Y-73894000D03*
%TD*%
D28*
%TO.C,J6*%
X194617000Y-126385000D03*
D29*
X194617000Y-127635000D03*
X194617000Y-128885000D03*
%TD*%
D24*
%TO.C,J14*%
X144409000Y-135583000D03*
D25*
X145659000Y-135583000D03*
X146909000Y-135583000D03*
X148159000Y-135583000D03*
%TD*%
D20*
%TO.C,J21*%
X140310000Y-120040000D03*
D21*
X137770000Y-120040000D03*
X135230000Y-120040000D03*
X132690000Y-120040000D03*
X130150000Y-120040000D03*
X127610000Y-120040000D03*
%TD*%
D23*
%TO.C,TP11*%
X99258500Y-92831000D03*
%TD*%
%TO.C,TP5*%
X103505000Y-92837000D03*
%TD*%
%TO.C,TP8*%
X98425000Y-100203000D03*
%TD*%
%TO.C,TP7*%
X95885000Y-88392000D03*
%TD*%
%LPD*%
M02*
