M48
; DRILL file {KiCad 9.0.4} date 2026-01-03T01:06:29-0500
; FORMAT={-:-/ absolute / metric / decimal}
; #@! TF.CreationDate,2026-01-03T01:06:29-05:00
; #@! TF.GenerationSoftware,Kicad,Pcbnew,9.0.4
; #@! TF.FileFunction,Plated,1,4,PTH
FMAT,2
METRIC
; #@! TA.AperFunction,Plated,PTH,ViaDrill
T1C0.305
; #@! TA.AperFunction,Plated,PTH,ViaDrill
T2C0.381
; #@! TA.AperFunction,Plated,PTH,ViaDrill
T3C0.400
; #@! TA.AperFunction,Plated,PTH,ComponentDrill
T4C0.500
; #@! TA.AperFunction,Plated,PTH,ComponentDrill
T5C0.550
; #@! TA.AperFunction,Plated,PTH,ComponentDrill
T6C0.800
; #@! TA.AperFunction,Plated,PTH,ComponentDrill
T7C0.850
; #@! TA.AperFunction,Plated,PTH,ComponentDrill
T8C0.940
; #@! TA.AperFunction,Plated,PTH,ComponentDrill
T9C1.000
; #@! TA.AperFunction,Plated,PTH,ComponentDrill
T10C1.020
; #@! TA.AperFunction,Plated,PTH,ComponentDrill
T11C3.200
%
G90
G05
T1
X92.964Y-78.486
X93.345Y-75.946
X94.361Y-77.216
X94.742Y-79.121
X95.631Y-75.946
X95.885Y-88.392
X97.536Y-107.696
X97.663Y-75.946
X99.06Y-109.728
X99.258Y-92.831
X99.441Y-72.39
X99.441Y-128.905
X99.949Y-70.485
X99.949Y-79.502
X100.203Y-68.707
X100.33Y-110.49
X100.711Y-109.347
X100.711Y-127.508
X100.711Y-130.302
X102.489Y-69.469
X103.886Y-121.412
X105.546Y-104.013
X105.546Y-106.299
X114.173Y-118.745
X117.602Y-96.012
X118.491Y-96.901
X119.253Y-113.284
X119.888Y-97.028
X120.523Y-114.935
X127.635Y-115.062
X130.175Y-114.173
X132.715Y-113.284
X133.858Y-78.994
X135.255Y-112.395
X136.398Y-86.487
X137.668Y-78.994
X140.335Y-96.647
X140.335Y-97.536
X140.335Y-98.425
X140.36Y-95.733
X141.478Y-78.994
X142.24Y-85.217
X142.24Y-129.921
X143.129Y-124.714
X143.637Y-124.206
X143.637Y-125.349
X144.043Y-116.08
X144.399Y-125.349
X145.237Y-126.035
X145.542Y-78.232
X146.431Y-77.343
X147.32Y-78.232
X148.209Y-77.343
X149.098Y-78.232
X149.987Y-77.343
X150.495Y-116.944
X150.622Y-128.651
X151.536Y-98.425
X152.497Y-72.166
X153.543Y-128.27
X154.076Y-97.536
X155.321Y-132.969
X155.321Y-135.89
X156.616Y-96.647
X159.156Y-95.758
X159.893Y-68.961
X161.163Y-69.977
X164.973Y-139.827
X165.608Y-86.741
X165.608Y-87.63
X165.608Y-88.519
X165.608Y-89.408
X168.529Y-73.787
X170.561Y-75.184
X171.577Y-128.143
X172.339Y-128.524
X172.847Y-127.889
X173.482Y-128.651
X176.149Y-126.746
X177.292Y-126.492
X179.705Y-73.787
X180.848Y-81.28
X181.737Y-75.184
X186.309Y-83.058
X190.5Y-133.604
X190.5Y-134.239
X191.008Y-73.787
X192.024Y-81.407
X193.04Y-75.184
X195.707Y-132.08
X197.393Y-83.093
X197.485Y-132.08
X202.311Y-73.787
X204.343Y-75.184
X208.153Y-125.095
X213.741Y-126.492
X213.741Y-127.635
X214.376Y-81.661
X214.376Y-88.773
X214.376Y-127.127
X214.884Y-127.762
X215.011Y-126.492
X215.519Y-127.254
T2
X92.964Y-118.364
X92.964Y-120.904
X94.234Y-119.634
X95.504Y-118.364
X95.504Y-120.904
X96.774Y-119.634
X98.044Y-118.364
X98.044Y-120.904
X103.378Y-136.5
X105.918Y-136.5
X108.458Y-136.5
X110.998Y-136.5
X113.538Y-136.5
X115.443Y-142.138
X116.078Y-136.5
X117.983Y-142.138
X120.523Y-142.138
X123.063Y-142.138
X123.952Y-79.756
X123.952Y-82.296
X123.952Y-84.836
X125.222Y-81.026
X125.222Y-83.566
X125.603Y-142.138
X126.492Y-79.756
X126.492Y-82.296
X126.492Y-84.836
X127.533Y-136.5
X128.143Y-142.138
X128.727Y-134.62
X130.073Y-136.5
X131.267Y-134.62
X132.613Y-136.5
X133.807Y-134.62
X135.153Y-136.5
X136.347Y-134.62
X137.693Y-136.5
X138.303Y-105.283
X138.303Y-107.823
X138.887Y-134.62
X139.573Y-104.013
X139.573Y-106.553
X139.7Y-87.757
X140.233Y-136.5
X140.843Y-102.743
X140.843Y-105.283
X140.843Y-107.823
X149.987Y-104.013
X149.987Y-106.553
X151.257Y-105.283
X152.527Y-104.013
X152.527Y-106.553
X153.797Y-110.744
X155.067Y-112.014
X156.337Y-110.744
X156.337Y-113.284
X156.337Y-115.824
X157.607Y-112.014
X157.607Y-114.554
X158.877Y-110.744
X158.877Y-113.284
X158.877Y-115.824
X163.322Y-71.12
X164.592Y-69.85
X164.592Y-72.39
X169.062Y-105.588
X169.062Y-108.128
X169.062Y-110.668
X169.545Y-84.074
X169.545Y-85.344
X170.332Y-106.858
X170.332Y-109.398
X170.688Y-84.709
X170.688Y-85.979
X171.602Y-105.588
X171.602Y-108.128
X171.602Y-110.668
X171.958Y-84.074
X171.958Y-85.344
X172.669Y-106.68
X173.228Y-84.709
X173.228Y-85.979
X173.431Y-108.179
X173.609Y-105.639
X174.371Y-84.074
X174.371Y-85.344
X174.498Y-106.68
X175.336Y-105.512
X192.38Y-105.486
X193.065Y-110.185
X193.192Y-107.721
X195.097Y-106.248
X195.097Y-108.788
X195.097Y-111.328
X196.367Y-107.518
X196.367Y-110.058
X197.637Y-106.248
X197.637Y-108.788
X197.637Y-111.328
X198.907Y-107.493
X198.907Y-110.033
X200.203Y-106.248
X200.203Y-108.788
X200.203Y-111.328
X201.473Y-107.518
X201.473Y-110.058
X202.743Y-106.248
X202.743Y-108.788
X202.743Y-111.328
T3
X145.415Y-73.152
X145.923Y-86.106
X146.431Y-79.375
X146.685Y-72.644
X148.209Y-86.106
X148.336Y-79.375
X150.241Y-79.375
X150.241Y-88.392
X150.495Y-86.233
X152.527Y-88.265
X156.337Y-76.835
X156.845Y-78.994
X156.972Y-77.978
X157.099Y-77.089
X157.734Y-85.598
X158.369Y-82.423
X160.274Y-82.296
X160.782Y-85.598
X161.798Y-79.502
X163.957Y-85.217
X164.084Y-80.391
X164.084Y-81.28
X164.465Y-82.804
X165.608Y-83.947
X166.751Y-85.217
X166.878Y-82.804
X169.672Y-70.612
X170.434Y-90.678
X171.196Y-70.612
X171.196Y-92.329
X171.45Y-119.38
X172.339Y-120.523
X172.466Y-90.678
X172.847Y-70.612
X175.26Y-125.476
X176.403Y-125.603
X176.784Y-73.533
X178.054Y-125.73
X180.975Y-70.612
X181.737Y-129.413
X181.737Y-131.572
X182.499Y-70.612
X184.15Y-70.612
X184.404Y-131.953
X184.404Y-134.239
X187.579Y-134.874
X188.087Y-73.533
X192.151Y-70.485
X193.04Y-91.186
X193.675Y-70.485
X194.437Y-92.329
X195.326Y-70.485
X195.961Y-91.186
X199.39Y-73.533
X203.454Y-70.358
X204.978Y-70.358
X206.629Y-70.358
X210.566Y-68.834
X210.566Y-70.358
X210.566Y-71.882
X210.566Y-73.533
X215.138Y-75.438
X216.662Y-75.438
T4
X126.566Y-71.394
X126.566Y-72.644
X126.566Y-73.894
X131.826Y-71.394
X131.826Y-72.644
X131.826Y-73.894
X137.086Y-71.394
X137.086Y-72.644
X137.086Y-73.894
X142.346Y-71.394
X142.346Y-72.644
X142.346Y-73.894
X144.409Y-135.583
X144.409Y-140.663
X145.659Y-135.583
X145.659Y-140.663
X146.909Y-135.583
X146.909Y-140.663
X148.159Y-135.583
X148.159Y-140.663
X189.41Y-126.385
X189.41Y-127.635
X189.41Y-128.885
X190.697Y-138.25
X191.947Y-138.25
X193.197Y-138.25
X194.447Y-138.25
X194.617Y-126.385
X194.617Y-127.635
X194.617Y-128.885
X195.697Y-138.25
X196.947Y-138.25
X198.197Y-138.25
X199.447Y-138.25
X199.824Y-126.385
X199.824Y-127.635
X199.824Y-128.885
X205.052Y-83.342
X205.052Y-84.592
X205.052Y-85.842
X205.052Y-87.092
X210.767Y-83.342
X210.767Y-84.592
X210.767Y-85.842
X210.767Y-87.092
T6
X110.871Y-89.609
X110.871Y-92.109
X110.871Y-94.609
X114.071Y-89.609
X114.071Y-92.109
X114.071Y-94.609
X117.526Y-89.609
X117.526Y-92.109
X117.526Y-94.609
X120.726Y-89.609
X120.726Y-92.109
X120.726Y-94.609
X209.296Y-128.143
X209.296Y-130.643
T8
X98.425Y-88.392
X98.425Y-97.663
X100.965Y-88.392
X100.965Y-97.663
X103.505Y-88.392
X103.505Y-97.663
T9
X102.016Y-75.692
X107.016Y-75.692
X112.694Y-102.997
X115.951Y-78.902
X115.951Y-83.902
X117.694Y-102.997
X127.61Y-120.04
X127.66Y-91.059
X130.15Y-120.04
X130.2Y-91.059
X132.69Y-120.04
X132.74Y-91.059
X135.23Y-120.04
X135.28Y-91.059
X137.77Y-120.04
X137.82Y-91.059
X140.31Y-120.04
X140.36Y-91.059
X146.406Y-120.04
X146.456Y-91.034
X148.946Y-120.04
X148.996Y-91.034
X151.486Y-120.04
X151.536Y-91.034
X154.026Y-120.04
X154.076Y-91.034
X156.566Y-120.04
X156.616Y-91.034
X159.106Y-120.04
X159.156Y-91.034
T10
X100.713Y-112.443
X100.713Y-115.443
X100.713Y-118.443
X100.756Y-128.905
X103.713Y-112.443
X103.713Y-115.443
X103.713Y-118.443
X103.756Y-128.905
X165.608Y-98.298
X165.608Y-116.078
X165.838Y-104.648
X165.838Y-107.188
X165.838Y-109.728
X168.148Y-98.298
X168.148Y-116.078
X170.688Y-98.298
X170.688Y-116.078
X173.228Y-98.298
X173.228Y-116.078
X175.768Y-98.298
X175.768Y-116.078
X178.308Y-98.298
X178.308Y-116.078
X180.848Y-98.298
X180.848Y-116.078
X183.388Y-98.298
X183.388Y-116.078
X185.928Y-98.298
X185.928Y-116.078
X188.468Y-98.298
X188.468Y-116.078
X191.008Y-98.298
X191.008Y-116.078
X193.548Y-98.298
X193.548Y-116.078
X196.088Y-98.298
X196.088Y-116.078
X198.628Y-98.298
X198.628Y-116.078
X201.168Y-98.298
X201.168Y-116.078
X203.708Y-98.298
X203.708Y-116.078
X206.248Y-98.298
X206.248Y-116.078
X208.788Y-98.298
X208.788Y-116.078
X211.328Y-98.298
X211.328Y-116.078
X213.868Y-98.298
X213.868Y-116.078
T11
X95.123Y-71.374
X95.123Y-139.954
X214.503Y-71.374
X214.503Y-139.954
T5
G00X149.922Y-69.749
M15
G01X149.922Y-69.099
M16
G05
G00X157.672Y-69.749
M15
G01X157.672Y-69.099
M16
G05
T7
G00X150.072Y-73.499
M15
G01X150.072Y-72.949
M16
G05
G00X157.522Y-73.499
M15
G01X157.522Y-72.949
M16
G05
M30
