%TF.GenerationSoftware,KiCad,Pcbnew,9.0.4*%
%TF.CreationDate,2026-01-03T01:05:21-05:00*%
%TF.ProjectId,payload-pcb,7061796c-6f61-4642-9d70-63622e6b6963,rev?*%
%TF.SameCoordinates,Original*%
%TF.FileFunction,Paste,Top*%
%TF.FilePolarity,Positive*%
%FSLAX46Y46*%
G04 Gerber Fmt 4.6, Leading zero omitted, Abs format (unit mm)*
G04 Created by KiCad (PCBNEW 9.0.4) date 2026-01-03 01:05:21*
%MOMM*%
%LPD*%
G01*
G04 APERTURE LIST*
G04 Aperture macros list*
%AMRoundRect*
0 Rectangle with rounded corners*
0 $1 Rounding radius*
0 $2 $3 $4 $5 $6 $7 $8 $9 X,Y pos of 4 corners*
0 Add a 4 corners polygon primitive as box body*
4,1,4,$2,$3,$4,$5,$6,$7,$8,$9,$2,$3,0*
0 Add four circle primitives for the rounded corners*
1,1,$1+$1,$2,$3*
1,1,$1+$1,$4,$5*
1,1,$1+$1,$6,$7*
1,1,$1+$1,$8,$9*
0 Add four rect primitives between the rounded corners*
20,1,$1+$1,$2,$3,$4,$5,0*
20,1,$1+$1,$4,$5,$6,$7,0*
20,1,$1+$1,$6,$7,$8,$9,0*
20,1,$1+$1,$8,$9,$2,$3,0*%
G04 Aperture macros list end*
%ADD10RoundRect,0.250000X0.325000X0.450000X-0.325000X0.450000X-0.325000X-0.450000X0.325000X-0.450000X0*%
%ADD11RoundRect,0.237500X0.237500X-0.250000X0.237500X0.250000X-0.237500X0.250000X-0.237500X-0.250000X0*%
%ADD12R,0.450000X1.300000*%
%ADD13RoundRect,0.250000X-0.412500X-0.650000X0.412500X-0.650000X0.412500X0.650000X-0.412500X0.650000X0*%
%ADD14RoundRect,0.250000X0.412500X0.650000X-0.412500X0.650000X-0.412500X-0.650000X0.412500X-0.650000X0*%
%ADD15RoundRect,0.237500X0.250000X0.237500X-0.250000X0.237500X-0.250000X-0.237500X0.250000X-0.237500X0*%
%ADD16RoundRect,0.150000X-0.875000X-0.150000X0.875000X-0.150000X0.875000X0.150000X-0.875000X0.150000X0*%
%ADD17RoundRect,0.250000X-1.125000X1.275000X-1.125000X-1.275000X1.125000X-1.275000X1.125000X1.275000X0*%
%ADD18RoundRect,0.250000X-0.350000X0.850000X-0.350000X-0.850000X0.350000X-0.850000X0.350000X0.850000X0*%
%ADD19RoundRect,0.250000X-0.650000X0.412500X-0.650000X-0.412500X0.650000X-0.412500X0.650000X0.412500X0*%
%ADD20RoundRect,0.237500X-0.237500X0.300000X-0.237500X-0.300000X0.237500X-0.300000X0.237500X0.300000X0*%
%ADD21RoundRect,0.250000X-0.450000X0.325000X-0.450000X-0.325000X0.450000X-0.325000X0.450000X0.325000X0*%
%ADD22RoundRect,0.250000X-0.375000X-1.075000X0.375000X-1.075000X0.375000X1.075000X-0.375000X1.075000X0*%
%ADD23RoundRect,0.162500X-0.447500X-0.162500X0.447500X-0.162500X0.447500X0.162500X-0.447500X0.162500X0*%
%ADD24RoundRect,0.150000X-0.150000X0.825000X-0.150000X-0.825000X0.150000X-0.825000X0.150000X0.825000X0*%
%ADD25R,0.400000X1.200000*%
%ADD26RoundRect,0.250000X0.650000X-0.412500X0.650000X0.412500X-0.650000X0.412500X-0.650000X-0.412500X0*%
%ADD27RoundRect,0.087500X0.087500X-0.725000X0.087500X0.725000X-0.087500X0.725000X-0.087500X-0.725000X0*%
%ADD28RoundRect,0.237500X0.300000X0.237500X-0.300000X0.237500X-0.300000X-0.237500X0.300000X-0.237500X0*%
%ADD29RoundRect,0.150000X-0.150000X-0.700000X0.150000X-0.700000X0.150000X0.700000X-0.150000X0.700000X0*%
%ADD30RoundRect,0.250000X-0.250000X-1.150000X0.250000X-1.150000X0.250000X1.150000X-0.250000X1.150000X0*%
%ADD31RoundRect,0.250000X0.625000X-0.400000X0.625000X0.400000X-0.625000X0.400000X-0.625000X-0.400000X0*%
%ADD32RoundRect,0.237500X-0.300000X-0.237500X0.300000X-0.237500X0.300000X0.237500X-0.300000X0.237500X0*%
%ADD33RoundRect,0.237500X-0.237500X0.250000X-0.237500X-0.250000X0.237500X-0.250000X0.237500X0.250000X0*%
%ADD34RoundRect,0.250000X0.750000X-2.000000X0.750000X2.000000X-0.750000X2.000000X-0.750000X-2.000000X0*%
%ADD35RoundRect,0.150000X0.825000X0.150000X-0.825000X0.150000X-0.825000X-0.150000X0.825000X-0.150000X0*%
%ADD36RoundRect,0.225000X-0.225000X-0.375000X0.225000X-0.375000X0.225000X0.375000X-0.225000X0.375000X0*%
%ADD37RoundRect,0.150000X0.150000X-0.587500X0.150000X0.587500X-0.150000X0.587500X-0.150000X-0.587500X0*%
%ADD38RoundRect,0.150000X-0.150000X0.587500X-0.150000X-0.587500X0.150000X-0.587500X0.150000X0.587500X0*%
%ADD39RoundRect,0.237500X0.237500X-0.300000X0.237500X0.300000X-0.237500X0.300000X-0.237500X-0.300000X0*%
G04 APERTURE END LIST*
D10*
%TO.C,D5*%
X105546000Y-102997000D03*
X103496000Y-102997000D03*
%TD*%
D11*
%TO.C,R12*%
X197485000Y-134897500D03*
X197485000Y-133072500D03*
%TD*%
D12*
%TO.C,J4*%
X155097000Y-73274000D03*
X154447000Y-73274000D03*
X153797000Y-73274000D03*
X153147000Y-73274000D03*
X152497000Y-73274000D03*
%TD*%
D13*
%TO.C,C7*%
X172046500Y-126746000D03*
X175171500Y-126746000D03*
%TD*%
D14*
%TO.C,C8*%
X162090500Y-85598000D03*
X158965500Y-85598000D03*
%TD*%
D15*
%TO.C,R3*%
X99337500Y-105156000D03*
X97512500Y-105156000D03*
%TD*%
D16*
%TO.C,U23*%
X163351000Y-129687500D03*
X163351000Y-130957500D03*
X163351000Y-132227500D03*
X163351000Y-133497500D03*
X163351000Y-134767500D03*
X163351000Y-136037500D03*
X163351000Y-137307500D03*
X163351000Y-138577500D03*
X163351000Y-139847500D03*
X172651000Y-139847500D03*
X172651000Y-138577500D03*
X172651000Y-137307500D03*
X172651000Y-136037500D03*
X172651000Y-134767500D03*
X172651000Y-133497500D03*
X172651000Y-132227500D03*
X172651000Y-130957500D03*
X172651000Y-129687500D03*
%TD*%
D17*
%TO.C,Q1*%
X113031000Y-128704000D03*
X109981000Y-128704000D03*
X113031000Y-132054000D03*
X109981000Y-132054000D03*
D18*
X113786000Y-124079000D03*
X109226000Y-124079000D03*
%TD*%
D19*
%TO.C,C2*%
X159893000Y-69945500D03*
X159893000Y-73070500D03*
%TD*%
D20*
%TO.C,C31*%
X155321000Y-136932500D03*
X155321000Y-138657500D03*
%TD*%
D21*
%TO.C,D10*%
X182797000Y-82032000D03*
X182797000Y-84082000D03*
%TD*%
D10*
%TO.C,D2*%
X105546000Y-105156000D03*
X103496000Y-105156000D03*
%TD*%
D11*
%TO.C,R11*%
X195707000Y-134897500D03*
X195707000Y-133072500D03*
%TD*%
D22*
%TO.C,F1*%
X103629000Y-132157000D03*
X106429000Y-132157000D03*
%TD*%
D11*
%TO.C,R1*%
X192024000Y-84097500D03*
X192024000Y-82272500D03*
%TD*%
D14*
%TO.C,C23*%
X141770500Y-87757000D03*
X138645500Y-87757000D03*
%TD*%
D23*
%TO.C,Q6*%
X184745000Y-82108000D03*
X184745000Y-84008000D03*
X187365000Y-83058000D03*
%TD*%
D11*
%TO.C,R22*%
X214376000Y-84351500D03*
X214376000Y-82526500D03*
%TD*%
D24*
%TO.C,U1*%
X141478000Y-80264000D03*
X140208000Y-80264000D03*
X138938000Y-80264000D03*
X137668000Y-80264000D03*
X136398000Y-80264000D03*
X135128000Y-80264000D03*
X133858000Y-80264000D03*
X133858000Y-85214000D03*
X135128000Y-85214000D03*
X136398000Y-85214000D03*
X137668000Y-85214000D03*
X138938000Y-85214000D03*
X140208000Y-85214000D03*
X141478000Y-85214000D03*
%TD*%
D11*
%TO.C,R30*%
X174986000Y-130606000D03*
X174986000Y-128781000D03*
%TD*%
%TO.C,R5*%
X180848000Y-83969500D03*
X180848000Y-82144500D03*
%TD*%
D15*
%TO.C,R4*%
X99337500Y-106807000D03*
X97512500Y-106807000D03*
%TD*%
D13*
%TO.C,C3*%
X158965500Y-76200000D03*
X162090500Y-76200000D03*
%TD*%
D25*
%TO.C,U2*%
X158305500Y-83499000D03*
X158940500Y-83499000D03*
X159575500Y-83499000D03*
X160210500Y-83499000D03*
X160845500Y-83499000D03*
X161480500Y-83499000D03*
X162115500Y-83499000D03*
X162750500Y-83499000D03*
X162750500Y-78299000D03*
X162115500Y-78299000D03*
X161480500Y-78299000D03*
X160845500Y-78299000D03*
X160210500Y-78299000D03*
X159575500Y-78299000D03*
X158940500Y-78299000D03*
X158305500Y-78299000D03*
%TD*%
D26*
%TO.C,C6*%
X177272000Y-130615000D03*
X177272000Y-127490000D03*
%TD*%
D21*
%TO.C,D9*%
X193929000Y-82160000D03*
X193929000Y-84210000D03*
%TD*%
D23*
%TO.C,Q5*%
X195877000Y-82143000D03*
X195877000Y-84043000D03*
X198497000Y-83093000D03*
%TD*%
D27*
%TO.C,U3*%
X118507000Y-116254500D03*
X119007000Y-116254500D03*
X119507000Y-116254500D03*
X120007000Y-116254500D03*
X120507000Y-116254500D03*
X120507000Y-112029500D03*
X120007000Y-112029500D03*
X119507000Y-112029500D03*
X119007000Y-112029500D03*
X118507000Y-112029500D03*
%TD*%
D28*
%TO.C,C9*%
X120369500Y-118206000D03*
X118644500Y-118206000D03*
%TD*%
D10*
%TO.C,D3*%
X105546000Y-107315000D03*
X103496000Y-107315000D03*
%TD*%
D29*
%TO.C,J11*%
X191842333Y-73832000D03*
X193092333Y-73832000D03*
X194342333Y-73832000D03*
X195592333Y-73832000D03*
D30*
X189992333Y-70482000D03*
X197442333Y-70482000D03*
%TD*%
D29*
%TO.C,J10*%
X180581667Y-73832000D03*
X181831667Y-73832000D03*
X183081667Y-73832000D03*
X184331667Y-73832000D03*
D30*
X178731667Y-70482000D03*
X186181667Y-70482000D03*
%TD*%
D15*
%TO.C,R29*%
X147196500Y-132207000D03*
X145371500Y-132207000D03*
%TD*%
D31*
%TO.C,R8*%
X113918000Y-115692000D03*
X113918000Y-112592000D03*
%TD*%
D29*
%TO.C,J13*%
X203103000Y-73832000D03*
X204353000Y-73832000D03*
X205603000Y-73832000D03*
X206853000Y-73832000D03*
D30*
X201253000Y-70482000D03*
X208703000Y-70482000D03*
%TD*%
D32*
%TO.C,C5*%
X151613700Y-75438000D03*
X153338700Y-75438000D03*
%TD*%
D13*
%TO.C,C29*%
X144721500Y-124079000D03*
X147846500Y-124079000D03*
%TD*%
D33*
%TO.C,R7*%
X153365200Y-76938500D03*
X153365200Y-78763500D03*
%TD*%
D34*
%TO.C,Y1*%
X158984000Y-138642500D03*
X158984000Y-130142500D03*
%TD*%
D11*
%TO.C,R15*%
X144780000Y-116101500D03*
X144780000Y-114276500D03*
%TD*%
D33*
%TO.C,R6*%
X154889200Y-76938500D03*
X154889200Y-78763500D03*
%TD*%
D31*
%TO.C,R9*%
X111632000Y-115692000D03*
X111632000Y-112592000D03*
%TD*%
D13*
%TO.C,C22*%
X208241500Y-123698000D03*
X211366500Y-123698000D03*
%TD*%
D35*
%TO.C,U22*%
X148759000Y-129921000D03*
X148759000Y-128651000D03*
X148759000Y-127381000D03*
X148759000Y-126111000D03*
X143809000Y-126111000D03*
X143809000Y-127381000D03*
X143809000Y-128651000D03*
X143809000Y-129921000D03*
%TD*%
D15*
%TO.C,R17*%
X99337500Y-103505000D03*
X97512500Y-103505000D03*
%TD*%
D28*
%TO.C,C4*%
X156640700Y-75438000D03*
X154915700Y-75438000D03*
%TD*%
D29*
%TO.C,J8*%
X169321000Y-73832000D03*
X170571000Y-73832000D03*
X171821000Y-73832000D03*
X173071000Y-73832000D03*
D30*
X167471000Y-70482000D03*
X174921000Y-70482000D03*
%TD*%
D36*
%TO.C,D1*%
X108722000Y-121554000D03*
X112022000Y-121554000D03*
%TD*%
D31*
%TO.C,R10*%
X109346000Y-115692000D03*
X109346000Y-112592000D03*
%TD*%
D11*
%TO.C,R16*%
X150495000Y-116078000D03*
X150495000Y-114253000D03*
%TD*%
%TO.C,R13*%
X150495000Y-112672500D03*
X150495000Y-110847500D03*
%TD*%
D37*
%TO.C,Q2*%
X118557000Y-121937500D03*
X120457000Y-121937500D03*
X119507000Y-120062500D03*
%TD*%
D38*
%TO.C,Q4*%
X215326000Y-123522500D03*
X213426000Y-123522500D03*
X214376000Y-125397500D03*
%TD*%
D39*
%TO.C,C30*%
X155321000Y-131873500D03*
X155321000Y-130148500D03*
%TD*%
D33*
%TO.C,R23*%
X214376000Y-86082500D03*
X214376000Y-87907500D03*
%TD*%
D19*
%TO.C,C35*%
X151618000Y-126453500D03*
X151618000Y-129578500D03*
%TD*%
D11*
%TO.C,R14*%
X144780000Y-112649000D03*
X144780000Y-110824000D03*
%TD*%
%TO.C,R2*%
X113801000Y-121700500D03*
X113801000Y-119875500D03*
%TD*%
M02*
