%TF.GenerationSoftware,KiCad,Pcbnew,9.0.6*%
%TF.CreationDate,2026-01-13T10:53:27-05:00*%
%TF.ProjectId,payload-pcb,7061796c-6f61-4642-9d70-63622e6b6963,v5.1*%
%TF.SameCoordinates,Original*%
%TF.FileFunction,Other,Comment*%
%FSLAX46Y46*%
G04 Gerber Fmt 4.6, Leading zero omitted, Abs format (unit mm)*
G04 Created by KiCad (PCBNEW 9.0.6) date 2026-01-13 10:53:27*
%MOMM*%
%LPD*%
G01*
G04 APERTURE LIST*
%ADD10C,0.150000*%
G04 APERTURE END LIST*
D10*
X175737997Y-107553580D02*
X175690378Y-107601200D01*
X175690378Y-107601200D02*
X175547521Y-107648819D01*
X175547521Y-107648819D02*
X175452283Y-107648819D01*
X175452283Y-107648819D02*
X175309426Y-107601200D01*
X175309426Y-107601200D02*
X175214188Y-107505961D01*
X175214188Y-107505961D02*
X175166569Y-107410723D01*
X175166569Y-107410723D02*
X175118950Y-107220247D01*
X175118950Y-107220247D02*
X175118950Y-107077390D01*
X175118950Y-107077390D02*
X175166569Y-106886914D01*
X175166569Y-106886914D02*
X175214188Y-106791676D01*
X175214188Y-106791676D02*
X175309426Y-106696438D01*
X175309426Y-106696438D02*
X175452283Y-106648819D01*
X175452283Y-106648819D02*
X175547521Y-106648819D01*
X175547521Y-106648819D02*
X175690378Y-106696438D01*
X175690378Y-106696438D02*
X175737997Y-106744057D01*
X176309426Y-107648819D02*
X176214188Y-107601200D01*
X176214188Y-107601200D02*
X176166569Y-107553580D01*
X176166569Y-107553580D02*
X176118950Y-107458342D01*
X176118950Y-107458342D02*
X176118950Y-107172628D01*
X176118950Y-107172628D02*
X176166569Y-107077390D01*
X176166569Y-107077390D02*
X176214188Y-107029771D01*
X176214188Y-107029771D02*
X176309426Y-106982152D01*
X176309426Y-106982152D02*
X176452283Y-106982152D01*
X176452283Y-106982152D02*
X176547521Y-107029771D01*
X176547521Y-107029771D02*
X176595140Y-107077390D01*
X176595140Y-107077390D02*
X176642759Y-107172628D01*
X176642759Y-107172628D02*
X176642759Y-107458342D01*
X176642759Y-107458342D02*
X176595140Y-107553580D01*
X176595140Y-107553580D02*
X176547521Y-107601200D01*
X176547521Y-107601200D02*
X176452283Y-107648819D01*
X176452283Y-107648819D02*
X176309426Y-107648819D01*
X177071331Y-106982152D02*
X177071331Y-107982152D01*
X177071331Y-107029771D02*
X177166569Y-106982152D01*
X177166569Y-106982152D02*
X177357045Y-106982152D01*
X177357045Y-106982152D02*
X177452283Y-107029771D01*
X177452283Y-107029771D02*
X177499902Y-107077390D01*
X177499902Y-107077390D02*
X177547521Y-107172628D01*
X177547521Y-107172628D02*
X177547521Y-107458342D01*
X177547521Y-107458342D02*
X177499902Y-107553580D01*
X177499902Y-107553580D02*
X177452283Y-107601200D01*
X177452283Y-107601200D02*
X177357045Y-107648819D01*
X177357045Y-107648819D02*
X177166569Y-107648819D01*
X177166569Y-107648819D02*
X177071331Y-107601200D01*
X177976093Y-106982152D02*
X177976093Y-107982152D01*
X177976093Y-107029771D02*
X178071331Y-106982152D01*
X178071331Y-106982152D02*
X178261807Y-106982152D01*
X178261807Y-106982152D02*
X178357045Y-107029771D01*
X178357045Y-107029771D02*
X178404664Y-107077390D01*
X178404664Y-107077390D02*
X178452283Y-107172628D01*
X178452283Y-107172628D02*
X178452283Y-107458342D01*
X178452283Y-107458342D02*
X178404664Y-107553580D01*
X178404664Y-107553580D02*
X178357045Y-107601200D01*
X178357045Y-107601200D02*
X178261807Y-107648819D01*
X178261807Y-107648819D02*
X178071331Y-107648819D01*
X178071331Y-107648819D02*
X177976093Y-107601200D01*
X179261807Y-107601200D02*
X179166569Y-107648819D01*
X179166569Y-107648819D02*
X178976093Y-107648819D01*
X178976093Y-107648819D02*
X178880855Y-107601200D01*
X178880855Y-107601200D02*
X178833236Y-107505961D01*
X178833236Y-107505961D02*
X178833236Y-107125009D01*
X178833236Y-107125009D02*
X178880855Y-107029771D01*
X178880855Y-107029771D02*
X178976093Y-106982152D01*
X178976093Y-106982152D02*
X179166569Y-106982152D01*
X179166569Y-106982152D02*
X179261807Y-107029771D01*
X179261807Y-107029771D02*
X179309426Y-107125009D01*
X179309426Y-107125009D02*
X179309426Y-107220247D01*
X179309426Y-107220247D02*
X178833236Y-107315485D01*
X179737998Y-107648819D02*
X179737998Y-106982152D01*
X179737998Y-107172628D02*
X179785617Y-107077390D01*
X179785617Y-107077390D02*
X179833236Y-107029771D01*
X179833236Y-107029771D02*
X179928474Y-106982152D01*
X179928474Y-106982152D02*
X180023712Y-106982152D01*
X181118951Y-107648819D02*
X181118951Y-106648819D01*
X181690379Y-107648819D02*
X181261808Y-107077390D01*
X181690379Y-106648819D02*
X181118951Y-107220247D01*
X182499903Y-107601200D02*
X182404665Y-107648819D01*
X182404665Y-107648819D02*
X182214189Y-107648819D01*
X182214189Y-107648819D02*
X182118951Y-107601200D01*
X182118951Y-107601200D02*
X182071332Y-107505961D01*
X182071332Y-107505961D02*
X182071332Y-107125009D01*
X182071332Y-107125009D02*
X182118951Y-107029771D01*
X182118951Y-107029771D02*
X182214189Y-106982152D01*
X182214189Y-106982152D02*
X182404665Y-106982152D01*
X182404665Y-106982152D02*
X182499903Y-107029771D01*
X182499903Y-107029771D02*
X182547522Y-107125009D01*
X182547522Y-107125009D02*
X182547522Y-107220247D01*
X182547522Y-107220247D02*
X182071332Y-107315485D01*
X183357046Y-107601200D02*
X183261808Y-107648819D01*
X183261808Y-107648819D02*
X183071332Y-107648819D01*
X183071332Y-107648819D02*
X182976094Y-107601200D01*
X182976094Y-107601200D02*
X182928475Y-107505961D01*
X182928475Y-107505961D02*
X182928475Y-107125009D01*
X182928475Y-107125009D02*
X182976094Y-107029771D01*
X182976094Y-107029771D02*
X183071332Y-106982152D01*
X183071332Y-106982152D02*
X183261808Y-106982152D01*
X183261808Y-106982152D02*
X183357046Y-107029771D01*
X183357046Y-107029771D02*
X183404665Y-107125009D01*
X183404665Y-107125009D02*
X183404665Y-107220247D01*
X183404665Y-107220247D02*
X182928475Y-107315485D01*
X183833237Y-106982152D02*
X183833237Y-107982152D01*
X183833237Y-107029771D02*
X183928475Y-106982152D01*
X183928475Y-106982152D02*
X184118951Y-106982152D01*
X184118951Y-106982152D02*
X184214189Y-107029771D01*
X184214189Y-107029771D02*
X184261808Y-107077390D01*
X184261808Y-107077390D02*
X184309427Y-107172628D01*
X184309427Y-107172628D02*
X184309427Y-107458342D01*
X184309427Y-107458342D02*
X184261808Y-107553580D01*
X184261808Y-107553580D02*
X184214189Y-107601200D01*
X184214189Y-107601200D02*
X184118951Y-107648819D01*
X184118951Y-107648819D02*
X183928475Y-107648819D01*
X183928475Y-107648819D02*
X183833237Y-107601200D01*
X184880856Y-107648819D02*
X184785618Y-107601200D01*
X184785618Y-107601200D02*
X184737999Y-107553580D01*
X184737999Y-107553580D02*
X184690380Y-107458342D01*
X184690380Y-107458342D02*
X184690380Y-107172628D01*
X184690380Y-107172628D02*
X184737999Y-107077390D01*
X184737999Y-107077390D02*
X184785618Y-107029771D01*
X184785618Y-107029771D02*
X184880856Y-106982152D01*
X184880856Y-106982152D02*
X185023713Y-106982152D01*
X185023713Y-106982152D02*
X185118951Y-107029771D01*
X185118951Y-107029771D02*
X185166570Y-107077390D01*
X185166570Y-107077390D02*
X185214189Y-107172628D01*
X185214189Y-107172628D02*
X185214189Y-107458342D01*
X185214189Y-107458342D02*
X185166570Y-107553580D01*
X185166570Y-107553580D02*
X185118951Y-107601200D01*
X185118951Y-107601200D02*
X185023713Y-107648819D01*
X185023713Y-107648819D02*
X184880856Y-107648819D01*
X186071332Y-106982152D02*
X186071332Y-107648819D01*
X185642761Y-106982152D02*
X185642761Y-107505961D01*
X185642761Y-107505961D02*
X185690380Y-107601200D01*
X185690380Y-107601200D02*
X185785618Y-107648819D01*
X185785618Y-107648819D02*
X185928475Y-107648819D01*
X185928475Y-107648819D02*
X186023713Y-107601200D01*
X186023713Y-107601200D02*
X186071332Y-107553580D01*
X186404666Y-106982152D02*
X186785618Y-106982152D01*
X186547523Y-106648819D02*
X186547523Y-107505961D01*
X186547523Y-107505961D02*
X186595142Y-107601200D01*
X186595142Y-107601200D02*
X186690380Y-107648819D01*
X186690380Y-107648819D02*
X186785618Y-107648819D01*
X187071333Y-107601200D02*
X187166571Y-107648819D01*
X187166571Y-107648819D02*
X187357047Y-107648819D01*
X187357047Y-107648819D02*
X187452285Y-107601200D01*
X187452285Y-107601200D02*
X187499904Y-107505961D01*
X187499904Y-107505961D02*
X187499904Y-107458342D01*
X187499904Y-107458342D02*
X187452285Y-107363104D01*
X187452285Y-107363104D02*
X187357047Y-107315485D01*
X187357047Y-107315485D02*
X187214190Y-107315485D01*
X187214190Y-107315485D02*
X187118952Y-107267866D01*
X187118952Y-107267866D02*
X187071333Y-107172628D01*
X187071333Y-107172628D02*
X187071333Y-107125009D01*
X187071333Y-107125009D02*
X187118952Y-107029771D01*
X187118952Y-107029771D02*
X187214190Y-106982152D01*
X187214190Y-106982152D02*
X187357047Y-106982152D01*
X187357047Y-106982152D02*
X187452285Y-107029771D01*
X188642762Y-107601200D02*
X188738000Y-107648819D01*
X188738000Y-107648819D02*
X188928476Y-107648819D01*
X188928476Y-107648819D02*
X189023714Y-107601200D01*
X189023714Y-107601200D02*
X189071333Y-107505961D01*
X189071333Y-107505961D02*
X189071333Y-107458342D01*
X189071333Y-107458342D02*
X189023714Y-107363104D01*
X189023714Y-107363104D02*
X188928476Y-107315485D01*
X188928476Y-107315485D02*
X188785619Y-107315485D01*
X188785619Y-107315485D02*
X188690381Y-107267866D01*
X188690381Y-107267866D02*
X188642762Y-107172628D01*
X188642762Y-107172628D02*
X188642762Y-107125009D01*
X188642762Y-107125009D02*
X188690381Y-107029771D01*
X188690381Y-107029771D02*
X188785619Y-106982152D01*
X188785619Y-106982152D02*
X188928476Y-106982152D01*
X188928476Y-106982152D02*
X189023714Y-107029771D01*
X189499905Y-107648819D02*
X189499905Y-106648819D01*
X189928476Y-107648819D02*
X189928476Y-107125009D01*
X189928476Y-107125009D02*
X189880857Y-107029771D01*
X189880857Y-107029771D02*
X189785619Y-106982152D01*
X189785619Y-106982152D02*
X189642762Y-106982152D01*
X189642762Y-106982152D02*
X189547524Y-107029771D01*
X189547524Y-107029771D02*
X189499905Y-107077390D01*
X190547524Y-107648819D02*
X190452286Y-107601200D01*
X190452286Y-107601200D02*
X190404667Y-107553580D01*
X190404667Y-107553580D02*
X190357048Y-107458342D01*
X190357048Y-107458342D02*
X190357048Y-107172628D01*
X190357048Y-107172628D02*
X190404667Y-107077390D01*
X190404667Y-107077390D02*
X190452286Y-107029771D01*
X190452286Y-107029771D02*
X190547524Y-106982152D01*
X190547524Y-106982152D02*
X190690381Y-106982152D01*
X190690381Y-106982152D02*
X190785619Y-107029771D01*
X190785619Y-107029771D02*
X190833238Y-107077390D01*
X190833238Y-107077390D02*
X190880857Y-107172628D01*
X190880857Y-107172628D02*
X190880857Y-107458342D01*
X190880857Y-107458342D02*
X190833238Y-107553580D01*
X190833238Y-107553580D02*
X190785619Y-107601200D01*
X190785619Y-107601200D02*
X190690381Y-107648819D01*
X190690381Y-107648819D02*
X190547524Y-107648819D01*
X191214191Y-106982152D02*
X191404667Y-107648819D01*
X191404667Y-107648819D02*
X191595143Y-107172628D01*
X191595143Y-107172628D02*
X191785619Y-107648819D01*
X191785619Y-107648819D02*
X191976095Y-106982152D01*
X192357048Y-106982152D02*
X192357048Y-107648819D01*
X192357048Y-107077390D02*
X192404667Y-107029771D01*
X192404667Y-107029771D02*
X192499905Y-106982152D01*
X192499905Y-106982152D02*
X192642762Y-106982152D01*
X192642762Y-106982152D02*
X192738000Y-107029771D01*
X192738000Y-107029771D02*
X192785619Y-107125009D01*
X192785619Y-107125009D02*
X192785619Y-107648819D01*
X194166572Y-107648819D02*
X194071334Y-107601200D01*
X194071334Y-107601200D02*
X194023715Y-107553580D01*
X194023715Y-107553580D02*
X193976096Y-107458342D01*
X193976096Y-107458342D02*
X193976096Y-107172628D01*
X193976096Y-107172628D02*
X194023715Y-107077390D01*
X194023715Y-107077390D02*
X194071334Y-107029771D01*
X194071334Y-107029771D02*
X194166572Y-106982152D01*
X194166572Y-106982152D02*
X194309429Y-106982152D01*
X194309429Y-106982152D02*
X194404667Y-107029771D01*
X194404667Y-107029771D02*
X194452286Y-107077390D01*
X194452286Y-107077390D02*
X194499905Y-107172628D01*
X194499905Y-107172628D02*
X194499905Y-107458342D01*
X194499905Y-107458342D02*
X194452286Y-107553580D01*
X194452286Y-107553580D02*
X194404667Y-107601200D01*
X194404667Y-107601200D02*
X194309429Y-107648819D01*
X194309429Y-107648819D02*
X194166572Y-107648819D01*
X194928477Y-106982152D02*
X194928477Y-107648819D01*
X194928477Y-107077390D02*
X194976096Y-107029771D01*
X194976096Y-107029771D02*
X195071334Y-106982152D01*
X195071334Y-106982152D02*
X195214191Y-106982152D01*
X195214191Y-106982152D02*
X195309429Y-107029771D01*
X195309429Y-107029771D02*
X195357048Y-107125009D01*
X195357048Y-107125009D02*
X195357048Y-107648819D01*
X196595144Y-107648819D02*
X196595144Y-106648819D01*
X196595144Y-106648819D02*
X196833239Y-106648819D01*
X196833239Y-106648819D02*
X196976096Y-106696438D01*
X196976096Y-106696438D02*
X197071334Y-106791676D01*
X197071334Y-106791676D02*
X197118953Y-106886914D01*
X197118953Y-106886914D02*
X197166572Y-107077390D01*
X197166572Y-107077390D02*
X197166572Y-107220247D01*
X197166572Y-107220247D02*
X197118953Y-107410723D01*
X197118953Y-107410723D02*
X197071334Y-107505961D01*
X197071334Y-107505961D02*
X196976096Y-107601200D01*
X196976096Y-107601200D02*
X196833239Y-107648819D01*
X196833239Y-107648819D02*
X196595144Y-107648819D01*
X197499906Y-106982152D02*
X197690382Y-107648819D01*
X197690382Y-107648819D02*
X197880858Y-107172628D01*
X197880858Y-107172628D02*
X198071334Y-107648819D01*
X198071334Y-107648819D02*
X198261810Y-106982152D01*
X199071334Y-106982152D02*
X199071334Y-107791676D01*
X199071334Y-107791676D02*
X199023715Y-107886914D01*
X199023715Y-107886914D02*
X198976096Y-107934533D01*
X198976096Y-107934533D02*
X198880858Y-107982152D01*
X198880858Y-107982152D02*
X198738001Y-107982152D01*
X198738001Y-107982152D02*
X198642763Y-107934533D01*
X199071334Y-107601200D02*
X198976096Y-107648819D01*
X198976096Y-107648819D02*
X198785620Y-107648819D01*
X198785620Y-107648819D02*
X198690382Y-107601200D01*
X198690382Y-107601200D02*
X198642763Y-107553580D01*
X198642763Y-107553580D02*
X198595144Y-107458342D01*
X198595144Y-107458342D02*
X198595144Y-107172628D01*
X198595144Y-107172628D02*
X198642763Y-107077390D01*
X198642763Y-107077390D02*
X198690382Y-107029771D01*
X198690382Y-107029771D02*
X198785620Y-106982152D01*
X198785620Y-106982152D02*
X198976096Y-106982152D01*
X198976096Y-106982152D02*
X199071334Y-107029771D01*
X199499906Y-107601200D02*
X199595144Y-107648819D01*
X199595144Y-107648819D02*
X199785620Y-107648819D01*
X199785620Y-107648819D02*
X199880858Y-107601200D01*
X199880858Y-107601200D02*
X199928477Y-107505961D01*
X199928477Y-107505961D02*
X199928477Y-107458342D01*
X199928477Y-107458342D02*
X199880858Y-107363104D01*
X199880858Y-107363104D02*
X199785620Y-107315485D01*
X199785620Y-107315485D02*
X199642763Y-107315485D01*
X199642763Y-107315485D02*
X199547525Y-107267866D01*
X199547525Y-107267866D02*
X199499906Y-107172628D01*
X199499906Y-107172628D02*
X199499906Y-107125009D01*
X199499906Y-107125009D02*
X199547525Y-107029771D01*
X199547525Y-107029771D02*
X199642763Y-106982152D01*
X199642763Y-106982152D02*
X199785620Y-106982152D01*
X199785620Y-106982152D02*
X199880858Y-107029771D01*
X201261811Y-107648819D02*
X201166573Y-107601200D01*
X201166573Y-107601200D02*
X201118954Y-107505961D01*
X201118954Y-107505961D02*
X201118954Y-106648819D01*
X202071335Y-107648819D02*
X202071335Y-107125009D01*
X202071335Y-107125009D02*
X202023716Y-107029771D01*
X202023716Y-107029771D02*
X201928478Y-106982152D01*
X201928478Y-106982152D02*
X201738002Y-106982152D01*
X201738002Y-106982152D02*
X201642764Y-107029771D01*
X202071335Y-107601200D02*
X201976097Y-107648819D01*
X201976097Y-107648819D02*
X201738002Y-107648819D01*
X201738002Y-107648819D02*
X201642764Y-107601200D01*
X201642764Y-107601200D02*
X201595145Y-107505961D01*
X201595145Y-107505961D02*
X201595145Y-107410723D01*
X201595145Y-107410723D02*
X201642764Y-107315485D01*
X201642764Y-107315485D02*
X201738002Y-107267866D01*
X201738002Y-107267866D02*
X201976097Y-107267866D01*
X201976097Y-107267866D02*
X202071335Y-107220247D01*
X202452288Y-106982152D02*
X202690383Y-107648819D01*
X202928478Y-106982152D02*
X202690383Y-107648819D01*
X202690383Y-107648819D02*
X202595145Y-107886914D01*
X202595145Y-107886914D02*
X202547526Y-107934533D01*
X202547526Y-107934533D02*
X202452288Y-107982152D01*
X203690383Y-107601200D02*
X203595145Y-107648819D01*
X203595145Y-107648819D02*
X203404669Y-107648819D01*
X203404669Y-107648819D02*
X203309431Y-107601200D01*
X203309431Y-107601200D02*
X203261812Y-107505961D01*
X203261812Y-107505961D02*
X203261812Y-107125009D01*
X203261812Y-107125009D02*
X203309431Y-107029771D01*
X203309431Y-107029771D02*
X203404669Y-106982152D01*
X203404669Y-106982152D02*
X203595145Y-106982152D01*
X203595145Y-106982152D02*
X203690383Y-107029771D01*
X203690383Y-107029771D02*
X203738002Y-107125009D01*
X203738002Y-107125009D02*
X203738002Y-107220247D01*
X203738002Y-107220247D02*
X203261812Y-107315485D01*
X204166574Y-107648819D02*
X204166574Y-106982152D01*
X204166574Y-107172628D02*
X204214193Y-107077390D01*
X204214193Y-107077390D02*
X204261812Y-107029771D01*
X204261812Y-107029771D02*
X204357050Y-106982152D01*
X204357050Y-106982152D02*
X204452288Y-106982152D01*
%TO.C,H4*%
X217303002Y-71373998D02*
G75*
G02*
X211703002Y-71373998I-2800000J0D01*
G01*
X211703002Y-71373998D02*
G75*
G02*
X217303002Y-71373998I2800000J0D01*
G01*
%TO.C,H3*%
X97923000Y-71373998D02*
G75*
G02*
X92323000Y-71373998I-2800000J0D01*
G01*
X92323000Y-71373998D02*
G75*
G02*
X97923000Y-71373998I2800000J0D01*
G01*
%TO.C,H1*%
X97923000Y-139954000D02*
G75*
G02*
X92323000Y-139954000I-2800000J0D01*
G01*
X92323000Y-139954000D02*
G75*
G02*
X97923000Y-139954000I2800000J0D01*
G01*
%TO.C,H2*%
X217303002Y-139954000D02*
G75*
G02*
X211703002Y-139954000I-2800000J0D01*
G01*
X211703002Y-139954000D02*
G75*
G02*
X217303002Y-139954000I2800000J0D01*
G01*
%TD*%
M02*
