<?xml version="1.0" encoding="UTF-8"?>
<svg version="1.1" xmlns="http://www.w3.org/2000/svg" width="372" height="369">
<path d="M0 0 C15.94102344 -0.12032643 15.94102344 -0.12032643 22.76367188 -0.14648438 C27.40952908 -0.16438127 32.05520801 -0.18549761 36.70092773 -0.22631836 C40.44864792 -0.25904056 44.19617678 -0.27687994 47.94402885 -0.28463173 C49.37010139 -0.29015227 50.79616407 -0.30093244 52.22215462 -0.31719017 C67.69477831 -0.48649363 67.69477831 -0.48649363 73.828125 4.48046875 C78.5963197 10.20492227 82.75831458 16.31591262 86.9296875 22.48046875 C90.1313559 27.21053542 93.40450921 31.88864677 96.6875 36.5625 C100.6000804 42.13654206 104.50160255 47.7177464 108.37890625 53.31640625 C109.10698486 54.36691162 109.83506348 55.41741699 110.58520508 56.49975586 C112.00730046 58.55278878 113.42776237 60.60695432 114.84643555 62.66235352 C115.81190308 64.05538696 115.81190308 64.05538696 116.796875 65.4765625 C117.36760742 66.30236816 117.93833984 67.12817383 118.52636719 67.97900391 C119.98296751 70.08612966 119.98296751 70.08612966 122 72 C122.41660889 71.34741211 122.83321777 70.69482422 123.26245117 70.02246094 C131.04586658 57.83452676 138.83897805 45.65436206 146.7487793 33.54785156 C149.11670215 29.9192995 151.47490068 26.2845747 153.80078125 22.62890625 C154.20079346 22.00185791 154.60080566 21.37480957 155.01293945 20.72875977 C156.1564088 18.85706202 156.1564088 18.85706202 157 16 C157.66 16 158.32 16 159 16 C160.07525194 13.34771188 161.09456151 10.71631546 162 8 C165 6 165 6 167.48461914 6.11254883 C170.65618051 7.23150696 171.43772954 8.39081113 173.24609375 11.19921875 C174.14110596 12.56119385 174.14110596 12.56119385 175.05419922 13.95068359 C176.01737061 15.46009521 176.01737061 15.46009521 177 17 C178.07210135 18.62387816 179.14425508 20.24772269 180.21818542 21.87039185 C181.77164832 24.22456359 183.31082202 26.58793251 184.85006714 28.95141602 C186.92964555 32.14356809 189.01577278 35.33143561 191.1015625 38.51953125 C191.72468575 39.47220383 191.72468575 39.47220383 192.36039734 40.44412231 C196.19882815 46.30977081 200.05767663 52.16163465 203.9375 58 C204.77776733 59.27000854 204.77776733 59.27000854 205.63500977 60.56567383 C208.27040352 64.52222618 210.94478885 68.34847052 214 72 C215.27525777 70.12800641 216.54500711 68.25225974 217.8125 66.375 C218.52019531 65.33085938 219.22789062 64.28671875 219.95703125 63.2109375 C222.03792477 60.08068361 222.03792477 60.08068361 223.51171875 56.8515625 C225.04977416 53.90463219 226.64469614 52.31224529 229 50 C230.82881918 47.54452753 232.50723119 44.99614722 234.1875 42.4375 C234.86329102 41.42913086 234.86329102 41.42913086 235.55273438 40.40039062 C237.42682463 37.57099199 238.91873278 35.24380166 240 32 C240.66 32 241.32 32 242 32 C242.2678833 31.43845215 242.5357666 30.8769043 242.81176758 30.29833984 C245.10001303 25.8722986 247.95073221 21.7828366 250.6875 17.625 C251.28755859 16.69171875 251.88761719 15.7584375 252.50585938 14.796875 C260.66710024 2.41913912 260.66710024 2.41913912 266.70274353 0.44230652 C269.64445308 -0.12408096 272.42410001 -0.11933314 275.42089844 -0.11352539 C276.72194519 -0.11344986 278.02299194 -0.11337433 279.36346436 -0.11329651 C280.77876829 -0.10819024 282.19407184 -0.10297425 283.609375 -0.09765625 C285.06097363 -0.09579035 286.51257288 -0.09436726 287.96417236 -0.09336853 C291.77819569 -0.08955688 295.59218073 -0.07973815 299.40618896 -0.06866455 C303.98589792 -0.05661928 308.5656197 -0.05204175 313.14533997 -0.04621124 C320.09691991 -0.03652566 327.0484159 -0.01735967 334 0 C334 17.49 334 34.98 334 53 C313.875 53.25 313.875 53.25 307.55419922 53.29785156 C305.88766744 53.32723586 304.22116024 53.35806425 302.5546875 53.390625 C301.70011963 53.39175293 300.84555176 53.39288086 299.96508789 53.39404297 C294.51196203 53.5239925 291.29585112 54.33030444 287 58 C285.40598427 59.78967716 285.40598427 59.78967716 284.28125 61.7734375 C283.83136719 62.50433594 283.38148438 63.23523438 282.91796875 63.98828125 C282.45003906 64.77589844 281.98210937 65.56351562 281.5 66.375 C280.44872402 68.09164052 279.39660644 69.80776586 278.34375 71.5234375 C277.79847656 72.42030273 277.25320313 73.31716797 276.69140625 74.24121094 C273.85564071 78.86652135 270.92366926 83.42995359 268 88 C263.65128512 94.8236802 259.31651101 101.65590634 255 108.5 C250.68348424 115.34410119 246.34721823 122.17536037 242 129 C237.46681542 136.11723115 232.94327718 143.24038167 228.4375 150.375 C227.96119141 151.12910156 227.48488281 151.88320312 226.99414062 152.66015625 C226.54103516 153.37816406 226.08792969 154.09617188 225.62109375 154.8359375 C225.18651855 155.52268555 224.75194336 156.20943359 224.30419922 156.91699219 C223.39845418 158.36360706 222.50508761 159.81801673 221.62158203 161.27832031 C221.18056152 162.00374023 220.73954102 162.72916016 220.28515625 163.4765625 C219.89336182 164.12963379 219.50156738 164.78270508 219.09790039 165.45556641 C218 167 218 167 216 168 C213.125 168.3125 213.125 168.3125 210 168 C207.8125 166.1875 207.8125 166.1875 206 164 C205.51273438 163.54238281 205.02546875 163.08476562 204.5234375 162.61328125 C202.85271161 160.84402537 201.91508716 159.16536972 200.8125 157 C198.34472303 152.44410406 195.45512422 148.37158046 192.37109375 144.21484375 C189.53146641 140.36473946 186.75978261 136.4700689 184 132.5625 C183.48703369 131.83667725 182.97406738 131.11085449 182.44555664 130.36303711 C178.70323508 125.04694794 175.07434299 119.66887627 171.5234375 114.22265625 C169.88275642 111.82894462 168.60899782 110.30449891 166 109 C165.09121094 110.48886719 165.09121094 110.48886719 164.1640625 112.0078125 C159.77258485 119.14928453 155.28685201 126.13824424 150.33251953 132.90771484 C144.65667568 140.73955012 139.39423243 148.86297374 134.06835938 156.93481445 C133.68333252 157.51654922 133.29830566 158.098284 132.90161133 158.69764709 C131.83942336 160.30271925 130.77998301 161.90960871 129.72070312 163.51660156 C128 166 128 166 126 168 C119.8733945 168.68073394 119.8733945 168.68073394 117.140625 166.55078125 C114.0630699 162.88354862 111.62975606 158.88509455 109.125 154.8125 C108.10793696 153.17245334 107.08970996 151.53312793 106.0703125 149.89453125 C105.57047852 149.08838379 105.07064453 148.28223633 104.55566406 147.45166016 C102.48303637 144.18528738 100.30098214 140.99809197 98.09716797 137.8190918 C97 136 97 136 97 134 C96.01 133.67 95.02 133.34 94 133 C93.27577509 131.3575261 92.61835372 129.68518868 92 128 C90.96090948 126.22446833 89.87754472 124.47443232 88.76171875 122.74609375 C87.78851685 121.23208984 87.78851685 121.23208984 86.7956543 119.6875 C86.09996338 118.615 85.40427246 117.5425 84.6875 116.4375 C83.9629571 115.31402156 83.23875854 114.19032097 82.51489258 113.06640625 C80.3492081 109.70706512 78.17524149 106.35316099 76 103 C75.39027344 102.05914551 74.78054687 101.11829102 74.15234375 100.14892578 C71.45295257 95.98531473 68.7485563 91.82501195 66.0390625 87.66796875 C63.51327591 83.7920256 60.99892424 79.90884236 58.48999023 76.02197266 C57.12023881 73.90186826 55.74603095 71.78471231 54.37109375 69.66796875 C52.94680461 67.47342944 51.54508912 65.27079041 50.16015625 63.05078125 C49.65355469 62.25027344 49.14695313 61.44976562 48.625 60.625 C48.22539063 59.97789063 47.82578125 59.33078125 47.4140625 58.6640625 C45.06557276 55.90037015 42.61989833 54.23942475 38.96704102 53.69952393 C36.48933301 53.55733338 34.02466356 53.50630584 31.54296875 53.48828125 C30.74201782 53.47164429 29.94106689 53.45500732 29.11584473 53.43786621 C26.13999361 53.38027818 23.16369815 53.34786689 20.1875 53.3125 C13.525625 53.209375 6.86375 53.10625 0 53 C0 35.51 0 18.02 0 0 Z " fill="#E9AA01" transform="translate(17,33)"/>
<path d="M0 0 C0.69323364 -0.00029205 1.38646729 -0.00058411 2.10070801 -0.00088501 C4.37871066 0.00050182 6.65638107 0.01603212 8.93432617 0.03173828 C10.51901572 0.03547072 12.10370758 0.0383166 13.68840027 0.04031372 C17.84933905 0.04793201 22.01013713 0.0675649 26.17102051 0.08972168 C31.16873009 0.113826 36.16648684 0.12296969 41.16423798 0.1346283 C48.74785467 0.15399044 56.33116293 0.19232542 63.91479492 0.22705078 C63.91479492 17.71705078 63.91479492 35.20705078 63.91479492 53.22705078 C41.10229492 53.66455078 41.10229492 53.66455078 33.90771484 53.79516602 C32.02855688 53.83328745 30.14940592 53.87175646 28.27026367 53.91064453 C26.80345154 53.93535828 26.80345154 53.93535828 25.30700684 53.96057129 C24.3734436 53.98075317 23.43988037 54.00093506 22.47802734 54.02172852 C21.66750412 54.0372728 20.8569809 54.05281708 20.02189636 54.0688324 C16.8106389 54.30995983 15.20010895 54.94173675 12.91479492 57.22705078 C12.16327148 57.88833984 11.41174805 58.54962891 10.63745117 59.23095703 C6.93748812 62.94444828 4.76729163 67.56312243 2.35229492 72.16455078 C1.28348347 74.16205309 0.21446762 76.15944604 -0.85473633 78.15673828 C-1.39437012 79.17219727 -1.93400391 80.18765625 -2.48999023 81.23388672 C-4.90725483 85.76949492 -7.37030763 90.27970448 -9.83520508 94.78955078 C-10.322229 95.68270996 -10.80925293 96.57586914 -11.31103516 97.49609375 C-16.13170935 106.33129383 -20.98954272 115.14602466 -25.86132812 123.953125 C-29.03327547 129.6884608 -32.19910588 135.42670512 -35.33346558 141.18269348 C-36.75896872 143.79974192 -38.18874852 146.41444302 -39.61877441 149.02902222 C-40.29268572 150.26397328 -40.96455848 151.50003948 -41.63415527 152.73733521 C-45.6977036 160.2441503 -50.01201155 167.35712154 -55.08520508 174.22705078 C-57.39520508 173.89705078 -59.70520508 173.56705078 -62.08520508 173.22705078 C-62.31208008 172.57091797 -62.53895508 171.91478516 -62.77270508 171.23876953 C-64.50888242 167.2548626 -66.76326193 163.7049039 -69.08520508 160.03955078 C-69.53637695 159.31574219 -69.98754883 158.59193359 -70.45239258 157.84619141 C-72.97713584 153.81115261 -72.97713584 153.81115261 -76.08520508 150.22705078 C-77.13482362 148.49416255 -78.15041781 146.74057532 -79.14770508 144.97705078 C-84.70606003 135.34180324 -90.82681636 126.08540075 -97.02270508 116.85205078 C-101.84188963 109.67017142 -106.42387704 102.35151889 -110.98168945 95.00195312 C-114.54484007 89.27095644 -118.18649586 83.59092762 -121.88989258 77.94970703 C-122.38561768 77.19165771 -122.88134277 76.4336084 -123.39208984 75.65258789 C-124.37574189 74.14959564 -125.36305703 72.64899266 -126.35449219 71.15112305 C-128.27319383 68.21601705 -129.95490142 65.56467606 -131.22192383 62.28173828 C-131.50680664 61.60369141 -131.79168945 60.92564453 -132.08520508 60.22705078 C-133.07520508 59.89705078 -134.06520508 59.56705078 -135.08520508 59.22705078 C-136.49328687 56.69250356 -137.13274184 54.93259638 -136.93676758 52.02392578 C-135.73662774 48.08218209 -133.55631816 45.0833882 -131.21020508 41.72705078 C-130.31597732 40.42565304 -129.42272636 39.12358351 -128.53051758 37.82080078 C-128.10561035 37.20366211 -127.68070313 36.58652344 -127.24291992 35.95068359 C-126.264656 34.49422149 -125.34726463 32.99715003 -124.44458008 31.49267578 C-123.15668411 29.3461825 -121.76093855 27.43851906 -120.21020508 25.47705078 C-117.99953463 22.58785772 -116.17080842 19.68707187 -114.46020508 16.47705078 C-112.67371998 13.14303719 -110.85795488 10.82650372 -108.08520508 8.22705078 C-106.75715244 6.38387469 -105.48455723 4.51396678 -104.23364258 2.61767578 C-103.66516602 1.92931641 -103.66516602 1.92931641 -103.08520508 1.22705078 C-102.42520508 1.22705078 -101.76520508 1.22705078 -101.08520508 1.22705078 C-99.78441685 2.96741572 -98.57031613 4.77286969 -97.39770508 6.60205078 C-93.76101891 12.24292272 -89.95148155 17.74099926 -86.08520508 23.22705078 C-84.96499544 24.82311167 -83.84519579 26.41946041 -82.72583008 28.01611328 C-82.17266113 28.8048584 -81.61949219 29.59360352 -81.04956055 30.40625 C-75.99318989 37.61996706 -70.9510467 44.84280113 -65.96020508 52.10205078 C-65.52353516 52.7370752 -65.08686523 53.37209961 -64.63696289 54.02636719 C-64.22542969 54.62626465 -63.81389648 55.22616211 -63.38989258 55.84423828 C-63.0015625 56.40981445 -62.61323242 56.97539062 -62.21313477 57.55810547 C-61.4510767 58.68568749 -60.70197109 59.82211593 -59.96508789 60.96630859 C-58.0325795 64.12261692 -58.0325795 64.12261692 -55.08520508 66.22705078 C-54.81337402 65.49639404 -54.54154297 64.7657373 -54.26147461 64.01293945 C-53.131752 61.33729298 -51.84531923 59.08348167 -50.26489258 56.65283203 C-49.72993164 55.82074219 -49.1949707 54.98865234 -48.64379883 54.13134766 C-47.51373126 52.39167288 -46.38352102 50.65209076 -45.25317383 48.91259766 C-44.45459961 47.67026367 -44.45459961 47.67026367 -43.63989258 46.40283203 C-42.90488525 45.27228394 -42.90488525 45.27228394 -42.1550293 44.11889648 C-40.92112554 42.29912824 -40.92112554 42.29912824 -41.08520508 40.22705078 C-40.42520508 40.22705078 -39.76520508 40.22705078 -39.08520508 40.22705078 C-38.80378662 39.64906738 -38.52236816 39.07108398 -38.23242188 38.47558594 C-18.56828144 -0.06596192 -18.56828144 -0.06596192 0 0 Z " fill="#E9AA02" transform="translate(287.085205078125,170.77294921875)"/>
<path d="M0 0 C0 1.32 0 2.64 0 4 C0.66 4 1.32 4 2 4 C1.67 4.99 1.34 5.98 1 7 C0.37005127 6.67854004 -0.25989746 6.35708008 -0.90893555 6.02587891 C-5.11848536 4.62879113 -9.04787796 4.64441048 -13.45703125 4.5859375 C-14.35999435 4.56657135 -15.26295746 4.5472052 -16.19328308 4.5272522 C-19.06626047 4.46765918 -21.93927837 4.42115231 -24.8125 4.375 C-26.76499105 4.33680155 -28.71746559 4.29774873 -30.66992188 4.2578125 C-35.44647984 4.16197431 -40.22311667 4.07786848 -45 4 C-45 3.34 -45 2.68 -45 2 C-43.83952148 1.97494385 -42.67904297 1.9498877 -41.48339844 1.92407227 C-37.17453118 1.82984228 -32.86581927 1.72965965 -28.55712891 1.62768555 C-26.69290808 1.58439567 -24.82864912 1.54271639 -22.96435547 1.50268555 C-20.2834118 1.44483887 -17.602659 1.38118595 -14.921875 1.31640625 C-14.08944275 1.29969376 -13.2570105 1.28298126 -12.39935303 1.26576233 C-11.61884583 1.24581711 -10.83833862 1.22587189 -10.03417969 1.20532227 C-9.35023132 1.18977798 -8.66628296 1.1742337 -7.96160889 1.15821838 C-5.22627552 0.93759335 -2.74456496 0 0 0 Z " fill="#EFAB11" transform="translate(62,82)"/>
<path d="M0 0 C0.33 0 0.66 0 1 0 C1 15.84 1 31.68 1 48 C-0.32 48 -1.64 48 -3 48 C-3 32.49 -3 16.98 -3 1 C-2.67 1 -2.34 1 -2 1 C-1.67 14.53 -1.34 28.06 -1 42 C-0.67 28.14 -0.34 14.28 0 0 Z " fill="#F1A704" transform="translate(350,176)"/>
<path d="M0 0 C2.62846098 2.42095091 3.81388233 4.04614692 4.5 7.5625 C3.81155271 10.91868055 2.77794303 12.00557936 0 14 C-3.75 14.75 -3.75 14.75 -7 15 C-10.53790403 11.30827405 -10.59115883 7.90609405 -11 3 C-7.22777066 0.33724988 -4.62792232 -0.78773146 0 0 Z M-7 2 C-9.1387261 5.20808915 -9.47730962 6.27698497 -9 10 C-7.515 10.99 -7.515 10.99 -6 12 C-6 9.03 -6 6.06 -6 3 C-4.35 3.33 -2.7 3.66 -1 4 C-1.04125 4.94875 -1.0825 5.8975 -1.125 6.875 C-1.34973818 10.10244856 -1.34973818 10.10244856 1 12 C2.38125018 9.23749964 2.19079306 7.05268901 2 4 C0.05541686 1.6278031 0.05541686 1.6278031 -3.5 1.6875 C-4.655 1.790625 -5.81 1.89375 -7 2 Z M-5 4 C-5 4.66 -5 5.32 -5 6 C-4.01 6 -3.02 6 -2 6 C-2 5.34 -2 4.68 -2 4 C-2.99 4 -3.98 4 -5 4 Z M-5 8 C-5.33 9.65 -5.66 11.3 -6 13 C-4.35 13 -2.7 13 -1 13 C-1.66 11.35 -2.32 9.7 -3 8 C-3.66 8 -4.32 8 -5 8 Z " fill="#ECC858" transform="translate(260,330)"/>
<path d="M0 0 C0.66 0 1.32 0 2 0 C2 0.66 2 1.32 2 2 C2.66 2 3.32 2 4 2 C3.4520917 6.2829452 1.97567196 8.85135641 -0.5625 12.3125 C-1.20316406 13.19550781 -1.84382812 14.07851563 -2.50390625 14.98828125 C-3.24447266 15.98408203 -3.24447266 15.98408203 -4 17 C-5.32 16.67 -6.64 16.34 -8 16 C-7.01 14.35 -6.02 12.7 -5 11 C-5.66 11 -6.32 11 -7 11 C-7 10.34 -7 9.68 -7 9 C-6.34 8.67 -5.68 8.34 -5 8 C-4.34 7.01 -3.68 6.02 -3 5 C-3 6.32 -3 7.64 -3 9 C-2.34 9 -1.68 9 -1 9 C-0.67 6.03 -0.34 3.06 0 0 Z " fill="#E6A915" transform="translate(236,328)"/>
<path d="M0 0 C0.66 0 1.32 0 2 0 C1.08335331 6.27971387 -0.01087301 9.74098916 -5 14 C-6.87310888 15.993252 -6.87310888 15.993252 -8 18 C-7.67 18.99 -7.34 19.98 -7 21 C-8.65 20.67 -10.3 20.34 -12 20 C-11.04855402 18.18387512 -10.08863067 16.37218919 -9.125 14.5625 C-8.59132812 13.55316406 -8.05765625 12.54382813 -7.5078125 11.50390625 C-6 9 -6 9 -4 8 C-2.94978897 6.15028304 -2.94978897 6.15028304 -2 4 C-1.33333333 2.66666667 -0.66666667 1.33333333 0 0 Z " fill="#E8B62D" transform="translate(252,203)"/>
<path d="M0 0 C0.63934094 2.37469491 1.11070881 4.69193008 1.5 7.125 C1.8463487 9.93215397 1.8463487 9.93215397 3 12 C3.66 12 4.32 12 5 12 C5.66 15.3 6.32 18.6 7 22 C4 19 4 19 3 16.375 C2.67 15.59125 2.34 14.8075 2 14 C1.01 13.67 0.02 13.34 -1 13 C-2.53653091 10.23424435 -3.05135554 8.53923316 -2.75 5.375 C-2 3 -2 3 0 0 Z " fill="#E6B52B" transform="translate(153,217)"/>
<path d="M0 0 C4.87305969 4.29975855 7.8200442 9.37224317 11 15 C9.68 15.99 8.36 16.98 7 18 C7.33 16.35 7.66 14.7 8 13 C6.35 13 4.7 13 3 13 C2.67 11.35 2.34 9.7 2 8 C1.34 8 0.68 8 0 8 C0 5.33333333 0 2.66666667 0 0 Z " fill="#E6A80F" transform="translate(193,51)"/>
<path d="M0 0 C-1.30066683 3.52238004 -2.83740881 6.51494129 -4.9375 9.625 C-5.44152344 10.38039063 -5.94554687 11.13578125 -6.46484375 11.9140625 C-7.85628903 13.80472861 -9.29074923 15.39789629 -11 17 C-11.33 15.68 -11.66 14.36 -12 13 C-10.68 12.67 -9.36 12.34 -8 12 C-8.04125 10.741875 -8.0825 9.48375 -8.125 8.1875 C-8.2390374 4.70935927 -8.05925681 4.08888522 -6 1 C-3 0 -3 0 0 0 Z " fill="#E7AF18" transform="translate(305,88)"/>
<path d="M0 0 C0.99 0.33 1.98 0.66 3 1 C2.67 4.3 2.34 7.6 2 11 C-0.3125 11.625 -0.3125 11.625 -3 12 C-3.99 11.34 -4.98 10.68 -6 10 C-4.02 6.7 -2.04 3.4 0 0 Z " fill="#E8AC13" transform="translate(173,52)"/>
<path d="M0 0 C3.28225076 1.23084403 3.99820102 2.85486 5.5 5.9375 C4.51 6.4325 4.51 6.4325 3.5 6.9375 C2.84 6.6075 2.18 6.2775 1.5 5.9375 C1.17 6.5975 0.84 7.2575 0.5 7.9375 C0.5 7.2775 0.5 6.6175 0.5 5.9375 C-0.16 5.9375 -0.82 5.9375 -1.5 5.9375 C-1.83 4.9475 -2.16 3.9575 -2.5 2.9375 C-3.16 2.9375 -3.82 2.9375 -4.5 2.9375 C-4.17 4.9175 -3.84 6.8975 -3.5 8.9375 C-4.82 8.2775 -6.14 7.6175 -7.5 6.9375 C-6.06755215 2.75034475 -4.98223123 -0.12455578 0 0 Z " fill="#EBAE1A" transform="translate(184.5,39.0625)"/>
<path d="M0 0 C6.75131015 5.12958552 6.75131015 5.12958552 7.75 8.625 C7.8325 9.40875 7.915 10.1925 8 11 C8.7734375 11.99 8.7734375 11.99 9.5625 13 C11.35152855 15.48908319 11.24978605 17.00256744 11 20 C8.20708836 16.59536656 5.65231453 13.12823536 3.25 9.4375 C2.63640625 8.50808594 2.0228125 7.57867187 1.390625 6.62109375 C0 4 0 4 0 0 Z " fill="#EBAB13" transform="translate(180,268)"/>
<path d="M0 0 C0.05395478 1.62463842 0.09277195 3.24978541 0.125 4.875 C0.14820313 5.77992188 0.17140625 6.68484375 0.1953125 7.6171875 C0 10 0 10 -2 12 C-4 12 -6 12 -8 12 C-7.71125 11.443125 -7.4225 10.88625 -7.125 10.3125 C-5.94831521 7.99356912 -5.94831521 7.99356912 -5.0625 5.4375 C-2.69230769 0 -2.69230769 0 0 0 Z " fill="#ECB025" transform="translate(168,196)"/>
<path d="M0 0 C-1.64178265 4.77609498 -4.26546702 8.79382904 -7 13 C-7.33 12.34 -7.66 11.68 -8 11 C-8.66 10.67 -9.32 10.34 -10 10 C-9.34 10 -8.68 10 -8 10 C-8.04125 9.2575 -8.0825 8.515 -8.125 7.75 C-7.9929145 4.84411892 -7.68406906 3.35769668 -6 1 C-3.86997684 0.20124132 -2.26695035 0 0 0 Z " fill="#E6B323" transform="translate(275,135)"/>
<path d="M0 0 C0.66 1.32 1.32 2.64 2 4 C2.66 4 3.32 4 4 4 C4 3.01 4 2.02 4 1 C4.66 1 5.32 1 6 1 C5.67 2.32 5.34 3.64 5 5 C4.071875 5.12375 4.071875 5.12375 3.125 5.25 C0.81562433 5.81258459 0.81562433 5.81258459 -0.25 8.0625 C-0.4975 8.701875 -0.745 9.34125 -1 10 C-1.99 10 -2.98 10 -4 10 C-4.33 9.01 -4.66 8.02 -5 7 C-4.00390625 5.17578125 -4.00390625 5.17578125 -2.5625 3.3125 C-2.08941406 2.68988281 -1.61632812 2.06726563 -1.12890625 1.42578125 C-0.75636719 0.95527344 -0.38382813 0.48476562 0 0 Z " fill="#E9A90A" transform="translate(145,96)"/>
<path d="M0 0 C-2 2 -2 2 -5.125 2.125 C-6.07375 2.08375 -7.0225 2.0425 -8 2 C-8 2.99 -8 3.98 -8 5 C-9.85625 4.938125 -9.85625 4.938125 -11.75 4.875 C-15.01637962 4.86341709 -17.2146947 5.1431298 -20 7 C-14.77793361 -0.63225088 -8.52958435 -0.30342395 0 0 Z " fill="#E7AE11" transform="translate(296,33)"/>
<path d="M0 0 C2 3 2 3 2 5 C1.34 5 0.68 5 0 5 C0 5.99 0 6.98 0 8 C-0.99 8 -1.98 8 -3 8 C-3.66 9.65 -4.32 11.3 -5 13 C-5.99 13 -6.98 13 -8 13 C-7.71125 12.443125 -7.4225 11.88625 -7.125 11.3125 C-5.94847042 9.00757472 -5.94847042 9.00757472 -5.125 6.5 C-3.85322419 3.67383152 -2.28769434 2.05892491 0 0 Z " fill="#E6B425" transform="translate(246,83)"/>
<path d="M0 0 C0.99 0.66 1.98 1.32 3 2 C1.88321917 3.6721852 0.75633648 5.33762803 -0.375 7 C-1.00148437 7.928125 -1.62796875 8.85625 -2.2734375 9.8125 C-2.84320313 10.534375 -3.41296875 11.25625 -4 12 C-4.66 12 -5.32 12 -6 12 C-5.57811541 10.1838018 -5.13700835 8.37205927 -4.6875 6.5625 C-4.44386719 5.55316406 -4.20023438 4.54382813 -3.94921875 3.50390625 C-3.63597656 2.67761719 -3.32273438 1.85132813 -3 1 C-2.01 0.67 -1.02 0.34 0 0 Z " fill="#F0AC0E" transform="translate(255,162)"/>
<path d="M0 0 C6.51791392 -0.3540919 11.17521449 -0.03901852 17 3 C17 3.99 17 4.98 17 6 C16.67 5.34 16.34 4.68 16 4 C15.05125 4.165 14.1025 4.33 13.125 4.5 C10 5 10 5 8 5 C8 4.01 8 3.02 8 2 C5.36 1.67 2.72 1.34 0 1 C0 0.67 0 0.34 0 0 Z " fill="#EAAD12" transform="translate(72,33)"/>
<path d="M0 0 C0.66 0 1.32 0 2 0 C3.32 2.31 4.64 4.62 6 7 C4.0625 6.6875 4.0625 6.6875 2 6 C1.67 5.01 1.34 4.02 1 3 C1 3.33 1 3.66 1 4 C1 4.99 1 5.98 1 7 C0.34 7 -0.32 7 -1 7 C-1.66 8.32 -2.32 9.64 -3 11 C-4.3968009 6.80959731 -2.86445675 4.87233324 -1 1 C-0.67 0.67 -0.34 0.34 0 0 Z " fill="#E3B01C" transform="translate(184,172)"/>
<path d="M0 0 C2.9156164 3.54039134 5.50127818 7.1626772 8 11 C6.68 11.33 5.36 11.66 4 12 C3.67 11.01 3.34 10.02 3 9 C0.49552484 7.78130071 0.49552484 7.78130071 -2 7 C-2 6.34 -2 5.68 -2 5 C-0.68 5.33 0.64 5.66 2 6 C2 5.34 2 4.68 2 4 C1.34 4 0.68 4 0 4 C0 2.68 0 1.36 0 0 Z " fill="#E7B120" transform="translate(125,87)"/>
<path d="M0 0 C0.66 0.33 1.32 0.66 2 1 C0.74194623 5.50802601 -0.90407165 8.4912812 -4 12 C-4 8.7 -4 5.4 -4 2 C-2.68 1.34 -1.36 0.68 0 0 Z " fill="#E6AE16" transform="translate(287,241)"/>
<path d="M0 0 C0.33 0 0.66 0 1 0 C1.33 3.3 1.66 6.6 2 10 C1.67 9.34 1.34 8.68 1 8 C-2.27773504 8.75150023 -2.27773504 8.75150023 -4 12 C-4.99 11.67 -5.98 11.34 -7 11 C-5.85845641 9.16399255 -4.71165684 7.33125195 -3.5625 5.5 C-2.92441406 4.4790625 -2.28632813 3.458125 -1.62890625 2.40625 C-0.82259766 1.21515625 -0.82259766 1.21515625 0 0 Z " fill="#E6AF18" transform="translate(158,75)"/>
<path d="M0 0 C0.66 0 1.32 0 2 0 C2.33 1.98 2.66 3.96 3 6 C3.66 6 4.32 6 5 6 C4.67 7.98 4.34 9.96 4 12 C2.5 10.625 2.5 10.625 1 9 C1 8.34 1 7.68 1 7 C0.01 6.67 -0.98 6.34 -2 6 C-1.34 4.02 -0.68 2.04 0 0 Z " fill="#E7B120" transform="translate(113,160)"/>
<path d="M0 0 C1.65 0 3.3 0 5 0 C4.38461538 5.53846154 4.38461538 5.53846154 2.4375 7.875 C1.7259375 8.431875 1.7259375 8.431875 1 9 C1 8.34 1 7.68 1 7 C0.34 7 -0.32 7 -1 7 C-0.67 4.69 -0.34 2.38 0 0 Z " fill="#E9AE08" transform="translate(283,112)"/>
<path d="M0 0 C0.33 1.32 0.66 2.64 1 4 C1.33 4 1.66 4 2 4 C2.99 4 3.98 4 5 4 C4 6 4 6 2 7 C2.33 7.66 2.66 8.32 3 9 C0.36 9 -2.28 9 -5 9 C-4.01 6.69 -3.02 4.38 -2 2 C-1.34 2 -0.68 2 0 2 C0 1.34 0 0.68 0 0 Z " fill="#E6B529" transform="translate(259,63)"/>
<path d="M0 0 C1.74834267 2.622514 2.51529754 3.99484478 3 7 C2.67 7.66 2.34 8.32 2 9 C-0.97 8.505 -0.97 8.505 -4 8 C-2.87548273 5.0280615 -1.77706209 2.66559313 0 0 Z " fill="#E7B114" transform="translate(267,180)"/>
<path d="M0 0 C0.66 0.33 1.32 0.66 2 1 C1.67 3.97 1.34 6.94 1 10 C-1.56995074 8.71502463 -1.90434463 7.50087627 -3.125 4.9375 C-3.47820312 4.20402344 -3.83140625 3.47054688 -4.1953125 2.71484375 C-4.46085938 2.14894531 -4.72640625 1.58304687 -5 1 C-2.525 1.495 -2.525 1.495 0 2 C0 1.34 0 0.68 0 0 Z " fill="#E6B42A" transform="translate(212,312)"/>
<path d="M0 0 C2.52588702 2.36292656 3.88820837 3.66462511 5 7 C1.37673261 8.2077558 0.35853631 7.54311128 -3 6 C-2.67 4.68 -2.34 3.36 -2 2 C-1.34 2 -0.68 2 0 2 C0 1.34 0 0.68 0 0 Z " fill="#E8AD18" transform="translate(204,200)"/>
<path d="M0 0 C0.65234375 1.734375 0.65234375 1.734375 1 4 C0.00390625 6.140625 0.00390625 6.140625 -1.4375 8.25 C-1.91058594 8.95640625 -2.38367188 9.6628125 -2.87109375 10.390625 C-3.24363281 10.92171875 -3.61617187 11.4528125 -4 12 C-4.66 11.67 -5.32 11.34 -6 11 C-5.54177532 7.53058454 -5.10868317 4.32604951 -4 1 C-3.67 1.99 -3.34 2.98 -3 4 C-2.34 4 -1.68 4 -1 4 C-0.67 2.68 -0.34 1.36 0 0 Z " fill="#ECB01F" transform="translate(246,177)"/>
<path d="M0 0 C5 0 5 0 7 1 C6.67 2.32 6.34 3.64 6 5 C6.66 5.33 7.32 5.66 8 6 C7.01 6.99 6.02 7.98 5 9 C3.35 6.03 1.7 3.06 0 0 Z " fill="#E9B014" transform="translate(95,138)"/>
<path d="M0 0 C0.66 0 1.32 0 2 0 C2.28875 1.03125 2.5775 2.0625 2.875 3.125 C3.82308798 6.45007997 4.88256594 9.72751453 6 13 C5.34 13 4.68 13 4 13 C2.4921875 10.8125 2.4921875 10.8125 0.875 8 C0.33617187 7.071875 -0.20265625 6.14375 -0.7578125 5.1875 C-1.16773438 4.465625 -1.57765625 3.74375 -2 3 C-1.34 3 -0.68 3 0 3 C0 2.01 0 1.02 0 0 Z " fill="#EBB427" transform="translate(130,187)"/>
<path d="M0 0 C0.66 0 1.32 0 2 0 C2 0.66 2 1.32 2 2 C2.66 2 3.32 2 4 2 C3.125 6.75 3.125 6.75 2 9 C1.34 9 0.68 9 0 9 C-0.84454356 5.62182575 -1.10844919 3.32534757 0 0 Z " fill="#EDB11C" transform="translate(236,328)"/>
<path d="M0 0 C0.33 0.99 0.66 1.98 1 3 C-0.98 3.99 -2.96 4.98 -5 6 C-7 3 -7 3 -8 1 C-5.23735711 0.40267181 -2.83967231 0 0 0 Z " fill="#E8AE15" transform="translate(312,82)"/>
<path d="M0 0 C0.33 0.66 0.66 1.32 1 2 C2.65 2 4.3 2 6 2 C6 2.99 6 3.98 6 5 C4.02 5 2.04 5 0 5 C0 4.34 0 3.68 0 3 C-2.97 3 -5.94 3 -9 3 C-9 2.67 -9 2.34 -9 2 C-6.03 2 -3.06 2 0 2 C0 1.34 0 0.68 0 0 Z " fill="#E3B00C" transform="translate(345,81)"/>
<path d="M0 0 C-0.33 1.98 -0.66 3.96 -1 6 C-0.34 6 0.32 6 1 6 C0.67 6.66 0.34 7.32 0 8 C-0.66 8 -1.32 8 -2 8 C-3.84674887 5.76851178 -5.39205835 3.41191247 -7 1 C-4.50935112 0.31292445 -2.62113708 0 0 0 Z " fill="#E9B21F" transform="translate(190,139)"/>
<path d="M0 0 C0.66 0 1.32 0 2 0 C1.44271087 3.34373475 0.64826111 6.03312999 -1 9 C-1.99 8.67 -2.98 8.34 -4 8 C-2.87548273 5.0280615 -1.77706209 2.66559313 0 0 Z " fill="#EBB320" transform="translate(174,186)"/>
<path d="M0 0 C1.32 0.66 2.64 1.32 4 2 C2.7260411 4.03833424 1.38938077 6.03852126 0 8 C-0.66 8 -1.32 8 -2 8 C-2.20086443 4.28400809 -2.1519437 3.22791555 0 0 Z " fill="#E9B11C" transform="translate(246,313)"/>
<path d="M0 0 C0.99 0 1.98 0 3 0 C3.33 2.31 3.66 4.62 4 7 C4.66 7 5.32 7 6 7 C6 7.66 6 8.32 6 9 C4.68 8.67 3.36 8.34 2 8 C2 6.35 2 4.7 2 3 C1.01 3.33 0.02 3.66 -1 4 C-0.67 2.68 -0.34 1.36 0 0 Z " fill="#EEAC0E" transform="translate(121,84)"/>
<path d="M0 0 C0.33 0.66 0.66 1.32 1 2 C1.66 2 2.32 2 3 2 C3.66 3.98 4.32 5.96 5 8 C1.59679258 6.98823563 0.24274669 6.35156418 -1.8125 3.375 C-2.204375 2.59125 -2.59625 1.8075 -3 1 C-2.01 0.67 -1.02 0.34 0 0 Z " fill="#EAB017" transform="translate(66,88)"/>
<path d="M0 0 C0.33 0.99 0.66 1.98 1 3 C1.99 3.33 2.98 3.66 4 4 C2.25 9.75 2.25 9.75 0 12 C0.020625 11.071875 0.04125 10.14375 0.0625 9.1875 C0.15769604 5.97713989 0.15769604 5.97713989 -1 3 C-0.67 2.01 -0.34 1.02 0 0 Z " fill="#ECB323" transform="translate(290,229)"/>
<path d="M0 0 C0.99 0 1.98 0 3 0 C3.66 3.3 4.32 6.6 5 10 C2 7 2 7 0 4 C0 2.68 0 1.36 0 0 Z " fill="#E5AF1A" transform="translate(155,229)"/>
<path d="M0 0 C1.32 1.32 2.64 2.64 4 4 C3.34 5.32 2.68 6.64 2 8 C-2 3.25 -2 3.25 -2 1 C-1.34 0.67 -0.68 0.34 0 0 Z " fill="#EAB62D" transform="translate(201,160)"/>
<path d="M0 0 C0.66 0 1.32 0 2 0 C2 0.66 2 1.32 2 2 C3.32 2.33 4.64 2.66 6 3 C6.33 4.98 6.66 6.96 7 9 C6.34 9 5.68 9 5 9 C3.35 6.03 1.7 3.06 0 0 Z " fill="#E9B52E" transform="translate(200,302)"/>
<path d="M0 0 C4 2 4 2 7 4 C7.6875 6.625 7.6875 6.625 8 9 C7.01 9.495 7.01 9.495 6 10 C4.02 6.7 2.04 3.4 0 0 Z " fill="#EAB32A" transform="translate(72,103)"/>
<path d="M0 0 C2.66735273 2.48952921 4.55746343 4.63408134 6 8 C4.68 8.99 3.36 9.98 2 11 C2.33 9.35 2.66 7.7 3 6 C2.01 5.67 1.02 5.34 0 5 C0 3.35 0 1.7 0 0 Z " fill="#EAB326" transform="translate(198,58)"/>
<path d="M0 0 C3.16115776 1.36983503 3.9927092 1.9890638 6 5 C6.125 7.6875 6.125 7.6875 6 10 C3.25722422 6.80009492 1.3697164 3.99500618 0 0 Z " fill="#E4B933" transform="translate(185,278)"/>
<path d="M0 0 C0.99 0.33 1.98 0.66 3 1 C3 1.66 3 2.32 3 3 C4.32 3 5.64 3 7 3 C7.66 3.33 8.32 3.66 9 4 C7.68 5.32 6.36 6.64 5 8 C2.525 4.04 2.525 4.04 0 0 Z " fill="#EAB11E" transform="translate(164,246)"/>
<path d="M0 0 C0.66 0 1.32 0 2 0 C2.625 1.8125 2.625 1.8125 3 4 C2.01 5.485 2.01 5.485 1 7 C0.67 7.99 0.34 8.98 0 10 C-1.125 6.6875 -1.125 6.6875 -2 3 C-1.34 2.01 -0.68 1.02 0 0 Z " fill="#EEB21B" transform="translate(237,227)"/>
<path d="M0 0 C0.99 0.33 1.98 0.66 3 1 C2.484375 1.598125 1.96875 2.19625 1.4375 2.8125 C0.7259375 3.8953125 0.7259375 3.8953125 0 5 C0.33 5.99 0.66 6.98 1 8 C-0.65 7.67 -2.3 7.34 -4 7 C-2.68 4.69 -1.36 2.38 0 0 Z " fill="#E9AF1F" transform="translate(244,216)"/>
<path d="M0 0 C0 3.3 0 6.6 0 10 C-0.66 10 -1.32 10 -2 10 C-3.1875 7.25 -3.1875 7.25 -4 4 C-1.78947368 0 -1.78947368 0 0 0 Z " fill="#E2B522" transform="translate(168,196)"/>
<path d="M0 0 C0.33 1.32 0.66 2.64 1 4 C-0.32 4 -1.64 4 -3 4 C-3.66 4.66 -4.32 5.32 -5 6 C-5.66 4.35 -6.32 2.7 -7 1 C-4.57333205 -0.21333397 -2.66500278 0 0 0 Z " fill="#E9B020" transform="translate(86,112)"/>
<path d="M0 0 C3 1 3 1 5 4 C4.67 4.99 4.34 5.98 4 7 C3.34 7 2.68 7 2 7 C0.3125 5.1875 0.3125 5.1875 -1 3 C-0.67 2.01 -0.34 1.02 0 0 Z " fill="#EBAF21" transform="translate(114,73)"/>
<path d="M0 0 C1 3 1 3 0 6 C-0.99 5.67 -1.98 5.34 -3 5 C-3.99 5.33 -4.98 5.66 -6 6 C-5.67 4.68 -5.34 3.36 -5 2 C-3.35 2 -1.7 2 0 2 C0 1.34 0 0.68 0 0 Z " fill="#E4A60D" transform="translate(255,210)"/>
<path d="M0 0 C0.66 0.66 1.32 1.32 2 2 C0.68 4.31 -0.64 6.62 -2 9 C-4 6 -4 6 -3.625 3.8125 C-3.41875 3.214375 -3.2125 2.61625 -3 2 C-2.01 2 -1.02 2 0 2 C0 1.34 0 0.68 0 0 Z " fill="#E9B324" transform="translate(268,277)"/>
<path d="M0 0 C0.33 0.66 0.66 1.32 1 2 C1.66 2 2.32 2 3 2 C3.33 4.31 3.66 6.62 4 9 C3.38125 8.195625 2.7625 7.39125 2.125 6.5625 C0.25835959 3.96125481 0.25835959 3.96125481 -2 3 C-1 1 -1 1 0 0 Z " fill="#E8B938" transform="translate(222,191)"/>
<path d="M0 0 C1.98 0.495 1.98 0.495 4 1 C3.01 1.495 3.01 1.495 2 2 C1.34227572 5.02934491 1.34227572 5.02934491 1 8 C0.34 7.67 -0.32 7.34 -1 7 C-0.67 4.69 -0.34 2.38 0 0 Z " fill="#EEAC1A" transform="translate(90,40)"/>
<path d="M0 0 C0.66 0.66 1.32 1.32 2 2 C0.68 4.31 -0.64 6.62 -2 9 C-2.66 8.01 -3.32 7.02 -4 6 C-2.68 4.02 -1.36 2.04 0 0 Z " fill="#E8B423" transform="translate(260,291)"/>
<path d="M0 0 C2.0625 1.6875 2.0625 1.6875 4 4 C3.75 6.75 3.75 6.75 3 9 C2.34 8.67 1.68 8.34 1 8 C1 6.68 1 5.36 1 4 C0.34 4 -0.32 4 -1 4 C-0.67 2.68 -0.34 1.36 0 0 Z " fill="#E8B01C" transform="translate(226,100)"/>
<path d="M0 0 C1.39195915 4.17587745 -0.17676781 6.13474776 -2 10 C-2.66 10 -3.32 10 -4 10 C-4.33 9.01 -4.66 8.02 -5 7 C-4.00390625 5.17578125 -4.00390625 5.17578125 -2.5625 3.3125 C-2.08941406 2.68988281 -1.61632812 2.06726563 -1.12890625 1.42578125 C-0.75636719 0.95527344 -0.38382813 0.48476562 0 0 Z " fill="#E6B62D" transform="translate(145,96)"/>
<path d="M0 0 C1.5625 1.75 1.5625 1.75 3 4 C2.6875 6.25 2.6875 6.25 2 8 C0.68 6.35 -0.64 4.7 -2 3 C-1.34 2.01 -0.68 1.02 0 0 Z " fill="#EDB218" transform="translate(172,253)"/>
<path d="M0 0 C0.66 2.31 1.32 4.62 2 7 C1.01 7.495 1.01 7.495 0 8 C-1.98 4.535 -1.98 4.535 -4 1 C-2 0 -2 0 0 0 Z " fill="#E8AF1B" transform="translate(127,181)"/>
<path d="M0 0 C0 0.99 0 1.98 0 3 C-0.66 3 -1.32 3 -2 3 C-1.67 4.98 -1.34 6.96 -1 9 C-2.32 8.34 -3.64 7.68 -5 7 C-3.75023244 3.34683329 -3.32901247 2.21934164 0 0 Z " fill="#E6BD32" transform="translate(182,39)"/>
<path d="M0 0 C1.09658936 3.28976808 0.79953138 4.71303767 0 8 C-1.32 7.67 -2.64 7.34 -4 7 C-2.68 4.69 -1.36 2.38 0 0 Z " fill="#EEB02E" transform="translate(270,47)"/>
<path d="M0 0 C2.52588702 2.36292656 3.88820837 3.66462511 5 7 C4.01 7.33 3.02 7.66 2 8 C-0.1519437 4.77208445 -0.20086443 3.71599191 0 0 Z " fill="#E9B427" transform="translate(97,47)"/>
<path d="M0 0 C0.99 0 1.98 0 3 0 C3 0.99 3 1.98 3 3 C3.99 3.33 4.98 3.66 6 4 C6 4.99 6 5.98 6 7 C3 6 3 6 1.3125 2.9375 C0.879375 1.968125 0.44625 0.99875 0 0 Z " fill="#E4C54D" transform="translate(222,337)"/>
<path d="M0 0 C0.33 0.99 0.66 1.98 1 3 C1.99 3.33 2.98 3.66 4 4 C3.34 4 2.68 4 2 4 C2 4.99 2 5.98 2 7 C1.34 7 0.68 7 0 7 C-0.38133299 5.0085944 -0.71325582 3.00720923 -1 1 C-0.67 0.67 -0.34 0.34 0 0 Z " fill="#EEAC1D" transform="translate(198,293)"/>
<path d="M0 0 C0.99 0.66 1.98 1.32 3 2 C1.625 4 1.625 4 0 6 C-0.66 6 -1.32 6 -2 6 C-1.67 4.68 -1.34 3.36 -1 2 C-1.66 1.67 -2.32 1.34 -3 1 C-2.01 0.67 -1.02 0.34 0 0 Z " fill="#E2B62D" transform="translate(255,162)"/>
<path d="M0 0 C0.66 0 1.32 0 2 0 C1.625 2.9375 1.625 2.9375 1 6 C0.01 6.495 0.01 6.495 -1 7 C-1.625 5.1875 -1.625 5.1875 -2 3 C-1.34 2.01 -0.68 1.02 0 0 Z " fill="#E8B020" transform="translate(286,112)"/>
<path d="M0 0 C0.33 1.32 0.66 2.64 1 4 C1.66 4 2.32 4 3 4 C3 4.66 3 5.32 3 6 C1.68 6 0.36 6 -1 6 C-1.33 4.35 -1.66 2.7 -2 1 C-1.34 0.67 -0.68 0.34 0 0 Z " fill="#E2A405" transform="translate(182,41)"/>
<path d="" fill="#D5FFFF" transform="translate(0,0)"/>
<path d="" fill="#D5FFFF" transform="translate(0,0)"/>
<path d="" fill="#D5FFFF" transform="translate(0,0)"/>
<path d="" fill="#D5FFFF" transform="translate(0,0)"/>
<path d="" fill="#D5FFFF" transform="translate(0,0)"/>
</svg>
