<?xml version="1.0" encoding="UTF-8"?>
<svg id="Layer_1" xmlns="http://www.w3.org/2000/svg" version="1.1" viewBox="0 0 792 612">
  <!-- Generator: Adobe Illustrator 29.5.0, SVG Export Plug-In . SVG Version: 2.1.0 Build 137)  -->
  <defs>
    <style>
      .st0 {
        fill: #00447c;
        font-family: MyriadPro-Regular, 'Myriad Pro';
        font-size: 12px;
      }

      .st1 {
        font-family: HelveticaNeueLTStd-Roman, 'HelveticaNeueLTStd Roman';
        font-size: 24px;
        letter-spacing: 0em;
      }

      .st1, .st2, .st3 {
        fill: #002d5b;
      }

      .st4 {
        fill: #eeb111;
      }

      .st3 {
        fill-rule: evenodd;
      }
    </style>
  </defs>
  <g>
    <path class="st2" d="M229.37,254.88c1.43,3.54,1.79,5.02,2.56,5.02.56,0,.92-.26,1.28-1.28l5.74-14.25c.15-.35.36-.35.46-.35.15,0,.25.2.36.46l5.63,13.47c.72,1.64.92,1.95,1.39,1.95.77,0,1.18-.97,1.49-1.69l13.17-31.05c1.69-4.05,2.97-2.67,2.97-3.79,0-.56-.26-.56-.62-.56-1.18,0-2.72.2-4.25.2-1.23,0-2.41-.2-3.59-.2-.35,0-.56.35-.56.77,0,1.02,3.33.66,3.33,2.87,0,.61-.1,1.13-.36,1.69l-9.33,22.96c-.46,1.13-.77,1.9-1.13,1.9-.31,0-.62-.41-1.13-1.59l-4.3-10.61c-.31-.77-.67-1.95-.67-2.46,0-.46.05-.92.46-1.95l3.64-8.4c2.31-5.38,3.54-3.43,3.54-4.87,0-.15-.21-.3-.36-.3-.87,0-1.49.2-3.74.2-1.13,0-2.21-.2-3.33-.2-.31,0-1.02,0-1.02.46,0,1.13,3.02.82,2.97,3.02,0,.51-.26,1.33-.46,1.85l-2.51,5.99c-.31.72-.56,1.28-.72,1.28-.1,0-.26-.36-.66-1.33l-2.67-6.76c-.25-.61-.36-.92-.36-1.54,0-1.69,2.1-1.54,2.1-2.36,0-.31-.1-.61-.31-.61-1.13,0-2.51.2-4.97.2-.72,0-3.44-.2-5.18-.2-.46,0-.77.05-.77.56,0,1.74,3.58-.1,4.97,3.28l5.12,12.35c.26.66.51,1.28.51,1.59s-.2,1.07-.61,2.1l-3.79,9.02c-.2.56-.46.92-.72.92-.31,0-.67-.77-.87-1.33l-9.73-24.08c-.21-.46-.31-.97-.31-1.28,0-1.74,2.2-1.74,2.2-2.51,0-.35-.1-.61-.41-.61-1.23,0-2.46.2-3.69.2-1.48,0-3.02-.2-4.51-.2-.51,0-1.18.2-1.18.82,0,1.02,2.46.36,3.69,3.38l11.22,27.87h0Z"/>
    <path class="st3" d="M259.58,244.53c0-2.82,2.26-6.46,5.43-6.46,2.82,0,5.69,2.57,5.69,5.43,0,.77-.31,1.03-1.02,1.03h-10.1ZM273.21,245.91c1.17,0,1.74.05,1.74-.87,0-2.05-2.77-8.15-9.07-8.15s-10.04,5.48-10.04,12.04c0,3.38,2.66,10.5,10.35,10.5,4.61,0,9.07-3.69,9.07-4.86,0-.15,0-.36-.21-.36-1.13,0-2.82,2.67-7.23,2.67-3.13,0-8.25-2.51-8.25-10.97h13.63Z"/>
    <path class="st2" d="M283.61,249.4c2.05.97,4.66,1.79,4.66,4.51s-2.05,4.2-4.56,4.2c-5.53,0-4.96-6.77-6.09-6.77-.77,0-.62,1.64-.62,2.51,0,4.05,0,4.1,1.13,4.1,1.23,0,2.15,1.49,5.74,1.49,3.79,0,6.92-3.18,6.92-7.02,0-3.28-1.33-4.87-4.25-6.1-5.38-2.15-6.71-3.23-6.71-4.92,0-2.1,1.59-3.28,3.59-3.28,4.66,0,5.12,4.46,5.63,4.46.77,0,.56-.62.56-2,0-.36.05-2.1-.25-2.51-.62-.77-4.15-1.18-5.02-1.18-3.74,0-6.92,2.05-6.92,6.15,0,3.64,3.43,4.97,6.2,6.35h0Z"/>
    <path class="st3" d="M294.25,253.5c0,5.28,3.38,5.94,5.74,5.94,3.59,0,6.35-1.74,6.35-2.51,0-.41-.21-.46-.41-.46-.87,0-1.64,1.18-4.36,1.18-2.05,0-3.48-.97-3.59-3.07v-14.91h6.66l.7-1.87c.15-.25-.44-.23-1.73-.23h-5.64c0-3.69.05-4.77-.67-4.77-.41,0-.83-.29-1.03,1.3-.43,3.41-3.2,4.74-3.23,5.14.27-.27-.95.55,1.19.43v13.84h0Z"/>
    <path class="st2" d="M319.87,256.67c.46,1.08,1.08,3.23,1.89,3.23.77,0,1.13-1.69,1.69-2.97l12.76-30.18c1.44-3.43,2.87-2.15,2.87-3.28,0-.46-.31-.66-.87-.66-.72,0-1.49.2-3.94.2-1.13,0-2.26-.2-3.38-.2-.52,0-.77.15-.77.66,0,1.18,3.28.2,3.28,2.56.21,1.08-.41,2.71-.72,3.48l-8.92,21.98c-.26.62-.41,1.43-.92,1.43-.57,0-.92-1.18-2.05-3.89l-8.97-21.11c-.21-.46-.46-1.28-.46-2,0-1.84,2.15-1.89,2.1-2.61,0-.31-.41-.51-.72-.51-.72,0-2.66.2-4.05.2-1.54,0-3.13-.2-4.71-.2-.46,0-.72.25-.72.71,0,1.13,2.67.15,3.95,3.23l12.65,29.93h0Z"/>
    <path class="st2" d="M378.69,229.46c-.62,0-2.15,2.15-2.15,2.72s1.53,2.67,2.15,2.67c.67,0,2.16-2.05,2.16-2.67s-1.49-2.72-2.16-2.72h0Z"/>
    <path class="st2" d="M413.78,229.19c-.61,0-2.15,2.15-2.15,2.71s1.54,2.67,2.15,2.67c.67,0,2.15-2.05,2.15-2.67s-1.49-2.71-2.15-2.71h0Z"/>
    <path class="st3" d="M432.63,246.63c-11.99,2-12.86,5.23-12.86,7.94,0,3.64,2.2,4.86,5.54,4.86,2.87,0,5.69-1.13,7.84-2.97.67,1.69,2,2.61,4,2.61.72,0,2.97-.21,2.97-1.28,0-.36-.41-.36-.66-.36-.21,0-.67.1-.87.1-2.66,0-2.2-3.02-2.2-4.76v-10.61c0-4.35-4.92-5.28-8.1-5.28-5.69-.15-8.55,3.43-8.61,5.79,0,.92,1.54,1.69,2.41,1.69.98,0,1.13-.41,1.13-.97s-.31-1.34-.31-2.1c0-2.82,2-3.07,4.46-3.07,3.18,0,5.28,1.79,5.28,4.46v3.95h0ZM432.63,253.8c0,2.71-3.49,4.15-5.33,4.15-2.72,0-4.2-1.12-4.2-4.05,0-4.51,6.25-5.33,9.53-6.05v5.94h0Z"/>
    <path class="st3" d="M342.66,257.9c-.44.04-3.79-.02-3.79-2.2v-18.4c0-.51-.31-.82-.61-.82-1.18,0-2.21,1.64-5.49,2.56-.25.05-.46.26-.46.56,0,1.07,2.82-.26,2.82,2.82v12.09c0,4.66-2.26,2.71-2.26,4,.05.51.36.56.77.56.56,0,1.9-.21,3.53-.21,2.1,0,3.69.21,4.76.21.22,0,.42-.01.57,0,.17-.01.17,0,.34,0,.36,0,1.28-.21,4.71-.21,2.87,0,4.1.21,4.82.21.56,0,.82-.11.82-.56,0-1.64-4.56.82-4.56-3.94l.02-11.42c0-.66,4.08-7.84,10.32-7.57,1.85.08,1.54.17,2.76-1.74.52-.82-1.87-.82-2.94-.73-6.89.55-8.43,5.25-10.14,7.72v-.1l-.02-3.43c0-.51-.31-.82-.61-.82-1.18,0-2.2,1.64-6.15,2.56-.26.05-.66.26-.66.56,0,1.07,3.69-.26,3.69,2.82v13.22c0,1.6-1.71,2.35-2.25,2.26h0Z"/>
    <path class="st2" d="M409.69,257.85c-.5,0-3.84.2-3.84-2.92v-8.46c0-3.9-1.49-9.58-8.35-9.58-4.97,0-7.53,4.41-7.43,3.79v-3.38c0-.51-.31-.82-.61-.82-1.18,0-2.21,1.64-6.46,2.56-.25.05-.46.26-.46.56,0,1.07,3.79-.26,3.79,2.82v12.71c0,2.36-1.74,2.68-2.51,2.66-.34-.07-3.48-.08-3.48-2.09v-18.4c0-.51-.31-.82-.61-.82-1.18,0-2.2,1.64-5.48,2.56-.25.05-.89,1.78-.59,1.74,1.68-.19,2.95-1.43,2.95,1.64v12.09c0,4.66-2.26,2.71-2.26,4,.05.51.36.56.77.56.57,0,1.89-.21,3.54-.21,2.1,0,3.69.21,4.76.21.13,0,.36.01.47,0,.08,0,.24,0,.34,0,.61,0,1.64-.21,4.36-.21,2.97,0,4,.21,4.87.21.77,0,1.13-.11,1.13-.72,0-1.38-4.51.1-4.51-3.43v-11.78c-.05-.82,1.74-4,6.05-4s6,3.84,6,6.4v9.58c0,3.33-2.21,2.31-2.21,3.33,0,.51.26.62.92.62s1.74-.21,3.69-.21c2.51,0,3.79.21,4.45.21.25,0,.41,0,.62,0,.17,0,.34,0,.56,0,.56,0,1.89-.21,3.54-.21,2.1,0,3.69.21,4.76.21.67,0,.97-.15.97-.56,0-1.33-4.05-.21-4.05-2.82v-18.4c0-.51-.31-.82-.61-.82-1.18,0-2.2,1.64-5.49,2.56-.26.05-.46.26-.46.56,0,1.07,2.82-.26,2.82,2.82v12.09c0,3.47-1.29,3.25-1.95,3.33h0Z"/>
    <path class="st2" d="M363.6,251.46c-3.6,0-4.88-3.54-4.88-6.57,0-2.72.81-5.96,4.67-5.96,3.6,0,4.88,3.65,4.88,6.78,0,1.73-.46,5.75-4.67,5.75h0ZM376.45,239.06c-.23-.37-.75-.37-.92-.38l-.12.02c-1.58.56-2.95.85-4.07.85-.63,0-1.18-.1-1.53-.28-.43-.22-.78-.44-1.12-.65-1.17-.74-2.18-1.37-5.55-1.37-4.9,0-8.6,3.61-8.6,8.4,0,2.61,1.17,5,3.07,6.35-.76.72-2.46,2.43-2.46,4.2,0,2.24.79,3.83,2.13,4.35,1.15.63,3.37,1,6.81,1.12,5.55.16,6.73.36,6.73,2.06,0,.79-.39,4.73-8.16,4.73-1.96,0-6.52-.37-6.52-3.82,0-1.18.09-1.29.7-2.06.19-.24.23-.55.09-.82-.15-.31-.48-.5-.86-.5-.07,0-.15,0-.27.03-.98.33-2.45.83-2.45,3.26,0,4.57,5.89,5.78,9.01,5.78,8.58,0,11.62-4.22,11.62-7.83,0-4.92-5.32-4.92-8.18-4.92-.39,0-.79,0-1.17.01-.37,0-.73,0-1.09,0-3.55,0-4.89-.62-5.39-1.14-.34-.35-.32-.69-.31-.97,0-1.02,1.09-2.47,2.11-2.47.18,0,.33.04.55.1.48.12,1.21.31,2.99.31,5.13,0,8.85-3.44,8.85-8.19,0-.83-.12-1.74-.39-2.86-.09-.21-.18-.39-.26-.55-.07-.13-.14-.27-.19-.39,1.75-.18,4.75-.89,4.85-1.47.1-.19.28-.56.08-.9h0Z"/>
    <path class="st3" d="M551.75,257.9c-.32.08-.63.79.05,1.12.2.1-.1,0,.05,0,.16-.01.16,0,.34,0,.36,0,1.28-.21,4.71-.21,2.87,0,4.1.21,4.82.21.56,0,.82-.1.82-.56,0-1.64-4.56.82-4.56-3.95l.02-11.42c0-.66,4.08-7.84,10.32-7.57,1.85.08,1.55.17,2.76-1.75.52-.82-1.87-.82-2.95-.73-6.88.55-8.42,5.24-10.14,7.72v-.11l-.02-3.42c0-.51-.31-.82-.61-.82-1.18,0-2.2,1.64-6.15,2.56-.26.05-.67.25-.67.56,0,1.08,3.69-.25,3.69,2.82v13.22c0,1.6-1.94,2.1-2.5,2.31h0Z"/>
    <path class="st3" d="M618.69,240.91c1.03-3.08,2.77-1.79,2.77-2.97,0-.41-.36-.61-.97-.61-.51,0-1.43.2-2.61.2-1.43,0-2.25-.2-2.87-.2-.92,0-1.54.05-1.54.56,0,1.13,3.28.36,3.28,3.13,0,.36,0,.82-.62,2.67-3.46,11.07-3.94,11.58-3.94,11.58l-5.48-13.94.1-.1c.11.46-.36-.31-.36-1.13,0-2.05,2.92-1.02,2.92-2.1,0-.56-.31-.66-1.08-.66-.82,0-2,.2-3.79.2-1.38,0-2.52-.11-3.59-.11-.72,0-.79.07-1.02.52-1.35,2.61,1.9.84,2.4,1.9l6.72,16.55c.46,1.08,1.03,2.2,1.03,3.43,0,4-4.83,12.82-12.62,11.77-.27-.04-.88-.21-1.12.11.22.06-.7-.23.9,2.13.57.46,1.65.69,3.49.29,5.27-1.16,8.85-6.46,8.9-6.61,2.73-4.04,9.12-26.58,9.12-26.58h0Z"/>
    <path class="st2" d="M447.6,226.94c0-3.69,3.43-2.26,3.43-3.69,0-.62-1.38-.52-1.64-.52-1.59,0-3.23.21-4.87.21-1.38,0-2.66-.21-4-.21-.26,0-1.13.16-1.13.52,0,1.64,4.15.41,4.15,3.43v17.27c0,7.89,2.56,15.42,16.04,15.42,14.91,0,14.29-12.65,14.29-15.17v-15.88c0-4.71,3.03-3.59,3.03-5.02,0-.31-.41-.56-.67-.56-.92,0-1.84.21-2.82.21-2,0-4-.21-6-.21-.15,0-.51.26-.51.52,0,1.95,4.77-.21,4.77,5.02v16.61c0,6.04-2.21,12.4-11.84,12.4-6.92,0-12.25-3.74-12.25-11.94v-18.4h0Z"/>
    <path class="st3" d="M535.17,244.46c0-2.82,2.25-6.46,5.43-6.46,2.82,0,5.69,2.56,5.69,5.43,0,.77-.3,1.02-1.02,1.02h-10.09ZM548.8,245.84c1.18,0,1.74.05,1.74-.87,0-2.05-2.77-8.15-9.07-8.15s-10.04,5.48-10.04,12.04c0,3.38,2.66,10.5,10.35,10.5,4.61,0,9.07-3.69,9.07-4.87,0-.15,0-.36-.2-.36-1.13,0-2.82,2.66-7.23,2.66-3.12,0-8.25-2.51-8.25-10.96h13.63Z"/>
    <path class="st2" d="M571.47,249.33c2.05.97,4.66,1.79,4.66,4.51s-2.05,4.2-4.56,4.2c-5.54,0-4.97-6.76-6.1-6.76-.77,0-.61,1.64-.61,2.51,0,4.05,0,4.1,1.12,4.1,1.23,0,2.15,1.49,5.74,1.49,3.79,0,6.92-3.17,6.92-7.02,0-3.28-1.33-4.87-4.25-6.1-5.38-2.15-6.71-3.23-6.71-4.92,0-2.1,1.59-3.28,3.59-3.28,4.66,0,5.12,4.46,5.63,4.46.76,0,.56-.62.56-2,0-.36.05-2.1-.26-2.51-.62-.77-4.15-1.18-5.02-1.18-3.74,0-6.92,2.05-6.92,6.15,0,3.64,3.44,4.97,6.2,6.36h0Z"/>
    <path class="st3" d="M591.8,253.43c0,5.28,3.38,5.94,5.74,5.94,3.59,0,6.35-1.74,6.35-2.51,0-.41-.2-.46-.41-.46-.87,0-1.64,1.18-4.36,1.18-2.05,0-3.49-.97-3.58-3.08v-14.91h6.66l.7-1.87c.16-.25-.44-.23-1.72-.23h-5.63c0-3.69.05-4.76-.67-4.76-.41,0-.84-.29-1.04,1.29-.43,3.41-3.2,4.74-3.23,5.14.27-.27-.95.54,1.19.43v13.83h0Z"/>
    <path class="st2" d="M518.36,242.15c-.6-1.52-.86-2.33-.86-2.48,0-1.51,2.88-.86,2.88-1.87,0-.56-.46-.56-1.16-.56-.61,0-1.26.2-3.13.2-3.34,0-3.34-.2-4.3-.2-1.01,0-1.06.25-1.06.61,0,.91,1.82.15,2.78,2.43l7.63,17.44c.15.36.36,1.21,1.01,1.21.76,0,.76-.61,1.72-2.68l7.73-16.37c.71-1.52,2.53-1.21,2.53-1.87,0-.71-.86-.76-1.36-.76-.86,0-1.77.2-2.63.2-1.11,0-2.07-.2-3.13-.2-.66,0-1.21.05-1.21.65,0,1.26,3.13-.15,3.13,2.68,0,2.27-1.26,4.4-2.22,6.42l-3.39,7.28-4.95-12.13h0Z"/>
    <path class="st2" d="M503.09,259.02c.17.01.24-.01.47-.01.56,0,1.9-.2,3.54-.2,2.1,0,3.69.2,4.76.2.66,0,.97-.15.97-.56,0-1.33-4.05-.2-4.05-2.82v-18.4c0-.51-.31-.82-.61-.82-1.18,0-2.21,1.64-5.48,2.56-.26.05-.46.26-.46.56,0,1.08,2.82-.26,2.82,2.82v12.1c0,3.49-1.32,3.3-1.89,3.33-.18,0-3.89.22-3.89-2.93v-8.45c0-3.89-1.49-9.58-8.35-9.58-4.97,0-7.53,4.41-7.43,3.79v-3.38c0-.51-.31-.82-.62-.82-1.18,0-2.2,1.64-6.46,2.56-.26.05-.46.26-.46.56,0,1.08,3.79-.26,3.79,2.82v12.71c0,3.33-3.03,2.31-3.03,3.33,0,.51.26.62.92.62.62,0,1.64-.2,4.36-.2,2.97,0,4,.2,4.87.2.77,0,1.13-.1,1.13-.72,0-1.39-4.51.1-4.51-3.44v-11.78c-.05-.82,1.74-4,6.04-4s6,3.84,6,6.41v9.58c0,3.33-2.21,2.31-2.21,3.33,0,.51.26.62.92.62s1.74-.2,3.69-.2c2.51,0,3.79.2,4.46.2.22,0,.53.01.71.01h0Z"/>
    <path class="st2" d="M507.24,229.54c-.61,0-2.15,2.15-2.15,2.71s1.54,2.66,2.15,2.66c.66,0,2.15-2.05,2.15-2.66s-1.49-2.71-2.15-2.71h0Z"/>
    <path class="st2" d="M582.57,254.25c0,4.66-2.26,2.71-2.26,3.99.05.51.36.56.77.56.56,0,1.9-.2,3.54-.2,2.1,0,3.69.2,4.76.2.66,0,.98-.15.98-.56,0-1.33-4.05-.2-4.05-2.82v-18.4c0-.51-.31-.82-.62-.82-1.18,0-2.21,1.64-5.48,2.56-.25.05-.46.25-.46.56,0,1.08,2.82-.26,2.82,2.82v12.09h0Z"/>
    <path class="st2" d="M584.61,229.54c-.61,0-2.15,2.15-2.15,2.71s1.54,2.66,2.15,2.66c.67,0,2.15-2.05,2.15-2.66s-1.49-2.71-2.15-2.71h0Z"/>
    <path class="st2" d="M618.75,256.69v-1.25h.83c.43,0,.88.09.88.59,0,.62-.46.66-.98.66h-.73ZM618.75,257.21h.7l1.07,1.75h.69l-1.15-1.78c.59-.08,1.04-.39,1.04-1.11,0-.8-.47-1.15-1.42-1.15h-1.54v4.04h.61v-1.75h0ZM616.63,256.93c0-1.66,1.25-2.91,2.85-2.91s2.83,1.25,2.83,2.91-1.25,2.93-2.83,2.93-2.85-1.24-2.85-2.93h0ZM619.49,260.44c1.91,0,3.54-1.48,3.54-3.51s-1.63-3.49-3.54-3.49-3.56,1.48-3.56,3.49,1.63,3.51,3.56,3.51h0Z"/>
    <path class="st4" d="M208.58,210.2h-13.72c-2.39-.03-3.26.86-3.97,1.96l-10.17,15.07-9.73-14.77-.32-.48s-.27-.43-.73-.45h0c-.47.02-.73.45-.73.45l-.32.48-9.42,14.77-10.49-15.07c-.72-1.1-1.58-1.99-3.97-1.95h-.78s-12.94,0-12.94,0v12.3s7.62,0,7.62,0c1.61-.02,2.35.06,3.45,1.38l.46.67,15.38,24.09s.5.78,1.35.78c.92,0,1.42-.79,1.42-.79l8.97-13.44h0l9.31,13.43s.52.8,1.32.82c.85.02,1.32-.8,1.32-.8l15.18-24.09.45-.67c.79-1.23,1.78-1.36,3.38-1.35h7.63s.06-12.34.06-12.34h0Z"/>
    <path class="st4" d="M189.06,244.67l-8.3,13.16-10.68-15.5-8.23,12.1,17.34,27.21c.6,1.02,1.07,1.18,1.32,1.18.53.02.83-.26,1.4-1.21l13.62-24.84c1.21-2.16,3.23-2.13,3.23-2.13h9.82v-12.29h-15.33c-2.79,0-4.19,2.32-4.19,2.32h0Z"/>
  </g>
  <text class="st1" transform="translate(220.04 300.11)"><tspan x="0" y="0">UNIVERSITY ROVER CHALLENGE</tspan></text>
  <text class="st0" transform="translate(220 291.5)"><tspan x="0" y="0" xml:space="preserve">    </tspan></text>
  <text/>
  <text/>
  <text/>
</svg>