%TF.GenerationSoftware,KiCad,Pcbnew,6.0.1-79c1e3a40b~116~ubuntu20.04.1*%
%TF.CreationDate,2022-01-20T15:32:26-05:00*%
%TF.ProjectId,ManipulatorER_v3,4d616e69-7075-46c6-9174-6f7245525f76,rev?*%
%TF.SameCoordinates,Original*%
%TF.FileFunction,Copper,L1,Top*%
%TF.FilePolarity,Positive*%
%FSLAX46Y46*%
G04 Gerber Fmt 4.6, Leading zero omitted, Abs format (unit mm)*
G04 Created by KiCad (PCBNEW 6.0.1-79c1e3a40b~116~ubuntu20.04.1) date 2022-01-20 15:32:26*
%MOMM*%
%LPD*%
G01*
G04 APERTURE LIST*
G04 Aperture macros list*
%AMRoundRect*
0 Rectangle with rounded corners*
0 $1 Rounding radius*
0 $2 $3 $4 $5 $6 $7 $8 $9 X,Y pos of 4 corners*
0 Add a 4 corners polygon primitive as box body*
4,1,4,$2,$3,$4,$5,$6,$7,$8,$9,$2,$3,0*
0 Add four circle primitives for the rounded corners*
1,1,$1+$1,$2,$3*
1,1,$1+$1,$4,$5*
1,1,$1+$1,$6,$7*
1,1,$1+$1,$8,$9*
0 Add four rect primitives between the rounded corners*
20,1,$1+$1,$2,$3,$4,$5,0*
20,1,$1+$1,$4,$5,$6,$7,0*
20,1,$1+$1,$6,$7,$8,$9,0*
20,1,$1+$1,$8,$9,$2,$3,0*%
G04 Aperture macros list end*
%TA.AperFunction,ComponentPad*%
%ADD10R,1.600000X1.600000*%
%TD*%
%TA.AperFunction,ComponentPad*%
%ADD11C,1.600000*%
%TD*%
%TA.AperFunction,ComponentPad*%
%ADD12C,4.000000*%
%TD*%
%TA.AperFunction,ComponentPad*%
%ADD13O,1.727200X2.032000*%
%TD*%
%TA.AperFunction,ComponentPad*%
%ADD14C,1.727200*%
%TD*%
%TA.AperFunction,ComponentPad*%
%ADD15O,1.727200X1.727200*%
%TD*%
%TA.AperFunction,ComponentPad*%
%ADD16R,1.700000X1.700000*%
%TD*%
%TA.AperFunction,ComponentPad*%
%ADD17O,1.700000X1.700000*%
%TD*%
%TA.AperFunction,ComponentPad*%
%ADD18RoundRect,0.250000X-1.600000X-1.600000X1.600000X-1.600000X1.600000X1.600000X-1.600000X1.600000X0*%
%TD*%
%TA.AperFunction,ComponentPad*%
%ADD19C,3.700000*%
%TD*%
%TA.AperFunction,ComponentPad*%
%ADD20RoundRect,0.250000X1.600000X1.600000X-1.600000X1.600000X-1.600000X-1.600000X1.600000X-1.600000X0*%
%TD*%
%TA.AperFunction,ComponentPad*%
%ADD21C,5.600000*%
%TD*%
%TA.AperFunction,ComponentPad*%
%ADD22RoundRect,0.250000X-0.500000X0.500000X-0.500000X-0.500000X0.500000X-0.500000X0.500000X0.500000X0*%
%TD*%
%TA.AperFunction,ComponentPad*%
%ADD23C,1.500000*%
%TD*%
%TA.AperFunction,ComponentPad*%
%ADD24RoundRect,0.250002X1.599998X-1.599998X1.599998X1.599998X-1.599998X1.599998X-1.599998X-1.599998X0*%
%TD*%
%TA.AperFunction,SMDPad,CuDef*%
%ADD25R,2.717800X1.219200*%
%TD*%
%TA.AperFunction,ComponentPad*%
%ADD26C,1.270000*%
%TD*%
%TA.AperFunction,SMDPad,CuDef*%
%ADD27R,1.799996X1.305598*%
%TD*%
%TA.AperFunction,ViaPad*%
%ADD28C,0.600000*%
%TD*%
%TA.AperFunction,ViaPad*%
%ADD29C,0.800000*%
%TD*%
%TA.AperFunction,Conductor*%
%ADD30C,0.400000*%
%TD*%
%TA.AperFunction,Conductor*%
%ADD31C,0.250000*%
%TD*%
%TA.AperFunction,Conductor*%
%ADD32C,2.200000*%
%TD*%
%TA.AperFunction,Conductor*%
%ADD33C,1.000000*%
%TD*%
%TA.AperFunction,Conductor*%
%ADD34C,0.800000*%
%TD*%
%TA.AperFunction,Conductor*%
%ADD35C,2.000000*%
%TD*%
G04 APERTURE END LIST*
D10*
%TO.P,J1,1,1*%
%TO.N,GND*%
X225233669Y-71625000D03*
D11*
%TO.P,J1,2,2*%
X225233669Y-74395000D03*
%TO.P,J1,3,3*%
X225233669Y-77165000D03*
%TO.P,J1,4,4*%
%TO.N,A12*%
X225233669Y-79935000D03*
%TO.P,J1,5,5*%
%TO.N,A14*%
X225233669Y-82705000D03*
%TO.P,J1,6,6*%
%TO.N,+5V*%
X225233669Y-85475000D03*
%TO.P,J1,7,7*%
X225233669Y-88245000D03*
%TO.P,J1,8,8*%
X225233669Y-91015000D03*
%TO.P,J1,9,P9*%
%TO.N,GND*%
X228073669Y-73010000D03*
%TO.P,J1,10,P10*%
X228073669Y-75780000D03*
%TO.P,J1,11,P111*%
%TO.N,A11*%
X228073669Y-78550000D03*
%TO.P,J1,12,P12*%
%TO.N,A13*%
X228073669Y-81320000D03*
%TO.P,J1,13,P13*%
%TO.N,A15*%
X228073669Y-84090000D03*
%TO.P,J1,14,P14*%
%TO.N,+5V*%
X228073669Y-86860000D03*
%TO.P,J1,15,P15*%
X228073669Y-89630000D03*
D12*
%TO.P,J1,0,PAD*%
%TO.N,GND*%
X226653669Y-97970000D03*
X226653669Y-64670000D03*
%TD*%
D13*
%TO.P,P6,1,Pin_1*%
%TO.N,/7(\u002A\u002A)*%
X162560000Y-48514000D03*
%TO.P,P6,2,Pin_2*%
%TO.N,/6(\u002A\u002A)*%
X165100000Y-48514000D03*
%TO.P,P6,3,Pin_3*%
%TO.N,/5(\u002A\u002A)*%
X167640000Y-48514000D03*
%TO.P,P6,4,Pin_4*%
%TO.N,/4(\u002A\u002A)*%
X170180000Y-48514000D03*
%TO.P,P6,5,Pin_5*%
%TO.N,/3(\u002A\u002A)*%
X172720000Y-48514000D03*
%TO.P,P6,6,Pin_6*%
%TO.N,/2(\u002A\u002A)*%
X175260000Y-48514000D03*
%TO.P,P6,7,Pin_7*%
%TO.N,/1(Tx0)*%
X177800000Y-48514000D03*
%TO.P,P6,8,Pin_8*%
%TO.N,/0(Rx0)*%
X180340000Y-48514000D03*
%TD*%
%TO.P,P7,1,Pin_1*%
%TO.N,14(Tx3)*%
X185420000Y-48514000D03*
%TO.P,P7,2,Pin_2*%
%TO.N,15(Rx3)*%
X187960000Y-48514000D03*
%TO.P,P7,3,Pin_3*%
%TO.N,/16(Tx2)*%
X190500000Y-48514000D03*
%TO.P,P7,4,Pin_4*%
%TO.N,/17(Rx2)*%
X193040000Y-48514000D03*
%TO.P,P7,5,Pin_5*%
%TO.N,/18(Tx1)*%
X195580000Y-48514000D03*
%TO.P,P7,6,Pin_6*%
%TO.N,/19(Rx1)*%
X198120000Y-48514000D03*
%TO.P,P7,7,Pin_7*%
%TO.N,/20(SDA)*%
X200660000Y-48514000D03*
%TO.P,P7,8,Pin_8*%
%TO.N,/21(SCL)*%
X203200000Y-48514000D03*
%TD*%
%TO.P,P2,1,Pin_1*%
%TO.N,unconnected-(P2-Pad1)*%
X144780000Y-96774000D03*
%TO.P,P2,2,Pin_2*%
%TO.N,/IOREF*%
X147320000Y-96774000D03*
%TO.P,P2,3,Pin_3*%
%TO.N,/Reset*%
X149860000Y-96774000D03*
%TO.P,P2,4,Pin_4*%
%TO.N,unconnected-(P2-Pad4)*%
X152400000Y-96774000D03*
%TO.P,P2,5,Pin_5*%
%TO.N,unconnected-(P2-Pad5)*%
X154940000Y-96774000D03*
%TO.P,P2,6,Pin_6*%
%TO.N,GND*%
X157480000Y-96774000D03*
%TO.P,P2,7,Pin_7*%
X160020000Y-96774000D03*
%TO.P,P2,8,Pin_8*%
%TO.N,/Vin*%
X162560000Y-96774000D03*
%TD*%
%TO.P,P4,1,Pin_1*%
%TO.N,/A8*%
X190500000Y-96774000D03*
%TO.P,P4,2,Pin_2*%
%TO.N,/A9*%
X193040000Y-96774000D03*
%TO.P,P4,3,Pin_3*%
%TO.N,/A10*%
X195580000Y-96774000D03*
%TO.P,P4,4,Pin_4*%
%TO.N,A11*%
X198120000Y-96774000D03*
%TO.P,P4,5,Pin_5*%
%TO.N,A12*%
X200660000Y-96774000D03*
%TO.P,P4,6,Pin_6*%
%TO.N,A13*%
X203200000Y-96774000D03*
%TO.P,P4,7,Pin_7*%
%TO.N,A14*%
X205740000Y-96774000D03*
%TO.P,P4,8,Pin_8*%
%TO.N,A15*%
X208280000Y-96774000D03*
%TD*%
%TO.P,P5,1,Pin_1*%
%TO.N,/SCL*%
X135636000Y-48514000D03*
%TO.P,P5,2,Pin_2*%
%TO.N,/SDA*%
X138176000Y-48514000D03*
%TO.P,P5,3,Pin_3*%
%TO.N,/AREF*%
X140716000Y-48514000D03*
%TO.P,P5,4,Pin_4*%
%TO.N,GND*%
X143256000Y-48514000D03*
%TO.P,P5,5,Pin_5*%
%TO.N,/13(\u002A\u002A)*%
X145796000Y-48514000D03*
%TO.P,P5,6,Pin_6*%
%TO.N,/12(\u002A\u002A)*%
X148336000Y-48514000D03*
%TO.P,P5,7,Pin_7*%
%TO.N,/11(\u002A\u002A)*%
X150876000Y-48514000D03*
%TO.P,P5,8,Pin_8*%
%TO.N,/10(\u002A\u002A)*%
X153416000Y-48514000D03*
%TO.P,P5,9,Pin_9*%
%TO.N,/9(\u002A\u002A)*%
X155956000Y-48514000D03*
%TO.P,P5,10,Pin_10*%
%TO.N,/8(\u002A\u002A)*%
X158496000Y-48514000D03*
%TD*%
%TO.P,P3,1,Pin_1*%
%TO.N,/A0*%
X167640000Y-96774000D03*
%TO.P,P3,2,Pin_2*%
%TO.N,/A1*%
X170180000Y-96774000D03*
%TO.P,P3,3,Pin_3*%
%TO.N,/A2*%
X172720000Y-96774000D03*
%TO.P,P3,4,Pin_4*%
%TO.N,/A3*%
X175260000Y-96774000D03*
%TO.P,P3,5,Pin_5*%
%TO.N,/A4*%
X177800000Y-96774000D03*
%TO.P,P3,6,Pin_6*%
%TO.N,/A5*%
X180340000Y-96774000D03*
%TO.P,P3,7,Pin_7*%
%TO.N,/A6*%
X182880000Y-96774000D03*
%TO.P,P3,8,Pin_8*%
%TO.N,/A7*%
X185420000Y-96774000D03*
%TD*%
D14*
%TO.P,P1,1,Pin_1*%
%TO.N,GND*%
X210820000Y-91694000D03*
D15*
%TO.P,P1,2,Pin_2*%
X213360000Y-91694000D03*
%TO.P,P1,3,Pin_3*%
%TO.N,/52(SCK)*%
X210820000Y-89154000D03*
%TO.P,P1,4,Pin_4*%
%TO.N,/53(SS)*%
X213360000Y-89154000D03*
%TO.P,P1,5,Pin_5*%
%TO.N,/50(MISO)*%
X210820000Y-86614000D03*
%TO.P,P1,6,Pin_6*%
%TO.N,/51(MOSI)*%
X213360000Y-86614000D03*
%TO.P,P1,7,Pin_7*%
%TO.N,/48*%
X210820000Y-84074000D03*
%TO.P,P1,8,Pin_8*%
%TO.N,/49*%
X213360000Y-84074000D03*
%TO.P,P1,9,Pin_9*%
%TO.N,/46*%
X210820000Y-81534000D03*
%TO.P,P1,10,Pin_10*%
%TO.N,/47*%
X213360000Y-81534000D03*
%TO.P,P1,11,Pin_11*%
%TO.N,/44*%
X210820000Y-78994000D03*
%TO.P,P1,12,Pin_12*%
%TO.N,/45*%
X213360000Y-78994000D03*
%TO.P,P1,13,Pin_13*%
%TO.N,/42*%
X210820000Y-76454000D03*
%TO.P,P1,14,Pin_14*%
%TO.N,/43*%
X213360000Y-76454000D03*
%TO.P,P1,15,Pin_15*%
%TO.N,/40*%
X210820000Y-73914000D03*
%TO.P,P1,16,Pin_16*%
%TO.N,/41*%
X213360000Y-73914000D03*
%TO.P,P1,17,Pin_17*%
%TO.N,/38*%
X210820000Y-71374000D03*
%TO.P,P1,18,Pin_18*%
%TO.N,/39*%
X213360000Y-71374000D03*
%TO.P,P1,19,Pin_19*%
%TO.N,/36*%
X210820000Y-68834000D03*
%TO.P,P1,20,Pin_20*%
%TO.N,/37*%
X213360000Y-68834000D03*
%TO.P,P1,21,Pin_21*%
%TO.N,/34*%
X210820000Y-66294000D03*
%TO.P,P1,22,Pin_22*%
%TO.N,/35*%
X213360000Y-66294000D03*
%TO.P,P1,23,Pin_23*%
%TO.N,/32*%
X210820000Y-63754000D03*
%TO.P,P1,24,Pin_24*%
%TO.N,/33*%
X213360000Y-63754000D03*
%TO.P,P1,25,Pin_25*%
%TO.N,/30*%
X210820000Y-61214000D03*
%TO.P,P1,26,Pin_26*%
%TO.N,/31*%
X213360000Y-61214000D03*
%TO.P,P1,27,Pin_27*%
%TO.N,/28*%
X210820000Y-58674000D03*
%TO.P,P1,28,Pin_28*%
%TO.N,29*%
X213360000Y-58674000D03*
%TO.P,P1,29,Pin_29*%
%TO.N,/26*%
X210820000Y-56134000D03*
%TO.P,P1,30,Pin_30*%
%TO.N,27*%
X213360000Y-56134000D03*
%TO.P,P1,31,Pin_31*%
%TO.N,/24*%
X210820000Y-53594000D03*
%TO.P,P1,32,Pin_32*%
%TO.N,/25*%
X213360000Y-53594000D03*
%TO.P,P1,33,Pin_33*%
%TO.N,/22*%
X210820000Y-51054000D03*
%TO.P,P1,34,Pin_34*%
%TO.N,/23*%
X213360000Y-51054000D03*
%TO.P,P1,35,Pin_35*%
%TO.N,unconnected-(P1-Pad35)*%
X210820000Y-48514000D03*
%TO.P,P1,36,Pin_36*%
X213360000Y-48514000D03*
%TD*%
D16*
%TO.P,J3,1,Pin_1*%
%TO.N,14(Tx3)*%
X133248000Y-111897000D03*
D17*
%TO.P,J3,2,Pin_2*%
%TO.N,15(Rx3)*%
X133248000Y-114437000D03*
%TO.P,J3,3,Pin_3*%
%TO.N,GND*%
X133248000Y-116977000D03*
%TO.P,J3,4,Pin_4*%
%TO.N,+5V*%
X133248000Y-119517000D03*
%TD*%
D18*
%TO.P,J4,1,Pin_1*%
%TO.N,GND*%
X201295000Y-77194000D03*
D19*
%TO.P,J4,2,Pin_2*%
%TO.N,/12V*%
X201295000Y-82894000D03*
%TD*%
D20*
%TO.P,J5,1,Pin_1*%
%TO.N,GND*%
X124587000Y-105834000D03*
D19*
%TO.P,J5,2,Pin_2*%
%TO.N,40V*%
X124587000Y-100334000D03*
%TD*%
D21*
%TO.P,H1,1,1*%
%TO.N,GND*%
X107315000Y-50419000D03*
%TD*%
%TO.P,H2,1,1*%
%TO.N,GND*%
X231775000Y-50419000D03*
%TD*%
%TO.P,H3,1,1*%
%TO.N,GND*%
X107315000Y-117729000D03*
%TD*%
%TO.P,H4,1,1*%
%TO.N,GND*%
X231775000Y-117729000D03*
%TD*%
D22*
%TO.P,J6,1,Pin_1*%
%TO.N,GND*%
X226650000Y-106704000D03*
D23*
%TO.P,J6,2,Pin_2*%
%TO.N,3V3*%
X226650000Y-109704000D03*
%TO.P,J6,3,Pin_3*%
%TO.N,27*%
X223650000Y-106704000D03*
%TO.P,J6,4,Pin_4*%
%TO.N,29*%
X223650000Y-109704000D03*
%TD*%
D24*
%TO.P,J1001,1,Pin_1*%
%TO.N,GND*%
X119210000Y-88829000D03*
D19*
%TO.P,J1001,2,Pin_2*%
X119210000Y-83129000D03*
%TO.P,J1001,3,Pin_3*%
%TO.N,40V*%
X124710000Y-88829000D03*
%TO.P,J1001,4,Pin_4*%
%TO.N,/12V*%
X124710000Y-83129000D03*
%TD*%
D25*
%TO.P,C2,1*%
%TO.N,40V*%
X146875500Y-112903000D03*
%TO.P,C2,2*%
%TO.N,GND*%
X151066500Y-112903000D03*
%TD*%
D26*
%TO.P,U2,1,Vin*%
%TO.N,40V*%
X149098000Y-107264000D03*
%TO.P,U2,2,Gnd*%
%TO.N,GND*%
X151638000Y-107264000D03*
%TO.P,U2,3,Vout*%
%TO.N,3V3*%
X154178000Y-107264000D03*
%TD*%
%TO.P,U1,1,Vin*%
%TO.N,40V*%
X168148000Y-107264000D03*
%TO.P,U1,2,Gnd*%
%TO.N,GND*%
X170688000Y-107264000D03*
%TO.P,U1,3,Vout*%
%TO.N,+5V*%
X173228000Y-107264000D03*
%TD*%
D25*
%TO.P,C3,1*%
%TO.N,40V*%
X166052500Y-112903000D03*
%TO.P,C3,2*%
%TO.N,GND*%
X170243500Y-112903000D03*
%TD*%
D27*
%TO.P,C1,1*%
%TO.N,GND*%
X194310000Y-77984902D03*
%TO.P,C1,2*%
%TO.N,/12V*%
X194310000Y-80790498D03*
%TD*%
D28*
%TO.N,14(Tx3)*%
X139827000Y-80010000D03*
X139827000Y-110617000D03*
%TO.N,15(Rx3)*%
X142367000Y-110617000D03*
X142367000Y-80645000D03*
%TO.N,29*%
X217170000Y-104394000D03*
X217170000Y-79756000D03*
%TO.N,27*%
X218694000Y-103378000D03*
D29*
X218694000Y-78740000D03*
D28*
%TO.N,A13*%
X220980000Y-87249000D03*
X220980000Y-91059000D03*
%TO.N,A11*%
X215900000Y-91186000D03*
X213614000Y-99568000D03*
%TD*%
D30*
%TO.N,A11*%
X215900000Y-91186000D02*
X218948000Y-88138000D01*
X218948000Y-88138000D02*
X218948000Y-81534000D01*
X218948000Y-81534000D02*
X221996000Y-78486000D01*
X221996000Y-78486000D02*
X228009669Y-78486000D01*
X228009669Y-78486000D02*
X228073669Y-78550000D01*
%TO.N,29*%
X217170000Y-79756000D02*
X217170000Y-60452000D01*
X217170000Y-60452000D02*
X215392000Y-58674000D01*
X215392000Y-58674000D02*
X213360000Y-58674000D01*
%TO.N,27*%
X218694000Y-78740000D02*
X218694000Y-60246686D01*
X218694000Y-60246686D02*
X214581314Y-56134000D01*
X214581314Y-56134000D02*
X213360000Y-56134000D01*
%TO.N,A12*%
X200660000Y-96774000D02*
X203454000Y-93980000D01*
X203454000Y-93980000D02*
X214376000Y-93980000D01*
X214376000Y-93980000D02*
X219964000Y-88392000D01*
X219964000Y-88392000D02*
X219964000Y-81788000D01*
X219964000Y-81788000D02*
X221817000Y-79935000D01*
X221817000Y-79935000D02*
X225233669Y-79935000D01*
%TO.N,A13*%
X220980000Y-87249000D02*
X220980000Y-83312000D01*
X220980000Y-83312000D02*
X222972000Y-81320000D01*
X222972000Y-81320000D02*
X228073669Y-81320000D01*
%TO.N,A14*%
X205740000Y-96774000D02*
X207645000Y-94869000D01*
X207645000Y-94869000D02*
X214630000Y-94869000D01*
X214630000Y-94869000D02*
X221996000Y-87503000D01*
X221996000Y-87503000D02*
X221996000Y-84328000D01*
X221996000Y-84328000D02*
X223619000Y-82705000D01*
X223619000Y-82705000D02*
X225233669Y-82705000D01*
%TO.N,A15*%
X223012000Y-87757000D02*
X223012000Y-85344000D01*
X213995000Y-96774000D02*
X223012000Y-87757000D01*
X223012000Y-85344000D02*
X224266000Y-84090000D01*
X224266000Y-84090000D02*
X228073669Y-84090000D01*
D31*
%TO.N,A13*%
X228073669Y-81455300D02*
X228073669Y-81320000D01*
D32*
%TO.N,+5V*%
X210460000Y-107264000D02*
X210744000Y-107264000D01*
X225233669Y-92774331D02*
X225233669Y-91015000D01*
X210744000Y-107264000D02*
X225233669Y-92774331D01*
D33*
%TO.N,GND*%
X194310000Y-78048402D02*
X200440598Y-78048402D01*
D34*
X170688000Y-107264000D02*
X170688000Y-112458500D01*
X151638000Y-112331500D02*
X151066500Y-112903000D01*
X151638000Y-107264000D02*
X151638000Y-112331500D01*
D31*
X200440598Y-78048402D02*
X201295000Y-77194000D01*
D34*
X170688000Y-112458500D02*
X170243500Y-112903000D01*
D32*
%TO.N,+5V*%
X210475000Y-107279000D02*
X210460000Y-107264000D01*
X210460000Y-107264000D02*
X173228000Y-107264000D01*
D30*
%TO.N,A15*%
X208280000Y-96774000D02*
X213995000Y-96774000D01*
%TO.N,14(Tx3)*%
X139827000Y-110617000D02*
X138547000Y-111897000D01*
X138547000Y-111897000D02*
X133248000Y-111897000D01*
X174371000Y-60833000D02*
X159004000Y-60833000D01*
X185420000Y-48514000D02*
X185420000Y-49784000D01*
X185420000Y-49784000D02*
X174371000Y-60833000D01*
X159004000Y-60833000D02*
X139827000Y-80010000D01*
%TO.N,15(Rx3)*%
X142367000Y-110617000D02*
X138547000Y-114437000D01*
X187960000Y-50038000D02*
X187960000Y-48514000D01*
X187960000Y-50038000D02*
X187960000Y-50800000D01*
D31*
X188666652Y-48514000D02*
X187960000Y-48514000D01*
D30*
X138547000Y-114437000D02*
X133248000Y-114437000D01*
X175387000Y-63373000D02*
X159639000Y-63373000D01*
X187960000Y-50800000D02*
X175387000Y-63373000D01*
X159639000Y-63373000D02*
X142367000Y-80645000D01*
%TO.N,29*%
X223650000Y-109704000D02*
X221718000Y-109704000D01*
X217170000Y-105156000D02*
X217170000Y-104394000D01*
X221718000Y-109704000D02*
X217170000Y-105156000D01*
%TO.N,27*%
X218694000Y-104394000D02*
X221004000Y-106704000D01*
X221004000Y-106704000D02*
X223650000Y-106704000D01*
X218694000Y-104394000D02*
X218694000Y-103378000D01*
D35*
%TO.N,/12V*%
X124710000Y-83129000D02*
X191394200Y-83129000D01*
D31*
X201060000Y-83129000D02*
X201295000Y-82894000D01*
D35*
X191394200Y-83129000D02*
X194279400Y-83129000D01*
D33*
X194279400Y-83129000D02*
X194279400Y-80821098D01*
D35*
X194279400Y-83129000D02*
X201060000Y-83129000D01*
%TO.N,3V3*%
X226650000Y-111170000D02*
X226650000Y-109704000D01*
X154178000Y-107264000D02*
X154178000Y-111252000D01*
X154178000Y-111252000D02*
X162179000Y-119253000D01*
X218567000Y-119253000D02*
X226650000Y-111170000D01*
X162179000Y-119253000D02*
X218567000Y-119253000D01*
D30*
%TO.N,A13*%
X203200000Y-96774000D02*
X205105000Y-98679000D01*
X205105000Y-98679000D02*
X213360000Y-98679000D01*
X213360000Y-98679000D02*
X220980000Y-91059000D01*
D31*
%TO.N,A11*%
X200914000Y-99568000D02*
X213614000Y-99568000D01*
X198120000Y-96774000D02*
X200914000Y-99568000D01*
D34*
%TO.N,40V*%
X166052500Y-109359500D02*
X168148000Y-107264000D01*
X146875500Y-112903000D02*
X146875500Y-109486500D01*
X166052500Y-112903000D02*
X166052500Y-109359500D01*
X146875500Y-109486500D02*
X149098000Y-107264000D01*
D31*
%TO.N,unconnected-(P1-Pad35)*%
X213360000Y-48514000D02*
X213360000Y-48631002D01*
%TO.N,unconnected-(P2-Pad4)*%
X152400000Y-96774000D02*
X152400000Y-96520000D01*
X152400000Y-96774000D02*
X153106652Y-96774000D01*
%TD*%
%TA.AperFunction,Conductor*%
%TO.N,40V*%
G36*
X131750526Y-86233198D02*
G01*
X132075832Y-86251466D01*
X132089864Y-86253047D01*
X132248728Y-86280040D01*
X132407587Y-86307031D01*
X132421362Y-86310175D01*
X132517228Y-86337793D01*
X132731047Y-86399394D01*
X132744368Y-86404055D01*
X133042118Y-86527387D01*
X133054841Y-86533514D01*
X133271131Y-86653053D01*
X133336906Y-86689406D01*
X133348870Y-86696924D01*
X133611694Y-86883409D01*
X133622740Y-86892218D01*
X133863043Y-87106965D01*
X133873035Y-87116957D01*
X134087782Y-87357260D01*
X134096591Y-87368306D01*
X134283076Y-87631130D01*
X134290594Y-87643094D01*
X134446484Y-87925155D01*
X134452613Y-87937882D01*
X134575945Y-88235632D01*
X134580606Y-88248953D01*
X134620576Y-88387691D01*
X134669825Y-88558638D01*
X134672969Y-88572413D01*
X134726952Y-88890131D01*
X134728534Y-88904172D01*
X134746802Y-89229474D01*
X134747000Y-89236539D01*
X134747000Y-94361000D01*
X139319000Y-99949000D01*
X166541461Y-99949000D01*
X166548526Y-99949198D01*
X166873832Y-99967466D01*
X166887864Y-99969047D01*
X167046728Y-99996039D01*
X167205587Y-100023031D01*
X167219362Y-100026175D01*
X167315228Y-100053793D01*
X167529047Y-100115394D01*
X167542368Y-100120055D01*
X167840118Y-100243387D01*
X167852841Y-100249514D01*
X168069131Y-100369053D01*
X168134906Y-100405406D01*
X168146870Y-100412924D01*
X168409694Y-100599409D01*
X168420740Y-100608218D01*
X168661043Y-100822965D01*
X168671035Y-100832957D01*
X168885782Y-101073260D01*
X168894591Y-101084306D01*
X169081076Y-101347130D01*
X169088594Y-101359094D01*
X169244484Y-101641155D01*
X169250613Y-101653882D01*
X169373945Y-101951632D01*
X169378606Y-101964953D01*
X169403042Y-102049771D01*
X169467825Y-102274638D01*
X169470969Y-102288413D01*
X169524952Y-102606131D01*
X169526534Y-102620172D01*
X169544802Y-102945474D01*
X169545000Y-102952539D01*
X169545000Y-106724461D01*
X169544802Y-106731527D01*
X169542290Y-106776249D01*
X169530683Y-106822432D01*
X169522575Y-106839820D01*
X169466623Y-107048638D01*
X169466144Y-107054118D01*
X169453283Y-107201118D01*
X169447781Y-107264000D01*
X169459694Y-107400159D01*
X169455249Y-107446013D01*
X169378607Y-107712046D01*
X169373944Y-107725370D01*
X169250615Y-108023114D01*
X169244484Y-108035845D01*
X169088594Y-108317906D01*
X169081076Y-108329870D01*
X168894591Y-108592694D01*
X168885782Y-108603740D01*
X168671035Y-108844043D01*
X168661043Y-108854035D01*
X168420740Y-109068782D01*
X168409694Y-109077591D01*
X168146870Y-109264076D01*
X168134906Y-109271594D01*
X167852841Y-109427486D01*
X167840118Y-109433613D01*
X167542368Y-109556945D01*
X167529047Y-109561606D01*
X167315228Y-109623207D01*
X167219362Y-109650825D01*
X167205587Y-109653969D01*
X167046728Y-109680960D01*
X166887864Y-109707953D01*
X166873832Y-109709534D01*
X166548526Y-109727802D01*
X166541461Y-109728000D01*
X155904500Y-109728000D01*
X155836379Y-109707998D01*
X155789886Y-109654342D01*
X155778500Y-109602000D01*
X155778500Y-107201118D01*
X155763683Y-107012852D01*
X155704873Y-106767889D01*
X155702979Y-106763316D01*
X155610361Y-106539715D01*
X155610359Y-106539711D01*
X155608466Y-106535141D01*
X155476836Y-106320341D01*
X155473624Y-106316581D01*
X155473621Y-106316576D01*
X155316437Y-106132538D01*
X155313224Y-106128776D01*
X155190291Y-106023781D01*
X155125424Y-105968379D01*
X155125419Y-105968376D01*
X155121659Y-105965164D01*
X154906859Y-105833534D01*
X154902289Y-105831641D01*
X154902285Y-105831639D01*
X154678684Y-105739021D01*
X154678682Y-105739020D01*
X154674111Y-105737127D01*
X154589711Y-105716865D01*
X154433961Y-105679472D01*
X154433955Y-105679471D01*
X154429148Y-105678317D01*
X154178000Y-105658551D01*
X153926852Y-105678317D01*
X153922045Y-105679471D01*
X153922039Y-105679472D01*
X153766289Y-105716865D01*
X153681889Y-105737127D01*
X153677318Y-105739020D01*
X153677316Y-105739021D01*
X153453715Y-105831639D01*
X153453711Y-105831641D01*
X153449141Y-105833534D01*
X153234341Y-105965164D01*
X153230581Y-105968376D01*
X153230576Y-105968379D01*
X153165709Y-106023781D01*
X153042776Y-106128776D01*
X153039563Y-106132538D01*
X152882379Y-106316576D01*
X152882376Y-106316581D01*
X152879164Y-106320341D01*
X152795614Y-106456682D01*
X152742967Y-106504312D01*
X152672926Y-106515919D01*
X152607728Y-106487816D01*
X152591660Y-106471837D01*
X152591222Y-106471315D01*
X152588063Y-106466803D01*
X152435197Y-106313937D01*
X152430689Y-106310780D01*
X152430686Y-106310778D01*
X152357085Y-106259242D01*
X152258110Y-106189939D01*
X152253128Y-106187616D01*
X152253123Y-106187613D01*
X152067162Y-106100898D01*
X152067161Y-106100897D01*
X152062180Y-106098575D01*
X152056872Y-106097153D01*
X152056870Y-106097152D01*
X151858677Y-106044047D01*
X151858676Y-106044047D01*
X151853362Y-106042623D01*
X151638000Y-106023781D01*
X151422638Y-106042623D01*
X151417324Y-106044047D01*
X151417323Y-106044047D01*
X151219130Y-106097152D01*
X151219128Y-106097153D01*
X151213820Y-106098575D01*
X151208840Y-106100897D01*
X151208838Y-106100898D01*
X151022872Y-106187616D01*
X151022869Y-106187618D01*
X151017891Y-106189939D01*
X150840803Y-106313937D01*
X150687937Y-106466803D01*
X150563939Y-106643891D01*
X150561618Y-106648869D01*
X150561616Y-106648872D01*
X150506117Y-106767889D01*
X150472575Y-106839820D01*
X150471153Y-106845128D01*
X150471152Y-106845130D01*
X150427501Y-107008039D01*
X150416623Y-107048638D01*
X150397781Y-107264000D01*
X150416623Y-107479362D01*
X150472575Y-107688180D01*
X150474897Y-107693160D01*
X150474898Y-107693162D01*
X150561613Y-107879122D01*
X150561616Y-107879127D01*
X150563939Y-107884109D01*
X150567096Y-107888617D01*
X150567099Y-107888623D01*
X150614713Y-107956623D01*
X150637500Y-108028893D01*
X150637500Y-109602000D01*
X150617498Y-109670121D01*
X150563842Y-109716614D01*
X150511500Y-109728000D01*
X142528995Y-109728000D01*
X142502798Y-109725247D01*
X142468103Y-109717872D01*
X142468099Y-109717872D01*
X142461646Y-109716500D01*
X142272354Y-109716500D01*
X142265901Y-109717872D01*
X142265897Y-109717872D01*
X142231202Y-109725247D01*
X142205005Y-109728000D01*
X139988995Y-109728000D01*
X139962798Y-109725247D01*
X139928103Y-109717872D01*
X139928099Y-109717872D01*
X139921646Y-109716500D01*
X139732354Y-109716500D01*
X139725901Y-109717872D01*
X139725897Y-109717872D01*
X139691202Y-109725247D01*
X139665005Y-109728000D01*
X133497217Y-109728000D01*
X133489750Y-109727779D01*
X133145988Y-109707370D01*
X133131158Y-109705603D01*
X132795908Y-109645327D01*
X132781393Y-109641817D01*
X132512426Y-109559650D01*
X132455642Y-109542303D01*
X132441653Y-109537105D01*
X132129953Y-109399742D01*
X132116672Y-109392923D01*
X131823415Y-109219646D01*
X131811031Y-109211300D01*
X131540337Y-109004544D01*
X131529026Y-108994791D01*
X131284705Y-108757467D01*
X131274628Y-108746445D01*
X131057742Y-108478969D01*
X131053211Y-108473030D01*
X128025694Y-104250441D01*
X128025683Y-104250427D01*
X128024615Y-104248937D01*
X127127000Y-102997000D01*
X126397890Y-102997000D01*
X126395105Y-102996285D01*
X126395106Y-102996285D01*
X126389902Y-102994949D01*
X126325768Y-102989733D01*
X126251689Y-102983707D01*
X126251677Y-102983707D01*
X126249138Y-102983500D01*
X124113620Y-102983500D01*
X124106012Y-102983270D01*
X124003828Y-102977089D01*
X123988724Y-102975255D01*
X123671850Y-102917185D01*
X123657077Y-102913544D01*
X123640397Y-102908346D01*
X123349503Y-102817700D01*
X123335285Y-102812308D01*
X123041506Y-102680089D01*
X123028050Y-102673027D01*
X122752350Y-102506360D01*
X122739829Y-102497718D01*
X122486229Y-102299035D01*
X122474841Y-102288945D01*
X122247055Y-102061159D01*
X122236965Y-102049771D01*
X122038282Y-101796171D01*
X122029639Y-101783649D01*
X121862973Y-101507950D01*
X121855911Y-101494494D01*
X121723692Y-101200715D01*
X121718298Y-101186492D01*
X121622456Y-100878923D01*
X121618815Y-100864150D01*
X121560745Y-100547276D01*
X121558911Y-100532172D01*
X121539230Y-100206802D01*
X121539000Y-100199194D01*
X121539000Y-90902820D01*
X121552140Y-90846796D01*
X121609862Y-90730517D01*
X121609864Y-90730513D01*
X121612895Y-90724406D01*
X121657600Y-90545105D01*
X121660500Y-90502564D01*
X121660500Y-88422572D01*
X121665424Y-88387691D01*
X121669472Y-88373639D01*
X121705394Y-88248953D01*
X121710055Y-88235632D01*
X121833387Y-87937882D01*
X121839516Y-87925155D01*
X121995406Y-87643094D01*
X122002924Y-87631130D01*
X122189409Y-87368306D01*
X122198218Y-87357260D01*
X122412965Y-87116957D01*
X122422957Y-87106965D01*
X122663260Y-86892218D01*
X122674306Y-86883409D01*
X122937130Y-86696924D01*
X122949094Y-86689406D01*
X123014869Y-86653053D01*
X123231159Y-86533514D01*
X123243882Y-86527387D01*
X123541632Y-86404055D01*
X123554953Y-86399394D01*
X123768772Y-86337793D01*
X123864638Y-86310175D01*
X123878413Y-86307031D01*
X124037272Y-86280040D01*
X124196136Y-86253047D01*
X124210168Y-86251466D01*
X124535474Y-86233198D01*
X124542539Y-86233000D01*
X131743461Y-86233000D01*
X131750526Y-86233198D01*
G37*
%TD.AperFunction*%
%TD*%
%TA.AperFunction,Conductor*%
%TO.N,+5V*%
G36*
X226604065Y-84812352D02*
G01*
X226797759Y-84911553D01*
X228317051Y-85689660D01*
X228324834Y-85693646D01*
X228332383Y-85697844D01*
X228556150Y-85832560D01*
X228570298Y-85842459D01*
X228770157Y-86003779D01*
X228782822Y-86015523D01*
X228958742Y-86202659D01*
X228969682Y-86216025D01*
X229118357Y-86425460D01*
X229127366Y-86440196D01*
X229246003Y-86667996D01*
X229252912Y-86683825D01*
X229339281Y-86925706D01*
X229343961Y-86942332D01*
X229396441Y-87193756D01*
X229398803Y-87210865D01*
X229416704Y-87471430D01*
X229417000Y-87480066D01*
X229417000Y-89313341D01*
X229416692Y-89322150D01*
X229398065Y-89587920D01*
X229395607Y-89605366D01*
X229341016Y-89861604D01*
X229336149Y-89878537D01*
X229246349Y-90124658D01*
X229239168Y-90140746D01*
X229115914Y-90371938D01*
X229106562Y-90386863D01*
X228952265Y-90598603D01*
X228940919Y-90612081D01*
X228758595Y-90800229D01*
X228745480Y-90811993D01*
X228620287Y-90909393D01*
X228538695Y-90972872D01*
X228524074Y-90982687D01*
X228293022Y-91115358D01*
X228285253Y-91119465D01*
X226413152Y-92026717D01*
X226404406Y-92030553D01*
X226135760Y-92136429D01*
X226117523Y-92142062D01*
X225958995Y-92178131D01*
X225840639Y-92205060D01*
X225821752Y-92207873D01*
X225677585Y-92218274D01*
X225533752Y-92228651D01*
X225524216Y-92228977D01*
X224860137Y-92226434D01*
X224853215Y-92226408D01*
X224840913Y-92225757D01*
X224635739Y-92204806D01*
X224611596Y-92199920D01*
X224420358Y-92141257D01*
X224397623Y-92131763D01*
X224221468Y-92037009D01*
X224201013Y-92023271D01*
X224046663Y-91896042D01*
X224029273Y-91878585D01*
X223902639Y-91723753D01*
X223888979Y-91703246D01*
X223794899Y-91526728D01*
X223785491Y-91503954D01*
X223727563Y-91312497D01*
X223722768Y-91288328D01*
X223702604Y-91083091D01*
X223702000Y-91070771D01*
X223702000Y-87951731D01*
X223704165Y-87934608D01*
X223703282Y-87934492D01*
X223711621Y-87871147D01*
X223712653Y-87864629D01*
X223722912Y-87809278D01*
X223724296Y-87801813D01*
X223720709Y-87739602D01*
X223720500Y-87732349D01*
X223720500Y-85689660D01*
X223740502Y-85621539D01*
X223757405Y-85600565D01*
X224522565Y-84835405D01*
X224584877Y-84801379D01*
X224611660Y-84798500D01*
X226546631Y-84798500D01*
X226604065Y-84812352D01*
G37*
%TD.AperFunction*%
%TD*%
M02*
