M48
; DRILL file {KiCad 6.0.1-79c1e3a40b~116~ubuntu20.04.1} date Thu 20 Jan 2022 03:32:32 PM EST
; FORMAT={-:-/ absolute / inch / decimal}
; #@! TF.CreationDate,2022-01-20T15:32:32-05:00
; #@! TF.GenerationSoftware,Kicad,Pcbnew,6.0.1-79c1e3a40b~116~ubuntu20.04.1
; #@! TF.FileFunction,Plated,1,2,PTH
FMAT,2
INCH
; #@! TA.AperFunction,Plated,PTH,ViaDrill
T1C0.0157
; #@! TA.AperFunction,Plated,PTH,ComponentDrill
T2C0.0300
; #@! TA.AperFunction,Plated,PTH,ComponentDrill
T3C0.0394
; #@! TA.AperFunction,Plated,PTH,ComponentDrill
T4C0.0400
; #@! TA.AperFunction,Plated,PTH,ComponentDrill
T5C0.0402
; #@! TA.AperFunction,Plated,PTH,ComponentDrill
T6C0.0709
; #@! TA.AperFunction,Plated,PTH,ComponentDrill
T7C0.1260
%
G90
G05
T1
X5.505Y-3.15
X5.505Y-4.355
X5.605Y-3.175
X5.605Y-4.355
X8.41Y-3.92
X8.5Y-3.59
X8.55Y-3.14
X8.55Y-4.11
X8.61Y-3.1
X8.61Y-4.07
X8.7Y-3.435
X8.7Y-3.585
T2
X5.87Y-4.223
X5.97Y-4.223
X6.07Y-4.223
X6.62Y-4.223
X6.72Y-4.223
X6.82Y-4.223
T3
X5.246Y-4.4054
X5.246Y-4.5054
X5.246Y-4.6054
X5.246Y-4.7054
X8.8675Y-2.8199
X8.8675Y-2.9289
X8.8675Y-3.038
X8.8675Y-3.147
X8.8675Y-3.2561
X8.8675Y-3.3652
X8.8675Y-3.4742
X8.8675Y-3.5833
X8.9793Y-2.8744
X8.9793Y-2.9835
X8.9793Y-3.0925
X8.9793Y-3.2016
X8.9793Y-3.3106
X8.9793Y-3.4197
X8.9793Y-3.5287
T4
X5.34Y-1.91
X5.44Y-1.91
X5.54Y-1.91
X5.64Y-1.91
X5.7Y-3.81
X5.74Y-1.91
X5.8Y-3.81
X5.84Y-1.91
X5.9Y-3.81
X5.94Y-1.91
X6.0Y-3.81
X6.04Y-1.91
X6.1Y-3.81
X6.14Y-1.91
X6.2Y-3.81
X6.24Y-1.91
X6.3Y-3.81
X6.4Y-1.91
X6.4Y-3.81
X6.5Y-1.91
X6.6Y-1.91
X6.6Y-3.81
X6.7Y-1.91
X6.7Y-3.81
X6.8Y-1.91
X6.8Y-3.81
X6.9Y-1.91
X6.9Y-3.81
X7.0Y-1.91
X7.0Y-3.81
X7.1Y-1.91
X7.1Y-3.81
X7.2Y-3.81
X7.3Y-1.91
X7.3Y-3.81
X7.4Y-1.91
X7.5Y-1.91
X7.5Y-3.81
X7.6Y-1.91
X7.6Y-3.81
X7.7Y-1.91
X7.7Y-3.81
X7.8Y-1.91
X7.8Y-3.81
X7.9Y-1.91
X7.9Y-3.81
X8.0Y-1.91
X8.0Y-3.81
X8.1Y-3.81
X8.2Y-3.81
X8.3Y-1.91
X8.3Y-2.01
X8.3Y-2.11
X8.3Y-2.21
X8.3Y-2.31
X8.3Y-2.41
X8.3Y-2.51
X8.3Y-2.61
X8.3Y-2.71
X8.3Y-2.81
X8.3Y-2.91
X8.3Y-3.01
X8.3Y-3.11
X8.3Y-3.21
X8.3Y-3.31
X8.3Y-3.41
X8.3Y-3.51
X8.3Y-3.61
X8.4Y-1.91
X8.4Y-2.01
X8.4Y-2.11
X8.4Y-2.21
X8.4Y-2.31
X8.4Y-2.41
X8.4Y-2.51
X8.4Y-2.61
X8.4Y-2.71
X8.4Y-2.81
X8.4Y-2.91
X8.4Y-3.01
X8.4Y-3.11
X8.4Y-3.21
X8.4Y-3.31
X8.4Y-3.41
X8.4Y-3.51
X8.4Y-3.61
T5
X8.8051Y-4.2009
X8.8051Y-4.3191
X8.9232Y-4.2009
X8.9232Y-4.3191
T6
X4.6933Y-3.2728
X4.6933Y-3.4972
X4.905Y-3.9502
X4.905Y-4.1667
X4.9098Y-3.2728
X4.9098Y-3.4972
X7.925Y-3.0391
X7.925Y-3.2635
T7
X4.225Y-1.985
X4.225Y-4.635
X8.9234Y-2.5461
X8.9234Y-3.8571
X9.125Y-1.985
X9.125Y-4.635
T0
M30
