%TF.GenerationSoftware,KiCad,Pcbnew,6.0.1-79c1e3a40b~116~ubuntu20.04.1*%
%TF.CreationDate,2022-01-20T15:32:27-05:00*%
%TF.ProjectId,ManipulatorER_v3,4d616e69-7075-46c6-9174-6f7245525f76,rev?*%
%TF.SameCoordinates,Original*%
%TF.FileFunction,Soldermask,Top*%
%TF.FilePolarity,Negative*%
%FSLAX46Y46*%
G04 Gerber Fmt 4.6, Leading zero omitted, Abs format (unit mm)*
G04 Created by KiCad (PCBNEW 6.0.1-79c1e3a40b~116~ubuntu20.04.1) date 2022-01-20 15:32:27*
%MOMM*%
%LPD*%
G01*
G04 APERTURE LIST*
G04 Aperture macros list*
%AMRoundRect*
0 Rectangle with rounded corners*
0 $1 Rounding radius*
0 $2 $3 $4 $5 $6 $7 $8 $9 X,Y pos of 4 corners*
0 Add a 4 corners polygon primitive as box body*
4,1,4,$2,$3,$4,$5,$6,$7,$8,$9,$2,$3,0*
0 Add four circle primitives for the rounded corners*
1,1,$1+$1,$2,$3*
1,1,$1+$1,$4,$5*
1,1,$1+$1,$6,$7*
1,1,$1+$1,$8,$9*
0 Add four rect primitives between the rounded corners*
20,1,$1+$1,$2,$3,$4,$5,0*
20,1,$1+$1,$4,$5,$6,$7,0*
20,1,$1+$1,$6,$7,$8,$9,0*
20,1,$1+$1,$8,$9,$2,$3,0*%
G04 Aperture macros list end*
%ADD10R,1.600000X1.600000*%
%ADD11C,1.600000*%
%ADD12C,4.000000*%
%ADD13O,1.727200X2.032000*%
%ADD14C,1.727200*%
%ADD15O,1.727200X1.727200*%
%ADD16R,1.700000X1.700000*%
%ADD17O,1.700000X1.700000*%
%ADD18C,1.800000*%
%ADD19RoundRect,0.250000X-1.600000X-1.600000X1.600000X-1.600000X1.600000X1.600000X-1.600000X1.600000X0*%
%ADD20C,3.700000*%
%ADD21C,3.000000*%
%ADD22RoundRect,0.250000X1.600000X1.600000X-1.600000X1.600000X-1.600000X-1.600000X1.600000X-1.600000X0*%
%ADD23C,5.600000*%
%ADD24RoundRect,0.250000X-0.500000X0.500000X-0.500000X-0.500000X0.500000X-0.500000X0.500000X0.500000X0*%
%ADD25C,1.500000*%
%ADD26RoundRect,0.250002X1.599998X-1.599998X1.599998X1.599998X-1.599998X1.599998X-1.599998X-1.599998X0*%
%ADD27R,2.717800X1.219200*%
%ADD28C,1.270000*%
%ADD29R,1.799996X1.305598*%
G04 APERTURE END LIST*
D10*
%TO.C,J1*%
X225233669Y-71625000D03*
D11*
X225233669Y-74395000D03*
X225233669Y-77165000D03*
X225233669Y-79935000D03*
X225233669Y-82705000D03*
X225233669Y-85475000D03*
X225233669Y-88245000D03*
X225233669Y-91015000D03*
X228073669Y-73010000D03*
X228073669Y-75780000D03*
X228073669Y-78550000D03*
X228073669Y-81320000D03*
X228073669Y-84090000D03*
X228073669Y-86860000D03*
X228073669Y-89630000D03*
D12*
X226653669Y-97970000D03*
X226653669Y-64670000D03*
%TD*%
D13*
%TO.C,P6*%
X162560000Y-48514000D03*
X165100000Y-48514000D03*
X167640000Y-48514000D03*
X170180000Y-48514000D03*
X172720000Y-48514000D03*
X175260000Y-48514000D03*
X177800000Y-48514000D03*
X180340000Y-48514000D03*
%TD*%
%TO.C,P7*%
X185420000Y-48514000D03*
X187960000Y-48514000D03*
X190500000Y-48514000D03*
X193040000Y-48514000D03*
X195580000Y-48514000D03*
X198120000Y-48514000D03*
X200660000Y-48514000D03*
X203200000Y-48514000D03*
%TD*%
%TO.C,P2*%
X144780000Y-96774000D03*
X147320000Y-96774000D03*
X149860000Y-96774000D03*
X152400000Y-96774000D03*
X154940000Y-96774000D03*
X157480000Y-96774000D03*
X160020000Y-96774000D03*
X162560000Y-96774000D03*
%TD*%
%TO.C,P4*%
X190500000Y-96774000D03*
X193040000Y-96774000D03*
X195580000Y-96774000D03*
X198120000Y-96774000D03*
X200660000Y-96774000D03*
X203200000Y-96774000D03*
X205740000Y-96774000D03*
X208280000Y-96774000D03*
%TD*%
%TO.C,P5*%
X135636000Y-48514000D03*
X138176000Y-48514000D03*
X140716000Y-48514000D03*
X143256000Y-48514000D03*
X145796000Y-48514000D03*
X148336000Y-48514000D03*
X150876000Y-48514000D03*
X153416000Y-48514000D03*
X155956000Y-48514000D03*
X158496000Y-48514000D03*
%TD*%
%TO.C,P3*%
X167640000Y-96774000D03*
X170180000Y-96774000D03*
X172720000Y-96774000D03*
X175260000Y-96774000D03*
X177800000Y-96774000D03*
X180340000Y-96774000D03*
X182880000Y-96774000D03*
X185420000Y-96774000D03*
%TD*%
D14*
%TO.C,P1*%
X210820000Y-91694000D03*
D15*
X213360000Y-91694000D03*
X210820000Y-89154000D03*
X213360000Y-89154000D03*
X210820000Y-86614000D03*
X213360000Y-86614000D03*
X210820000Y-84074000D03*
X213360000Y-84074000D03*
X210820000Y-81534000D03*
X213360000Y-81534000D03*
X210820000Y-78994000D03*
X213360000Y-78994000D03*
X210820000Y-76454000D03*
X213360000Y-76454000D03*
X210820000Y-73914000D03*
X213360000Y-73914000D03*
X210820000Y-71374000D03*
X213360000Y-71374000D03*
X210820000Y-68834000D03*
X213360000Y-68834000D03*
X210820000Y-66294000D03*
X213360000Y-66294000D03*
X210820000Y-63754000D03*
X213360000Y-63754000D03*
X210820000Y-61214000D03*
X213360000Y-61214000D03*
X210820000Y-58674000D03*
X213360000Y-58674000D03*
X210820000Y-56134000D03*
X213360000Y-56134000D03*
X210820000Y-53594000D03*
X213360000Y-53594000D03*
X210820000Y-51054000D03*
X213360000Y-51054000D03*
X210820000Y-48514000D03*
X213360000Y-48514000D03*
%TD*%
D16*
%TO.C,J3*%
X133248000Y-111897000D03*
D17*
X133248000Y-114437000D03*
X133248000Y-116977000D03*
X133248000Y-119517000D03*
%TD*%
D18*
%TO.C,J4*%
X204775000Y-85664000D03*
D19*
X201295000Y-77194000D03*
D20*
X201295000Y-82894000D03*
%TD*%
D21*
%TO.C,J5*%
X124587000Y-113134000D03*
D22*
X124587000Y-105834000D03*
D20*
X124587000Y-100334000D03*
%TD*%
D23*
%TO.C,H1*%
X107315000Y-50419000D03*
%TD*%
%TO.C,H2*%
X231775000Y-50419000D03*
%TD*%
%TO.C,H3*%
X107315000Y-117729000D03*
%TD*%
%TO.C,H4*%
X231775000Y-117729000D03*
%TD*%
D21*
%TO.C,J6*%
X230970000Y-108204000D03*
D24*
X226650000Y-106704000D03*
D25*
X226650000Y-109704000D03*
X223650000Y-106704000D03*
X223650000Y-109704000D03*
%TD*%
D21*
%TO.C,J1001*%
X111910000Y-85979000D03*
D26*
X119210000Y-88829000D03*
D20*
X119210000Y-83129000D03*
X124710000Y-88829000D03*
X124710000Y-83129000D03*
%TD*%
D27*
%TO.C,C2*%
X146875500Y-112903000D03*
X151066500Y-112903000D03*
%TD*%
D28*
%TO.C,U2*%
X149098000Y-107264000D03*
X151638000Y-107264000D03*
X154178000Y-107264000D03*
%TD*%
%TO.C,U1*%
X168148000Y-107264000D03*
X170688000Y-107264000D03*
X173228000Y-107264000D03*
%TD*%
D27*
%TO.C,C3*%
X166052500Y-112903000D03*
X170243500Y-112903000D03*
%TD*%
D29*
%TO.C,C1*%
X194310000Y-77984902D03*
X194310000Y-80790498D03*
%TD*%
M02*
