%TF.GenerationSoftware,KiCad,Pcbnew,(6.0.1)*%
%TF.CreationDate,2023-01-11T22:23:37-05:00*%
%TF.ProjectId,Payload_PCB_v3,5061796c-6f61-4645-9f50-43425f76332e,rev?*%
%TF.SameCoordinates,Original*%
%TF.FileFunction,Paste,Top*%
%TF.FilePolarity,Positive*%
%FSLAX46Y46*%
G04 Gerber Fmt 4.6, Leading zero omitted, Abs format (unit mm)*
G04 Created by KiCad (PCBNEW (6.0.1)) date 2023-01-11 22:23:37*
%MOMM*%
%LPD*%
G01*
G04 APERTURE LIST*
G04 Aperture macros list*
%AMRoundRect*
0 Rectangle with rounded corners*
0 $1 Rounding radius*
0 $2 $3 $4 $5 $6 $7 $8 $9 X,Y pos of 4 corners*
0 Add a 4 corners polygon primitive as box body*
4,1,4,$2,$3,$4,$5,$6,$7,$8,$9,$2,$3,0*
0 Add four circle primitives for the rounded corners*
1,1,$1+$1,$2,$3*
1,1,$1+$1,$4,$5*
1,1,$1+$1,$6,$7*
1,1,$1+$1,$8,$9*
0 Add four rect primitives between the rounded corners*
20,1,$1+$1,$2,$3,$4,$5,0*
20,1,$1+$1,$4,$5,$6,$7,0*
20,1,$1+$1,$6,$7,$8,$9,0*
20,1,$1+$1,$8,$9,$2,$3,0*%
G04 Aperture macros list end*
%ADD10C,0.100000*%
%ADD11RoundRect,0.250000X-0.350000X-0.450000X0.350000X-0.450000X0.350000X0.450000X-0.350000X0.450000X0*%
%ADD12RoundRect,0.250000X-0.450000X0.350000X-0.450000X-0.350000X0.450000X-0.350000X0.450000X0.350000X0*%
%ADD13RoundRect,0.250000X-0.650000X0.412500X-0.650000X-0.412500X0.650000X-0.412500X0.650000X0.412500X0*%
%ADD14RoundRect,0.250000X-0.325000X-0.450000X0.325000X-0.450000X0.325000X0.450000X-0.325000X0.450000X0*%
%ADD15RoundRect,0.250000X0.450000X-0.350000X0.450000X0.350000X-0.450000X0.350000X-0.450000X-0.350000X0*%
%ADD16R,1.200000X0.400000*%
%ADD17RoundRect,0.250000X0.350000X0.450000X-0.350000X0.450000X-0.350000X-0.450000X0.350000X-0.450000X0*%
%ADD18RoundRect,0.250000X0.450000X-0.325000X0.450000X0.325000X-0.450000X0.325000X-0.450000X-0.325000X0*%
%ADD19RoundRect,0.150000X0.150000X-0.825000X0.150000X0.825000X-0.150000X0.825000X-0.150000X-0.825000X0*%
%ADD20R,1.900000X1.000000*%
%ADD21RoundRect,0.250000X-0.450000X0.325000X-0.450000X-0.325000X0.450000X-0.325000X0.450000X0.325000X0*%
%ADD22R,0.600000X1.500000*%
%ADD23R,1.473200X0.355600*%
%ADD24RoundRect,0.237500X0.237500X-0.300000X0.237500X0.300000X-0.237500X0.300000X-0.237500X-0.300000X0*%
%ADD25R,1.000000X1.000000*%
%ADD26RoundRect,0.237500X-0.237500X0.300000X-0.237500X-0.300000X0.237500X-0.300000X0.237500X0.300000X0*%
%ADD27RoundRect,0.150000X0.150000X-0.875000X0.150000X0.875000X-0.150000X0.875000X-0.150000X-0.875000X0*%
%ADD28R,1.000000X3.150000*%
%ADD29RoundRect,0.250000X0.412500X0.650000X-0.412500X0.650000X-0.412500X-0.650000X0.412500X-0.650000X0*%
%ADD30R,1.219200X2.717800*%
%ADD31R,2.000000X4.500000*%
%ADD32R,0.400000X1.200000*%
%ADD33RoundRect,0.250000X0.650000X-0.412500X0.650000X0.412500X-0.650000X0.412500X-0.650000X-0.412500X0*%
G04 APERTURE END LIST*
D10*
%TO.C,U16*%
X172870800Y-90968500D02*
X172870800Y-92368700D01*
X172870800Y-92368700D02*
X174271000Y-92368700D01*
X174271000Y-92368700D02*
X174271000Y-90968500D01*
X174271000Y-90968500D02*
X172870800Y-90968500D01*
G36*
X174271000Y-92368700D02*
G01*
X172870800Y-92368700D01*
X172870800Y-90968500D01*
X174271000Y-90968500D01*
X174271000Y-92368700D01*
G37*
X174271000Y-92368700D02*
X172870800Y-92368700D01*
X172870800Y-90968500D01*
X174271000Y-90968500D01*
X174271000Y-92368700D01*
X174471000Y-89368300D02*
X174471000Y-90768500D01*
X174471000Y-90768500D02*
X175871200Y-90768500D01*
X175871200Y-90768500D02*
X175871200Y-89368300D01*
X175871200Y-89368300D02*
X174471000Y-89368300D01*
G36*
X175871200Y-90768500D02*
G01*
X174471000Y-90768500D01*
X174471000Y-89368300D01*
X175871200Y-89368300D01*
X175871200Y-90768500D01*
G37*
X175871200Y-90768500D02*
X174471000Y-90768500D01*
X174471000Y-89368300D01*
X175871200Y-89368300D01*
X175871200Y-90768500D01*
X172870800Y-89368300D02*
X172870800Y-90768500D01*
X172870800Y-90768500D02*
X174271000Y-90768500D01*
X174271000Y-90768500D02*
X174271000Y-89368300D01*
X174271000Y-89368300D02*
X172870800Y-89368300D01*
G36*
X174271000Y-90768500D02*
G01*
X172870800Y-90768500D01*
X172870800Y-89368300D01*
X174271000Y-89368300D01*
X174271000Y-90768500D01*
G37*
X174271000Y-90768500D02*
X172870800Y-90768500D01*
X172870800Y-89368300D01*
X174271000Y-89368300D01*
X174271000Y-90768500D01*
X174471000Y-90968500D02*
X174471000Y-92368700D01*
X174471000Y-92368700D02*
X175871200Y-92368700D01*
X175871200Y-92368700D02*
X175871200Y-90968500D01*
X175871200Y-90968500D02*
X174471000Y-90968500D01*
G36*
X175871200Y-92368700D02*
G01*
X174471000Y-92368700D01*
X174471000Y-90968500D01*
X175871200Y-90968500D01*
X175871200Y-92368700D01*
G37*
X175871200Y-92368700D02*
X174471000Y-92368700D01*
X174471000Y-90968500D01*
X175871200Y-90968500D01*
X175871200Y-92368700D01*
%TD*%
D11*
%TO.C,R5*%
X109236000Y-15494000D03*
X111236000Y-15494000D03*
%TD*%
D12*
%TO.C,R13*%
X180384450Y-89916000D03*
X180384450Y-91916000D03*
%TD*%
D13*
%TO.C,C12*%
X183769000Y-88734500D03*
X183769000Y-91859500D03*
%TD*%
%TO.C,C10*%
X199898000Y-67779500D03*
X199898000Y-70904500D03*
%TD*%
D14*
%TO.C,D5*%
X105138000Y-15494000D03*
X107188000Y-15494000D03*
%TD*%
D15*
%TO.C,R2*%
X115570000Y-100060000D03*
X115570000Y-98060000D03*
%TD*%
D16*
%TO.C,U4*%
X192345000Y-46037500D03*
X192345000Y-46672500D03*
X192345000Y-47307500D03*
X192345000Y-47942500D03*
X192345000Y-48577500D03*
X192345000Y-49212500D03*
X192345000Y-49847500D03*
X192345000Y-50482500D03*
X192345000Y-51117500D03*
X192345000Y-51752500D03*
X192345000Y-52387500D03*
X192345000Y-53022500D03*
X197545000Y-53022500D03*
X197545000Y-52387500D03*
X197545000Y-51752500D03*
X197545000Y-51117500D03*
X197545000Y-50482500D03*
X197545000Y-49847500D03*
X197545000Y-49212500D03*
X197545000Y-48577500D03*
X197545000Y-47942500D03*
X197545000Y-47307500D03*
X197545000Y-46672500D03*
X197545000Y-46037500D03*
%TD*%
D11*
%TO.C,R4*%
X123206000Y-100203000D03*
X125206000Y-100203000D03*
%TD*%
D17*
%TO.C,R10*%
X189595000Y-12446000D03*
X187595000Y-12446000D03*
%TD*%
D18*
%TO.C,D1*%
X111252000Y-104149000D03*
X111252000Y-102099000D03*
%TD*%
D19*
%TO.C,U14*%
X190881000Y-74865000D03*
X192151000Y-74865000D03*
X193421000Y-74865000D03*
X194691000Y-74865000D03*
X194691000Y-69915000D03*
X193421000Y-69915000D03*
X192151000Y-69915000D03*
X190881000Y-69915000D03*
%TD*%
D20*
%TO.C,U8*%
X148367000Y-43817000D03*
X145067000Y-46357000D03*
X148367000Y-48897000D03*
X145067000Y-51437000D03*
X148367000Y-53977000D03*
X145067000Y-56517000D03*
X148367000Y-59057000D03*
X145067000Y-61597000D03*
X160235000Y-61595000D03*
X163535000Y-59055000D03*
X160235000Y-56515000D03*
X163535000Y-53975000D03*
X160235000Y-51435000D03*
X163535000Y-48895000D03*
X160235000Y-46355000D03*
X163535000Y-43815000D03*
%TD*%
D16*
%TO.C,U3*%
X192345000Y-33972500D03*
X192345000Y-34607500D03*
X192345000Y-35242500D03*
X192345000Y-35877500D03*
X192345000Y-36512500D03*
X192345000Y-37147500D03*
X192345000Y-37782500D03*
X192345000Y-38417500D03*
X192345000Y-39052500D03*
X192345000Y-39687500D03*
X192345000Y-40322500D03*
X192345000Y-40957500D03*
X197545000Y-40957500D03*
X197545000Y-40322500D03*
X197545000Y-39687500D03*
X197545000Y-39052500D03*
X197545000Y-38417500D03*
X197545000Y-37782500D03*
X197545000Y-37147500D03*
X197545000Y-36512500D03*
X197545000Y-35877500D03*
X197545000Y-35242500D03*
X197545000Y-34607500D03*
X197545000Y-33972500D03*
%TD*%
D21*
%TO.C,D9*%
X162604450Y-103115000D03*
X162604450Y-105165000D03*
%TD*%
D20*
%TO.C,U10*%
X146431000Y-65403000D03*
X149731000Y-67943000D03*
X146431000Y-70483000D03*
X149731000Y-73023000D03*
X146431000Y-75563000D03*
X149731000Y-78103000D03*
X146431000Y-80643000D03*
X158951000Y-80599000D03*
X162251000Y-78059000D03*
X158951000Y-75519000D03*
X162251000Y-72979000D03*
X158951000Y-70439000D03*
X162251000Y-67899000D03*
X158951000Y-65359000D03*
%TD*%
D11*
%TO.C,R6*%
X188500000Y-28575000D03*
X190500000Y-28575000D03*
%TD*%
D20*
%TO.C,U11*%
X167390000Y-65403000D03*
X170690000Y-67943000D03*
X167390000Y-70483000D03*
X170690000Y-73023000D03*
X167390000Y-75563000D03*
X170690000Y-78103000D03*
X167390000Y-80643000D03*
X179910000Y-80599000D03*
X183210000Y-78059000D03*
X179910000Y-75519000D03*
X183210000Y-72979000D03*
X179910000Y-70439000D03*
X183210000Y-67899000D03*
X179910000Y-65359000D03*
%TD*%
%TO.C,U9*%
X169322000Y-43817000D03*
X166022000Y-46357000D03*
X169322000Y-48897000D03*
X166022000Y-51437000D03*
X169322000Y-53977000D03*
X166022000Y-56517000D03*
X169322000Y-59057000D03*
X166022000Y-61597000D03*
X181190000Y-61595000D03*
X184490000Y-59055000D03*
X181190000Y-56515000D03*
X184490000Y-53975000D03*
X181190000Y-51435000D03*
X184490000Y-48895000D03*
X181190000Y-46355000D03*
X184490000Y-43815000D03*
%TD*%
D22*
%TO.C,U13*%
X167640000Y-18085000D03*
X168910000Y-18085000D03*
X170180000Y-18085000D03*
X171450000Y-18085000D03*
X172720000Y-18085000D03*
X173990000Y-18085000D03*
X175260000Y-18085000D03*
X176530000Y-18085000D03*
X177800000Y-18085000D03*
X179070000Y-18085000D03*
X179070000Y-8585000D03*
X177800000Y-8585000D03*
X176530000Y-8585000D03*
X175260000Y-8585000D03*
X173990000Y-8585000D03*
X172720000Y-8585000D03*
X171450000Y-8585000D03*
X170180000Y-8585000D03*
X168910000Y-8585000D03*
X167640000Y-8585000D03*
%TD*%
D17*
%TO.C,R9*%
X189595000Y-8890000D03*
X187595000Y-8890000D03*
%TD*%
D15*
%TO.C,R3*%
X119888000Y-100060000D03*
X119888000Y-98060000D03*
%TD*%
D21*
%TO.C,D10*%
X165144450Y-103115000D03*
X165144450Y-105165000D03*
%TD*%
D23*
%TO.C,U16*%
X171450000Y-88593501D03*
X171450000Y-89243499D03*
X171450000Y-89893501D03*
X171450000Y-90543499D03*
X171450000Y-91193498D03*
X171450000Y-91843499D03*
X171450000Y-92493498D03*
X171450000Y-93143499D03*
X177292000Y-93143499D03*
X177292000Y-92493501D03*
X177292000Y-91843499D03*
X177292000Y-91193501D03*
X177292000Y-90543502D03*
X177292000Y-89893501D03*
X177292000Y-89243502D03*
X177292000Y-88593501D03*
%TD*%
D24*
%TO.C,C8*%
X223266000Y-70358000D03*
X223266000Y-68633000D03*
%TD*%
D25*
%TO.C,D6*%
X234950000Y-9164000D03*
X234950000Y-11664000D03*
%TD*%
D26*
%TO.C,C9*%
X223266000Y-74983000D03*
X223266000Y-76708000D03*
%TD*%
D13*
%TO.C,C7*%
X182753000Y-11772500D03*
X182753000Y-14897500D03*
%TD*%
D11*
%TO.C,R7*%
X188484000Y-44069000D03*
X190484000Y-44069000D03*
%TD*%
D18*
%TO.C,D2*%
X115570000Y-104149000D03*
X115570000Y-102099000D03*
%TD*%
D27*
%TO.C,U15*%
X207518000Y-77294000D03*
X208788000Y-77294000D03*
X210058000Y-77294000D03*
X211328000Y-77294000D03*
X212598000Y-77294000D03*
X213868000Y-77294000D03*
X215138000Y-77294000D03*
X216408000Y-77294000D03*
X217678000Y-77294000D03*
X217678000Y-67994000D03*
X216408000Y-67994000D03*
X215138000Y-67994000D03*
X213868000Y-67994000D03*
X212598000Y-67994000D03*
X211328000Y-67994000D03*
X210058000Y-67994000D03*
X208788000Y-67994000D03*
X207518000Y-67994000D03*
%TD*%
D15*
%TO.C,R8*%
X188722000Y-88122000D03*
X188722000Y-86122000D03*
%TD*%
%TO.C,R1*%
X111252000Y-100060000D03*
X111252000Y-98060000D03*
%TD*%
D28*
%TO.C,J21*%
X157524450Y-98410000D03*
X157524450Y-93360000D03*
X160064450Y-98410000D03*
X160064450Y-93360000D03*
X162604450Y-98410000D03*
X162604450Y-93360000D03*
X165144450Y-98410000D03*
X165144450Y-93360000D03*
%TD*%
D13*
%TO.C,C6*%
X118364000Y-20154500D03*
X118364000Y-23279500D03*
%TD*%
D20*
%TO.C,U7*%
X169322000Y-22227000D03*
X166022000Y-24767000D03*
X169322000Y-27307000D03*
X166022000Y-29847000D03*
X169322000Y-32387000D03*
X166022000Y-34927000D03*
X169322000Y-37467000D03*
X166022000Y-40007000D03*
X181190000Y-40005000D03*
X184490000Y-37465000D03*
X181190000Y-34925000D03*
X184490000Y-32385000D03*
X181190000Y-29845000D03*
X184490000Y-27305000D03*
X181190000Y-24765000D03*
X184490000Y-22225000D03*
%TD*%
D15*
%TO.C,R12*%
X203581000Y-73644000D03*
X203581000Y-71644000D03*
%TD*%
D17*
%TO.C,R14*%
X125206000Y-98171000D03*
X123206000Y-98171000D03*
%TD*%
D29*
%TO.C,C4*%
X150914500Y-89662000D03*
X147789500Y-89662000D03*
%TD*%
D18*
%TO.C,D3*%
X119888000Y-104149000D03*
X119888000Y-102099000D03*
%TD*%
D30*
%TO.C,C1*%
X123190000Y-13779500D03*
X123190000Y-9588500D03*
%TD*%
D21*
%TO.C,D8*%
X160064450Y-103115000D03*
X160064450Y-105165000D03*
%TD*%
D30*
%TO.C,C2*%
X123190000Y-23069550D03*
X123190000Y-18878550D03*
%TD*%
D20*
%TO.C,U6*%
X148367000Y-22227000D03*
X145067000Y-24767000D03*
X148367000Y-27307000D03*
X145067000Y-29847000D03*
X148367000Y-32387000D03*
X145067000Y-34927000D03*
X148367000Y-37467000D03*
X145067000Y-40007000D03*
X160235000Y-40005000D03*
X163535000Y-37465000D03*
X160235000Y-34925000D03*
X163535000Y-32385000D03*
X160235000Y-29845000D03*
X163535000Y-27305000D03*
X160235000Y-24765000D03*
X163535000Y-22225000D03*
%TD*%
D31*
%TO.C,Y1*%
X228854000Y-76894000D03*
X228854000Y-68394000D03*
%TD*%
D21*
%TO.C,D7*%
X157524450Y-103115000D03*
X157524450Y-105165000D03*
%TD*%
D32*
%TO.C,U5*%
X192722500Y-89722000D03*
X193357500Y-89722000D03*
X193992500Y-89722000D03*
X194627500Y-89722000D03*
X195262500Y-89722000D03*
X195897500Y-89722000D03*
X196532500Y-89722000D03*
X197167500Y-89722000D03*
X197802500Y-89722000D03*
X198437500Y-89722000D03*
X199072500Y-89722000D03*
X199707500Y-89722000D03*
X199707500Y-84522000D03*
X199072500Y-84522000D03*
X198437500Y-84522000D03*
X197802500Y-84522000D03*
X197167500Y-84522000D03*
X196532500Y-84522000D03*
X195897500Y-84522000D03*
X195262500Y-84522000D03*
X194627500Y-84522000D03*
X193992500Y-84522000D03*
X193357500Y-84522000D03*
X192722500Y-84522000D03*
%TD*%
D18*
%TO.C,D4*%
X124079000Y-104149000D03*
X124079000Y-102099000D03*
%TD*%
D29*
%TO.C,C3*%
X150914500Y-93472000D03*
X147789500Y-93472000D03*
%TD*%
D33*
%TO.C,C11*%
X199898000Y-77508500D03*
X199898000Y-74383500D03*
%TD*%
D29*
%TO.C,C5*%
X150914500Y-85852000D03*
X147789500Y-85852000D03*
%TD*%
M02*
