%TF.GenerationSoftware,KiCad,Pcbnew,(6.0.1)*%
%TF.CreationDate,2023-01-11T22:23:37-05:00*%
%TF.ProjectId,Payload_PCB_v3,5061796c-6f61-4645-9f50-43425f76332e,rev?*%
%TF.SameCoordinates,Original*%
%TF.FileFunction,Soldermask,Bot*%
%TF.FilePolarity,Negative*%
%FSLAX46Y46*%
G04 Gerber Fmt 4.6, Leading zero omitted, Abs format (unit mm)*
G04 Created by KiCad (PCBNEW (6.0.1)) date 2023-01-11 22:23:37*
%MOMM*%
%LPD*%
G01*
G04 APERTURE LIST*
G04 Aperture macros list*
%AMRoundRect*
0 Rectangle with rounded corners*
0 $1 Rounding radius*
0 $2 $3 $4 $5 $6 $7 $8 $9 X,Y pos of 4 corners*
0 Add a 4 corners polygon primitive as box body*
4,1,4,$2,$3,$4,$5,$6,$7,$8,$9,$2,$3,0*
0 Add four circle primitives for the rounded corners*
1,1,$1+$1,$2,$3*
1,1,$1+$1,$4,$5*
1,1,$1+$1,$6,$7*
1,1,$1+$1,$8,$9*
0 Add four rect primitives between the rounded corners*
20,1,$1+$1,$2,$3,$4,$5,0*
20,1,$1+$1,$4,$5,$6,$7,0*
20,1,$1+$1,$6,$7,$8,$9,0*
20,1,$1+$1,$8,$9,$2,$3,0*%
G04 Aperture macros list end*
%ADD10C,1.600000*%
%ADD11O,1.600000X1.600000*%
%ADD12C,3.000000*%
%ADD13RoundRect,0.250001X1.599999X-1.099999X1.599999X1.099999X-1.599999X1.099999X-1.599999X-1.099999X0*%
%ADD14O,3.700000X2.700000*%
%ADD15C,2.780000*%
%ADD16C,1.370000*%
%ADD17R,1.370000X1.370000*%
%ADD18R,2.400000X2.400000*%
%ADD19C,2.400000*%
%ADD20R,1.448000X1.448000*%
%ADD21C,1.448000*%
%ADD22R,1.700000X1.700000*%
%ADD23O,1.700000X1.700000*%
%ADD24RoundRect,0.250000X-0.650000X-1.550000X0.650000X-1.550000X0.650000X1.550000X-0.650000X1.550000X0*%
%ADD25O,1.800000X3.600000*%
%ADD26RoundRect,0.200000X0.450000X-0.200000X0.450000X0.200000X-0.450000X0.200000X-0.450000X-0.200000X0*%
%ADD27O,1.300000X0.800000*%
%ADD28C,5.600000*%
%ADD29O,1.500000X1.500000*%
%ADD30O,1.800000X1.800000*%
%ADD31C,4.000000*%
%ADD32R,1.600000X1.600000*%
G04 APERTURE END LIST*
D10*
%TO.C,R11*%
X179578000Y-97028000D03*
D11*
X169418000Y-97028000D03*
%TD*%
D12*
%TO.C,J2*%
X108751000Y-29478000D03*
X108751000Y-75678000D03*
D13*
X116051000Y-75678000D03*
D14*
X116051000Y-71478000D03*
X116051000Y-67278000D03*
X116051000Y-63078000D03*
X116051000Y-58878000D03*
X116051000Y-54678000D03*
X116051000Y-50478000D03*
X116051000Y-46278000D03*
X116051000Y-42078000D03*
X116051000Y-37878000D03*
X116051000Y-33678000D03*
X116051000Y-29478000D03*
X121551000Y-75678000D03*
X121551000Y-71478000D03*
X121551000Y-67278000D03*
X121551000Y-63078000D03*
X121551000Y-58878000D03*
X121551000Y-54678000D03*
X121551000Y-50478000D03*
X121551000Y-46278000D03*
X121551000Y-42078000D03*
X121551000Y-37878000D03*
X121551000Y-33678000D03*
X121551000Y-29478000D03*
%TD*%
D15*
%TO.C,F1*%
X129660000Y-79072000D03*
X129660000Y-82472000D03*
X139580000Y-79072000D03*
X139580000Y-82472000D03*
%TD*%
D16*
%TO.C,J14*%
X163195000Y-15748000D03*
X163195000Y-13208000D03*
D17*
X163195000Y-10668000D03*
D16*
X160655000Y-15748000D03*
X160655000Y-13208000D03*
X160655000Y-10668000D03*
X158115000Y-15748000D03*
X158115000Y-13208000D03*
X158115000Y-10668000D03*
X155575000Y-15748000D03*
X155575000Y-13208000D03*
X155575000Y-10668000D03*
X153035000Y-15748000D03*
X153035000Y-13208000D03*
X153035000Y-10668000D03*
X150495000Y-15748000D03*
X150495000Y-13208000D03*
X150495000Y-10668000D03*
%TD*%
D18*
%TO.C,J17*%
X242315524Y-98524000D03*
D19*
X242315524Y-95024000D03*
%TD*%
D20*
%TO.C,U2*%
X132080000Y-20688000D03*
D21*
X134620000Y-20688000D03*
X137160000Y-20688000D03*
%TD*%
D22*
%TO.C,J4*%
X148077000Y-103129000D03*
D23*
X148077000Y-100589000D03*
X150617000Y-103129000D03*
X150617000Y-100589000D03*
%TD*%
D15*
%TO.C,F2*%
X129660000Y-89613000D03*
X129660000Y-93013000D03*
X139580000Y-89613000D03*
X139580000Y-93013000D03*
%TD*%
D24*
%TO.C,J7*%
X129387500Y-51442500D03*
D25*
X132887500Y-51442500D03*
X136387500Y-51442500D03*
X139887500Y-51442500D03*
%TD*%
D20*
%TO.C,U1*%
X132080000Y-11684000D03*
D21*
X134620000Y-11684000D03*
X137160000Y-11684000D03*
%TD*%
D24*
%TO.C,J8*%
X129387500Y-61602500D03*
D25*
X132887500Y-61602500D03*
X136387500Y-61602500D03*
X139887500Y-61602500D03*
%TD*%
D26*
%TO.C,J13*%
X242062000Y-54864000D03*
D27*
X242062000Y-53614000D03*
X242062000Y-52364000D03*
X242062000Y-51114000D03*
X242062000Y-49864000D03*
X242062000Y-48614000D03*
%TD*%
D28*
%TO.C,H1*%
X105410000Y-10160000D03*
%TD*%
D26*
%TO.C,J12*%
X242062000Y-65228000D03*
D27*
X242062000Y-63978000D03*
X242062000Y-62728000D03*
X242062000Y-61478000D03*
X242062000Y-60228000D03*
X242062000Y-58978000D03*
%TD*%
D18*
%TO.C,J19*%
X242315524Y-81760000D03*
D19*
X242315524Y-78260000D03*
%TD*%
D28*
%TO.C,H2*%
X243332000Y-10160000D03*
%TD*%
D17*
%TO.C,J11*%
X204216000Y-89662000D03*
D16*
X204216000Y-87122000D03*
X204216000Y-84582000D03*
X206756000Y-89662000D03*
X206756000Y-87122000D03*
X206756000Y-84582000D03*
X209296000Y-89662000D03*
X209296000Y-87122000D03*
X209296000Y-84582000D03*
X211836000Y-89662000D03*
X211836000Y-87122000D03*
X211836000Y-84582000D03*
%TD*%
D15*
%TO.C,F3*%
X129660000Y-103300000D03*
X129660000Y-99900000D03*
X139580000Y-103300000D03*
X139580000Y-99900000D03*
%TD*%
D29*
%TO.C,U12*%
X214745000Y-11415000D03*
X219595000Y-11415000D03*
D30*
X214445000Y-8385000D03*
X219895000Y-8385000D03*
D23*
X208280000Y-8255000D03*
X208280000Y-10795000D03*
D22*
X208280000Y-13335000D03*
D23*
X208280000Y-15875000D03*
X208280000Y-18415000D03*
X208280000Y-20955000D03*
X208280000Y-23495000D03*
D22*
X208280000Y-26035000D03*
D23*
X208280000Y-28575000D03*
X208280000Y-31115000D03*
X208280000Y-33655000D03*
X208280000Y-36195000D03*
D22*
X208280000Y-38735000D03*
D23*
X208280000Y-41275000D03*
X208280000Y-43815000D03*
X208280000Y-46355000D03*
X208280000Y-48895000D03*
D22*
X208280000Y-51435000D03*
D23*
X208280000Y-53975000D03*
X208280000Y-56515000D03*
X226060000Y-56515000D03*
X226060000Y-53975000D03*
D22*
X226060000Y-51435000D03*
D23*
X226060000Y-48895000D03*
X226060000Y-46355000D03*
X226060000Y-43815000D03*
X226060000Y-41275000D03*
D22*
X226060000Y-38735000D03*
D23*
X226060000Y-36195000D03*
X226060000Y-33655000D03*
X226060000Y-31115000D03*
X226060000Y-28575000D03*
D22*
X226060000Y-26035000D03*
D23*
X226060000Y-23495000D03*
X226060000Y-20955000D03*
X226060000Y-18415000D03*
X226060000Y-15875000D03*
D22*
X226060000Y-13335000D03*
D23*
X226060000Y-10795000D03*
X226060000Y-8255000D03*
X214630000Y-56285000D03*
D22*
X217170000Y-56285000D03*
D23*
X219710000Y-56285000D03*
%TD*%
D28*
%TO.C,H4*%
X243332000Y-104140000D03*
%TD*%
%TO.C,H3*%
X105410000Y-104140000D03*
%TD*%
D18*
%TO.C,J16*%
X172748000Y-103250524D03*
D19*
X176248000Y-103250524D03*
%TD*%
D12*
%TO.C,J1*%
X108751000Y-92592000D03*
X108751000Y-84192000D03*
D13*
X116051000Y-92592000D03*
D14*
X116051000Y-88392000D03*
X116051000Y-84192000D03*
X121551000Y-92592000D03*
X121551000Y-88392000D03*
X121551000Y-84192000D03*
%TD*%
D24*
%TO.C,J6*%
X129387500Y-41282500D03*
D25*
X132887500Y-41282500D03*
X136387500Y-41282500D03*
X139887500Y-41282500D03*
%TD*%
D18*
%TO.C,J20*%
X242315524Y-73378000D03*
D19*
X242315524Y-69878000D03*
%TD*%
D24*
%TO.C,J5*%
X129387500Y-31122500D03*
D25*
X132887500Y-31122500D03*
X136387500Y-31122500D03*
X139887500Y-31122500D03*
%TD*%
D18*
%TO.C,J18*%
X242315524Y-90142000D03*
D19*
X242315524Y-86642000D03*
%TD*%
D22*
%TO.C,J3*%
X108956000Y-19782000D03*
D23*
X111496000Y-19782000D03*
X108956000Y-22322000D03*
X111496000Y-22322000D03*
%TD*%
D22*
%TO.C,J10*%
X232385000Y-88412000D03*
D23*
X232385000Y-85872000D03*
X229845000Y-88412000D03*
X229845000Y-85872000D03*
X227305000Y-88412000D03*
X227305000Y-85872000D03*
X224765000Y-88412000D03*
X224765000Y-85872000D03*
X222225000Y-88412000D03*
X222225000Y-85872000D03*
X219685000Y-88412000D03*
X219685000Y-85872000D03*
%TD*%
D31*
%TO.C,J15*%
X237829669Y-16837000D03*
X237829669Y-41837000D03*
D32*
X236409669Y-23797000D03*
D10*
X236409669Y-26567000D03*
X236409669Y-29337000D03*
X236409669Y-32107000D03*
X236409669Y-34877000D03*
X239249669Y-25182000D03*
X239249669Y-27952000D03*
X239249669Y-30722000D03*
X239249669Y-33492000D03*
%TD*%
D24*
%TO.C,J9*%
X129387500Y-71762500D03*
D25*
X132887500Y-71762500D03*
X136387500Y-71762500D03*
X139887500Y-71762500D03*
%TD*%
M02*
