%FSLAX45Y45*%
G04 Gerber Fmt 4.5, Leading zero omitted, Abs format (unit mm)*
G04 Created by KiCad (PCBNEW (6.0.1)) date 2023-01-11 22:26:14*
%MOMM*%
%LPD*%
G01*
G04 APERTURE LIST*
%TA.AperFunction,Profile*%
%ADD10C,0.150000*%
%TD*%
%ADD11C,0.200000*%
%ADD12C,0.150000*%
%ADD13C,0.180000*%
%ADD14C,0.300000*%
G04 APERTURE END LIST*
D10*
X10160000Y-635000D02*
X10160000Y-10795000D01*
X10160000Y-10795000D02*
X24701500Y-10795000D01*
X10160000Y-635000D02*
X24701500Y-635000D01*
X24701500Y-635000D02*
X24701500Y-10795000D01*
D11*
D12*
X21399500Y-1066500D02*
X21549500Y-1216500D01*
X21549500Y-1066500D02*
X21399500Y-1216500D01*
X21884500Y-1066500D02*
X22034500Y-1216500D01*
X22034500Y-1066500D02*
X21884500Y-1216500D01*
D13*
X21534500Y-838500D02*
G75*
G03*
X21534500Y-838500I-90000J0D01*
G01*
X22079500Y-838500D02*
G75*
G03*
X22079500Y-838500I-90000J0D01*
G01*
D14*
X10875100Y-2797800D02*
X10875100Y-3097800D01*
X10725100Y-2947800D02*
X11025100Y-2947800D01*
X10875100Y-7417800D02*
X10875100Y-7717800D01*
X10725100Y-7567800D02*
X11025100Y-7567800D01*
X10875100Y-8269200D02*
X10875100Y-8569200D01*
X10725100Y-8419200D02*
X11025100Y-8419200D01*
X10875100Y-9109200D02*
X10875100Y-9409200D01*
X10725100Y-9259200D02*
X11025100Y-9259200D01*
D11*
X10410119Y-11112976D02*
X10410119Y-10912976D01*
X10457738Y-10912976D01*
X10486310Y-10922500D01*
X10505357Y-10941548D01*
X10514881Y-10960595D01*
X10524405Y-10998690D01*
X10524405Y-11027262D01*
X10514881Y-11065357D01*
X10505357Y-11084405D01*
X10486310Y-11103452D01*
X10457738Y-11112976D01*
X10410119Y-11112976D01*
X10610119Y-11112976D02*
X10610119Y-10979643D01*
X10610119Y-11017738D02*
X10619643Y-10998690D01*
X10629167Y-10989167D01*
X10648214Y-10979643D01*
X10667262Y-10979643D01*
X10733929Y-11112976D02*
X10733929Y-10979643D01*
X10733929Y-10912976D02*
X10724405Y-10922500D01*
X10733929Y-10932024D01*
X10743452Y-10922500D01*
X10733929Y-10912976D01*
X10733929Y-10932024D01*
X10857738Y-11112976D02*
X10838690Y-11103452D01*
X10829167Y-11084405D01*
X10829167Y-10912976D01*
X10962500Y-11112976D02*
X10943452Y-11103452D01*
X10933929Y-11084405D01*
X10933929Y-10912976D01*
X11191071Y-11112976D02*
X11191071Y-10912976D01*
X11257738Y-11055833D01*
X11324405Y-10912976D01*
X11324405Y-11112976D01*
X11505357Y-11112976D02*
X11505357Y-11008214D01*
X11495833Y-10989167D01*
X11476786Y-10979643D01*
X11438690Y-10979643D01*
X11419643Y-10989167D01*
X11505357Y-11103452D02*
X11486309Y-11112976D01*
X11438690Y-11112976D01*
X11419643Y-11103452D01*
X11410119Y-11084405D01*
X11410119Y-11065357D01*
X11419643Y-11046310D01*
X11438690Y-11036786D01*
X11486309Y-11036786D01*
X11505357Y-11027262D01*
X11600595Y-10979643D02*
X11600595Y-11179643D01*
X11600595Y-10989167D02*
X11619643Y-10979643D01*
X11657738Y-10979643D01*
X11676786Y-10989167D01*
X11686309Y-10998690D01*
X11695833Y-11017738D01*
X11695833Y-11074881D01*
X11686309Y-11093929D01*
X11676786Y-11103452D01*
X11657738Y-11112976D01*
X11619643Y-11112976D01*
X11600595Y-11103452D01*
X11781548Y-11093929D02*
X11791071Y-11103452D01*
X11781548Y-11112976D01*
X11772024Y-11103452D01*
X11781548Y-11093929D01*
X11781548Y-11112976D01*
X11781548Y-10989167D02*
X11791071Y-10998690D01*
X11781548Y-11008214D01*
X11772024Y-10998690D01*
X11781548Y-10989167D01*
X11781548Y-11008214D01*
D12*
X10002500Y-11367500D02*
X10152500Y-11517500D01*
X10152500Y-11367500D02*
X10002500Y-11517500D01*
D11*
X10514881Y-11532976D02*
X10400595Y-11532976D01*
X10457738Y-11532976D02*
X10457738Y-11332976D01*
X10438690Y-11361548D01*
X10419643Y-11380595D01*
X10400595Y-11390119D01*
X10600595Y-11513928D02*
X10610119Y-11523452D01*
X10600595Y-11532976D01*
X10591071Y-11523452D01*
X10600595Y-11513928D01*
X10600595Y-11532976D01*
X10791071Y-11332976D02*
X10695833Y-11332976D01*
X10686310Y-11428214D01*
X10695833Y-11418690D01*
X10714881Y-11409167D01*
X10762500Y-11409167D01*
X10781548Y-11418690D01*
X10791071Y-11428214D01*
X10800595Y-11447262D01*
X10800595Y-11494881D01*
X10791071Y-11513928D01*
X10781548Y-11523452D01*
X10762500Y-11532976D01*
X10714881Y-11532976D01*
X10695833Y-11523452D01*
X10686310Y-11513928D01*
X10924405Y-11332976D02*
X10943452Y-11332976D01*
X10962500Y-11342500D01*
X10972024Y-11352024D01*
X10981548Y-11371071D01*
X10991071Y-11409167D01*
X10991071Y-11456786D01*
X10981548Y-11494881D01*
X10972024Y-11513928D01*
X10962500Y-11523452D01*
X10943452Y-11532976D01*
X10924405Y-11532976D01*
X10905357Y-11523452D01*
X10895833Y-11513928D01*
X10886310Y-11494881D01*
X10876786Y-11456786D01*
X10876786Y-11409167D01*
X10886310Y-11371071D01*
X10895833Y-11352024D01*
X10905357Y-11342500D01*
X10924405Y-11332976D01*
X11114881Y-11332976D02*
X11133929Y-11332976D01*
X11152976Y-11342500D01*
X11162500Y-11352024D01*
X11172024Y-11371071D01*
X11181548Y-11409167D01*
X11181548Y-11456786D01*
X11172024Y-11494881D01*
X11162500Y-11513928D01*
X11152976Y-11523452D01*
X11133929Y-11532976D01*
X11114881Y-11532976D01*
X11095833Y-11523452D01*
X11086310Y-11513928D01*
X11076786Y-11494881D01*
X11067262Y-11456786D01*
X11067262Y-11409167D01*
X11076786Y-11371071D01*
X11086310Y-11352024D01*
X11095833Y-11342500D01*
X11114881Y-11332976D01*
X11267262Y-11532976D02*
X11267262Y-11399643D01*
X11267262Y-11418690D02*
X11276786Y-11409167D01*
X11295833Y-11399643D01*
X11324405Y-11399643D01*
X11343452Y-11409167D01*
X11352976Y-11428214D01*
X11352976Y-11532976D01*
X11352976Y-11428214D02*
X11362500Y-11409167D01*
X11381548Y-11399643D01*
X11410119Y-11399643D01*
X11429167Y-11409167D01*
X11438690Y-11428214D01*
X11438690Y-11532976D01*
X11533928Y-11532976D02*
X11533928Y-11399643D01*
X11533928Y-11418690D02*
X11543452Y-11409167D01*
X11562500Y-11399643D01*
X11591071Y-11399643D01*
X11610119Y-11409167D01*
X11619643Y-11428214D01*
X11619643Y-11532976D01*
X11619643Y-11428214D02*
X11629167Y-11409167D01*
X11648214Y-11399643D01*
X11676786Y-11399643D01*
X11695833Y-11409167D01*
X11705357Y-11428214D01*
X11705357Y-11532976D01*
X12095833Y-11323452D02*
X11924405Y-11580595D01*
X12352976Y-11332976D02*
X12372024Y-11332976D01*
X12391071Y-11342500D01*
X12400595Y-11352024D01*
X12410119Y-11371071D01*
X12419643Y-11409167D01*
X12419643Y-11456786D01*
X12410119Y-11494881D01*
X12400595Y-11513928D01*
X12391071Y-11523452D01*
X12372024Y-11532976D01*
X12352976Y-11532976D01*
X12333928Y-11523452D01*
X12324405Y-11513928D01*
X12314881Y-11494881D01*
X12305357Y-11456786D01*
X12305357Y-11409167D01*
X12314881Y-11371071D01*
X12324405Y-11352024D01*
X12333928Y-11342500D01*
X12352976Y-11332976D01*
X12505357Y-11513928D02*
X12514881Y-11523452D01*
X12505357Y-11532976D01*
X12495833Y-11523452D01*
X12505357Y-11513928D01*
X12505357Y-11532976D01*
X12638690Y-11332976D02*
X12657738Y-11332976D01*
X12676786Y-11342500D01*
X12686309Y-11352024D01*
X12695833Y-11371071D01*
X12705357Y-11409167D01*
X12705357Y-11456786D01*
X12695833Y-11494881D01*
X12686309Y-11513928D01*
X12676786Y-11523452D01*
X12657738Y-11532976D01*
X12638690Y-11532976D01*
X12619643Y-11523452D01*
X12610119Y-11513928D01*
X12600595Y-11494881D01*
X12591071Y-11456786D01*
X12591071Y-11409167D01*
X12600595Y-11371071D01*
X12610119Y-11352024D01*
X12619643Y-11342500D01*
X12638690Y-11332976D01*
X12886309Y-11332976D02*
X12791071Y-11332976D01*
X12781548Y-11428214D01*
X12791071Y-11418690D01*
X12810119Y-11409167D01*
X12857738Y-11409167D01*
X12876786Y-11418690D01*
X12886309Y-11428214D01*
X12895833Y-11447262D01*
X12895833Y-11494881D01*
X12886309Y-11513928D01*
X12876786Y-11523452D01*
X12857738Y-11532976D01*
X12810119Y-11532976D01*
X12791071Y-11523452D01*
X12781548Y-11513928D01*
X12991071Y-11532976D02*
X13029167Y-11532976D01*
X13048214Y-11523452D01*
X13057738Y-11513928D01*
X13076786Y-11485357D01*
X13086309Y-11447262D01*
X13086309Y-11371071D01*
X13076786Y-11352024D01*
X13067262Y-11342500D01*
X13048214Y-11332976D01*
X13010119Y-11332976D01*
X12991071Y-11342500D01*
X12981548Y-11352024D01*
X12972024Y-11371071D01*
X12972024Y-11418690D01*
X12981548Y-11437738D01*
X12991071Y-11447262D01*
X13010119Y-11456786D01*
X13048214Y-11456786D01*
X13067262Y-11447262D01*
X13076786Y-11437738D01*
X13086309Y-11418690D01*
X13276786Y-11532976D02*
X13162500Y-11532976D01*
X13219643Y-11532976D02*
X13219643Y-11332976D01*
X13200595Y-11361548D01*
X13181548Y-11380595D01*
X13162500Y-11390119D01*
X13352976Y-11332976D02*
X13352976Y-11371071D01*
X13429167Y-11332976D02*
X13429167Y-11371071D01*
X13724405Y-11609167D02*
X13714881Y-11599643D01*
X13695833Y-11571071D01*
X13686309Y-11552024D01*
X13676786Y-11523452D01*
X13667262Y-11475833D01*
X13667262Y-11437738D01*
X13676786Y-11390119D01*
X13686309Y-11361548D01*
X13695833Y-11342500D01*
X13714881Y-11313928D01*
X13724405Y-11304405D01*
X13791071Y-11352024D02*
X13800595Y-11342500D01*
X13819643Y-11332976D01*
X13867262Y-11332976D01*
X13886309Y-11342500D01*
X13895833Y-11352024D01*
X13905357Y-11371071D01*
X13905357Y-11390119D01*
X13895833Y-11418690D01*
X13781548Y-11532976D01*
X13905357Y-11532976D01*
X14143452Y-11532976D02*
X14143452Y-11332976D01*
X14229167Y-11532976D02*
X14229167Y-11428214D01*
X14219643Y-11409167D01*
X14200595Y-11399643D01*
X14172024Y-11399643D01*
X14152976Y-11409167D01*
X14143452Y-11418690D01*
X14352976Y-11532976D02*
X14333928Y-11523452D01*
X14324405Y-11513928D01*
X14314881Y-11494881D01*
X14314881Y-11437738D01*
X14324405Y-11418690D01*
X14333928Y-11409167D01*
X14352976Y-11399643D01*
X14381548Y-11399643D01*
X14400595Y-11409167D01*
X14410119Y-11418690D01*
X14419643Y-11437738D01*
X14419643Y-11494881D01*
X14410119Y-11513928D01*
X14400595Y-11523452D01*
X14381548Y-11532976D01*
X14352976Y-11532976D01*
X14533928Y-11532976D02*
X14514881Y-11523452D01*
X14505357Y-11504405D01*
X14505357Y-11332976D01*
X14686309Y-11523452D02*
X14667262Y-11532976D01*
X14629167Y-11532976D01*
X14610119Y-11523452D01*
X14600595Y-11504405D01*
X14600595Y-11428214D01*
X14610119Y-11409167D01*
X14629167Y-11399643D01*
X14667262Y-11399643D01*
X14686309Y-11409167D01*
X14695833Y-11428214D01*
X14695833Y-11447262D01*
X14600595Y-11466309D01*
X14772024Y-11523452D02*
X14791071Y-11532976D01*
X14829167Y-11532976D01*
X14848214Y-11523452D01*
X14857738Y-11504405D01*
X14857738Y-11494881D01*
X14848214Y-11475833D01*
X14829167Y-11466309D01*
X14800595Y-11466309D01*
X14781548Y-11456786D01*
X14772024Y-11437738D01*
X14772024Y-11428214D01*
X14781548Y-11409167D01*
X14800595Y-11399643D01*
X14829167Y-11399643D01*
X14848214Y-11409167D01*
X14924405Y-11609167D02*
X14933928Y-11599643D01*
X14952976Y-11571071D01*
X14962500Y-11552024D01*
X14972024Y-11523452D01*
X14981548Y-11475833D01*
X14981548Y-11437738D01*
X14972024Y-11390119D01*
X14962500Y-11361548D01*
X14952976Y-11342500D01*
X14933928Y-11313928D01*
X14924405Y-11304405D01*
X15286309Y-11609167D02*
X15276786Y-11599643D01*
X15257738Y-11571071D01*
X15248214Y-11552024D01*
X15238690Y-11523452D01*
X15229167Y-11475833D01*
X15229167Y-11437738D01*
X15238690Y-11390119D01*
X15248214Y-11361548D01*
X15257738Y-11342500D01*
X15276786Y-11313928D01*
X15286309Y-11304405D01*
X15362500Y-11399643D02*
X15362500Y-11532976D01*
X15362500Y-11418690D02*
X15372024Y-11409167D01*
X15391071Y-11399643D01*
X15419643Y-11399643D01*
X15438690Y-11409167D01*
X15448214Y-11428214D01*
X15448214Y-11532976D01*
X15572024Y-11532976D02*
X15552976Y-11523452D01*
X15543452Y-11513928D01*
X15533928Y-11494881D01*
X15533928Y-11437738D01*
X15543452Y-11418690D01*
X15552976Y-11409167D01*
X15572024Y-11399643D01*
X15600595Y-11399643D01*
X15619643Y-11409167D01*
X15629167Y-11418690D01*
X15638690Y-11437738D01*
X15638690Y-11494881D01*
X15629167Y-11513928D01*
X15619643Y-11523452D01*
X15600595Y-11532976D01*
X15572024Y-11532976D01*
X15695833Y-11399643D02*
X15772024Y-11399643D01*
X15724405Y-11332976D02*
X15724405Y-11504405D01*
X15733928Y-11523452D01*
X15752976Y-11532976D01*
X15772024Y-11532976D01*
X15991071Y-11399643D02*
X15991071Y-11599643D01*
X15991071Y-11409167D02*
X16010119Y-11399643D01*
X16048214Y-11399643D01*
X16067262Y-11409167D01*
X16076786Y-11418690D01*
X16086309Y-11437738D01*
X16086309Y-11494881D01*
X16076786Y-11513928D01*
X16067262Y-11523452D01*
X16048214Y-11532976D01*
X16010119Y-11532976D01*
X15991071Y-11523452D01*
X16200595Y-11532976D02*
X16181548Y-11523452D01*
X16172024Y-11504405D01*
X16172024Y-11332976D01*
X16362500Y-11532976D02*
X16362500Y-11428214D01*
X16352976Y-11409167D01*
X16333928Y-11399643D01*
X16295833Y-11399643D01*
X16276786Y-11409167D01*
X16362500Y-11523452D02*
X16343452Y-11532976D01*
X16295833Y-11532976D01*
X16276786Y-11523452D01*
X16267262Y-11504405D01*
X16267262Y-11485357D01*
X16276786Y-11466309D01*
X16295833Y-11456786D01*
X16343452Y-11456786D01*
X16362500Y-11447262D01*
X16429167Y-11399643D02*
X16505357Y-11399643D01*
X16457738Y-11332976D02*
X16457738Y-11504405D01*
X16467262Y-11523452D01*
X16486309Y-11532976D01*
X16505357Y-11532976D01*
X16648214Y-11523452D02*
X16629167Y-11532976D01*
X16591071Y-11532976D01*
X16572024Y-11523452D01*
X16562500Y-11504405D01*
X16562500Y-11428214D01*
X16572024Y-11409167D01*
X16591071Y-11399643D01*
X16629167Y-11399643D01*
X16648214Y-11409167D01*
X16657738Y-11428214D01*
X16657738Y-11447262D01*
X16562500Y-11466309D01*
X16829167Y-11532976D02*
X16829167Y-11332976D01*
X16829167Y-11523452D02*
X16810119Y-11532976D01*
X16772024Y-11532976D01*
X16752976Y-11523452D01*
X16743452Y-11513928D01*
X16733928Y-11494881D01*
X16733928Y-11437738D01*
X16743452Y-11418690D01*
X16752976Y-11409167D01*
X16772024Y-11399643D01*
X16810119Y-11399643D01*
X16829167Y-11409167D01*
X16905357Y-11609167D02*
X16914881Y-11599643D01*
X16933929Y-11571071D01*
X16943452Y-11552024D01*
X16952976Y-11523452D01*
X16962500Y-11475833D01*
X16962500Y-11437738D01*
X16952976Y-11390119D01*
X16943452Y-11361548D01*
X16933929Y-11342500D01*
X16914881Y-11313928D01*
X16905357Y-11304405D01*
D13*
X10152500Y-11712500D02*
G75*
G03*
X10152500Y-11712500I-90000J0D01*
G01*
D11*
X10514881Y-11802976D02*
X10400595Y-11802976D01*
X10457738Y-11802976D02*
X10457738Y-11602976D01*
X10438690Y-11631548D01*
X10419643Y-11650595D01*
X10400595Y-11660119D01*
X10600595Y-11783928D02*
X10610119Y-11793452D01*
X10600595Y-11802976D01*
X10591071Y-11793452D01*
X10600595Y-11783928D01*
X10600595Y-11802976D01*
X10724405Y-11688690D02*
X10705357Y-11679167D01*
X10695833Y-11669643D01*
X10686310Y-11650595D01*
X10686310Y-11641071D01*
X10695833Y-11622024D01*
X10705357Y-11612500D01*
X10724405Y-11602976D01*
X10762500Y-11602976D01*
X10781548Y-11612500D01*
X10791071Y-11622024D01*
X10800595Y-11641071D01*
X10800595Y-11650595D01*
X10791071Y-11669643D01*
X10781548Y-11679167D01*
X10762500Y-11688690D01*
X10724405Y-11688690D01*
X10705357Y-11698214D01*
X10695833Y-11707738D01*
X10686310Y-11726786D01*
X10686310Y-11764881D01*
X10695833Y-11783928D01*
X10705357Y-11793452D01*
X10724405Y-11802976D01*
X10762500Y-11802976D01*
X10781548Y-11793452D01*
X10791071Y-11783928D01*
X10800595Y-11764881D01*
X10800595Y-11726786D01*
X10791071Y-11707738D01*
X10781548Y-11698214D01*
X10762500Y-11688690D01*
X10924405Y-11602976D02*
X10943452Y-11602976D01*
X10962500Y-11612500D01*
X10972024Y-11622024D01*
X10981548Y-11641071D01*
X10991071Y-11679167D01*
X10991071Y-11726786D01*
X10981548Y-11764881D01*
X10972024Y-11783928D01*
X10962500Y-11793452D01*
X10943452Y-11802976D01*
X10924405Y-11802976D01*
X10905357Y-11793452D01*
X10895833Y-11783928D01*
X10886310Y-11764881D01*
X10876786Y-11726786D01*
X10876786Y-11679167D01*
X10886310Y-11641071D01*
X10895833Y-11622024D01*
X10905357Y-11612500D01*
X10924405Y-11602976D01*
X11114881Y-11602976D02*
X11133929Y-11602976D01*
X11152976Y-11612500D01*
X11162500Y-11622024D01*
X11172024Y-11641071D01*
X11181548Y-11679167D01*
X11181548Y-11726786D01*
X11172024Y-11764881D01*
X11162500Y-11783928D01*
X11152976Y-11793452D01*
X11133929Y-11802976D01*
X11114881Y-11802976D01*
X11095833Y-11793452D01*
X11086310Y-11783928D01*
X11076786Y-11764881D01*
X11067262Y-11726786D01*
X11067262Y-11679167D01*
X11076786Y-11641071D01*
X11086310Y-11622024D01*
X11095833Y-11612500D01*
X11114881Y-11602976D01*
X11267262Y-11802976D02*
X11267262Y-11669643D01*
X11267262Y-11688690D02*
X11276786Y-11679167D01*
X11295833Y-11669643D01*
X11324405Y-11669643D01*
X11343452Y-11679167D01*
X11352976Y-11698214D01*
X11352976Y-11802976D01*
X11352976Y-11698214D02*
X11362500Y-11679167D01*
X11381548Y-11669643D01*
X11410119Y-11669643D01*
X11429167Y-11679167D01*
X11438690Y-11698214D01*
X11438690Y-11802976D01*
X11533928Y-11802976D02*
X11533928Y-11669643D01*
X11533928Y-11688690D02*
X11543452Y-11679167D01*
X11562500Y-11669643D01*
X11591071Y-11669643D01*
X11610119Y-11679167D01*
X11619643Y-11698214D01*
X11619643Y-11802976D01*
X11619643Y-11698214D02*
X11629167Y-11679167D01*
X11648214Y-11669643D01*
X11676786Y-11669643D01*
X11695833Y-11679167D01*
X11705357Y-11698214D01*
X11705357Y-11802976D01*
X12095833Y-11593452D02*
X11924405Y-11850595D01*
X12352976Y-11602976D02*
X12372024Y-11602976D01*
X12391071Y-11612500D01*
X12400595Y-11622024D01*
X12410119Y-11641071D01*
X12419643Y-11679167D01*
X12419643Y-11726786D01*
X12410119Y-11764881D01*
X12400595Y-11783928D01*
X12391071Y-11793452D01*
X12372024Y-11802976D01*
X12352976Y-11802976D01*
X12333928Y-11793452D01*
X12324405Y-11783928D01*
X12314881Y-11764881D01*
X12305357Y-11726786D01*
X12305357Y-11679167D01*
X12314881Y-11641071D01*
X12324405Y-11622024D01*
X12333928Y-11612500D01*
X12352976Y-11602976D01*
X12505357Y-11783928D02*
X12514881Y-11793452D01*
X12505357Y-11802976D01*
X12495833Y-11793452D01*
X12505357Y-11783928D01*
X12505357Y-11802976D01*
X12638690Y-11602976D02*
X12657738Y-11602976D01*
X12676786Y-11612500D01*
X12686309Y-11622024D01*
X12695833Y-11641071D01*
X12705357Y-11679167D01*
X12705357Y-11726786D01*
X12695833Y-11764881D01*
X12686309Y-11783928D01*
X12676786Y-11793452D01*
X12657738Y-11802976D01*
X12638690Y-11802976D01*
X12619643Y-11793452D01*
X12610119Y-11783928D01*
X12600595Y-11764881D01*
X12591071Y-11726786D01*
X12591071Y-11679167D01*
X12600595Y-11641071D01*
X12610119Y-11622024D01*
X12619643Y-11612500D01*
X12638690Y-11602976D01*
X12772024Y-11602976D02*
X12905357Y-11602976D01*
X12819643Y-11802976D01*
X13019643Y-11602976D02*
X13038690Y-11602976D01*
X13057738Y-11612500D01*
X13067262Y-11622024D01*
X13076786Y-11641071D01*
X13086309Y-11679167D01*
X13086309Y-11726786D01*
X13076786Y-11764881D01*
X13067262Y-11783928D01*
X13057738Y-11793452D01*
X13038690Y-11802976D01*
X13019643Y-11802976D01*
X13000595Y-11793452D01*
X12991071Y-11783928D01*
X12981548Y-11764881D01*
X12972024Y-11726786D01*
X12972024Y-11679167D01*
X12981548Y-11641071D01*
X12991071Y-11622024D01*
X13000595Y-11612500D01*
X13019643Y-11602976D01*
X13181548Y-11802976D02*
X13219643Y-11802976D01*
X13238690Y-11793452D01*
X13248214Y-11783928D01*
X13267262Y-11755357D01*
X13276786Y-11717262D01*
X13276786Y-11641071D01*
X13267262Y-11622024D01*
X13257738Y-11612500D01*
X13238690Y-11602976D01*
X13200595Y-11602976D01*
X13181548Y-11612500D01*
X13172024Y-11622024D01*
X13162500Y-11641071D01*
X13162500Y-11688690D01*
X13172024Y-11707738D01*
X13181548Y-11717262D01*
X13200595Y-11726786D01*
X13238690Y-11726786D01*
X13257738Y-11717262D01*
X13267262Y-11707738D01*
X13276786Y-11688690D01*
X13352976Y-11602976D02*
X13352976Y-11641071D01*
X13429167Y-11602976D02*
X13429167Y-11641071D01*
X13724405Y-11879167D02*
X13714881Y-11869643D01*
X13695833Y-11841071D01*
X13686309Y-11822024D01*
X13676786Y-11793452D01*
X13667262Y-11745833D01*
X13667262Y-11707738D01*
X13676786Y-11660119D01*
X13686309Y-11631548D01*
X13695833Y-11612500D01*
X13714881Y-11583928D01*
X13724405Y-11574405D01*
X13791071Y-11622024D02*
X13800595Y-11612500D01*
X13819643Y-11602976D01*
X13867262Y-11602976D01*
X13886309Y-11612500D01*
X13895833Y-11622024D01*
X13905357Y-11641071D01*
X13905357Y-11660119D01*
X13895833Y-11688690D01*
X13781548Y-11802976D01*
X13905357Y-11802976D01*
X14143452Y-11802976D02*
X14143452Y-11602976D01*
X14229167Y-11802976D02*
X14229167Y-11698214D01*
X14219643Y-11679167D01*
X14200595Y-11669643D01*
X14172024Y-11669643D01*
X14152976Y-11679167D01*
X14143452Y-11688690D01*
X14352976Y-11802976D02*
X14333928Y-11793452D01*
X14324405Y-11783928D01*
X14314881Y-11764881D01*
X14314881Y-11707738D01*
X14324405Y-11688690D01*
X14333928Y-11679167D01*
X14352976Y-11669643D01*
X14381548Y-11669643D01*
X14400595Y-11679167D01*
X14410119Y-11688690D01*
X14419643Y-11707738D01*
X14419643Y-11764881D01*
X14410119Y-11783928D01*
X14400595Y-11793452D01*
X14381548Y-11802976D01*
X14352976Y-11802976D01*
X14533928Y-11802976D02*
X14514881Y-11793452D01*
X14505357Y-11774405D01*
X14505357Y-11602976D01*
X14686309Y-11793452D02*
X14667262Y-11802976D01*
X14629167Y-11802976D01*
X14610119Y-11793452D01*
X14600595Y-11774405D01*
X14600595Y-11698214D01*
X14610119Y-11679167D01*
X14629167Y-11669643D01*
X14667262Y-11669643D01*
X14686309Y-11679167D01*
X14695833Y-11698214D01*
X14695833Y-11717262D01*
X14600595Y-11736309D01*
X14772024Y-11793452D02*
X14791071Y-11802976D01*
X14829167Y-11802976D01*
X14848214Y-11793452D01*
X14857738Y-11774405D01*
X14857738Y-11764881D01*
X14848214Y-11745833D01*
X14829167Y-11736309D01*
X14800595Y-11736309D01*
X14781548Y-11726786D01*
X14772024Y-11707738D01*
X14772024Y-11698214D01*
X14781548Y-11679167D01*
X14800595Y-11669643D01*
X14829167Y-11669643D01*
X14848214Y-11679167D01*
X14924405Y-11879167D02*
X14933928Y-11869643D01*
X14952976Y-11841071D01*
X14962500Y-11822024D01*
X14972024Y-11793452D01*
X14981548Y-11745833D01*
X14981548Y-11707738D01*
X14972024Y-11660119D01*
X14962500Y-11631548D01*
X14952976Y-11612500D01*
X14933928Y-11583928D01*
X14924405Y-11574405D01*
X15286309Y-11879167D02*
X15276786Y-11869643D01*
X15257738Y-11841071D01*
X15248214Y-11822024D01*
X15238690Y-11793452D01*
X15229167Y-11745833D01*
X15229167Y-11707738D01*
X15238690Y-11660119D01*
X15248214Y-11631548D01*
X15257738Y-11612500D01*
X15276786Y-11583928D01*
X15286309Y-11574405D01*
X15362500Y-11669643D02*
X15362500Y-11802976D01*
X15362500Y-11688690D02*
X15372024Y-11679167D01*
X15391071Y-11669643D01*
X15419643Y-11669643D01*
X15438690Y-11679167D01*
X15448214Y-11698214D01*
X15448214Y-11802976D01*
X15572024Y-11802976D02*
X15552976Y-11793452D01*
X15543452Y-11783928D01*
X15533928Y-11764881D01*
X15533928Y-11707738D01*
X15543452Y-11688690D01*
X15552976Y-11679167D01*
X15572024Y-11669643D01*
X15600595Y-11669643D01*
X15619643Y-11679167D01*
X15629167Y-11688690D01*
X15638690Y-11707738D01*
X15638690Y-11764881D01*
X15629167Y-11783928D01*
X15619643Y-11793452D01*
X15600595Y-11802976D01*
X15572024Y-11802976D01*
X15695833Y-11669643D02*
X15772024Y-11669643D01*
X15724405Y-11602976D02*
X15724405Y-11774405D01*
X15733928Y-11793452D01*
X15752976Y-11802976D01*
X15772024Y-11802976D01*
X15991071Y-11669643D02*
X15991071Y-11869643D01*
X15991071Y-11679167D02*
X16010119Y-11669643D01*
X16048214Y-11669643D01*
X16067262Y-11679167D01*
X16076786Y-11688690D01*
X16086309Y-11707738D01*
X16086309Y-11764881D01*
X16076786Y-11783928D01*
X16067262Y-11793452D01*
X16048214Y-11802976D01*
X16010119Y-11802976D01*
X15991071Y-11793452D01*
X16200595Y-11802976D02*
X16181548Y-11793452D01*
X16172024Y-11774405D01*
X16172024Y-11602976D01*
X16362500Y-11802976D02*
X16362500Y-11698214D01*
X16352976Y-11679167D01*
X16333928Y-11669643D01*
X16295833Y-11669643D01*
X16276786Y-11679167D01*
X16362500Y-11793452D02*
X16343452Y-11802976D01*
X16295833Y-11802976D01*
X16276786Y-11793452D01*
X16267262Y-11774405D01*
X16267262Y-11755357D01*
X16276786Y-11736309D01*
X16295833Y-11726786D01*
X16343452Y-11726786D01*
X16362500Y-11717262D01*
X16429167Y-11669643D02*
X16505357Y-11669643D01*
X16457738Y-11602976D02*
X16457738Y-11774405D01*
X16467262Y-11793452D01*
X16486309Y-11802976D01*
X16505357Y-11802976D01*
X16648214Y-11793452D02*
X16629167Y-11802976D01*
X16591071Y-11802976D01*
X16572024Y-11793452D01*
X16562500Y-11774405D01*
X16562500Y-11698214D01*
X16572024Y-11679167D01*
X16591071Y-11669643D01*
X16629167Y-11669643D01*
X16648214Y-11679167D01*
X16657738Y-11698214D01*
X16657738Y-11717262D01*
X16562500Y-11736309D01*
X16829167Y-11802976D02*
X16829167Y-11602976D01*
X16829167Y-11793452D02*
X16810119Y-11802976D01*
X16772024Y-11802976D01*
X16752976Y-11793452D01*
X16743452Y-11783928D01*
X16733928Y-11764881D01*
X16733928Y-11707738D01*
X16743452Y-11688690D01*
X16752976Y-11679167D01*
X16772024Y-11669643D01*
X16810119Y-11669643D01*
X16829167Y-11679167D01*
X16905357Y-11879167D02*
X16914881Y-11869643D01*
X16933929Y-11841071D01*
X16943452Y-11822024D01*
X16952976Y-11793452D01*
X16962500Y-11745833D01*
X16962500Y-11707738D01*
X16952976Y-11660119D01*
X16943452Y-11631548D01*
X16933929Y-11612500D01*
X16914881Y-11583928D01*
X16905357Y-11574405D01*
X10052500Y-11912500D02*
X10052500Y-12112500D01*
X9952500Y-12012500D02*
X10152500Y-12012500D01*
X10391071Y-11902976D02*
X10514881Y-11902976D01*
X10448214Y-11979167D01*
X10476786Y-11979167D01*
X10495833Y-11988690D01*
X10505357Y-11998214D01*
X10514881Y-12017262D01*
X10514881Y-12064881D01*
X10505357Y-12083928D01*
X10495833Y-12093452D01*
X10476786Y-12102976D01*
X10419643Y-12102976D01*
X10400595Y-12093452D01*
X10391071Y-12083928D01*
X10600595Y-12083928D02*
X10610119Y-12093452D01*
X10600595Y-12102976D01*
X10591071Y-12093452D01*
X10600595Y-12083928D01*
X10600595Y-12102976D01*
X10733929Y-11902976D02*
X10752976Y-11902976D01*
X10772024Y-11912500D01*
X10781548Y-11922024D01*
X10791071Y-11941071D01*
X10800595Y-11979167D01*
X10800595Y-12026786D01*
X10791071Y-12064881D01*
X10781548Y-12083928D01*
X10772024Y-12093452D01*
X10752976Y-12102976D01*
X10733929Y-12102976D01*
X10714881Y-12093452D01*
X10705357Y-12083928D01*
X10695833Y-12064881D01*
X10686310Y-12026786D01*
X10686310Y-11979167D01*
X10695833Y-11941071D01*
X10705357Y-11922024D01*
X10714881Y-11912500D01*
X10733929Y-11902976D01*
X10924405Y-11902976D02*
X10943452Y-11902976D01*
X10962500Y-11912500D01*
X10972024Y-11922024D01*
X10981548Y-11941071D01*
X10991071Y-11979167D01*
X10991071Y-12026786D01*
X10981548Y-12064881D01*
X10972024Y-12083928D01*
X10962500Y-12093452D01*
X10943452Y-12102976D01*
X10924405Y-12102976D01*
X10905357Y-12093452D01*
X10895833Y-12083928D01*
X10886310Y-12064881D01*
X10876786Y-12026786D01*
X10876786Y-11979167D01*
X10886310Y-11941071D01*
X10895833Y-11922024D01*
X10905357Y-11912500D01*
X10924405Y-11902976D01*
X11114881Y-11902976D02*
X11133929Y-11902976D01*
X11152976Y-11912500D01*
X11162500Y-11922024D01*
X11172024Y-11941071D01*
X11181548Y-11979167D01*
X11181548Y-12026786D01*
X11172024Y-12064881D01*
X11162500Y-12083928D01*
X11152976Y-12093452D01*
X11133929Y-12102976D01*
X11114881Y-12102976D01*
X11095833Y-12093452D01*
X11086310Y-12083928D01*
X11076786Y-12064881D01*
X11067262Y-12026786D01*
X11067262Y-11979167D01*
X11076786Y-11941071D01*
X11086310Y-11922024D01*
X11095833Y-11912500D01*
X11114881Y-11902976D01*
X11267262Y-12102976D02*
X11267262Y-11969643D01*
X11267262Y-11988690D02*
X11276786Y-11979167D01*
X11295833Y-11969643D01*
X11324405Y-11969643D01*
X11343452Y-11979167D01*
X11352976Y-11998214D01*
X11352976Y-12102976D01*
X11352976Y-11998214D02*
X11362500Y-11979167D01*
X11381548Y-11969643D01*
X11410119Y-11969643D01*
X11429167Y-11979167D01*
X11438690Y-11998214D01*
X11438690Y-12102976D01*
X11533928Y-12102976D02*
X11533928Y-11969643D01*
X11533928Y-11988690D02*
X11543452Y-11979167D01*
X11562500Y-11969643D01*
X11591071Y-11969643D01*
X11610119Y-11979167D01*
X11619643Y-11998214D01*
X11619643Y-12102976D01*
X11619643Y-11998214D02*
X11629167Y-11979167D01*
X11648214Y-11969643D01*
X11676786Y-11969643D01*
X11695833Y-11979167D01*
X11705357Y-11998214D01*
X11705357Y-12102976D01*
X12095833Y-11893452D02*
X11924405Y-12150595D01*
X12352976Y-11902976D02*
X12372024Y-11902976D01*
X12391071Y-11912500D01*
X12400595Y-11922024D01*
X12410119Y-11941071D01*
X12419643Y-11979167D01*
X12419643Y-12026786D01*
X12410119Y-12064881D01*
X12400595Y-12083928D01*
X12391071Y-12093452D01*
X12372024Y-12102976D01*
X12352976Y-12102976D01*
X12333928Y-12093452D01*
X12324405Y-12083928D01*
X12314881Y-12064881D01*
X12305357Y-12026786D01*
X12305357Y-11979167D01*
X12314881Y-11941071D01*
X12324405Y-11922024D01*
X12333928Y-11912500D01*
X12352976Y-11902976D01*
X12505357Y-12083928D02*
X12514881Y-12093452D01*
X12505357Y-12102976D01*
X12495833Y-12093452D01*
X12505357Y-12083928D01*
X12505357Y-12102976D01*
X12705357Y-12102976D02*
X12591071Y-12102976D01*
X12648214Y-12102976D02*
X12648214Y-11902976D01*
X12629167Y-11931548D01*
X12610119Y-11950595D01*
X12591071Y-11960119D01*
X12895833Y-12102976D02*
X12781548Y-12102976D01*
X12838690Y-12102976D02*
X12838690Y-11902976D01*
X12819643Y-11931548D01*
X12800595Y-11950595D01*
X12781548Y-11960119D01*
X13010119Y-11988690D02*
X12991071Y-11979167D01*
X12981548Y-11969643D01*
X12972024Y-11950595D01*
X12972024Y-11941071D01*
X12981548Y-11922024D01*
X12991071Y-11912500D01*
X13010119Y-11902976D01*
X13048214Y-11902976D01*
X13067262Y-11912500D01*
X13076786Y-11922024D01*
X13086309Y-11941071D01*
X13086309Y-11950595D01*
X13076786Y-11969643D01*
X13067262Y-11979167D01*
X13048214Y-11988690D01*
X13010119Y-11988690D01*
X12991071Y-11998214D01*
X12981548Y-12007738D01*
X12972024Y-12026786D01*
X12972024Y-12064881D01*
X12981548Y-12083928D01*
X12991071Y-12093452D01*
X13010119Y-12102976D01*
X13048214Y-12102976D01*
X13067262Y-12093452D01*
X13076786Y-12083928D01*
X13086309Y-12064881D01*
X13086309Y-12026786D01*
X13076786Y-12007738D01*
X13067262Y-11998214D01*
X13048214Y-11988690D01*
X13276786Y-12102976D02*
X13162500Y-12102976D01*
X13219643Y-12102976D02*
X13219643Y-11902976D01*
X13200595Y-11931548D01*
X13181548Y-11950595D01*
X13162500Y-11960119D01*
X13352976Y-11902976D02*
X13352976Y-11941071D01*
X13429167Y-11902976D02*
X13429167Y-11941071D01*
X13724405Y-12179167D02*
X13714881Y-12169643D01*
X13695833Y-12141071D01*
X13686309Y-12122024D01*
X13676786Y-12093452D01*
X13667262Y-12045833D01*
X13667262Y-12007738D01*
X13676786Y-11960119D01*
X13686309Y-11931548D01*
X13695833Y-11912500D01*
X13714881Y-11883928D01*
X13724405Y-11874405D01*
X13886309Y-11969643D02*
X13886309Y-12102976D01*
X13838690Y-11893452D02*
X13791071Y-12036309D01*
X13914881Y-12036309D01*
X14143452Y-12102976D02*
X14143452Y-11902976D01*
X14229167Y-12102976D02*
X14229167Y-11998214D01*
X14219643Y-11979167D01*
X14200595Y-11969643D01*
X14172024Y-11969643D01*
X14152976Y-11979167D01*
X14143452Y-11988690D01*
X14352976Y-12102976D02*
X14333928Y-12093452D01*
X14324405Y-12083928D01*
X14314881Y-12064881D01*
X14314881Y-12007738D01*
X14324405Y-11988690D01*
X14333928Y-11979167D01*
X14352976Y-11969643D01*
X14381548Y-11969643D01*
X14400595Y-11979167D01*
X14410119Y-11988690D01*
X14419643Y-12007738D01*
X14419643Y-12064881D01*
X14410119Y-12083928D01*
X14400595Y-12093452D01*
X14381548Y-12102976D01*
X14352976Y-12102976D01*
X14533928Y-12102976D02*
X14514881Y-12093452D01*
X14505357Y-12074405D01*
X14505357Y-11902976D01*
X14686309Y-12093452D02*
X14667262Y-12102976D01*
X14629167Y-12102976D01*
X14610119Y-12093452D01*
X14600595Y-12074405D01*
X14600595Y-11998214D01*
X14610119Y-11979167D01*
X14629167Y-11969643D01*
X14667262Y-11969643D01*
X14686309Y-11979167D01*
X14695833Y-11998214D01*
X14695833Y-12017262D01*
X14600595Y-12036309D01*
X14772024Y-12093452D02*
X14791071Y-12102976D01*
X14829167Y-12102976D01*
X14848214Y-12093452D01*
X14857738Y-12074405D01*
X14857738Y-12064881D01*
X14848214Y-12045833D01*
X14829167Y-12036309D01*
X14800595Y-12036309D01*
X14781548Y-12026786D01*
X14772024Y-12007738D01*
X14772024Y-11998214D01*
X14781548Y-11979167D01*
X14800595Y-11969643D01*
X14829167Y-11969643D01*
X14848214Y-11979167D01*
X14924405Y-12179167D02*
X14933928Y-12169643D01*
X14952976Y-12141071D01*
X14962500Y-12122024D01*
X14972024Y-12093452D01*
X14981548Y-12045833D01*
X14981548Y-12007738D01*
X14972024Y-11960119D01*
X14962500Y-11931548D01*
X14952976Y-11912500D01*
X14933928Y-11883928D01*
X14924405Y-11874405D01*
X15286309Y-12179167D02*
X15276786Y-12169643D01*
X15257738Y-12141071D01*
X15248214Y-12122024D01*
X15238690Y-12093452D01*
X15229167Y-12045833D01*
X15229167Y-12007738D01*
X15238690Y-11960119D01*
X15248214Y-11931548D01*
X15257738Y-11912500D01*
X15276786Y-11883928D01*
X15286309Y-11874405D01*
X15362500Y-11969643D02*
X15362500Y-12102976D01*
X15362500Y-11988690D02*
X15372024Y-11979167D01*
X15391071Y-11969643D01*
X15419643Y-11969643D01*
X15438690Y-11979167D01*
X15448214Y-11998214D01*
X15448214Y-12102976D01*
X15572024Y-12102976D02*
X15552976Y-12093452D01*
X15543452Y-12083928D01*
X15533928Y-12064881D01*
X15533928Y-12007738D01*
X15543452Y-11988690D01*
X15552976Y-11979167D01*
X15572024Y-11969643D01*
X15600595Y-11969643D01*
X15619643Y-11979167D01*
X15629167Y-11988690D01*
X15638690Y-12007738D01*
X15638690Y-12064881D01*
X15629167Y-12083928D01*
X15619643Y-12093452D01*
X15600595Y-12102976D01*
X15572024Y-12102976D01*
X15695833Y-11969643D02*
X15772024Y-11969643D01*
X15724405Y-11902976D02*
X15724405Y-12074405D01*
X15733928Y-12093452D01*
X15752976Y-12102976D01*
X15772024Y-12102976D01*
X15991071Y-11969643D02*
X15991071Y-12169643D01*
X15991071Y-11979167D02*
X16010119Y-11969643D01*
X16048214Y-11969643D01*
X16067262Y-11979167D01*
X16076786Y-11988690D01*
X16086309Y-12007738D01*
X16086309Y-12064881D01*
X16076786Y-12083928D01*
X16067262Y-12093452D01*
X16048214Y-12102976D01*
X16010119Y-12102976D01*
X15991071Y-12093452D01*
X16200595Y-12102976D02*
X16181548Y-12093452D01*
X16172024Y-12074405D01*
X16172024Y-11902976D01*
X16362500Y-12102976D02*
X16362500Y-11998214D01*
X16352976Y-11979167D01*
X16333928Y-11969643D01*
X16295833Y-11969643D01*
X16276786Y-11979167D01*
X16362500Y-12093452D02*
X16343452Y-12102976D01*
X16295833Y-12102976D01*
X16276786Y-12093452D01*
X16267262Y-12074405D01*
X16267262Y-12055357D01*
X16276786Y-12036309D01*
X16295833Y-12026786D01*
X16343452Y-12026786D01*
X16362500Y-12017262D01*
X16429167Y-11969643D02*
X16505357Y-11969643D01*
X16457738Y-11902976D02*
X16457738Y-12074405D01*
X16467262Y-12093452D01*
X16486309Y-12102976D01*
X16505357Y-12102976D01*
X16648214Y-12093452D02*
X16629167Y-12102976D01*
X16591071Y-12102976D01*
X16572024Y-12093452D01*
X16562500Y-12074405D01*
X16562500Y-11998214D01*
X16572024Y-11979167D01*
X16591071Y-11969643D01*
X16629167Y-11969643D01*
X16648214Y-11979167D01*
X16657738Y-11998214D01*
X16657738Y-12017262D01*
X16562500Y-12036309D01*
X16829167Y-12102976D02*
X16829167Y-11902976D01*
X16829167Y-12093452D02*
X16810119Y-12102976D01*
X16772024Y-12102976D01*
X16752976Y-12093452D01*
X16743452Y-12083928D01*
X16733928Y-12064881D01*
X16733928Y-12007738D01*
X16743452Y-11988690D01*
X16752976Y-11979167D01*
X16772024Y-11969643D01*
X16810119Y-11969643D01*
X16829167Y-11979167D01*
X16905357Y-12179167D02*
X16914881Y-12169643D01*
X16933929Y-12141071D01*
X16943452Y-12122024D01*
X16952976Y-12093452D01*
X16962500Y-12045833D01*
X16962500Y-12007738D01*
X16952976Y-11960119D01*
X16943452Y-11931548D01*
X16933929Y-11912500D01*
X16914881Y-11883928D01*
X16905357Y-11874405D01*
M02*
