M48
; DRILL file {KiCad (6.0.1)} date Wed Jan 11 22:25:57 2023
; FORMAT={-:-/ absolute / metric / decimal}
; #@! TF.CreationDate,2023-01-11T22:25:57-05:00
; #@! TF.GenerationSoftware,Kicad,Pcbnew,(6.0.1)
; #@! TF.FileFunction,Plated,1,4,PTH
FMAT,2
METRIC
; #@! TA.AperFunction,Plated,PTH,ViaDrill
T1C0.400
; #@! TA.AperFunction,Plated,PTH,ComponentDrill
T2C0.500
; #@! TA.AperFunction,Plated,PTH,ComponentDrill
T3C0.800
; #@! TA.AperFunction,Plated,PTH,ComponentDrill
T4C0.940
; #@! TA.AperFunction,Plated,PTH,ComponentDrill
T5C1.000
; #@! TA.AperFunction,Plated,PTH,ComponentDrill
T6C1.020
; #@! TA.AperFunction,Plated,PTH,ComponentDrill
T7C1.200
; #@! TA.AperFunction,Plated,PTH,ComponentDrill
T8C1.780
; #@! TA.AperFunction,Plated,PTH,ComponentDrill
T9C1.800
; #@! TA.AperFunction,Plated,PTH,ComponentDrill
T10C3.200
%
G90
G05
T1
X105.147Y-17.018
X110.744Y-34.29
X111.76Y-34.29
X112.776Y-34.29
X117.729Y-104.14
X118.364Y-17.272
X123.19Y-7.874
X123.19Y-17.145
X143.256Y-24.13
X143.256Y-62.23
X143.383Y-41.275
X144.272Y-105.41
X144.653Y-43.815
X144.78Y-70.358
X144.799Y-71.357
X146.05Y-72.001
X146.177Y-13.716
X146.177Y-14.732
X146.177Y-15.748
X146.177Y-16.764
X146.558Y-26.162
X148.844Y-25.273
X150.241Y-48.895
X150.876Y-44.196
X151.13Y-69.088
X151.13Y-70.3
X152.146Y-44.196
X153.416Y-44.196
X154.686Y-44.196
X155.067Y-82.931
X155.067Y-89.662
X155.956Y-44.196
X156.6Y-69.96
X157.226Y-65.278
X157.524Y-101.6
X158.242Y-33.528
X158.496Y-62.484
X160.064Y-101.6
X161.29Y-93.345
X161.798Y-70.937
X162.56Y-25.273
X162.604Y-101.6
X162.687Y-66.548
X163.703Y-34.925
X163.83Y-40.005
X163.83Y-56.515
X163.83Y-61.722
X163.957Y-25.273
X164.338Y-83.185
X165.144Y-101.6
X165.735Y-8.255
X166.668Y-105.156
X167.64Y-28.067
X168.529Y-19.812
X169.589Y-91.186
X169.589Y-92.462
X169.672Y-40.005
X169.672Y-61.722
X170.18Y-19.812
X171.069Y-43.815
X171.45Y-9.906
X171.45Y-12.7
X171.45Y-24.765
X171.491Y-27.94
X171.577Y-58.928
X171.831Y-19.812
X171.958Y-53.975
X172.212Y-40.894
X172.212Y-65.278
X172.466Y-67.818
X172.974Y-27.981
X173.101Y-48.895
X173.101Y-51.435
X173.101Y-53.975
X173.101Y-56.515
X173.101Y-62.611
X173.101Y-71.247
X173.101Y-72.263
X173.228Y-12.7
X173.399Y-89.916
X173.399Y-91.821
X173.682Y-40.894
X173.727Y-69.03
X173.736Y-67.691
X173.736Y-74.422
X173.736Y-76.962
X173.99Y-9.906
X174.371Y-90.868
X175.304Y-89.916
X175.304Y-91.821
X176.403Y-10.795
X176.53Y-19.812
X177.673Y-31.115
X177.8Y-10.795
X178.689Y-87.757
X178.689Y-90.551
X178.69Y-91.958
X178.7Y-92.964
X179.07Y-10.795
X180.34Y-17.78
X180.721Y-7.493
X180.848Y-14.859
X182.88Y-46.355
X183.134Y-24.003
X183.134Y-28.067
X183.134Y-83.82
X183.134Y-84.963
X183.134Y-86.106
X183.388Y-70.993
X184.656Y-47.623
X184.657Y-49.912
X184.658Y-33.472
X184.658Y-35.814
X184.658Y-67.818
X184.668Y-65.278
X184.785Y-40.005
X184.785Y-52.832
X184.785Y-60.198
X184.785Y-61.595
X185.928Y-26.67
X185.928Y-36.502
X185.928Y-51.816
X186.055Y-8.89
X186.055Y-12.573
X186.371Y-32.004
X186.407Y-41.067
X186.42Y-38.354
X186.433Y-29.095
X186.436Y-39.37
X186.436Y-46.99
X186.437Y-37.301
X186.944Y-34.798
X187.06Y-31.106
X187.325Y-53.34
X187.345Y-28.15
X187.452Y-60.96
X187.452Y-61.976
X187.452Y-62.992
X187.452Y-64.008
X187.69Y-38.465
X187.706Y-25.908
X188.392Y-39.141
X190.754Y-68.199
X191.135Y-82.042
X191.77Y-28.702
X191.77Y-44.069
X192.151Y-68.199
X192.151Y-76.581
X193.04Y-82.042
X193.421Y-68.199
X193.929Y-82.042
X193.929Y-91.059
X194.691Y-68.199
X195.116Y-82.047
X195.75Y-81.28
X196.387Y-82.042
X197.053Y-81.28
X197.739Y-82.042
X198.374Y-81.28
X199.062Y-82.032
X199.263Y-44.831
X199.67Y-81.28
X199.898Y-72.644
X200.025Y-42.736
X200.152Y-33.782
X200.152Y-36.494
X200.152Y-37.936
X200.152Y-39.37
X200.152Y-41.017
X200.66Y-90.932
X200.68Y-43.194
X200.917Y-38.612
X200.918Y-35.906
X200.927Y-40.144
X200.944Y-37.118
X202.184Y-34.29
X202.184Y-35.306
X202.184Y-45.72
X202.184Y-46.634
X202.184Y-47.549
X202.184Y-48.463
X202.184Y-49.378
X202.184Y-50.292
X202.184Y-51.206
X202.184Y-52.121
X202.184Y-53.035
X202.184Y-53.95
X202.692Y-58.166
X202.692Y-60.57
X203.708Y-60.57
X203.746Y-58.166
X205.105Y-24.003
X210.439Y-10.922
X223.266Y-72.644
X223.774Y-60.452
X225.552Y-60.452
X227.33Y-60.452
X228.6Y-62.23
X229.235Y-62.865
X229.87Y-63.5
T2
X242.062Y-48.614
X242.062Y-49.864
X242.062Y-51.114
X242.062Y-52.364
X242.062Y-53.614
X242.062Y-54.864
X242.062Y-58.978
X242.062Y-60.228
X242.062Y-61.478
X242.062Y-62.728
X242.062Y-63.978
X242.062Y-65.228
T3
X169.418Y-97.028
X179.578Y-97.028
T4
X132.08Y-11.684
X132.08Y-20.688
X134.62Y-11.684
X134.62Y-20.688
X137.16Y-11.684
X137.16Y-20.688
T5
X108.956Y-19.782
X108.956Y-22.322
X111.496Y-19.782
X111.496Y-22.322
X148.077Y-100.589
X148.077Y-103.129
X150.617Y-100.589
X150.617Y-103.129
X219.685Y-85.872
X219.685Y-88.412
X222.225Y-85.872
X222.225Y-88.412
X224.765Y-85.872
X224.765Y-88.412
X227.305Y-85.872
X227.305Y-88.412
X229.845Y-85.872
X229.845Y-88.412
X232.385Y-85.872
X232.385Y-88.412
X236.41Y-23.797
X236.41Y-26.567
X236.41Y-29.337
X236.41Y-32.107
X236.41Y-34.877
X239.25Y-25.182
X239.25Y-27.952
X239.25Y-30.722
X239.25Y-33.492
T6
X150.495Y-10.668
X150.495Y-13.208
X150.495Y-15.748
X153.035Y-10.668
X153.035Y-13.208
X153.035Y-15.748
X155.575Y-10.668
X155.575Y-13.208
X155.575Y-15.748
X158.115Y-10.668
X158.115Y-13.208
X158.115Y-15.748
X160.655Y-10.668
X160.655Y-13.208
X160.655Y-15.748
X163.195Y-10.668
X163.195Y-13.208
X163.195Y-15.748
X204.216Y-84.582
X204.216Y-87.122
X204.216Y-89.662
X206.756Y-84.582
X206.756Y-87.122
X206.756Y-89.662
X208.28Y-8.255
X208.28Y-10.795
X208.28Y-13.335
X208.28Y-15.875
X208.28Y-18.415
X208.28Y-20.955
X208.28Y-23.495
X208.28Y-26.035
X208.28Y-28.575
X208.28Y-31.115
X208.28Y-33.655
X208.28Y-36.195
X208.28Y-38.735
X208.28Y-41.275
X208.28Y-43.815
X208.28Y-46.355
X208.28Y-48.895
X208.28Y-51.435
X208.28Y-53.975
X208.28Y-56.515
X209.296Y-84.582
X209.296Y-87.122
X209.296Y-89.662
X211.836Y-84.582
X211.836Y-87.122
X211.836Y-89.662
X214.63Y-56.285
X217.17Y-56.285
X219.71Y-56.285
X226.06Y-8.255
X226.06Y-10.795
X226.06Y-13.335
X226.06Y-15.875
X226.06Y-18.415
X226.06Y-20.955
X226.06Y-23.495
X226.06Y-26.035
X226.06Y-28.575
X226.06Y-31.115
X226.06Y-33.655
X226.06Y-36.195
X226.06Y-38.735
X226.06Y-41.275
X226.06Y-43.815
X226.06Y-46.355
X226.06Y-48.895
X226.06Y-51.435
X226.06Y-53.975
X226.06Y-56.515
T7
X129.387Y-31.122
X129.387Y-41.282
X129.387Y-51.442
X129.387Y-61.602
X129.387Y-71.763
X132.887Y-31.122
X132.887Y-41.282
X132.887Y-51.442
X132.887Y-61.602
X132.887Y-71.763
X136.387Y-31.122
X136.387Y-41.282
X136.387Y-51.442
X136.387Y-61.602
X136.387Y-71.763
X139.887Y-31.122
X139.887Y-41.282
X139.887Y-51.442
X139.887Y-61.602
X139.887Y-71.763
X172.748Y-103.251
X176.248Y-103.251
X242.316Y-69.878
X242.316Y-73.378
X242.316Y-78.26
X242.316Y-81.76
X242.316Y-86.642
X242.316Y-90.142
X242.316Y-95.024
X242.316Y-98.524
T8
X129.66Y-79.072
X129.66Y-82.472
X129.66Y-89.613
X129.66Y-93.013
X129.66Y-99.9
X129.66Y-103.3
X139.58Y-79.072
X139.58Y-82.472
X139.58Y-89.613
X139.58Y-93.013
X139.58Y-99.9
X139.58Y-103.3
T9
X116.051Y-29.478
X116.051Y-33.678
X116.051Y-37.878
X116.051Y-42.078
X116.051Y-46.278
X116.051Y-50.478
X116.051Y-54.678
X116.051Y-58.878
X116.051Y-63.078
X116.051Y-67.278
X116.051Y-71.478
X116.051Y-75.678
X116.051Y-84.192
X116.051Y-88.392
X116.051Y-92.592
X121.551Y-29.478
X121.551Y-33.678
X121.551Y-37.878
X121.551Y-42.078
X121.551Y-46.278
X121.551Y-50.478
X121.551Y-54.678
X121.551Y-58.878
X121.551Y-63.078
X121.551Y-67.278
X121.551Y-71.478
X121.551Y-75.678
X121.551Y-84.192
X121.551Y-88.392
X121.551Y-92.592
T10
X105.41Y-10.16
X105.41Y-104.14
X237.83Y-16.837
X237.83Y-41.837
X243.332Y-10.16
X243.332Y-104.14
T0
M30
