%TF.GenerationSoftware,KiCad,Pcbnew,6.0.1-79c1e3a40b~116~ubuntu20.04.1*%
%TF.CreationDate,2022-02-17T11:25:03-05:00*%
%TF.ProjectId,ManipulatorER_v3,4d616e69-7075-46c6-9174-6f7245525f76,rev?*%
%TF.SameCoordinates,Original*%
%TF.FileFunction,Paste,Top*%
%TF.FilePolarity,Positive*%
%FSLAX46Y46*%
G04 Gerber Fmt 4.6, Leading zero omitted, Abs format (unit mm)*
G04 Created by KiCad (PCBNEW 6.0.1-79c1e3a40b~116~ubuntu20.04.1) date 2022-02-17 11:25:03*
%MOMM*%
%LPD*%
G01*
G04 APERTURE LIST*
G04 Aperture macros list*
%AMRoundRect*
0 Rectangle with rounded corners*
0 $1 Rounding radius*
0 $2 $3 $4 $5 $6 $7 $8 $9 X,Y pos of 4 corners*
0 Add a 4 corners polygon primitive as box body*
4,1,4,$2,$3,$4,$5,$6,$7,$8,$9,$2,$3,0*
0 Add four circle primitives for the rounded corners*
1,1,$1+$1,$2,$3*
1,1,$1+$1,$4,$5*
1,1,$1+$1,$6,$7*
1,1,$1+$1,$8,$9*
0 Add four rect primitives between the rounded corners*
20,1,$1+$1,$2,$3,$4,$5,0*
20,1,$1+$1,$4,$5,$6,$7,0*
20,1,$1+$1,$6,$7,$8,$9,0*
20,1,$1+$1,$8,$9,$2,$3,0*%
G04 Aperture macros list end*
%ADD10C,0.100000*%
%ADD11RoundRect,0.250000X0.450000X-0.350000X0.450000X0.350000X-0.450000X0.350000X-0.450000X-0.350000X0*%
%ADD12RoundRect,0.250000X0.325000X0.450000X-0.325000X0.450000X-0.325000X-0.450000X0.325000X-0.450000X0*%
%ADD13R,1.219200X2.717800*%
%ADD14RoundRect,0.250000X0.450000X-0.325000X0.450000X0.325000X-0.450000X0.325000X-0.450000X-0.325000X0*%
%ADD15R,1.473200X0.355600*%
%ADD16R,1.799996X1.305598*%
G04 APERTURE END LIST*
D10*
%TO.C,U2*%
X120296000Y-64492200D02*
X120296000Y-63092000D01*
X120296000Y-63092000D02*
X118895800Y-63092000D01*
X118895800Y-63092000D02*
X118895800Y-64492200D01*
X118895800Y-64492200D02*
X120296000Y-64492200D01*
G36*
X120296000Y-64492200D02*
G01*
X118895800Y-64492200D01*
X118895800Y-63092000D01*
X120296000Y-63092000D01*
X120296000Y-64492200D01*
G37*
X120296000Y-64492200D02*
X118895800Y-64492200D01*
X118895800Y-63092000D01*
X120296000Y-63092000D01*
X120296000Y-64492200D01*
X121896200Y-64492200D02*
X121896200Y-63092000D01*
X121896200Y-63092000D02*
X120496000Y-63092000D01*
X120496000Y-63092000D02*
X120496000Y-64492200D01*
X120496000Y-64492200D02*
X121896200Y-64492200D01*
G36*
X121896200Y-64492200D02*
G01*
X120496000Y-64492200D01*
X120496000Y-63092000D01*
X121896200Y-63092000D01*
X121896200Y-64492200D01*
G37*
X121896200Y-64492200D02*
X120496000Y-64492200D01*
X120496000Y-63092000D01*
X121896200Y-63092000D01*
X121896200Y-64492200D01*
X121896200Y-62892000D02*
X121896200Y-61491800D01*
X121896200Y-61491800D02*
X120496000Y-61491800D01*
X120496000Y-61491800D02*
X120496000Y-62892000D01*
X120496000Y-62892000D02*
X121896200Y-62892000D01*
G36*
X121896200Y-62892000D02*
G01*
X120496000Y-62892000D01*
X120496000Y-61491800D01*
X121896200Y-61491800D01*
X121896200Y-62892000D01*
G37*
X121896200Y-62892000D02*
X120496000Y-62892000D01*
X120496000Y-61491800D01*
X121896200Y-61491800D01*
X121896200Y-62892000D01*
X120296000Y-62892000D02*
X120296000Y-61491800D01*
X120296000Y-61491800D02*
X118895800Y-61491800D01*
X118895800Y-61491800D02*
X118895800Y-62892000D01*
X118895800Y-62892000D02*
X120296000Y-62892000D01*
G36*
X120296000Y-62892000D02*
G01*
X118895800Y-62892000D01*
X118895800Y-61491800D01*
X120296000Y-61491800D01*
X120296000Y-62892000D01*
G37*
X120296000Y-62892000D02*
X118895800Y-62892000D01*
X118895800Y-61491800D01*
X120296000Y-61491800D01*
X120296000Y-62892000D01*
%TD*%
D11*
%TO.C,R3*%
X155702000Y-113014000D03*
X155702000Y-111014000D03*
%TD*%
%TO.C,R2*%
X121666000Y-106410000D03*
X121666000Y-104410000D03*
%TD*%
D12*
%TO.C,D3*%
X107950000Y-65659000D03*
X105900000Y-65659000D03*
%TD*%
%TO.C,D1*%
X107950000Y-58547000D03*
X105900000Y-58547000D03*
%TD*%
D13*
%TO.C,C3*%
X150876000Y-111950500D03*
X150876000Y-116141500D03*
%TD*%
D14*
%TO.C,D7*%
X155702000Y-116858000D03*
X155702000Y-114808000D03*
%TD*%
D15*
%TO.C,U2*%
X123317000Y-65266999D03*
X123317000Y-64617001D03*
X123317000Y-63966999D03*
X123317000Y-63317001D03*
X123317000Y-62667002D03*
X123317000Y-62017001D03*
X123317000Y-61367002D03*
X123317000Y-60717001D03*
X117475000Y-60717001D03*
X117475000Y-61366999D03*
X117475000Y-62017001D03*
X117475000Y-62666999D03*
X117475000Y-63316998D03*
X117475000Y-63966999D03*
X117475000Y-64616998D03*
X117475000Y-65266999D03*
%TD*%
D14*
%TO.C,D6*%
X121666000Y-111007000D03*
X121666000Y-108957000D03*
%TD*%
D12*
%TO.C,D2*%
X107950000Y-62103000D03*
X105900000Y-62103000D03*
%TD*%
D16*
%TO.C,C1*%
X133858000Y-110665798D03*
X133858000Y-107860202D03*
%TD*%
D14*
%TO.C,D5*%
X109474000Y-107460000D03*
X109474000Y-105410000D03*
%TD*%
D16*
%TO.C,C4*%
X146050000Y-110665798D03*
X146050000Y-107860202D03*
%TD*%
D12*
%TO.C,D4*%
X107959000Y-69215000D03*
X105909000Y-69215000D03*
%TD*%
D11*
%TO.C,R1*%
X109474000Y-103092000D03*
X109474000Y-101092000D03*
%TD*%
M02*
