%TF.GenerationSoftware,KiCad,Pcbnew,6.0.1-79c1e3a40b~116~ubuntu20.04.1*%
%TF.CreationDate,2022-02-17T11:25:03-05:00*%
%TF.ProjectId,ManipulatorER_v3,4d616e69-7075-46c6-9174-6f7245525f76,rev?*%
%TF.SameCoordinates,Original*%
%TF.FileFunction,Soldermask,Top*%
%TF.FilePolarity,Negative*%
%FSLAX46Y46*%
G04 Gerber Fmt 4.6, Leading zero omitted, Abs format (unit mm)*
G04 Created by KiCad (PCBNEW 6.0.1-79c1e3a40b~116~ubuntu20.04.1) date 2022-02-17 11:25:03*
%MOMM*%
%LPD*%
G01*
G04 APERTURE LIST*
G04 Aperture macros list*
%AMRoundRect*
0 Rectangle with rounded corners*
0 $1 Rounding radius*
0 $2 $3 $4 $5 $6 $7 $8 $9 X,Y pos of 4 corners*
0 Add a 4 corners polygon primitive as box body*
4,1,4,$2,$3,$4,$5,$6,$7,$8,$9,$2,$3,0*
0 Add four circle primitives for the rounded corners*
1,1,$1+$1,$2,$3*
1,1,$1+$1,$4,$5*
1,1,$1+$1,$6,$7*
1,1,$1+$1,$8,$9*
0 Add four rect primitives between the rounded corners*
20,1,$1+$1,$2,$3,$4,$5,0*
20,1,$1+$1,$4,$5,$6,$7,0*
20,1,$1+$1,$6,$7,$8,$9,0*
20,1,$1+$1,$8,$9,$2,$3,0*%
G04 Aperture macros list end*
%ADD10R,1.700000X1.700000*%
%ADD11O,1.700000X1.700000*%
%ADD12R,1.370000X1.370000*%
%ADD13C,1.370000*%
%ADD14O,1.727200X2.032000*%
%ADD15C,1.727200*%
%ADD16O,1.727200X1.727200*%
%ADD17C,4.000000*%
%ADD18R,1.600000X1.600000*%
%ADD19C,1.600000*%
%ADD20C,3.000000*%
%ADD21RoundRect,0.250000X1.600000X1.600000X-1.600000X1.600000X-1.600000X-1.600000X1.600000X-1.600000X0*%
%ADD22C,3.700000*%
%ADD23C,5.600000*%
%ADD24RoundRect,0.250002X1.599998X-1.599998X1.599998X1.599998X-1.599998X1.599998X-1.599998X-1.599998X0*%
%ADD25RoundRect,0.250001X0.499999X0.499999X-0.499999X0.499999X-0.499999X-0.499999X0.499999X-0.499999X0*%
%ADD26C,1.500000*%
%ADD27RoundRect,0.250000X0.450000X-0.350000X0.450000X0.350000X-0.450000X0.350000X-0.450000X-0.350000X0*%
%ADD28C,1.397000*%
%ADD29C,1.270000*%
%ADD30RoundRect,0.250000X0.325000X0.450000X-0.325000X0.450000X-0.325000X-0.450000X0.325000X-0.450000X0*%
%ADD31RoundRect,0.250002X1.599998X1.599998X-1.599998X1.599998X-1.599998X-1.599998X1.599998X-1.599998X0*%
%ADD32R,1.219200X2.717800*%
%ADD33RoundRect,0.250000X0.450000X-0.325000X0.450000X0.325000X-0.450000X0.325000X-0.450000X-0.325000X0*%
%ADD34R,1.473200X0.355600*%
%ADD35R,3.200400X3.200400*%
%ADD36R,1.799996X1.305598*%
G04 APERTURE END LIST*
D10*
%TO.C,J15*%
X126746000Y-48768000D03*
D11*
X129286000Y-48768000D03*
%TD*%
D12*
%TO.C,J10*%
X225830000Y-66006500D03*
D13*
X223290000Y-66006500D03*
X220750000Y-66006500D03*
X225830000Y-63466500D03*
X223290000Y-63466500D03*
X220750000Y-63466500D03*
X225830000Y-60926500D03*
X223290000Y-60926500D03*
X220750000Y-60926500D03*
X225830000Y-58386500D03*
X223290000Y-58386500D03*
X220750000Y-58386500D03*
X225830000Y-55846500D03*
X223290000Y-55846500D03*
X220750000Y-55846500D03*
%TD*%
D12*
%TO.C,J9*%
X225780500Y-79595500D03*
D13*
X223240500Y-79595500D03*
X220700500Y-79595500D03*
X225780500Y-77055500D03*
X223240500Y-77055500D03*
X220700500Y-77055500D03*
X225780500Y-74515500D03*
X223240500Y-74515500D03*
X220700500Y-74515500D03*
X225780500Y-71975500D03*
X223240500Y-71975500D03*
X220700500Y-71975500D03*
X225780500Y-69435500D03*
X223240500Y-69435500D03*
X220700500Y-69435500D03*
%TD*%
D14*
%TO.C,P6*%
X164084000Y-48641000D03*
X166624000Y-48641000D03*
X169164000Y-48641000D03*
X171704000Y-48641000D03*
X174244000Y-48641000D03*
X176784000Y-48641000D03*
X179324000Y-48641000D03*
X181864000Y-48641000D03*
%TD*%
%TO.C,P7*%
X186944000Y-48641000D03*
X189484000Y-48641000D03*
X192024000Y-48641000D03*
X194564000Y-48641000D03*
X197104000Y-48641000D03*
X199644000Y-48641000D03*
X202184000Y-48641000D03*
X204724000Y-48641000D03*
%TD*%
%TO.C,P2*%
X146304000Y-96901000D03*
X148844000Y-96901000D03*
X151384000Y-96901000D03*
X153924000Y-96901000D03*
X156464000Y-96901000D03*
X159004000Y-96901000D03*
X161544000Y-96901000D03*
X164084000Y-96901000D03*
%TD*%
%TO.C,P4*%
X192024000Y-96901000D03*
X194564000Y-96901000D03*
X197104000Y-96901000D03*
X199644000Y-96901000D03*
X202184000Y-96901000D03*
X204724000Y-96901000D03*
X207264000Y-96901000D03*
X209804000Y-96901000D03*
%TD*%
%TO.C,P5*%
X137160000Y-48641000D03*
X139700000Y-48641000D03*
X142240000Y-48641000D03*
X144780000Y-48641000D03*
X147320000Y-48641000D03*
X149860000Y-48641000D03*
X152400000Y-48641000D03*
X154940000Y-48641000D03*
X157480000Y-48641000D03*
X160020000Y-48641000D03*
%TD*%
%TO.C,P3*%
X169164000Y-96901000D03*
X171704000Y-96901000D03*
X174244000Y-96901000D03*
X176784000Y-96901000D03*
X179324000Y-96901000D03*
X181864000Y-96901000D03*
X184404000Y-96901000D03*
X186944000Y-96901000D03*
%TD*%
D15*
%TO.C,P1*%
X212344000Y-91821000D03*
D16*
X214884000Y-91821000D03*
X212344000Y-89281000D03*
X214884000Y-89281000D03*
X212344000Y-86741000D03*
X214884000Y-86741000D03*
X212344000Y-84201000D03*
X214884000Y-84201000D03*
X212344000Y-81661000D03*
X214884000Y-81661000D03*
X212344000Y-79121000D03*
X214884000Y-79121000D03*
X212344000Y-76581000D03*
X214884000Y-76581000D03*
X212344000Y-74041000D03*
X214884000Y-74041000D03*
X212344000Y-71501000D03*
X214884000Y-71501000D03*
X212344000Y-68961000D03*
X214884000Y-68961000D03*
X212344000Y-66421000D03*
X214884000Y-66421000D03*
X212344000Y-63881000D03*
X214884000Y-63881000D03*
X212344000Y-61341000D03*
X214884000Y-61341000D03*
X212344000Y-58801000D03*
X214884000Y-58801000D03*
X212344000Y-56261000D03*
X214884000Y-56261000D03*
X212344000Y-53721000D03*
X214884000Y-53721000D03*
X212344000Y-51181000D03*
X214884000Y-51181000D03*
X212344000Y-48641000D03*
X214884000Y-48641000D03*
%TD*%
D17*
%TO.C,J1*%
X205868000Y-114600000D03*
X172568000Y-114600000D03*
D18*
X198913000Y-114300000D03*
D19*
X196143000Y-114300000D03*
X193373000Y-114300000D03*
X190603000Y-114300000D03*
X187833000Y-114300000D03*
X185063000Y-114300000D03*
X182293000Y-114300000D03*
X179523000Y-114300000D03*
X197528000Y-117140000D03*
X194758000Y-117140000D03*
X191988000Y-117140000D03*
X189218000Y-117140000D03*
X186448000Y-117140000D03*
X183678000Y-117140000D03*
X180908000Y-117140000D03*
%TD*%
D20*
%TO.C,J5*%
X115570000Y-113218000D03*
D21*
X115570000Y-105918000D03*
D22*
X115570000Y-100418000D03*
%TD*%
D23*
%TO.C,H1*%
X107315000Y-50419000D03*
%TD*%
%TO.C,H2*%
X231775000Y-50419000D03*
%TD*%
%TO.C,H3*%
X107315000Y-117729000D03*
%TD*%
%TO.C,H4*%
X231775000Y-117729000D03*
%TD*%
D20*
%TO.C,J1001*%
X111910000Y-81280000D03*
D24*
X119210000Y-84130000D03*
D22*
X119210000Y-78430000D03*
X124710000Y-84130000D03*
X124710000Y-78430000D03*
%TD*%
D20*
%TO.C,J3*%
X162052000Y-117051000D03*
D25*
X162052000Y-112731000D03*
D26*
X162052000Y-109731000D03*
%TD*%
D27*
%TO.C,R3*%
X155702000Y-113014000D03*
X155702000Y-111014000D03*
%TD*%
D28*
%TO.C,J11*%
X229578200Y-83487001D03*
X229578200Y-85487000D03*
X229578200Y-87487001D03*
X229578200Y-89486999D03*
%TD*%
D27*
%TO.C,R2*%
X121666000Y-106410000D03*
X121666000Y-104410000D03*
%TD*%
D29*
%TO.C,U1*%
X151511000Y-107950000D03*
X154051000Y-107950000D03*
X156591000Y-107950000D03*
%TD*%
D30*
%TO.C,D3*%
X107950000Y-65659000D03*
X105900000Y-65659000D03*
%TD*%
%TO.C,D1*%
X107950000Y-58547000D03*
X105900000Y-58547000D03*
%TD*%
D20*
%TO.C,J7*%
X139954000Y-113261000D03*
D31*
X139954000Y-105961000D03*
D22*
X139954000Y-100461000D03*
%TD*%
D32*
%TO.C,C3*%
X150876000Y-111950500D03*
X150876000Y-116141500D03*
%TD*%
D33*
%TO.C,D7*%
X155702000Y-116858000D03*
X155702000Y-114808000D03*
%TD*%
D34*
%TO.C,U2*%
X123317000Y-65266999D03*
X123317000Y-64617001D03*
X123317000Y-63966999D03*
X123317000Y-63317001D03*
X123317000Y-62667002D03*
X123317000Y-62017001D03*
X123317000Y-61367002D03*
X123317000Y-60717001D03*
X117475000Y-60717001D03*
X117475000Y-61366999D03*
X117475000Y-62017001D03*
X117475000Y-62666999D03*
X117475000Y-63316998D03*
X117475000Y-63966999D03*
X117475000Y-64616998D03*
X117475000Y-65266999D03*
D35*
X120396000Y-62992000D03*
%TD*%
D10*
%TO.C,J12*%
X111628000Y-92329000D03*
D11*
X114168000Y-92329000D03*
%TD*%
D10*
%TO.C,J14*%
X113294000Y-55758000D03*
D11*
X113294000Y-53218000D03*
X115834000Y-55758000D03*
X115834000Y-53218000D03*
X118374000Y-55758000D03*
X118374000Y-53218000D03*
X120914000Y-55758000D03*
X120914000Y-53218000D03*
%TD*%
D20*
%TO.C,J2*%
X127762000Y-113261000D03*
D31*
X127762000Y-105961000D03*
D22*
X127762000Y-100461000D03*
%TD*%
D33*
%TO.C,D6*%
X121666000Y-111007000D03*
X121666000Y-108957000D03*
%TD*%
D30*
%TO.C,D2*%
X107950000Y-62103000D03*
X105900000Y-62103000D03*
%TD*%
D36*
%TO.C,C1*%
X133858000Y-110665798D03*
X133858000Y-107860202D03*
%TD*%
D20*
%TO.C,J6*%
X219329000Y-116797000D03*
D25*
X220829000Y-112477000D03*
D26*
X217829000Y-112477000D03*
X220829000Y-109477000D03*
X217829000Y-109477000D03*
%TD*%
D33*
%TO.C,D5*%
X109474000Y-107460000D03*
X109474000Y-105410000D03*
%TD*%
D28*
%TO.C,J13*%
X229578200Y-94155001D03*
X229578200Y-96155000D03*
X229578200Y-98155001D03*
X229578200Y-100154999D03*
%TD*%
%TO.C,J4*%
X229616000Y-104894200D03*
X229616000Y-106894199D03*
X229616000Y-108894200D03*
X229616000Y-110894198D03*
%TD*%
D36*
%TO.C,C4*%
X146050000Y-110665798D03*
X146050000Y-107860202D03*
%TD*%
D30*
%TO.C,D4*%
X107959000Y-69215000D03*
X105909000Y-69215000D03*
%TD*%
D10*
%TO.C,J8*%
X111628000Y-96139000D03*
D11*
X114168000Y-96139000D03*
%TD*%
D27*
%TO.C,R1*%
X109474000Y-103092000D03*
X109474000Y-101092000D03*
%TD*%
M02*
