M48
; DRILL file {KiCad 6.0.1-79c1e3a40b~116~ubuntu20.04.1} date Thu 17 Feb 2022 11:25:13 AM EST
; FORMAT={-:-/ absolute / inch / decimal}
; #@! TF.CreationDate,2022-02-17T11:25:13-05:00
; #@! TF.GenerationSoftware,Kicad,Pcbnew,6.0.1-79c1e3a40b~116~ubuntu20.04.1
; #@! TF.FileFunction,Plated,1,2,PTH
FMAT,2
INCH
; #@! TA.AperFunction,Plated,PTH,ViaDrill
T1C0.0157
; #@! TA.AperFunction,Plated,PTH,ComponentDrill
T2C0.0300
; #@! TA.AperFunction,Plated,PTH,ComponentDrill
T3C0.0320
; #@! TA.AperFunction,Plated,PTH,ComponentDrill
T4C0.0394
; #@! TA.AperFunction,Plated,PTH,ComponentDrill
T5C0.0400
; #@! TA.AperFunction,Plated,PTH,ComponentDrill
T6C0.0402
; #@! TA.AperFunction,Plated,PTH,ComponentDrill
T7C0.0709
; #@! TA.AperFunction,Plated,PTH,ComponentDrill
T8C0.1260
%
G90
G05
T1
X4.31Y-4.29
X4.498Y-2.418
X4.509Y-2.499
X4.524Y-2.644
X4.536Y-2.4694
X4.554Y-2.538
X4.716Y-2.457
X4.716Y-2.507
X4.766Y-2.457
X4.766Y-2.507
X4.79Y-4.42
X4.848Y-2.25
X4.928Y-2.366
X4.938Y-2.594
X4.976Y-2.672
X4.982Y-2.44
X5.036Y-2.382
X5.1Y-2.25
X5.109Y-2.541
X5.27Y-4.42
X5.37Y-2.42
X5.75Y-4.41
X5.778Y-4.582
X6.058Y-4.626
X6.57Y-2.115
X6.994Y-2.197
X7.107Y-2.154
X7.6Y-2.17
X7.705Y-2.175
X8.125Y-2.99
X8.15Y-2.565
X8.15Y-2.665
X8.16Y-2.615
X8.16Y-3.21
X8.16Y-3.265
X8.16Y-3.365
X8.1625Y-2.995
X8.1625Y-3.165
X8.2575Y-3.0
X8.26Y-2.615
X8.265Y-3.265
X8.265Y-3.365
X8.27Y-2.565
X8.275Y-2.665
X8.275Y-3.04
X8.535Y-3.015
X8.545Y-2.95
X8.565Y-3.68
X8.575Y-2.38
X8.605Y-3.615
X8.61Y-2.195
X8.61Y-2.405
X8.62Y-2.725
X8.62Y-2.84
X8.635Y-2.3
X8.83Y-2.665
T2
X5.965Y-4.25
X6.065Y-4.25
X6.165Y-4.25
T3
X9.0385Y-3.2869
X9.0385Y-3.3656
X9.0385Y-3.4444
X9.0385Y-3.5231
X9.0385Y-3.7069
X9.0385Y-3.7856
X9.0385Y-3.8644
X9.0385Y-3.9431
X9.04Y-4.1297
X9.04Y-4.2084
X9.04Y-4.2872
X9.04Y-4.3659
T4
X4.3948Y-3.635
X4.3948Y-3.785
X4.4604Y-2.0952
X4.4604Y-2.1952
X4.4948Y-3.635
X4.4948Y-3.785
X4.5604Y-2.0952
X4.5604Y-2.1952
X4.6604Y-2.0952
X4.6604Y-2.1952
X4.7604Y-2.0952
X4.7604Y-2.1952
X4.99Y-1.92
X5.09Y-1.92
X7.0678Y-4.5
X7.1224Y-4.6118
X7.1769Y-4.5
X7.2314Y-4.6118
X7.2859Y-4.5
X7.3405Y-4.6118
X7.395Y-4.5
X7.4495Y-4.6118
X7.5041Y-4.5
X7.5586Y-4.6118
X7.6131Y-4.5
X7.6676Y-4.6118
X7.7222Y-4.5
X7.7767Y-4.6118
X7.8312Y-4.5
T5
X5.4Y-1.915
X5.5Y-1.915
X5.6Y-1.915
X5.7Y-1.915
X5.76Y-3.815
X5.8Y-1.915
X5.86Y-3.815
X5.9Y-1.915
X5.96Y-3.815
X6.0Y-1.915
X6.06Y-3.815
X6.1Y-1.915
X6.16Y-3.815
X6.2Y-1.915
X6.26Y-3.815
X6.3Y-1.915
X6.36Y-3.815
X6.46Y-1.915
X6.46Y-3.815
X6.56Y-1.915
X6.66Y-1.915
X6.66Y-3.815
X6.76Y-1.915
X6.76Y-3.815
X6.86Y-1.915
X6.86Y-3.815
X6.96Y-1.915
X6.96Y-3.815
X7.06Y-1.915
X7.06Y-3.815
X7.16Y-1.915
X7.16Y-3.815
X7.26Y-3.815
X7.36Y-1.915
X7.36Y-3.815
X7.46Y-1.915
X7.56Y-1.915
X7.56Y-3.815
X7.66Y-1.915
X7.66Y-3.815
X7.76Y-1.915
X7.76Y-3.815
X7.86Y-1.915
X7.86Y-3.815
X7.96Y-1.915
X7.96Y-3.815
X8.06Y-1.915
X8.06Y-3.815
X8.16Y-3.815
X8.26Y-3.815
X8.36Y-1.915
X8.36Y-2.015
X8.36Y-2.115
X8.36Y-2.215
X8.36Y-2.315
X8.36Y-2.415
X8.36Y-2.515
X8.36Y-2.615
X8.36Y-2.715
X8.36Y-2.815
X8.36Y-2.915
X8.36Y-3.015
X8.36Y-3.115
X8.36Y-3.215
X8.36Y-3.315
X8.36Y-3.415
X8.36Y-3.515
X8.36Y-3.615
X8.46Y-1.915
X8.46Y-2.015
X8.46Y-2.115
X8.46Y-2.215
X8.46Y-2.315
X8.46Y-2.415
X8.46Y-2.515
X8.46Y-2.615
X8.46Y-2.715
X8.46Y-2.815
X8.46Y-2.915
X8.46Y-3.015
X8.46Y-3.115
X8.46Y-3.215
X8.46Y-3.315
X8.46Y-3.415
X8.46Y-3.515
X8.46Y-3.615
T6
X6.38Y-4.3201
X6.38Y-4.4382
X8.5759Y-4.3101
X8.5759Y-4.4282
X8.689Y-2.7337
X8.689Y-2.8337
X8.689Y-2.9337
X8.689Y-3.0337
X8.689Y-3.1337
X8.6909Y-2.1987
X8.6909Y-2.2987
X8.6909Y-2.3987
X8.6909Y-2.4987
X8.6909Y-2.5987
X8.6941Y-4.3101
X8.6941Y-4.4282
X8.789Y-2.7337
X8.789Y-2.8337
X8.789Y-2.9337
X8.789Y-3.0337
X8.789Y-3.1337
X8.7909Y-2.1987
X8.7909Y-2.2987
X8.7909Y-2.3987
X8.7909Y-2.4987
X8.7909Y-2.5987
X8.889Y-2.7337
X8.889Y-2.8337
X8.889Y-2.9337
X8.889Y-3.0337
X8.889Y-3.1337
X8.8909Y-2.1987
X8.8909Y-2.2987
X8.8909Y-2.3987
X8.8909Y-2.4987
X8.8909Y-2.5987
T7
X4.55Y-3.9535
X4.55Y-4.17
X4.6933Y-3.0878
X4.6933Y-3.3122
X4.9098Y-3.0878
X4.9098Y-3.3122
X5.03Y-3.9552
X5.03Y-4.1717
X5.51Y-3.9552
X5.51Y-4.1717
T8
X4.225Y-1.985
X4.225Y-4.635
X6.794Y-4.5118
X8.105Y-4.5118
X9.125Y-1.985
X9.125Y-4.635
T0
M30
