%TF.GenerationSoftware,KiCad,Pcbnew,6.0.1-79c1e3a40b~116~ubuntu20.04.1*%
%TF.CreationDate,2022-02-17T11:25:02-05:00*%
%TF.ProjectId,ManipulatorER_v3,4d616e69-7075-46c6-9174-6f7245525f76,rev?*%
%TF.SameCoordinates,Original*%
%TF.FileFunction,Copper,L1,Top*%
%TF.FilePolarity,Positive*%
%FSLAX46Y46*%
G04 Gerber Fmt 4.6, Leading zero omitted, Abs format (unit mm)*
G04 Created by KiCad (PCBNEW 6.0.1-79c1e3a40b~116~ubuntu20.04.1) date 2022-02-17 11:25:02*
%MOMM*%
%LPD*%
G01*
G04 APERTURE LIST*
G04 Aperture macros list*
%AMRoundRect*
0 Rectangle with rounded corners*
0 $1 Rounding radius*
0 $2 $3 $4 $5 $6 $7 $8 $9 X,Y pos of 4 corners*
0 Add a 4 corners polygon primitive as box body*
4,1,4,$2,$3,$4,$5,$6,$7,$8,$9,$2,$3,0*
0 Add four circle primitives for the rounded corners*
1,1,$1+$1,$2,$3*
1,1,$1+$1,$4,$5*
1,1,$1+$1,$6,$7*
1,1,$1+$1,$8,$9*
0 Add four rect primitives between the rounded corners*
20,1,$1+$1,$2,$3,$4,$5,0*
20,1,$1+$1,$4,$5,$6,$7,0*
20,1,$1+$1,$6,$7,$8,$9,0*
20,1,$1+$1,$8,$9,$2,$3,0*%
G04 Aperture macros list end*
%TA.AperFunction,ComponentPad*%
%ADD10R,1.700000X1.700000*%
%TD*%
%TA.AperFunction,ComponentPad*%
%ADD11O,1.700000X1.700000*%
%TD*%
%TA.AperFunction,ComponentPad*%
%ADD12R,1.370000X1.370000*%
%TD*%
%TA.AperFunction,ComponentPad*%
%ADD13C,1.370000*%
%TD*%
%TA.AperFunction,ComponentPad*%
%ADD14O,1.727200X2.032000*%
%TD*%
%TA.AperFunction,ComponentPad*%
%ADD15C,1.727200*%
%TD*%
%TA.AperFunction,ComponentPad*%
%ADD16O,1.727200X1.727200*%
%TD*%
%TA.AperFunction,ComponentPad*%
%ADD17C,4.000000*%
%TD*%
%TA.AperFunction,ComponentPad*%
%ADD18R,1.600000X1.600000*%
%TD*%
%TA.AperFunction,ComponentPad*%
%ADD19C,1.600000*%
%TD*%
%TA.AperFunction,ComponentPad*%
%ADD20RoundRect,0.250000X1.600000X1.600000X-1.600000X1.600000X-1.600000X-1.600000X1.600000X-1.600000X0*%
%TD*%
%TA.AperFunction,ComponentPad*%
%ADD21C,3.700000*%
%TD*%
%TA.AperFunction,ComponentPad*%
%ADD22C,5.600000*%
%TD*%
%TA.AperFunction,ComponentPad*%
%ADD23RoundRect,0.250002X1.599998X-1.599998X1.599998X1.599998X-1.599998X1.599998X-1.599998X-1.599998X0*%
%TD*%
%TA.AperFunction,ComponentPad*%
%ADD24RoundRect,0.250001X0.499999X0.499999X-0.499999X0.499999X-0.499999X-0.499999X0.499999X-0.499999X0*%
%TD*%
%TA.AperFunction,ComponentPad*%
%ADD25C,1.500000*%
%TD*%
%TA.AperFunction,SMDPad,CuDef*%
%ADD26RoundRect,0.250000X0.450000X-0.350000X0.450000X0.350000X-0.450000X0.350000X-0.450000X-0.350000X0*%
%TD*%
%TA.AperFunction,ComponentPad*%
%ADD27C,1.397000*%
%TD*%
%TA.AperFunction,ComponentPad*%
%ADD28C,1.270000*%
%TD*%
%TA.AperFunction,SMDPad,CuDef*%
%ADD29RoundRect,0.250000X0.325000X0.450000X-0.325000X0.450000X-0.325000X-0.450000X0.325000X-0.450000X0*%
%TD*%
%TA.AperFunction,ComponentPad*%
%ADD30RoundRect,0.250002X1.599998X1.599998X-1.599998X1.599998X-1.599998X-1.599998X1.599998X-1.599998X0*%
%TD*%
%TA.AperFunction,SMDPad,CuDef*%
%ADD31R,1.219200X2.717800*%
%TD*%
%TA.AperFunction,SMDPad,CuDef*%
%ADD32RoundRect,0.250000X0.450000X-0.325000X0.450000X0.325000X-0.450000X0.325000X-0.450000X-0.325000X0*%
%TD*%
%TA.AperFunction,SMDPad,CuDef*%
%ADD33R,1.473200X0.355600*%
%TD*%
%TA.AperFunction,SMDPad,CuDef*%
%ADD34R,3.200400X3.200400*%
%TD*%
%TA.AperFunction,SMDPad,CuDef*%
%ADD35R,1.799996X1.305598*%
%TD*%
%TA.AperFunction,ViaPad*%
%ADD36C,0.600000*%
%TD*%
%TA.AperFunction,ViaPad*%
%ADD37C,1.000000*%
%TD*%
%TA.AperFunction,Conductor*%
%ADD38C,0.400000*%
%TD*%
%TA.AperFunction,Conductor*%
%ADD39C,0.500000*%
%TD*%
%TA.AperFunction,Conductor*%
%ADD40C,0.250000*%
%TD*%
%TA.AperFunction,Conductor*%
%ADD41C,0.300000*%
%TD*%
G04 APERTURE END LIST*
D10*
%TO.P,J15,1,Pin_1*%
%TO.N,1(Tx0)*%
X126746000Y-48768000D03*
D11*
%TO.P,J15,2,Pin_2*%
%TO.N,0(Rx0)*%
X129286000Y-48768000D03*
%TD*%
D12*
%TO.P,J10,01,01*%
%TO.N,46*%
X225830000Y-66006500D03*
D13*
%TO.P,J10,02,02*%
%TO.N,10(\u002A\u002A)*%
X223290000Y-66006500D03*
%TO.P,J10,03,03*%
%TO.N,9(\u002A\u002A)*%
X220750000Y-66006500D03*
%TO.P,J10,04,04*%
%TO.N,+5V*%
X225830000Y-63466500D03*
%TO.P,J10,05,05*%
X223290000Y-63466500D03*
%TO.P,J10,06,06*%
X220750000Y-63466500D03*
%TO.P,J10,07,07*%
%TO.N,GND*%
X225830000Y-60926500D03*
%TO.P,J10,08,08*%
X223290000Y-60926500D03*
%TO.P,J10,09,09*%
X220750000Y-60926500D03*
%TO.P,J10,10,10*%
%TO.N,25*%
X225830000Y-58386500D03*
%TO.P,J10,11,11*%
%TO.N,29*%
X223290000Y-58386500D03*
%TO.P,J10,12,12*%
%TO.N,32*%
X220750000Y-58386500D03*
%TO.P,J10,13,13*%
%TO.N,23*%
X225830000Y-55846500D03*
%TO.P,J10,14,14*%
%TO.N,27*%
X223290000Y-55846500D03*
%TO.P,J10,15,15*%
%TO.N,31*%
X220750000Y-55846500D03*
%TD*%
D12*
%TO.P,J9,01,01*%
%TO.N,44*%
X225780500Y-79595500D03*
D13*
%TO.P,J9,02,02*%
%TO.N,45*%
X223240500Y-79595500D03*
%TO.P,J9,03,03*%
%TO.N,7(\u002A\u002A)*%
X220700500Y-79595500D03*
%TO.P,J9,04,04*%
%TO.N,+5V*%
X225780500Y-77055500D03*
%TO.P,J9,05,05*%
X223240500Y-77055500D03*
%TO.P,J9,06,06*%
X220700500Y-77055500D03*
%TO.P,J9,07,07*%
%TO.N,GND*%
X225780500Y-74515500D03*
%TO.P,J9,08,08*%
X223240500Y-74515500D03*
%TO.P,J9,09,09*%
X220700500Y-74515500D03*
%TO.P,J9,10,10*%
%TO.N,41*%
X225780500Y-71975500D03*
%TO.P,J9,11,11*%
%TO.N,39*%
X223240500Y-71975500D03*
%TO.P,J9,12,12*%
%TO.N,43*%
X220700500Y-71975500D03*
%TO.P,J9,13,13*%
%TO.N,40*%
X225780500Y-69435500D03*
%TO.P,J9,14,14*%
%TO.N,37*%
X223240500Y-69435500D03*
%TO.P,J9,15,15*%
%TO.N,42*%
X220700500Y-69435500D03*
%TD*%
D14*
%TO.P,P6,1,Pin_1*%
%TO.N,7(\u002A\u002A)*%
X164084000Y-48641000D03*
%TO.P,P6,2,Pin_2*%
%TO.N,/6(\u002A\u002A)*%
X166624000Y-48641000D03*
%TO.P,P6,3,Pin_3*%
%TO.N,/5(\u002A\u002A)*%
X169164000Y-48641000D03*
%TO.P,P6,4,Pin_4*%
%TO.N,/4(\u002A\u002A)*%
X171704000Y-48641000D03*
%TO.P,P6,5,Pin_5*%
%TO.N,/3(\u002A\u002A)*%
X174244000Y-48641000D03*
%TO.P,P6,6,Pin_6*%
%TO.N,/2(\u002A\u002A)*%
X176784000Y-48641000D03*
%TO.P,P6,7,Pin_7*%
%TO.N,1(Tx0)*%
X179324000Y-48641000D03*
%TO.P,P6,8,Pin_8*%
%TO.N,0(Rx0)*%
X181864000Y-48641000D03*
%TD*%
%TO.P,P7,1,Pin_1*%
%TO.N,/14(Tx3)*%
X186944000Y-48641000D03*
%TO.P,P7,2,Pin_2*%
%TO.N,/15(Rx3)*%
X189484000Y-48641000D03*
%TO.P,P7,3,Pin_3*%
%TO.N,16(Tx2)*%
X192024000Y-48641000D03*
%TO.P,P7,4,Pin_4*%
%TO.N,17(Rx2)*%
X194564000Y-48641000D03*
%TO.P,P7,5,Pin_5*%
%TO.N,/18(Tx1)*%
X197104000Y-48641000D03*
%TO.P,P7,6,Pin_6*%
%TO.N,/19(Rx1)*%
X199644000Y-48641000D03*
%TO.P,P7,7,Pin_7*%
%TO.N,20(SDA)*%
X202184000Y-48641000D03*
%TO.P,P7,8,Pin_8*%
%TO.N,21(SCL)*%
X204724000Y-48641000D03*
%TD*%
%TO.P,P2,1,Pin_1*%
%TO.N,unconnected-(P2-Pad1)*%
X146304000Y-96901000D03*
%TO.P,P2,2,Pin_2*%
%TO.N,/IOREF*%
X148844000Y-96901000D03*
%TO.P,P2,3,Pin_3*%
%TO.N,/Reset*%
X151384000Y-96901000D03*
%TO.P,P2,4,Pin_4*%
%TO.N,3V3*%
X153924000Y-96901000D03*
%TO.P,P2,5,Pin_5*%
%TO.N,unconnected-(P2-Pad5)*%
X156464000Y-96901000D03*
%TO.P,P2,6,Pin_6*%
%TO.N,GND*%
X159004000Y-96901000D03*
%TO.P,P2,7,Pin_7*%
X161544000Y-96901000D03*
%TO.P,P2,8,Pin_8*%
%TO.N,+5V*%
X164084000Y-96901000D03*
%TD*%
%TO.P,P4,1,Pin_1*%
%TO.N,/A8*%
X192024000Y-96901000D03*
%TO.P,P4,2,Pin_2*%
%TO.N,A9*%
X194564000Y-96901000D03*
%TO.P,P4,3,Pin_3*%
%TO.N,A10*%
X197104000Y-96901000D03*
%TO.P,P4,4,Pin_4*%
%TO.N,A11*%
X199644000Y-96901000D03*
%TO.P,P4,5,Pin_5*%
%TO.N,A12*%
X202184000Y-96901000D03*
%TO.P,P4,6,Pin_6*%
%TO.N,/A13*%
X204724000Y-96901000D03*
%TO.P,P4,7,Pin_7*%
%TO.N,/A14*%
X207264000Y-96901000D03*
%TO.P,P4,8,Pin_8*%
%TO.N,/A15*%
X209804000Y-96901000D03*
%TD*%
%TO.P,P5,1,Pin_1*%
%TO.N,/1*%
X137160000Y-48641000D03*
%TO.P,P5,2,Pin_2*%
%TO.N,/2*%
X139700000Y-48641000D03*
%TO.P,P5,3,Pin_3*%
%TO.N,/AREF*%
X142240000Y-48641000D03*
%TO.P,P5,4,Pin_4*%
%TO.N,GND*%
X144780000Y-48641000D03*
%TO.P,P5,5,Pin_5*%
%TO.N,/13(\u002A\u002A)*%
X147320000Y-48641000D03*
%TO.P,P5,6,Pin_6*%
%TO.N,/12(\u002A\u002A)*%
X149860000Y-48641000D03*
%TO.P,P5,7,Pin_7*%
%TO.N,/11(\u002A\u002A)*%
X152400000Y-48641000D03*
%TO.P,P5,8,Pin_8*%
%TO.N,10(\u002A\u002A)*%
X154940000Y-48641000D03*
%TO.P,P5,9,Pin_9*%
%TO.N,9(\u002A\u002A)*%
X157480000Y-48641000D03*
%TO.P,P5,10,Pin_10*%
%TO.N,/8(\u002A\u002A)*%
X160020000Y-48641000D03*
%TD*%
%TO.P,P3,1,Pin_1*%
%TO.N,/A0*%
X169164000Y-96901000D03*
%TO.P,P3,2,Pin_2*%
%TO.N,/A1*%
X171704000Y-96901000D03*
%TO.P,P3,3,Pin_3*%
%TO.N,/A2*%
X174244000Y-96901000D03*
%TO.P,P3,4,Pin_4*%
%TO.N,/A3*%
X176784000Y-96901000D03*
%TO.P,P3,5,Pin_5*%
%TO.N,/A4*%
X179324000Y-96901000D03*
%TO.P,P3,6,Pin_6*%
%TO.N,A5*%
X181864000Y-96901000D03*
%TO.P,P3,7,Pin_7*%
%TO.N,/A6*%
X184404000Y-96901000D03*
%TO.P,P3,8,Pin_8*%
%TO.N,/A7*%
X186944000Y-96901000D03*
%TD*%
D15*
%TO.P,P1,1,Pin_1*%
%TO.N,GND*%
X212344000Y-91821000D03*
D16*
%TO.P,P1,2,Pin_2*%
X214884000Y-91821000D03*
%TO.P,P1,3,Pin_3*%
%TO.N,52(SCK)*%
X212344000Y-89281000D03*
%TO.P,P1,4,Pin_4*%
%TO.N,53(SS)*%
X214884000Y-89281000D03*
%TO.P,P1,5,Pin_5*%
%TO.N,50(MISO)*%
X212344000Y-86741000D03*
%TO.P,P1,6,Pin_6*%
%TO.N,51(MOSI)*%
X214884000Y-86741000D03*
%TO.P,P1,7,Pin_7*%
%TO.N,/48*%
X212344000Y-84201000D03*
%TO.P,P1,8,Pin_8*%
%TO.N,49*%
X214884000Y-84201000D03*
%TO.P,P1,9,Pin_9*%
%TO.N,46*%
X212344000Y-81661000D03*
%TO.P,P1,10,Pin_10*%
%TO.N,47*%
X214884000Y-81661000D03*
%TO.P,P1,11,Pin_11*%
%TO.N,44*%
X212344000Y-79121000D03*
%TO.P,P1,12,Pin_12*%
%TO.N,45*%
X214884000Y-79121000D03*
%TO.P,P1,13,Pin_13*%
%TO.N,42*%
X212344000Y-76581000D03*
%TO.P,P1,14,Pin_14*%
%TO.N,43*%
X214884000Y-76581000D03*
%TO.P,P1,15,Pin_15*%
%TO.N,40*%
X212344000Y-74041000D03*
%TO.P,P1,16,Pin_16*%
%TO.N,41*%
X214884000Y-74041000D03*
%TO.P,P1,17,Pin_17*%
%TO.N,/38*%
X212344000Y-71501000D03*
%TO.P,P1,18,Pin_18*%
%TO.N,39*%
X214884000Y-71501000D03*
%TO.P,P1,19,Pin_19*%
%TO.N,/36*%
X212344000Y-68961000D03*
%TO.P,P1,20,Pin_20*%
%TO.N,37*%
X214884000Y-68961000D03*
%TO.P,P1,21,Pin_21*%
%TO.N,/34*%
X212344000Y-66421000D03*
%TO.P,P1,22,Pin_22*%
%TO.N,/35*%
X214884000Y-66421000D03*
%TO.P,P1,23,Pin_23*%
%TO.N,32*%
X212344000Y-63881000D03*
%TO.P,P1,24,Pin_24*%
%TO.N,/33*%
X214884000Y-63881000D03*
%TO.P,P1,25,Pin_25*%
%TO.N,/30*%
X212344000Y-61341000D03*
%TO.P,P1,26,Pin_26*%
%TO.N,31*%
X214884000Y-61341000D03*
%TO.P,P1,27,Pin_27*%
%TO.N,/28*%
X212344000Y-58801000D03*
%TO.P,P1,28,Pin_28*%
%TO.N,29*%
X214884000Y-58801000D03*
%TO.P,P1,29,Pin_29*%
%TO.N,/26*%
X212344000Y-56261000D03*
%TO.P,P1,30,Pin_30*%
%TO.N,27*%
X214884000Y-56261000D03*
%TO.P,P1,31,Pin_31*%
%TO.N,/24*%
X212344000Y-53721000D03*
%TO.P,P1,32,Pin_32*%
%TO.N,25*%
X214884000Y-53721000D03*
%TO.P,P1,33,Pin_33*%
%TO.N,/22*%
X212344000Y-51181000D03*
%TO.P,P1,34,Pin_34*%
%TO.N,23*%
X214884000Y-51181000D03*
%TO.P,P1,35,Pin_35*%
%TO.N,unconnected-(P1-Pad35)*%
X212344000Y-48641000D03*
%TO.P,P1,36,Pin_36*%
X214884000Y-48641000D03*
%TD*%
D17*
%TO.P,J1,0,PAD*%
%TO.N,GND*%
X205868000Y-114600000D03*
X172568000Y-114600000D03*
D18*
%TO.P,J1,1,1*%
X198913000Y-114300000D03*
D19*
%TO.P,J1,2,2*%
X196143000Y-114300000D03*
%TO.P,J1,3,3*%
X193373000Y-114300000D03*
%TO.P,J1,4,4*%
%TO.N,A11*%
X190603000Y-114300000D03*
%TO.P,J1,5,5*%
%TO.N,A9*%
X187833000Y-114300000D03*
%TO.P,J1,6,6*%
%TO.N,+5V*%
X185063000Y-114300000D03*
%TO.P,J1,7,7*%
X182293000Y-114300000D03*
%TO.P,J1,8,8*%
X179523000Y-114300000D03*
%TO.P,J1,9,P9*%
%TO.N,GND*%
X197528000Y-117140000D03*
%TO.P,J1,10,P10*%
X194758000Y-117140000D03*
%TO.P,J1,11,P111*%
%TO.N,A12*%
X191988000Y-117140000D03*
%TO.P,J1,12,P12*%
%TO.N,A10*%
X189218000Y-117140000D03*
%TO.P,J1,13,P13*%
%TO.N,A5*%
X186448000Y-117140000D03*
%TO.P,J1,14,P14*%
%TO.N,+5V*%
X183678000Y-117140000D03*
%TO.P,J1,15,P15*%
X180908000Y-117140000D03*
%TD*%
D20*
%TO.P,J5,1,Pin_1*%
%TO.N,GND*%
X115570000Y-105918000D03*
D21*
%TO.P,J5,2,Pin_2*%
%TO.N,40V*%
X115570000Y-100418000D03*
%TD*%
D22*
%TO.P,H1,1,1*%
%TO.N,GND*%
X107315000Y-50419000D03*
%TD*%
%TO.P,H2,1,1*%
%TO.N,GND*%
X231775000Y-50419000D03*
%TD*%
%TO.P,H3,1,1*%
%TO.N,GND*%
X107315000Y-117729000D03*
%TD*%
%TO.P,H4,1,1*%
%TO.N,GND*%
X231775000Y-117729000D03*
%TD*%
D23*
%TO.P,J1001,1,Pin_1*%
%TO.N,GND*%
X119210000Y-84130000D03*
D21*
%TO.P,J1001,2,Pin_2*%
X119210000Y-78430000D03*
%TO.P,J1001,3,Pin_3*%
%TO.N,40V*%
X124710000Y-84130000D03*
%TO.P,J1001,4,Pin_4*%
%TO.N,12V*%
X124710000Y-78430000D03*
%TD*%
D24*
%TO.P,J3,1,Pin_1*%
%TO.N,GND*%
X162052000Y-112731000D03*
D25*
%TO.P,J3,2,Pin_2*%
%TO.N,+5V*%
X162052000Y-109731000D03*
%TD*%
D26*
%TO.P,R3,1*%
%TO.N,Net-(D7-Pad2)*%
X155702000Y-113014000D03*
%TO.P,R3,2*%
%TO.N,+5V*%
X155702000Y-111014000D03*
%TD*%
D27*
%TO.P,J11,1,Pin_1*%
%TO.N,+5V*%
X229578200Y-83487001D03*
%TO.P,J11,2,Pin_2*%
%TO.N,51(MOSI)*%
X229578200Y-85487000D03*
%TO.P,J11,3,Pin_3*%
%TO.N,50(MISO)*%
X229578200Y-87487001D03*
%TO.P,J11,4,Pin_4*%
%TO.N,GND*%
X229578200Y-89486999D03*
%TD*%
D26*
%TO.P,R2,1*%
%TO.N,Net-(D6-Pad2)*%
X121666000Y-106410000D03*
%TO.P,R2,2*%
%TO.N,12V*%
X121666000Y-104410000D03*
%TD*%
D28*
%TO.P,U1,1,Vin*%
%TO.N,12V*%
X151511000Y-107950000D03*
%TO.P,U1,2,Gnd*%
%TO.N,GND*%
X154051000Y-107950000D03*
%TO.P,U1,3,Vout*%
%TO.N,+5V*%
X156591000Y-107950000D03*
%TD*%
D29*
%TO.P,D3,1,K*%
%TO.N,Net-(D3-Pad1)*%
X107950000Y-65659000D03*
%TO.P,D3,2,A*%
%TO.N,+5V*%
X105900000Y-65659000D03*
%TD*%
%TO.P,D1,1,K*%
%TO.N,Net-(D1-Pad1)*%
X107950000Y-58547000D03*
%TO.P,D1,2,A*%
%TO.N,+5V*%
X105900000Y-58547000D03*
%TD*%
D30*
%TO.P,J7,1,Pin_1*%
%TO.N,GND*%
X139954000Y-105961000D03*
D21*
%TO.P,J7,2,Pin_2*%
%TO.N,12V*%
X139954000Y-100461000D03*
%TD*%
D31*
%TO.P,C3,1*%
%TO.N,12V*%
X150876000Y-111950500D03*
%TO.P,C3,2*%
%TO.N,GND*%
X150876000Y-116141500D03*
%TD*%
D32*
%TO.P,D7,1,K*%
%TO.N,GND*%
X155702000Y-116858000D03*
%TO.P,D7,2,A*%
%TO.N,Net-(D7-Pad2)*%
X155702000Y-114808000D03*
%TD*%
D33*
%TO.P,U2,1,GND*%
%TO.N,GND*%
X123317000Y-65266999D03*
%TO.P,U2,2,SW1*%
%TO.N,49*%
X123317000Y-64617001D03*
%TO.P,U2,3,SW2*%
%TO.N,47*%
X123317000Y-63966999D03*
%TO.P,U2,4,SW3*%
%TO.N,0(Rx0)*%
X123317000Y-63317001D03*
%TO.P,U2,5,OUT0*%
%TO.N,Net-(D1-Pad1)*%
X123317000Y-62667002D03*
%TO.P,U2,6,OUT1*%
%TO.N,Net-(J14-Pad1)*%
X123317000Y-62017001D03*
%TO.P,U2,7,OUT2*%
%TO.N,Net-(D2-Pad1)*%
X123317000Y-61367002D03*
%TO.P,U2,8,OUT3*%
%TO.N,Net-(J14-Pad3)*%
X123317000Y-60717001D03*
%TO.P,U2,9,OUT4*%
%TO.N,Net-(D3-Pad1)*%
X117475000Y-60717001D03*
%TO.P,U2,10,OUT5*%
%TO.N,Net-(J14-Pad5)*%
X117475000Y-61366999D03*
%TO.P,U2,11,OUT6*%
%TO.N,Net-(D4-Pad1)*%
X117475000Y-62017001D03*
%TO.P,U2,12,OUT7*%
%TO.N,Net-(J14-Pad7)*%
X117475000Y-62666999D03*
%TO.P,U2,13,SW4*%
%TO.N,1(Tx0)*%
X117475000Y-63316998D03*
%TO.P,U2,14,\u002AOE*%
%TO.N,GND*%
X117475000Y-63966999D03*
%TO.P,U2,15,R-EXT*%
%TO.N,unconnected-(U2-Pad15)*%
X117475000Y-64616998D03*
%TO.P,U2,16,VDD*%
%TO.N,+5V*%
X117475000Y-65266999D03*
D34*
%TO.P,U2,EPAD,GND*%
%TO.N,GND*%
X120396000Y-62992000D03*
%TD*%
D10*
%TO.P,J12,1,Pin_1*%
%TO.N,GND*%
X111628000Y-92329000D03*
D11*
%TO.P,J12,2,Pin_2*%
%TO.N,40V*%
X114168000Y-92329000D03*
%TD*%
D10*
%TO.P,J14,1,Pin_1*%
%TO.N,Net-(J14-Pad1)*%
X113294000Y-55758000D03*
D11*
%TO.P,J14,2,Pin_2*%
%TO.N,+5V*%
X113294000Y-53218000D03*
%TO.P,J14,3,Pin_3*%
%TO.N,Net-(J14-Pad3)*%
X115834000Y-55758000D03*
%TO.P,J14,4,Pin_4*%
%TO.N,+5V*%
X115834000Y-53218000D03*
%TO.P,J14,5,Pin_5*%
%TO.N,Net-(J14-Pad5)*%
X118374000Y-55758000D03*
%TO.P,J14,6,Pin_6*%
%TO.N,+5V*%
X118374000Y-53218000D03*
%TO.P,J14,7,Pin_7*%
%TO.N,Net-(J14-Pad7)*%
X120914000Y-55758000D03*
%TO.P,J14,8,Pin_8*%
%TO.N,+5V*%
X120914000Y-53218000D03*
%TD*%
D30*
%TO.P,J2,1,Pin_1*%
%TO.N,GND*%
X127762000Y-105961000D03*
D21*
%TO.P,J2,2,Pin_2*%
%TO.N,12V*%
X127762000Y-100461000D03*
%TD*%
D32*
%TO.P,D6,1,K*%
%TO.N,GND*%
X121666000Y-111007000D03*
%TO.P,D6,2,A*%
%TO.N,Net-(D6-Pad2)*%
X121666000Y-108957000D03*
%TD*%
D29*
%TO.P,D2,1,K*%
%TO.N,Net-(D2-Pad1)*%
X107950000Y-62103000D03*
%TO.P,D2,2,A*%
%TO.N,+5V*%
X105900000Y-62103000D03*
%TD*%
D35*
%TO.P,C1,1*%
%TO.N,GND*%
X133858000Y-110665798D03*
%TO.P,C1,2*%
%TO.N,12V*%
X133858000Y-107860202D03*
%TD*%
D24*
%TO.P,J6,1,Pin_1*%
%TO.N,GND*%
X220829000Y-112477000D03*
D25*
%TO.P,J6,2,Pin_2*%
%TO.N,3V3*%
X217829000Y-112477000D03*
%TO.P,J6,3,Pin_3*%
%TO.N,21(SCL)*%
X220829000Y-109477000D03*
%TO.P,J6,4,Pin_4*%
%TO.N,20(SDA)*%
X217829000Y-109477000D03*
%TD*%
D32*
%TO.P,D5,1,K*%
%TO.N,GND*%
X109474000Y-107460000D03*
%TO.P,D5,2,A*%
%TO.N,Net-(D5-Pad2)*%
X109474000Y-105410000D03*
%TD*%
D27*
%TO.P,J13,1,Pin_1*%
%TO.N,+5V*%
X229578200Y-94155001D03*
%TO.P,J13,2,Pin_2*%
%TO.N,53(SS)*%
X229578200Y-96155000D03*
%TO.P,J13,3,Pin_3*%
%TO.N,52(SCK)*%
X229578200Y-98155001D03*
%TO.P,J13,4,Pin_4*%
%TO.N,GND*%
X229578200Y-100154999D03*
%TD*%
%TO.P,J4,1,Pin_1*%
%TO.N,+5V*%
X229616000Y-104894200D03*
%TO.P,J4,2,Pin_2*%
%TO.N,17(Rx2)*%
X229616000Y-106894199D03*
%TO.P,J4,3,Pin_3*%
%TO.N,16(Tx2)*%
X229616000Y-108894200D03*
%TO.P,J4,4,Pin_4*%
%TO.N,GND*%
X229616000Y-110894198D03*
%TD*%
D35*
%TO.P,C4,1*%
%TO.N,GND*%
X146050000Y-110665798D03*
%TO.P,C4,2*%
%TO.N,12V*%
X146050000Y-107860202D03*
%TD*%
D29*
%TO.P,D4,1,K*%
%TO.N,Net-(D4-Pad1)*%
X107959000Y-69215000D03*
%TO.P,D4,2,A*%
%TO.N,+5V*%
X105909000Y-69215000D03*
%TD*%
D10*
%TO.P,J8,1,Pin_1*%
%TO.N,GND*%
X111628000Y-96139000D03*
D11*
%TO.P,J8,2,Pin_2*%
%TO.N,40V*%
X114168000Y-96139000D03*
%TD*%
D26*
%TO.P,R1,1*%
%TO.N,Net-(D5-Pad2)*%
X109474000Y-103092000D03*
%TO.P,R1,2*%
%TO.N,40V*%
X109474000Y-101092000D03*
%TD*%
D36*
%TO.N,1(Tx0)*%
X129540000Y-57150000D03*
X136398000Y-61468000D03*
%TO.N,GND*%
X121056400Y-62407800D03*
X207326500Y-76073000D03*
X115671600Y-64465200D03*
D37*
X121666000Y-112268000D03*
D36*
X209741500Y-76200000D03*
X209804000Y-66421000D03*
D37*
X153873200Y-117500400D03*
X146761200Y-116382800D03*
D36*
X125425200Y-65887600D03*
X207264000Y-66421000D03*
D37*
X133858000Y-112268000D03*
X146050000Y-112014000D03*
D36*
X121056400Y-63677800D03*
X109474000Y-108966000D03*
X119786400Y-63677800D03*
X119786400Y-62407800D03*
%TO.N,46*%
X224282000Y-67691000D03*
%TO.N,1(Tx0)*%
X114909600Y-67157600D03*
X129768600Y-64541400D03*
X177647600Y-55803800D03*
X114528600Y-63474600D03*
X126390400Y-67868800D03*
%TO.N,0(Rx0)*%
X180517800Y-54711600D03*
%TO.N,43*%
X216789000Y-76581000D03*
X218948000Y-72136000D03*
%TO.N,42*%
X218948000Y-69215000D03*
X217043000Y-74930000D03*
%TO.N,32*%
X218694000Y-61087000D03*
X219329000Y-58420000D03*
%TO.N,31*%
X218694000Y-55753000D03*
X217805000Y-60452000D03*
%TO.N,9(\u002A\u002A)*%
X207010000Y-65151000D03*
X210058000Y-65151000D03*
%TO.N,10(\u002A\u002A)*%
X210185000Y-67691000D03*
X207010000Y-67691000D03*
%TO.N,Net-(J14-Pad1)*%
X126542800Y-61976000D03*
X127914400Y-60502800D03*
%TO.N,Net-(J14-Pad3)*%
X125171200Y-60096400D03*
X123139200Y-57150000D03*
%TO.N,Net-(J14-Pad5)*%
X114249200Y-61417200D03*
%TO.N,Net-(J14-Pad7)*%
X115214400Y-62722389D03*
%TO.N,16(Tx2)*%
X207264000Y-81534000D03*
X217551000Y-93472000D03*
X193040000Y-55118000D03*
%TO.N,17(Rx2)*%
X218567000Y-91821000D03*
X207326500Y-80391000D03*
X195707000Y-55245000D03*
%TO.N,7(\u002A\u002A)*%
X206375000Y-75946000D03*
X210185000Y-77216000D03*
X166878000Y-53721000D03*
%TO.N,49*%
X209931000Y-85471000D03*
X207264000Y-85471000D03*
%TO.N,47*%
X209931000Y-82931000D03*
X207264000Y-82931000D03*
%TD*%
D38*
%TO.N,1(Tx0)*%
X126746000Y-54356000D02*
X126746000Y-48768000D01*
X137287000Y-57023000D02*
X129768600Y-64541400D01*
X138480800Y-55829200D02*
X137287000Y-57023000D01*
X137287000Y-57023000D02*
X137287000Y-60579000D01*
X137287000Y-60579000D02*
X136398000Y-61468000D01*
X129540000Y-57150000D02*
X126746000Y-54356000D01*
X177622200Y-55829200D02*
X138480800Y-55829200D01*
X177647600Y-55803800D02*
X177622200Y-55829200D01*
%TO.N,0(Rx0)*%
X137515600Y-54711600D02*
X132435600Y-54711600D01*
X132435600Y-54711600D02*
X129286000Y-51562000D01*
X129286000Y-51562000D02*
X129286000Y-48768000D01*
%TO.N,GND*%
X150685500Y-116332000D02*
X150876000Y-116141500D01*
D39*
X125425200Y-65887600D02*
X124804599Y-65266999D01*
D38*
X154617200Y-116858000D02*
X154515600Y-116858000D01*
D40*
X116169801Y-63966999D02*
X117475000Y-63966999D01*
D39*
X133858000Y-110665798D02*
X133858000Y-112268000D01*
X121666000Y-111007000D02*
X121666000Y-112268000D01*
X146812000Y-116332000D02*
X150685500Y-116332000D01*
X146050000Y-110665798D02*
X146050000Y-112014000D01*
D40*
X115671600Y-64465200D02*
X116169801Y-63966999D01*
D38*
X154515600Y-116858000D02*
X153873200Y-117500400D01*
X154617200Y-116858000D02*
X155702000Y-116858000D01*
D39*
X146761200Y-116382800D02*
X146812000Y-116332000D01*
X124804599Y-65266999D02*
X123317000Y-65266999D01*
D38*
X109474000Y-107460000D02*
X109474000Y-108966000D01*
D41*
%TO.N,46*%
X225830000Y-66143000D02*
X224282000Y-67691000D01*
X225830000Y-66006500D02*
X225830000Y-66143000D01*
D38*
%TO.N,45*%
X217424000Y-79121000D02*
X214884000Y-79121000D01*
X219329000Y-81026000D02*
X217424000Y-79121000D01*
X221810000Y-81026000D02*
X219329000Y-81026000D01*
D40*
X214884000Y-79121000D02*
X215392000Y-78613000D01*
D38*
X223240500Y-79595500D02*
X221810000Y-81026000D01*
%TO.N,39*%
X216443011Y-73060011D02*
X222155989Y-73060011D01*
X222155989Y-73060011D02*
X223240500Y-71975500D01*
X214884000Y-71501000D02*
X216443011Y-73060011D01*
%TO.N,37*%
X216408000Y-68961000D02*
X217170000Y-68199000D01*
X217170000Y-68199000D02*
X222123000Y-68199000D01*
X222123000Y-68199000D02*
X223240500Y-69316500D01*
X223240500Y-69316500D02*
X223240500Y-69435500D01*
X214884000Y-68961000D02*
X216408000Y-68961000D01*
D39*
%TO.N,+5V*%
X107950000Y-72593200D02*
X106984800Y-72593200D01*
X115276201Y-65266999D02*
X107950000Y-72593200D01*
X117475000Y-65266999D02*
X115276201Y-65266999D01*
D40*
%TO.N,/15(Rx3)*%
X190190652Y-48641000D02*
X189484000Y-48641000D01*
D39*
%TO.N,12V*%
X121666000Y-104410000D02*
X123813000Y-104410000D01*
X123813000Y-104410000D02*
X127762000Y-100461000D01*
D38*
%TO.N,3V3*%
X210439000Y-95250000D02*
X213360000Y-95250000D01*
X213360000Y-95250000D02*
X214884000Y-96774000D01*
X153924000Y-94691200D02*
X155397200Y-93218000D01*
X153924000Y-96901000D02*
X153924000Y-94691200D01*
X208407000Y-93218000D02*
X210439000Y-95250000D01*
X155397200Y-93218000D02*
X208407000Y-93218000D01*
X214884000Y-109532000D02*
X217829000Y-112477000D01*
X214884000Y-96774000D02*
X214884000Y-109532000D01*
D40*
X153924000Y-96901000D02*
X154630652Y-96901000D01*
D38*
%TO.N,1(Tx0)*%
X126390400Y-67868800D02*
X115620800Y-67868800D01*
X115622141Y-63474600D02*
X115799941Y-63296800D01*
X115799941Y-63296800D02*
X117454802Y-63296800D01*
X114528600Y-63474600D02*
X115622141Y-63474600D01*
X115620800Y-67868800D02*
X114909600Y-67157600D01*
X117454802Y-63296800D02*
X117475000Y-63316998D01*
%TO.N,0(Rx0)*%
X180517800Y-54711600D02*
X137515600Y-54711600D01*
X137515600Y-54711600D02*
X128910199Y-63317001D01*
X128910199Y-63317001D02*
X123317000Y-63317001D01*
%TO.N,A12*%
X191988000Y-117140000D02*
X191988000Y-109785000D01*
X202184000Y-99589000D02*
X202184000Y-96901000D01*
X191988000Y-109785000D02*
X202184000Y-99589000D01*
%TO.N,A11*%
X190603000Y-114300000D02*
X190603000Y-108630000D01*
X199644000Y-99589000D02*
X199644000Y-96901000D01*
X190603000Y-108630000D02*
X199644000Y-99589000D01*
D40*
%TO.N,unconnected-(P1-Pad35)*%
X214884000Y-48641000D02*
X214884000Y-48758002D01*
D38*
%TO.N,20(SDA)*%
X217829000Y-97814000D02*
X214503000Y-94488000D01*
X208026000Y-91567000D02*
X208026000Y-56134000D01*
X210947000Y-94488000D02*
X208026000Y-91567000D01*
X214503000Y-94488000D02*
X210947000Y-94488000D01*
X217829000Y-109477000D02*
X217829000Y-97814000D01*
X202184000Y-50292000D02*
X202184000Y-48641000D01*
X208026000Y-56134000D02*
X202184000Y-50292000D01*
%TO.N,21(SCL)*%
X204724000Y-51181000D02*
X204724000Y-48641000D01*
X219964000Y-98171000D02*
X215519000Y-93726000D01*
X209042000Y-91059000D02*
X209042000Y-55499000D01*
X209042000Y-55499000D02*
X204724000Y-51181000D01*
X211709000Y-93726000D02*
X209042000Y-91059000D01*
X220829000Y-109477000D02*
X219964000Y-108612000D01*
X219964000Y-108612000D02*
X219964000Y-98171000D01*
D40*
X204724000Y-48641000D02*
X204724000Y-49149000D01*
D38*
X215519000Y-93726000D02*
X211709000Y-93726000D01*
%TO.N,44*%
X216795889Y-80397889D02*
X213366889Y-80397889D01*
X225780500Y-79595500D02*
X223588000Y-81788000D01*
X212344000Y-79375000D02*
X212344000Y-79121000D01*
X218186000Y-81788000D02*
X216795889Y-80397889D01*
X213366889Y-80397889D02*
X212344000Y-79375000D01*
X223588000Y-81788000D02*
X218186000Y-81788000D01*
%TO.N,43*%
X214884000Y-76581000D02*
X216789000Y-76581000D01*
X220607000Y-71882000D02*
X220700500Y-71975500D01*
X220540000Y-72136000D02*
X220700500Y-71975500D01*
X218948000Y-72136000D02*
X220540000Y-72136000D01*
%TO.N,41*%
X224409000Y-73347000D02*
X225780500Y-71975500D01*
X219364011Y-75600011D02*
X223689720Y-75600011D01*
X217805000Y-74041000D02*
X219364011Y-75600011D01*
X223689720Y-75600011D02*
X224409000Y-74880731D01*
X224409000Y-74880731D02*
X224409000Y-73347000D01*
X214884000Y-74041000D02*
X217805000Y-74041000D01*
%TO.N,42*%
X216662000Y-75311000D02*
X213614000Y-75311000D01*
X217043000Y-74930000D02*
X216662000Y-75311000D01*
X220480000Y-69215000D02*
X220700500Y-69435500D01*
X218948000Y-69215000D02*
X220480000Y-69215000D01*
X213614000Y-75311000D02*
X212344000Y-76581000D01*
%TO.N,40*%
X213614000Y-70612000D02*
X213988111Y-70237889D01*
X220343269Y-70612000D02*
X224604000Y-70612000D01*
X219969158Y-70237889D02*
X220343269Y-70612000D01*
X213614000Y-72771000D02*
X213614000Y-70612000D01*
X212344000Y-74041000D02*
X213614000Y-72771000D01*
X224604000Y-70612000D02*
X225780500Y-69435500D01*
X213988111Y-70237889D02*
X219969158Y-70237889D01*
%TO.N,A5*%
X186448000Y-104152000D02*
X186448000Y-117140000D01*
X181864000Y-96901000D02*
X181864000Y-99568000D01*
X181864000Y-99568000D02*
X186448000Y-104152000D01*
%TO.N,A10*%
X197104000Y-99589000D02*
X197104000Y-96901000D01*
X189218000Y-107475000D02*
X197104000Y-99589000D01*
X189218000Y-117140000D02*
X189218000Y-107475000D01*
%TO.N,A9*%
X194564000Y-99589000D02*
X194564000Y-96901000D01*
D40*
X194564000Y-96901000D02*
X194564000Y-97053400D01*
D38*
X187833000Y-114300000D02*
X187833000Y-106320000D01*
X187833000Y-106320000D02*
X194564000Y-99589000D01*
%TO.N,32*%
X219362500Y-58386500D02*
X220750000Y-58386500D01*
X217163111Y-62617889D02*
X218694000Y-61087000D01*
X213607111Y-62617889D02*
X217163111Y-62617889D01*
X212344000Y-63881000D02*
X213607111Y-62617889D01*
X219329000Y-58420000D02*
X219362500Y-58386500D01*
%TO.N,29*%
X222011901Y-59664599D02*
X223290000Y-58386500D01*
X215747599Y-59664599D02*
X222011901Y-59664599D01*
X214884000Y-58801000D02*
X215747599Y-59664599D01*
%TO.N,25*%
X214884000Y-53721000D02*
X223774000Y-53721000D01*
X223774000Y-53721000D02*
X224536000Y-54483000D01*
X224536000Y-57092500D02*
X225830000Y-58386500D01*
X224536000Y-54483000D02*
X224536000Y-57092500D01*
%TO.N,31*%
X218694000Y-55753000D02*
X220656500Y-55753000D01*
X217805000Y-60452000D02*
X216916000Y-61341000D01*
D40*
X220656500Y-55753000D02*
X220750000Y-55846500D01*
D38*
X216916000Y-61341000D02*
X214884000Y-61341000D01*
%TO.N,27*%
X214884000Y-56261000D02*
X215747599Y-57124599D01*
X215747599Y-57124599D02*
X222011901Y-57124599D01*
X222011901Y-57124599D02*
X223290000Y-55846500D01*
%TO.N,23*%
X214884000Y-51181000D02*
X222758000Y-51181000D01*
X225830000Y-54253000D02*
X225830000Y-55846500D01*
X222758000Y-51181000D02*
X225830000Y-54253000D01*
%TO.N,9(\u002A\u002A)*%
X205359000Y-57023000D02*
X199517000Y-51181000D01*
X219887611Y-65144111D02*
X210445889Y-65144111D01*
X220750000Y-66006500D02*
X219887611Y-65144111D01*
X207010000Y-65151000D02*
X205359000Y-63500000D01*
X199517000Y-51181000D02*
X159766000Y-51181000D01*
X157480000Y-48895000D02*
X157480000Y-48641000D01*
X210445889Y-65144111D02*
X210439000Y-65151000D01*
X159766000Y-51181000D02*
X157480000Y-48895000D01*
X205359000Y-63500000D02*
X205359000Y-57023000D01*
X210439000Y-65151000D02*
X210058000Y-65151000D01*
%TO.N,10(\u002A\u002A)*%
X216535000Y-67310000D02*
X221986500Y-67310000D01*
X221986500Y-67310000D02*
X223290000Y-66006500D01*
X158877000Y-52578000D02*
X154940000Y-48641000D01*
X216160889Y-67684111D02*
X210191889Y-67684111D01*
X207010000Y-67691000D02*
X203708000Y-64389000D01*
X199009000Y-52578000D02*
X158877000Y-52578000D01*
X210191889Y-67684111D02*
X210185000Y-67691000D01*
X216160889Y-67684111D02*
X216535000Y-67310000D01*
X203708000Y-57277000D02*
X199009000Y-52578000D01*
X203708000Y-64389000D02*
X203708000Y-57277000D01*
X155541279Y-48641000D02*
X154940000Y-48641000D01*
%TO.N,Net-(D3-Pad1)*%
X109042200Y-65659000D02*
X113984199Y-60717001D01*
X107950000Y-65659000D02*
X109042200Y-65659000D01*
D40*
X113984199Y-60717001D02*
X117475000Y-60717001D01*
D38*
%TO.N,Net-(D5-Pad2)*%
X109474000Y-103092000D02*
X109474000Y-105410000D01*
D39*
%TO.N,Net-(D6-Pad2)*%
X121666000Y-106410000D02*
X121666000Y-108957000D01*
D38*
%TO.N,40V*%
X110490000Y-100076000D02*
X115228000Y-100076000D01*
D40*
X115228000Y-100076000D02*
X115570000Y-100418000D01*
D38*
X109474000Y-101092000D02*
X110490000Y-100076000D01*
%TO.N,Net-(D1-Pad1)*%
X125958600Y-58547000D02*
X127167311Y-59755711D01*
X127167311Y-59755711D02*
X127167311Y-62234682D01*
X127167311Y-62234682D02*
X126734991Y-62667002D01*
X126734991Y-62667002D02*
X123317000Y-62667002D01*
X107950000Y-58547000D02*
X125958600Y-58547000D01*
%TO.N,Net-(D2-Pad1)*%
X107950000Y-62103000D02*
X111429800Y-62103000D01*
X114198400Y-59334400D02*
X125730000Y-59334400D01*
X125729398Y-61367002D02*
X123317000Y-61367002D01*
X125730000Y-59334400D02*
X126136400Y-59740800D01*
X126136400Y-60960000D02*
X125729398Y-61367002D01*
X111429800Y-62103000D02*
X114198400Y-59334400D01*
X126136400Y-59740800D02*
X126136400Y-60960000D01*
%TO.N,Net-(D4-Pad1)*%
X114716199Y-62017001D02*
X107959000Y-68774200D01*
X117475000Y-62017001D02*
X114716199Y-62017001D01*
D40*
X107959000Y-68774200D02*
X107959000Y-69215000D01*
%TO.N,Net-(J14-Pad1)*%
X113406000Y-55758000D02*
X113294000Y-55758000D01*
D38*
X113294000Y-55758000D02*
X113294000Y-56906000D01*
X114249200Y-57861200D02*
X126238000Y-57861200D01*
X113294000Y-56906000D02*
X114249200Y-57861200D01*
X126238000Y-57861200D02*
X127914400Y-59537600D01*
D40*
X126542800Y-61976000D02*
X126501799Y-62017001D01*
D38*
X126501799Y-62017001D02*
X123317000Y-62017001D01*
X127914400Y-59537600D02*
X127914400Y-60502800D01*
D40*
%TO.N,Net-(J14-Pad3)*%
X115834000Y-56499600D02*
X115834000Y-55758000D01*
D38*
X123088400Y-57200800D02*
X116535200Y-57200800D01*
D40*
X125171200Y-60096400D02*
X125171200Y-60452000D01*
D38*
X125171200Y-60452000D02*
X124906199Y-60717001D01*
D40*
X123139200Y-57150000D02*
X123088400Y-57200800D01*
D38*
X124906199Y-60717001D02*
X123317000Y-60717001D01*
X116535200Y-57200800D02*
X115834000Y-56499600D01*
%TO.N,Net-(J14-Pad5)*%
X114299401Y-61366999D02*
X117475000Y-61366999D01*
D40*
X117449502Y-61341501D02*
X117475000Y-61366999D01*
X114249200Y-61417200D02*
X114299401Y-61366999D01*
%TO.N,Net-(J14-Pad7)*%
X115269790Y-62666999D02*
X117475000Y-62666999D01*
X115214400Y-62722389D02*
X115269790Y-62666999D01*
D38*
%TO.N,Net-(D7-Pad2)*%
X155702000Y-113014000D02*
X155702000Y-114808000D01*
%TO.N,16(Tx2)*%
X203835000Y-78105000D02*
X203835000Y-69977000D01*
X203835000Y-69977000D02*
X199517000Y-65659000D01*
X207264000Y-81534000D02*
X203835000Y-78105000D01*
X196977000Y-56515000D02*
X195072000Y-56515000D01*
X220980000Y-96901000D02*
X217551000Y-93472000D01*
X199517000Y-65659000D02*
X199390000Y-65532000D01*
X229616000Y-108767200D02*
X228274200Y-108767200D01*
X199390000Y-58928000D02*
X196977000Y-56515000D01*
X220980000Y-97028000D02*
X220980000Y-96901000D01*
X220980000Y-101473000D02*
X220980000Y-97028000D01*
X194437000Y-56515000D02*
X193040000Y-55118000D01*
X228274200Y-108767200D02*
X220980000Y-101473000D01*
X199390000Y-65532000D02*
X199390000Y-58928000D01*
X195072000Y-56515000D02*
X194437000Y-56515000D01*
%TO.N,17(Rx2)*%
X200787000Y-65278000D02*
X205105000Y-69596000D01*
X197358000Y-55245000D02*
X200787000Y-58674000D01*
X195707000Y-55245000D02*
X197358000Y-55245000D01*
X228179199Y-106767199D02*
X229616000Y-106767199D01*
X200787000Y-58674000D02*
X200787000Y-65278000D01*
X205105000Y-69596000D02*
X205105000Y-78169500D01*
X205105000Y-78169500D02*
X207326500Y-80391000D01*
X222123000Y-96393000D02*
X222123000Y-95377000D01*
X222123000Y-100711000D02*
X222123000Y-96393000D01*
X228179199Y-106767199D02*
X222123000Y-100711000D01*
X222123000Y-95377000D02*
X218567000Y-91821000D01*
%TO.N,50(MISO)*%
X212344000Y-86741000D02*
X213607111Y-88004111D01*
X229061090Y-88004111D02*
X229578200Y-87487001D01*
X213607111Y-88004111D02*
X229061090Y-88004111D01*
%TO.N,51(MOSI)*%
X214884000Y-86741000D02*
X228324200Y-86741000D01*
X228324200Y-86741000D02*
X229578200Y-85487000D01*
%TO.N,52(SCK)*%
X228346000Y-98171000D02*
X228361999Y-98155001D01*
X213620889Y-90557889D02*
X220732889Y-90557889D01*
X212344000Y-89281000D02*
X213620889Y-90557889D01*
X228361999Y-98155001D02*
X229705200Y-98155001D01*
X220732889Y-90557889D02*
X228346000Y-98171000D01*
%TO.N,53(SS)*%
X228235000Y-96155000D02*
X221361000Y-89281000D01*
X229705200Y-96155000D02*
X228235000Y-96155000D01*
X221361000Y-89281000D02*
X214884000Y-89281000D01*
%TO.N,7(\u002A\u002A)*%
X212083111Y-77844111D02*
X210813111Y-77844111D01*
X212083111Y-77844111D02*
X218949111Y-77844111D01*
X210813111Y-77844111D02*
X210185000Y-77216000D01*
X202311000Y-65405000D02*
X202311000Y-57912000D01*
X198120000Y-53721000D02*
X166878000Y-53721000D01*
X218949111Y-77844111D02*
X220700500Y-79595500D01*
X206375000Y-75946000D02*
X206248000Y-75819000D01*
X206248000Y-69342000D02*
X202311000Y-65405000D01*
X206248000Y-75819000D02*
X206248000Y-69342000D01*
X202311000Y-57912000D02*
X198120000Y-53721000D01*
%TO.N,49*%
X133451600Y-72491600D02*
X138658600Y-72491600D01*
X204266800Y-89204800D02*
X204266800Y-87731600D01*
X143459200Y-77292200D02*
X143459200Y-87325200D01*
X204266800Y-87731600D02*
X206527400Y-85471000D01*
X209931000Y-85471000D02*
X213614000Y-85471000D01*
X206527400Y-85471000D02*
X207264000Y-85471000D01*
X125577001Y-64617001D02*
X133451600Y-72491600D01*
X123317000Y-64617001D02*
X125577001Y-64617001D01*
X143459200Y-87325200D02*
X148031200Y-91897200D01*
X148031200Y-91897200D02*
X201574400Y-91897200D01*
X213614000Y-85471000D02*
X214884000Y-84201000D01*
X138658600Y-72491600D02*
X143459200Y-77292200D01*
X201574400Y-91897200D02*
X204266800Y-89204800D01*
%TO.N,47*%
X145084800Y-86817200D02*
X145084800Y-76631800D01*
X205282800Y-82956400D02*
X202539600Y-85699600D01*
X200456800Y-90373200D02*
X148640800Y-90373200D01*
X126552599Y-63966999D02*
X123317000Y-63966999D01*
X202539600Y-88290400D02*
X200456800Y-90373200D01*
X213614000Y-82931000D02*
X214884000Y-81661000D01*
X145084800Y-76631800D02*
X139750800Y-71297800D01*
X202539600Y-85699600D02*
X202539600Y-88290400D01*
X207238600Y-82956400D02*
X205282800Y-82956400D01*
X139750800Y-71297800D02*
X133883400Y-71297800D01*
X207264000Y-82931000D02*
X207238600Y-82956400D01*
X133883400Y-71297800D02*
X126552599Y-63966999D01*
X209931000Y-82931000D02*
X213614000Y-82931000D01*
X148640800Y-90373200D02*
X145084800Y-86817200D01*
%TD*%
%TA.AperFunction,Conductor*%
%TO.N,12V*%
G36*
X138862526Y-75862198D02*
G01*
X139187832Y-75880466D01*
X139201864Y-75882047D01*
X139360728Y-75909039D01*
X139519587Y-75936031D01*
X139533362Y-75939175D01*
X139629228Y-75966793D01*
X139843047Y-76028394D01*
X139856368Y-76033055D01*
X140154118Y-76156387D01*
X140166841Y-76162514D01*
X140383131Y-76282053D01*
X140448906Y-76318406D01*
X140460870Y-76325924D01*
X140723694Y-76512409D01*
X140734740Y-76521218D01*
X140975043Y-76735965D01*
X140985035Y-76745957D01*
X141199782Y-76986260D01*
X141208591Y-76997306D01*
X141395076Y-77260130D01*
X141402594Y-77272094D01*
X141558484Y-77554155D01*
X141564613Y-77566882D01*
X141687945Y-77864632D01*
X141692606Y-77877953D01*
X141753218Y-78088340D01*
X141781825Y-78187638D01*
X141784969Y-78201413D01*
X141838952Y-78519131D01*
X141840534Y-78533172D01*
X141858802Y-78858474D01*
X141859000Y-78865539D01*
X141859000Y-96520000D01*
X142848138Y-97413415D01*
X142848141Y-97413418D01*
X142849533Y-97414675D01*
X142849540Y-97414682D01*
X144937984Y-99301018D01*
X145796000Y-100076000D01*
X149904461Y-100076000D01*
X149911526Y-100076198D01*
X150236832Y-100094466D01*
X150250864Y-100096047D01*
X150409728Y-100123040D01*
X150568587Y-100150031D01*
X150582362Y-100153175D01*
X150678228Y-100180793D01*
X150892047Y-100242394D01*
X150905368Y-100247055D01*
X151203118Y-100370387D01*
X151215841Y-100376514D01*
X151432131Y-100496053D01*
X151497906Y-100532406D01*
X151509870Y-100539924D01*
X151772694Y-100726409D01*
X151783740Y-100735218D01*
X152024043Y-100949965D01*
X152034035Y-100959957D01*
X152248782Y-101200260D01*
X152257591Y-101211306D01*
X152444076Y-101474130D01*
X152451594Y-101486094D01*
X152607484Y-101768155D01*
X152613613Y-101780882D01*
X152736945Y-102078632D01*
X152741606Y-102091953D01*
X152761059Y-102159475D01*
X152830825Y-102401638D01*
X152833969Y-102415413D01*
X152887952Y-102733131D01*
X152889534Y-102747172D01*
X152907802Y-103072474D01*
X152908000Y-103079539D01*
X152908000Y-107449796D01*
X152896194Y-107503047D01*
X152885575Y-107525820D01*
X152829623Y-107734638D01*
X152810781Y-107950000D01*
X152829623Y-108165362D01*
X152831047Y-108170676D01*
X152831047Y-108170677D01*
X152883484Y-108366375D01*
X152885575Y-108374180D01*
X152887898Y-108379162D01*
X152887900Y-108379167D01*
X152896194Y-108396953D01*
X152908000Y-108450204D01*
X152908000Y-112009044D01*
X152907612Y-112018930D01*
X152888451Y-112262388D01*
X152885358Y-112281916D01*
X152829509Y-112514546D01*
X152823401Y-112533345D01*
X152731845Y-112754381D01*
X152722871Y-112771992D01*
X152597865Y-112975982D01*
X152586250Y-112991970D01*
X152430873Y-113173893D01*
X152416895Y-113187871D01*
X152234970Y-113343250D01*
X152218982Y-113354865D01*
X152014992Y-113479871D01*
X151997381Y-113488845D01*
X151776345Y-113580401D01*
X151757551Y-113586507D01*
X151524916Y-113642358D01*
X151505388Y-113645451D01*
X151261930Y-113664612D01*
X151252044Y-113665000D01*
X151134956Y-113665000D01*
X151125070Y-113664612D01*
X150901479Y-113647015D01*
X150881951Y-113643922D01*
X150668694Y-113592723D01*
X150649900Y-113586617D01*
X150447275Y-113502687D01*
X150429670Y-113493717D01*
X150242664Y-113379120D01*
X150226678Y-113367505D01*
X150059907Y-113225069D01*
X150045929Y-113211091D01*
X150014159Y-113173893D01*
X149903495Y-113044322D01*
X149891879Y-113028334D01*
X149869600Y-112991978D01*
X149777283Y-112841330D01*
X149768313Y-112823725D01*
X149684383Y-112621100D01*
X149678275Y-112602301D01*
X149661722Y-112533350D01*
X149627078Y-112389048D01*
X149623985Y-112369521D01*
X149606388Y-112145930D01*
X149606000Y-112136044D01*
X149606000Y-110617000D01*
X149321417Y-110010188D01*
X149289763Y-109942692D01*
X149289758Y-109942683D01*
X148971000Y-109263000D01*
X145418806Y-109263000D01*
X145411198Y-109262770D01*
X145101136Y-109244015D01*
X145086032Y-109242181D01*
X145014737Y-109229116D01*
X144784240Y-109186875D01*
X144769478Y-109183237D01*
X144476536Y-109091953D01*
X144462314Y-109086558D01*
X144182524Y-108960635D01*
X144169071Y-108953574D01*
X143906491Y-108794839D01*
X143893977Y-108786202D01*
X143652446Y-108596974D01*
X143641058Y-108586884D01*
X143424116Y-108369942D01*
X143414026Y-108358554D01*
X143224798Y-108117023D01*
X143216161Y-108104509D01*
X143057426Y-107841929D01*
X143050362Y-107828470D01*
X143010599Y-107740118D01*
X142924441Y-107548683D01*
X142919046Y-107534460D01*
X142827763Y-107241522D01*
X142824123Y-107226754D01*
X142806564Y-107130935D01*
X142804500Y-107108223D01*
X142804499Y-104301409D01*
X142804499Y-104298852D01*
X142793052Y-104158099D01*
X142748000Y-103982634D01*
X142748000Y-103929000D01*
X142731637Y-103929000D01*
X142644614Y-103738925D01*
X142517218Y-103555625D01*
X142359375Y-103397782D01*
X142176075Y-103270386D01*
X141973112Y-103177462D01*
X141756901Y-103121948D01*
X141692820Y-103116736D01*
X141618700Y-103110707D01*
X141618688Y-103110707D01*
X141616149Y-103110500D01*
X139954651Y-103110500D01*
X138291852Y-103110501D01*
X138151099Y-103121948D01*
X138145903Y-103123282D01*
X138145898Y-103123283D01*
X137940321Y-103176067D01*
X137934888Y-103177462D01*
X137731925Y-103270386D01*
X137548625Y-103397782D01*
X137390782Y-103555625D01*
X137263386Y-103738925D01*
X137170462Y-103941888D01*
X137114948Y-104158099D01*
X137114513Y-104163451D01*
X137114513Y-104163452D01*
X137103708Y-104296299D01*
X137103500Y-104298851D01*
X137103501Y-105943893D01*
X137103501Y-107537319D01*
X137092400Y-107589031D01*
X136984638Y-107828469D01*
X136977574Y-107841930D01*
X136818837Y-108104513D01*
X136810202Y-108117023D01*
X136620974Y-108358554D01*
X136610884Y-108369942D01*
X136393942Y-108586884D01*
X136382554Y-108596974D01*
X136141023Y-108786202D01*
X136128509Y-108794839D01*
X135865929Y-108953574D01*
X135852476Y-108960635D01*
X135572686Y-109086558D01*
X135558464Y-109091953D01*
X135265522Y-109183237D01*
X135250760Y-109186875D01*
X135020263Y-109229116D01*
X134948968Y-109242181D01*
X134933864Y-109244015D01*
X134623802Y-109262770D01*
X134616194Y-109263000D01*
X133099806Y-109263000D01*
X133092198Y-109262770D01*
X132782136Y-109244015D01*
X132767032Y-109242181D01*
X132695737Y-109229116D01*
X132465240Y-109186875D01*
X132450478Y-109183237D01*
X132157536Y-109091953D01*
X132143314Y-109086558D01*
X131863524Y-108960635D01*
X131850071Y-108953574D01*
X131587491Y-108794839D01*
X131574977Y-108786202D01*
X131333446Y-108596974D01*
X131322058Y-108586884D01*
X131105116Y-108369942D01*
X131095026Y-108358554D01*
X130905798Y-108117023D01*
X130897163Y-108104513D01*
X130738426Y-107841930D01*
X130731362Y-107828469D01*
X130623601Y-107589033D01*
X130612500Y-107537321D01*
X130612499Y-104301409D01*
X130612499Y-104298852D01*
X130601052Y-104158099D01*
X130545538Y-103941888D01*
X130452614Y-103738925D01*
X130325218Y-103555625D01*
X130167375Y-103397782D01*
X129984075Y-103270386D01*
X129781112Y-103177462D01*
X129564901Y-103121948D01*
X129500820Y-103116736D01*
X129426700Y-103110707D01*
X129426688Y-103110707D01*
X129424149Y-103110500D01*
X127762651Y-103110500D01*
X126099852Y-103110501D01*
X125959099Y-103121948D01*
X125876239Y-103143223D01*
X125805286Y-103140790D01*
X125755811Y-103110276D01*
X125660081Y-103014546D01*
X125649991Y-103003157D01*
X125456045Y-102755602D01*
X125447402Y-102743081D01*
X125284704Y-102473948D01*
X125277633Y-102460475D01*
X125148567Y-102173702D01*
X125143171Y-102159475D01*
X125049610Y-101859226D01*
X125045969Y-101844453D01*
X124989282Y-101535122D01*
X124987448Y-101520018D01*
X124968230Y-101202302D01*
X124968000Y-101194694D01*
X124968000Y-100630806D01*
X124968230Y-100623198D01*
X124987911Y-100297828D01*
X124989745Y-100282724D01*
X125047815Y-99965850D01*
X125051456Y-99951077D01*
X125147298Y-99643508D01*
X125152694Y-99629281D01*
X125284911Y-99335506D01*
X125291973Y-99322050D01*
X125458640Y-99046350D01*
X125467282Y-99033829D01*
X125665965Y-98780229D01*
X125676055Y-98768841D01*
X125903841Y-98541055D01*
X125915229Y-98530965D01*
X126168829Y-98332282D01*
X126181351Y-98323639D01*
X126457050Y-98156973D01*
X126470506Y-98149911D01*
X126764285Y-98017692D01*
X126778503Y-98012300D01*
X127086077Y-97916456D01*
X127100850Y-97912815D01*
X127417724Y-97854745D01*
X127432828Y-97852911D01*
X127758198Y-97833230D01*
X127765806Y-97833000D01*
X130556000Y-97833000D01*
X131191000Y-97028000D01*
X131191000Y-80942000D01*
X124463806Y-80942000D01*
X124456198Y-80941770D01*
X124161444Y-80923941D01*
X124146340Y-80922107D01*
X123859636Y-80869566D01*
X123844863Y-80865925D01*
X123834548Y-80862711D01*
X123566573Y-80779206D01*
X123552355Y-80773814D01*
X123286546Y-80654183D01*
X123273090Y-80647121D01*
X123126030Y-80558220D01*
X123023636Y-80496320D01*
X123011115Y-80487677D01*
X122781667Y-80307917D01*
X122770278Y-80297827D01*
X122564173Y-80091722D01*
X122554083Y-80080333D01*
X122374323Y-79850885D01*
X122365680Y-79838364D01*
X122303780Y-79735970D01*
X122214879Y-79588910D01*
X122207817Y-79575454D01*
X122088186Y-79309645D01*
X122082792Y-79295422D01*
X121996075Y-79017137D01*
X121992434Y-79002364D01*
X121939893Y-78715660D01*
X121938059Y-78700556D01*
X121920460Y-78409608D01*
X121920460Y-78394392D01*
X121938059Y-78103444D01*
X121939893Y-78088340D01*
X121992434Y-77801636D01*
X121996075Y-77786863D01*
X122082792Y-77508578D01*
X122088188Y-77494351D01*
X122207817Y-77228546D01*
X122214879Y-77215090D01*
X122303780Y-77068030D01*
X122365680Y-76965636D01*
X122374323Y-76953115D01*
X122554083Y-76723667D01*
X122564173Y-76712278D01*
X122770278Y-76506173D01*
X122781667Y-76496083D01*
X123011115Y-76316323D01*
X123023636Y-76307680D01*
X123126030Y-76245780D01*
X123273090Y-76156879D01*
X123286546Y-76149817D01*
X123552355Y-76030186D01*
X123566573Y-76024794D01*
X123844863Y-75938075D01*
X123859636Y-75934434D01*
X124146340Y-75881893D01*
X124161444Y-75880059D01*
X124456198Y-75862230D01*
X124463806Y-75862000D01*
X138855461Y-75862000D01*
X138862526Y-75862198D01*
G37*
%TD.AperFunction*%
%TD*%
%TA.AperFunction,Conductor*%
%TO.N,+5V*%
G36*
X122333823Y-46594002D02*
G01*
X122380316Y-46647658D01*
X122391700Y-46699400D01*
X122427400Y-54229403D01*
X122407721Y-54297617D01*
X122354286Y-54344364D01*
X122301401Y-54356000D01*
X121320118Y-54356000D01*
X121289030Y-54351963D01*
X121285794Y-54350817D01*
X121280711Y-54349912D01*
X121280705Y-54349910D01*
X121056060Y-54309894D01*
X121056056Y-54309894D01*
X121050972Y-54308988D01*
X120967140Y-54307964D01*
X120817640Y-54306137D01*
X120817638Y-54306137D01*
X120812471Y-54306074D01*
X120576698Y-54342153D01*
X120560128Y-54347569D01*
X120553409Y-54349765D01*
X120514264Y-54356000D01*
X118780118Y-54356000D01*
X118749030Y-54351963D01*
X118745794Y-54350817D01*
X118740711Y-54349912D01*
X118740705Y-54349910D01*
X118516060Y-54309894D01*
X118516056Y-54309894D01*
X118510972Y-54308988D01*
X118427140Y-54307964D01*
X118277640Y-54306137D01*
X118277638Y-54306137D01*
X118272471Y-54306074D01*
X118036698Y-54342153D01*
X118020128Y-54347569D01*
X118013409Y-54349765D01*
X117974264Y-54356000D01*
X116240118Y-54356000D01*
X116209030Y-54351963D01*
X116205794Y-54350817D01*
X116200711Y-54349912D01*
X116200705Y-54349910D01*
X115976060Y-54309894D01*
X115976056Y-54309894D01*
X115970972Y-54308988D01*
X115887140Y-54307964D01*
X115737640Y-54306137D01*
X115737638Y-54306137D01*
X115732471Y-54306074D01*
X115496698Y-54342153D01*
X115480128Y-54347569D01*
X115473409Y-54349765D01*
X115434264Y-54356000D01*
X114405600Y-54356000D01*
X114357384Y-54346410D01*
X114300762Y-54322956D01*
X114292574Y-54321878D01*
X114187448Y-54308038D01*
X114187447Y-54308038D01*
X114183361Y-54307500D01*
X113294108Y-54307500D01*
X112404640Y-54307501D01*
X112400556Y-54308039D01*
X112400550Y-54308039D01*
X112295425Y-54321878D01*
X112295423Y-54321878D01*
X112287238Y-54322956D01*
X112230616Y-54346410D01*
X112182400Y-54356000D01*
X112014000Y-54356000D01*
X106680000Y-56769000D01*
X106680000Y-70104000D01*
X106688812Y-70118686D01*
X106688812Y-70118687D01*
X107805044Y-71979073D01*
X107823000Y-72043899D01*
X107823000Y-109601000D01*
X109855000Y-111633000D01*
X111319028Y-111633000D01*
X111387149Y-111653002D01*
X111416817Y-111679544D01*
X112738892Y-113306713D01*
X114625960Y-115629258D01*
X114681000Y-115697000D01*
X143810428Y-115697000D01*
X143878549Y-115717002D01*
X143924803Y-115770138D01*
X145230610Y-118595428D01*
X145288000Y-118719600D01*
X156870400Y-118719600D01*
X157353000Y-117983000D01*
X157353000Y-117183200D01*
X159950747Y-117183200D01*
X159951306Y-117187444D01*
X159951306Y-117187448D01*
X159958450Y-117241713D01*
X159988129Y-117467149D01*
X160063702Y-117743398D01*
X160065386Y-117747346D01*
X160151565Y-117949388D01*
X160176068Y-118006835D01*
X160323146Y-118252585D01*
X160325830Y-118255936D01*
X160325832Y-118255938D01*
X160398863Y-118347096D01*
X160502215Y-118476100D01*
X160709962Y-118673245D01*
X160942543Y-118840371D01*
X161195653Y-118974386D01*
X161464610Y-119072810D01*
X161744436Y-119133822D01*
X161783901Y-119136928D01*
X161966597Y-119151307D01*
X161966604Y-119151307D01*
X161969053Y-119151500D01*
X162123992Y-119151500D01*
X162126128Y-119151354D01*
X162126139Y-119151354D01*
X162333460Y-119137220D01*
X162333466Y-119137219D01*
X162337737Y-119136928D01*
X162341932Y-119136059D01*
X162341934Y-119136059D01*
X162477961Y-119107889D01*
X162618186Y-119078850D01*
X162888158Y-118983248D01*
X163082525Y-118882928D01*
X163138851Y-118853856D01*
X163138852Y-118853856D01*
X163142658Y-118851891D01*
X163146159Y-118849430D01*
X163146163Y-118849428D01*
X163373471Y-118689673D01*
X163373477Y-118689668D01*
X163376976Y-118687209D01*
X163473094Y-118597891D01*
X163583633Y-118495172D01*
X163583636Y-118495169D01*
X163586776Y-118492251D01*
X163595853Y-118481162D01*
X163705584Y-118347096D01*
X163768177Y-118270623D01*
X163917820Y-118026427D01*
X163924802Y-118010522D01*
X164031214Y-117768110D01*
X164031215Y-117768106D01*
X164032938Y-117764182D01*
X164111400Y-117488739D01*
X164146962Y-117238867D01*
X164151149Y-117209448D01*
X164151149Y-117209446D01*
X164151754Y-117205196D01*
X164153001Y-116966981D01*
X164153231Y-116923086D01*
X164153231Y-116923080D01*
X164153253Y-116918800D01*
X164152158Y-116910478D01*
X164136301Y-116790031D01*
X164115871Y-116634851D01*
X164100419Y-116578366D01*
X164079759Y-116502849D01*
X164040298Y-116358602D01*
X164015009Y-116299313D01*
X163929618Y-116099117D01*
X163929616Y-116099113D01*
X163927932Y-116095165D01*
X163780854Y-115849415D01*
X163758549Y-115821573D01*
X163604475Y-115629258D01*
X163601785Y-115625900D01*
X163394038Y-115428755D01*
X163161457Y-115261629D01*
X162908347Y-115127614D01*
X162639390Y-115029190D01*
X162359564Y-114968178D01*
X162307800Y-114964104D01*
X162137403Y-114950693D01*
X162137396Y-114950693D01*
X162134947Y-114950500D01*
X161980008Y-114950500D01*
X161977872Y-114950646D01*
X161977861Y-114950646D01*
X161770540Y-114964780D01*
X161770534Y-114964781D01*
X161766263Y-114965072D01*
X161762068Y-114965941D01*
X161762066Y-114965941D01*
X161726782Y-114973248D01*
X161485814Y-115023150D01*
X161215842Y-115118752D01*
X160961342Y-115250109D01*
X160957841Y-115252570D01*
X160957837Y-115252572D01*
X160730529Y-115412327D01*
X160730523Y-115412332D01*
X160727024Y-115414791D01*
X160648181Y-115488057D01*
X160528684Y-115599100D01*
X160517224Y-115609749D01*
X160514510Y-115613065D01*
X160514507Y-115613068D01*
X160402362Y-115750083D01*
X160335823Y-115831377D01*
X160276576Y-115928060D01*
X160201976Y-116049797D01*
X160186180Y-116075573D01*
X160184453Y-116079507D01*
X160184452Y-116079509D01*
X160085451Y-116305040D01*
X160071062Y-116337818D01*
X159992600Y-116613261D01*
X159976609Y-116725622D01*
X159953566Y-116887532D01*
X159952246Y-116896804D01*
X159951879Y-116966981D01*
X159950976Y-117139500D01*
X159950747Y-117183200D01*
X157353000Y-117183200D01*
X157353000Y-114572718D01*
X169962890Y-114572718D01*
X169967198Y-114659251D01*
X169977796Y-114872139D01*
X169978480Y-114885886D01*
X169979121Y-114889617D01*
X169979122Y-114889625D01*
X170028117Y-115174755D01*
X170031581Y-115194912D01*
X170032669Y-115198551D01*
X170032670Y-115198554D01*
X170108214Y-115451154D01*
X170121422Y-115495320D01*
X170246703Y-115782760D01*
X170248626Y-115786032D01*
X170248628Y-115786035D01*
X170291051Y-115858198D01*
X170405608Y-116053067D01*
X170407909Y-116056082D01*
X170593536Y-116299313D01*
X170593541Y-116299319D01*
X170595836Y-116302326D01*
X170598480Y-116305040D01*
X170796961Y-116508786D01*
X170814632Y-116526926D01*
X170927092Y-116617508D01*
X171055873Y-116721236D01*
X171055878Y-116721240D01*
X171058826Y-116723614D01*
X171324881Y-116889541D01*
X171608942Y-117022303D01*
X171612551Y-117023486D01*
X171847726Y-117100580D01*
X171906896Y-117119977D01*
X172214427Y-117181149D01*
X172218199Y-117181436D01*
X172218207Y-117181437D01*
X172523301Y-117204645D01*
X172523306Y-117204645D01*
X172527078Y-117204932D01*
X172840323Y-117190981D01*
X173149623Y-117139500D01*
X173153257Y-117138434D01*
X173153261Y-117138433D01*
X173446856Y-117052301D01*
X173446864Y-117052298D01*
X173450498Y-117051232D01*
X173661143Y-116960732D01*
X173735106Y-116928955D01*
X173735108Y-116928954D01*
X173738590Y-116927458D01*
X174009725Y-116769971D01*
X174248399Y-116589790D01*
X174256952Y-116583333D01*
X174256953Y-116583332D01*
X174259976Y-116581050D01*
X174467651Y-116380851D01*
X174482988Y-116366066D01*
X174482990Y-116366063D01*
X174485719Y-116363433D01*
X174488113Y-116360493D01*
X174488118Y-116360487D01*
X174681283Y-116123220D01*
X174683683Y-116120272D01*
X174834398Y-115881404D01*
X174848979Y-115858295D01*
X174848980Y-115858292D01*
X174851001Y-115855090D01*
X174852624Y-115851664D01*
X174852628Y-115851657D01*
X174961421Y-115622020D01*
X174985248Y-115571728D01*
X174986711Y-115567345D01*
X175051427Y-115373363D01*
X175084481Y-115274289D01*
X175147262Y-114967083D01*
X175172682Y-114654560D01*
X175173253Y-114600000D01*
X175171609Y-114572718D01*
X175154612Y-114290791D01*
X175154612Y-114290787D01*
X175154384Y-114287013D01*
X175137292Y-114193427D01*
X175098730Y-113982282D01*
X175098729Y-113982278D01*
X175098050Y-113978560D01*
X175094798Y-113968085D01*
X175053143Y-113833936D01*
X175005068Y-113679109D01*
X174995266Y-113657246D01*
X174907113Y-113460639D01*
X174876785Y-113392997D01*
X174715057Y-113124368D01*
X174712730Y-113121384D01*
X174712725Y-113121377D01*
X174524565Y-112880110D01*
X174524563Y-112880107D01*
X174522229Y-112877115D01*
X174301093Y-112654819D01*
X174282297Y-112640001D01*
X174137182Y-112525602D01*
X174054853Y-112460699D01*
X173787076Y-112297567D01*
X173783632Y-112296001D01*
X173783628Y-112295999D01*
X173658416Y-112239069D01*
X173501639Y-112167787D01*
X173202679Y-112073238D01*
X173033250Y-112041377D01*
X172898249Y-112015990D01*
X172898244Y-112015989D01*
X172894525Y-112015290D01*
X172581641Y-111994783D01*
X172577861Y-111994991D01*
X172577860Y-111994991D01*
X172486294Y-112000030D01*
X172268560Y-112012013D01*
X172264833Y-112012674D01*
X172264829Y-112012674D01*
X172016024Y-112056768D01*
X171959816Y-112066730D01*
X171956191Y-112067835D01*
X171956186Y-112067836D01*
X171786604Y-112119521D01*
X171659882Y-112158143D01*
X171656418Y-112159674D01*
X171656411Y-112159677D01*
X171480262Y-112237552D01*
X171373102Y-112284927D01*
X171369848Y-112286863D01*
X171369842Y-112286866D01*
X171110946Y-112440894D01*
X171103631Y-112445246D01*
X171100630Y-112447561D01*
X171100626Y-112447564D01*
X171010083Y-112517417D01*
X170855371Y-112636777D01*
X170631920Y-112856745D01*
X170436513Y-113101966D01*
X170271982Y-113368886D01*
X170140709Y-113653639D01*
X170139550Y-113657239D01*
X170139547Y-113657246D01*
X170052304Y-113928165D01*
X170044596Y-113952100D01*
X170043877Y-113955816D01*
X170043875Y-113955824D01*
X169997106Y-114197556D01*
X169985035Y-114259946D01*
X169984768Y-114263722D01*
X169984767Y-114263727D01*
X169963158Y-114568929D01*
X169962890Y-114572718D01*
X157353000Y-114572718D01*
X157353000Y-112157435D01*
X160701500Y-112157435D01*
X160701501Y-113304564D01*
X160704400Y-113347106D01*
X160705743Y-113352494D01*
X160705744Y-113352498D01*
X160726954Y-113437566D01*
X160749105Y-113526407D01*
X160752137Y-113532514D01*
X160752138Y-113532518D01*
X160776672Y-113581940D01*
X160831269Y-113691926D01*
X160947060Y-113835940D01*
X161091074Y-113951731D01*
X161137847Y-113974949D01*
X161250482Y-114030862D01*
X161250486Y-114030863D01*
X161256593Y-114033895D01*
X161263215Y-114035546D01*
X161430498Y-114077255D01*
X161430502Y-114077256D01*
X161435894Y-114078600D01*
X161452707Y-114079746D01*
X161476287Y-114081354D01*
X161476300Y-114081354D01*
X161478435Y-114081500D01*
X162051599Y-114081500D01*
X162625564Y-114081499D01*
X162648943Y-114079906D01*
X162662561Y-114078978D01*
X162662563Y-114078978D01*
X162668106Y-114078600D01*
X162673494Y-114077257D01*
X162673498Y-114077256D01*
X162840785Y-114035546D01*
X162847407Y-114033895D01*
X162853514Y-114030863D01*
X162853518Y-114030862D01*
X162966153Y-113974949D01*
X163012926Y-113951731D01*
X163156940Y-113835940D01*
X163272731Y-113691926D01*
X163327328Y-113581940D01*
X163351862Y-113532518D01*
X163351863Y-113532514D01*
X163354895Y-113526407D01*
X163377046Y-113437566D01*
X163398255Y-113352502D01*
X163398256Y-113352498D01*
X163399600Y-113347106D01*
X163401508Y-113319122D01*
X163402354Y-113306713D01*
X163402354Y-113306700D01*
X163402500Y-113304565D01*
X163402499Y-112157436D01*
X163399600Y-112114894D01*
X163387592Y-112066730D01*
X163356546Y-111942215D01*
X163354895Y-111935593D01*
X163351863Y-111929486D01*
X163351862Y-111929482D01*
X163300605Y-111826226D01*
X163272731Y-111770074D01*
X163156940Y-111626060D01*
X163012926Y-111510269D01*
X162911879Y-111460109D01*
X162853518Y-111431138D01*
X162853514Y-111431137D01*
X162847407Y-111428105D01*
X162803305Y-111417109D01*
X162673502Y-111384745D01*
X162673498Y-111384744D01*
X162668106Y-111383400D01*
X162651293Y-111382254D01*
X162627713Y-111380646D01*
X162627700Y-111380646D01*
X162625565Y-111380500D01*
X162052401Y-111380500D01*
X161478436Y-111380501D01*
X161455057Y-111382094D01*
X161441439Y-111383022D01*
X161441437Y-111383022D01*
X161435894Y-111383400D01*
X161430506Y-111384743D01*
X161430502Y-111384744D01*
X161300695Y-111417109D01*
X161256593Y-111428105D01*
X161250486Y-111431137D01*
X161250482Y-111431138D01*
X161192121Y-111460109D01*
X161091074Y-111510269D01*
X160947060Y-111626060D01*
X160831269Y-111770074D01*
X160803395Y-111826226D01*
X160752138Y-111929482D01*
X160752137Y-111929486D01*
X160749105Y-111935593D01*
X160747454Y-111942215D01*
X160716409Y-112066730D01*
X160704400Y-112114894D01*
X160704022Y-112120439D01*
X160704022Y-112120442D01*
X160701647Y-112155282D01*
X160701500Y-112157435D01*
X157353000Y-112157435D01*
X157353000Y-112014000D01*
X156745268Y-112014000D01*
X156677147Y-111993998D01*
X156666316Y-111986196D01*
X156618245Y-111947546D01*
X156612926Y-111943269D01*
X156518207Y-111896250D01*
X156453519Y-111864138D01*
X156453515Y-111864136D01*
X156447408Y-111861105D01*
X156375327Y-111843133D01*
X156273503Y-111817745D01*
X156273499Y-111817744D01*
X156268107Y-111816400D01*
X156251294Y-111815254D01*
X156227714Y-111813646D01*
X156227701Y-111813646D01*
X156225566Y-111813500D01*
X155178434Y-111813500D01*
X155176299Y-111813646D01*
X155176286Y-111813646D01*
X155152706Y-111815254D01*
X155135893Y-111816400D01*
X155130495Y-111817746D01*
X155130494Y-111817746D01*
X155096481Y-111826226D01*
X155025545Y-111823298D01*
X154967453Y-111782483D01*
X154940649Y-111716741D01*
X154940000Y-111703969D01*
X154940000Y-108860450D01*
X154960002Y-108792329D01*
X154976905Y-108771355D01*
X155001063Y-108747197D01*
X155125061Y-108570109D01*
X155166513Y-108481217D01*
X155214102Y-108379162D01*
X155214103Y-108379160D01*
X155216425Y-108374180D01*
X155218517Y-108366375D01*
X155270953Y-108170677D01*
X155270953Y-108170676D01*
X155272377Y-108165362D01*
X155291219Y-107950000D01*
X155272377Y-107734638D01*
X155270560Y-107727858D01*
X155217848Y-107531130D01*
X155217847Y-107531128D01*
X155216425Y-107525820D01*
X155209387Y-107510727D01*
X155127384Y-107334872D01*
X155127382Y-107334869D01*
X155125061Y-107329891D01*
X155001063Y-107152803D01*
X154976905Y-107128645D01*
X154942879Y-107066333D01*
X154940000Y-107039550D01*
X154940000Y-100202000D01*
X154960002Y-100133879D01*
X155013658Y-100087386D01*
X155066000Y-100076000D01*
X162052000Y-100076000D01*
X162814000Y-99314000D01*
X162814000Y-97822800D01*
X162825712Y-97769750D01*
X162920578Y-97565379D01*
X162920579Y-97565375D01*
X162922757Y-97560684D01*
X162987096Y-97328685D01*
X162990873Y-97293345D01*
X163007744Y-97135477D01*
X163007744Y-97135470D01*
X163008100Y-97132142D01*
X163008100Y-96687565D01*
X163007051Y-96674795D01*
X162993815Y-96513816D01*
X162993391Y-96508655D01*
X162934739Y-96275154D01*
X162838739Y-96054367D01*
X162834207Y-96047361D01*
X162833845Y-96046136D01*
X162833488Y-96045470D01*
X162833626Y-96045396D01*
X162814000Y-95978923D01*
X162814000Y-95630000D01*
X162834002Y-95561879D01*
X162887658Y-95515386D01*
X162940000Y-95504000D01*
X165228000Y-95504000D01*
X165296121Y-95524002D01*
X165342614Y-95577658D01*
X165354000Y-95630000D01*
X165354000Y-99314000D01*
X166370000Y-100076000D01*
X180541810Y-100076000D01*
X180609931Y-100096002D01*
X180630905Y-100112905D01*
X184875095Y-104357095D01*
X184909121Y-104419407D01*
X184912000Y-104446190D01*
X184912000Y-118491000D01*
X186050613Y-118491000D01*
X186075732Y-118493529D01*
X186281607Y-118535414D01*
X186411352Y-118540172D01*
X186506585Y-118543664D01*
X186506589Y-118543664D01*
X186511749Y-118543853D01*
X186516869Y-118543197D01*
X186516871Y-118543197D01*
X186586272Y-118534307D01*
X186740178Y-118514591D01*
X186801100Y-118496314D01*
X186837305Y-118491000D01*
X188820613Y-118491000D01*
X188845732Y-118493529D01*
X189051607Y-118535414D01*
X189181352Y-118540172D01*
X189276585Y-118543664D01*
X189276589Y-118543664D01*
X189281749Y-118543853D01*
X189286869Y-118543197D01*
X189286871Y-118543197D01*
X189356272Y-118534307D01*
X189510178Y-118514591D01*
X189571100Y-118496314D01*
X189607305Y-118491000D01*
X191590613Y-118491000D01*
X191615732Y-118493529D01*
X191821607Y-118535414D01*
X191951352Y-118540172D01*
X192046585Y-118543664D01*
X192046589Y-118543664D01*
X192051749Y-118543853D01*
X192056869Y-118543197D01*
X192056871Y-118543197D01*
X192126272Y-118534307D01*
X192280178Y-118514591D01*
X192341100Y-118496314D01*
X192377305Y-118491000D01*
X194360613Y-118491000D01*
X194385732Y-118493529D01*
X194591607Y-118535414D01*
X194721352Y-118540172D01*
X194816585Y-118543664D01*
X194816589Y-118543664D01*
X194821749Y-118543853D01*
X194826869Y-118543197D01*
X194826871Y-118543197D01*
X194896272Y-118534307D01*
X195050178Y-118514591D01*
X195111100Y-118496314D01*
X195147305Y-118491000D01*
X197130613Y-118491000D01*
X197155732Y-118493529D01*
X197361607Y-118535414D01*
X197491352Y-118540172D01*
X197586585Y-118543664D01*
X197586589Y-118543664D01*
X197591749Y-118543853D01*
X197596869Y-118543197D01*
X197596871Y-118543197D01*
X197666272Y-118534307D01*
X197820178Y-118514591D01*
X197881100Y-118496314D01*
X197917305Y-118491000D01*
X199136000Y-118491000D01*
X200729878Y-114572718D01*
X203262890Y-114572718D01*
X203267198Y-114659251D01*
X203277796Y-114872139D01*
X203278480Y-114885886D01*
X203279121Y-114889617D01*
X203279122Y-114889625D01*
X203328117Y-115174755D01*
X203331581Y-115194912D01*
X203332669Y-115198551D01*
X203332670Y-115198554D01*
X203408214Y-115451154D01*
X203421422Y-115495320D01*
X203546703Y-115782760D01*
X203548626Y-115786032D01*
X203548628Y-115786035D01*
X203591051Y-115858198D01*
X203705608Y-116053067D01*
X203707909Y-116056082D01*
X203893536Y-116299313D01*
X203893541Y-116299319D01*
X203895836Y-116302326D01*
X203898480Y-116305040D01*
X204096961Y-116508786D01*
X204114632Y-116526926D01*
X204227092Y-116617508D01*
X204355873Y-116721236D01*
X204355878Y-116721240D01*
X204358826Y-116723614D01*
X204624881Y-116889541D01*
X204908942Y-117022303D01*
X204912551Y-117023486D01*
X205147726Y-117100580D01*
X205206896Y-117119977D01*
X205514427Y-117181149D01*
X205518199Y-117181436D01*
X205518207Y-117181437D01*
X205823301Y-117204645D01*
X205823306Y-117204645D01*
X205827078Y-117204932D01*
X206140323Y-117190981D01*
X206449623Y-117139500D01*
X206453257Y-117138434D01*
X206453261Y-117138433D01*
X206746856Y-117052301D01*
X206746864Y-117052298D01*
X206750498Y-117051232D01*
X206961143Y-116960732D01*
X207034536Y-116929200D01*
X217227747Y-116929200D01*
X217228306Y-116933444D01*
X217228306Y-116933448D01*
X217231898Y-116960732D01*
X217265129Y-117213149D01*
X217266262Y-117217289D01*
X217266262Y-117217291D01*
X217280849Y-117270613D01*
X217340702Y-117489398D01*
X217342386Y-117493346D01*
X217450727Y-117747346D01*
X217453068Y-117752835D01*
X217600146Y-117998585D01*
X217602830Y-118001936D01*
X217602832Y-118001938D01*
X217625385Y-118030089D01*
X217779215Y-118222100D01*
X217986962Y-118419245D01*
X218219543Y-118586371D01*
X218472653Y-118720386D01*
X218741610Y-118818810D01*
X219021436Y-118879822D01*
X219060901Y-118882928D01*
X219243597Y-118897307D01*
X219243604Y-118897307D01*
X219246053Y-118897500D01*
X219400992Y-118897500D01*
X219403128Y-118897354D01*
X219403139Y-118897354D01*
X219610460Y-118883220D01*
X219610466Y-118883219D01*
X219614737Y-118882928D01*
X219618932Y-118882059D01*
X219618934Y-118882059D01*
X219755121Y-118853856D01*
X219895186Y-118824850D01*
X220165158Y-118729248D01*
X220419658Y-118597891D01*
X220423159Y-118595430D01*
X220423163Y-118595428D01*
X220650471Y-118435673D01*
X220650477Y-118435668D01*
X220653976Y-118433209D01*
X220848351Y-118252585D01*
X220860633Y-118241172D01*
X220860636Y-118241169D01*
X220863776Y-118238251D01*
X220874575Y-118225058D01*
X221042461Y-118019941D01*
X221045177Y-118016623D01*
X221194820Y-117772427D01*
X221196715Y-117768110D01*
X221308214Y-117514110D01*
X221308215Y-117514106D01*
X221309938Y-117510182D01*
X221388400Y-117234739D01*
X221418863Y-117020693D01*
X221428149Y-116955448D01*
X221428149Y-116955446D01*
X221428754Y-116951196D01*
X221429703Y-116769971D01*
X221430231Y-116669086D01*
X221430231Y-116669080D01*
X221430253Y-116664800D01*
X221426798Y-116638552D01*
X221397616Y-116416893D01*
X221392871Y-116380851D01*
X221317298Y-116104602D01*
X221293922Y-116049797D01*
X221206618Y-115845117D01*
X221206616Y-115845113D01*
X221204932Y-115841165D01*
X221057854Y-115595415D01*
X221042314Y-115576017D01*
X220899732Y-115398046D01*
X220878785Y-115371900D01*
X220671038Y-115174755D01*
X220438457Y-115007629D01*
X220185347Y-114873614D01*
X219916390Y-114775190D01*
X219636564Y-114714178D01*
X219593389Y-114710780D01*
X219414403Y-114696693D01*
X219414396Y-114696693D01*
X219411947Y-114696500D01*
X219257008Y-114696500D01*
X219254872Y-114696646D01*
X219254861Y-114696646D01*
X219047540Y-114710780D01*
X219047534Y-114710781D01*
X219043263Y-114711072D01*
X219039068Y-114711941D01*
X219039066Y-114711941D01*
X218903039Y-114740111D01*
X218762814Y-114769150D01*
X218492842Y-114864752D01*
X218489033Y-114866718D01*
X218290689Y-114969091D01*
X218238342Y-114996109D01*
X218234841Y-114998570D01*
X218234837Y-114998572D01*
X218007529Y-115158327D01*
X218007523Y-115158332D01*
X218004024Y-115160791D01*
X217963386Y-115198554D01*
X217803717Y-115346928D01*
X217794224Y-115355749D01*
X217791510Y-115359065D01*
X217791507Y-115359068D01*
X217716136Y-115451154D01*
X217612823Y-115577377D01*
X217463180Y-115821573D01*
X217461453Y-115825507D01*
X217461452Y-115825509D01*
X217349954Y-116079509D01*
X217348062Y-116083818D01*
X217269600Y-116359261D01*
X217248420Y-116508083D01*
X217233451Y-116613261D01*
X217229246Y-116642804D01*
X217228451Y-116794667D01*
X217227824Y-116914552D01*
X217227747Y-116929200D01*
X207034536Y-116929200D01*
X207035106Y-116928955D01*
X207035108Y-116928954D01*
X207038590Y-116927458D01*
X207309725Y-116769971D01*
X207548399Y-116589790D01*
X207556952Y-116583333D01*
X207556953Y-116583332D01*
X207559976Y-116581050D01*
X207767651Y-116380851D01*
X207782988Y-116366066D01*
X207782990Y-116366063D01*
X207785719Y-116363433D01*
X207788113Y-116360493D01*
X207788118Y-116360487D01*
X207981283Y-116123220D01*
X207983683Y-116120272D01*
X208134398Y-115881404D01*
X208148979Y-115858295D01*
X208148980Y-115858292D01*
X208151001Y-115855090D01*
X208152624Y-115851664D01*
X208152628Y-115851657D01*
X208261421Y-115622020D01*
X208285248Y-115571728D01*
X208286711Y-115567345D01*
X208351427Y-115373363D01*
X208384481Y-115274289D01*
X208447262Y-114967083D01*
X208472682Y-114654560D01*
X208473253Y-114600000D01*
X208471609Y-114572718D01*
X208454612Y-114290791D01*
X208454612Y-114290787D01*
X208454384Y-114287013D01*
X208437292Y-114193427D01*
X208398730Y-113982282D01*
X208398729Y-113982278D01*
X208398050Y-113978560D01*
X208394798Y-113968085D01*
X208353143Y-113833936D01*
X208305068Y-113679109D01*
X208295266Y-113657246D01*
X208207113Y-113460639D01*
X208176785Y-113392997D01*
X208015057Y-113124368D01*
X208012730Y-113121384D01*
X208012725Y-113121377D01*
X207824565Y-112880110D01*
X207824563Y-112880107D01*
X207822229Y-112877115D01*
X207601093Y-112654819D01*
X207582297Y-112640001D01*
X207437182Y-112525602D01*
X207354853Y-112460699D01*
X207087076Y-112297567D01*
X207083632Y-112296001D01*
X207083628Y-112295999D01*
X206958416Y-112239069D01*
X206801639Y-112167787D01*
X206502679Y-112073238D01*
X206333250Y-112041377D01*
X206198249Y-112015990D01*
X206198244Y-112015989D01*
X206194525Y-112015290D01*
X205881641Y-111994783D01*
X205877861Y-111994991D01*
X205877860Y-111994991D01*
X205786294Y-112000030D01*
X205568560Y-112012013D01*
X205564833Y-112012674D01*
X205564829Y-112012674D01*
X205316024Y-112056768D01*
X205259816Y-112066730D01*
X205256191Y-112067835D01*
X205256186Y-112067836D01*
X205086604Y-112119521D01*
X204959882Y-112158143D01*
X204956418Y-112159674D01*
X204956411Y-112159677D01*
X204780262Y-112237552D01*
X204673102Y-112284927D01*
X204669848Y-112286863D01*
X204669842Y-112286866D01*
X204410946Y-112440894D01*
X204403631Y-112445246D01*
X204400630Y-112447561D01*
X204400626Y-112447564D01*
X204310083Y-112517417D01*
X204155371Y-112636777D01*
X203931920Y-112856745D01*
X203736513Y-113101966D01*
X203571982Y-113368886D01*
X203440709Y-113653639D01*
X203439550Y-113657239D01*
X203439547Y-113657246D01*
X203352304Y-113928165D01*
X203344596Y-113952100D01*
X203343877Y-113955816D01*
X203343875Y-113955824D01*
X203297106Y-114197556D01*
X203285035Y-114259946D01*
X203284768Y-114263722D01*
X203284767Y-114263727D01*
X203263158Y-114568929D01*
X203262890Y-114572718D01*
X200729878Y-114572718D01*
X202152059Y-111076522D01*
X202196253Y-111020960D01*
X202268771Y-110998000D01*
X213545842Y-110998000D01*
X213613963Y-111018002D01*
X213651300Y-111055047D01*
X215773000Y-114300000D01*
X223139000Y-114300000D01*
X223149300Y-114284837D01*
X226910627Y-108747327D01*
X226965449Y-108702215D01*
X227035957Y-108693903D01*
X227103951Y-108729029D01*
X227701681Y-109326759D01*
X227702610Y-109327697D01*
X227765059Y-109391468D01*
X227770979Y-109395283D01*
X227770985Y-109395288D01*
X227801091Y-109414690D01*
X227811445Y-109422130D01*
X227844934Y-109448864D01*
X227851272Y-109451928D01*
X227851277Y-109451931D01*
X227874753Y-109463279D01*
X227888173Y-109470810D01*
X227910091Y-109484936D01*
X227910099Y-109484940D01*
X227916017Y-109488754D01*
X227922637Y-109491164D01*
X227922638Y-109491164D01*
X227956288Y-109503412D01*
X227968032Y-109508373D01*
X228000281Y-109523963D01*
X228000287Y-109523965D01*
X228006623Y-109527028D01*
X228013478Y-109528611D01*
X228013482Y-109528612D01*
X228038910Y-109534482D01*
X228053660Y-109538852D01*
X228078155Y-109547768D01*
X228078160Y-109547769D01*
X228084778Y-109550178D01*
X228127312Y-109555551D01*
X228139828Y-109557781D01*
X228181611Y-109567427D01*
X228188649Y-109567451D01*
X228188654Y-109567452D01*
X228221793Y-109567567D01*
X228222660Y-109567596D01*
X228223483Y-109567700D01*
X228259779Y-109567700D01*
X228260218Y-109567701D01*
X228357709Y-109568041D01*
X228357712Y-109568041D01*
X228361201Y-109568053D01*
X228362389Y-109567787D01*
X228364002Y-109567700D01*
X228436213Y-109567700D01*
X228504334Y-109587702D01*
X228539426Y-109621430D01*
X228617107Y-109732371D01*
X228689840Y-109805104D01*
X228723866Y-109867416D01*
X228718801Y-109938231D01*
X228689840Y-109983294D01*
X228617107Y-110056027D01*
X228486736Y-110242217D01*
X228390677Y-110448217D01*
X228331848Y-110667767D01*
X228312038Y-110894198D01*
X228331848Y-111120629D01*
X228333271Y-111125939D01*
X228333271Y-111125940D01*
X228361262Y-111230404D01*
X228390677Y-111340179D01*
X228446445Y-111459774D01*
X228468577Y-111507236D01*
X228486736Y-111546179D01*
X228617107Y-111732369D01*
X228777829Y-111893091D01*
X228964019Y-112023462D01*
X228968997Y-112025783D01*
X228969000Y-112025785D01*
X229002438Y-112041377D01*
X229170019Y-112119521D01*
X229389569Y-112178350D01*
X229616000Y-112198160D01*
X229842431Y-112178350D01*
X230061981Y-112119521D01*
X230229562Y-112041377D01*
X230263000Y-112025785D01*
X230263003Y-112025783D01*
X230267981Y-112023462D01*
X230454171Y-111893091D01*
X230614893Y-111732369D01*
X230745264Y-111546179D01*
X230763424Y-111507236D01*
X230785555Y-111459774D01*
X230841323Y-111340179D01*
X230870738Y-111230404D01*
X230898729Y-111125940D01*
X230898729Y-111125939D01*
X230900152Y-111120629D01*
X230919962Y-110894198D01*
X230900152Y-110667767D01*
X230841323Y-110448217D01*
X230745264Y-110242217D01*
X230614893Y-110056027D01*
X230542160Y-109983294D01*
X230508134Y-109920982D01*
X230513199Y-109850167D01*
X230542160Y-109805104D01*
X230614893Y-109732371D01*
X230745264Y-109546181D01*
X230750720Y-109534482D01*
X230815626Y-109395288D01*
X230841323Y-109340181D01*
X230881506Y-109190219D01*
X230898729Y-109125942D01*
X230898729Y-109125941D01*
X230900152Y-109120631D01*
X230919962Y-108894200D01*
X230900152Y-108667769D01*
X230841323Y-108448219D01*
X230745264Y-108242219D01*
X230614893Y-108056029D01*
X230542159Y-107983295D01*
X230508133Y-107920983D01*
X230513198Y-107850168D01*
X230542158Y-107805105D01*
X230614893Y-107732370D01*
X230745264Y-107546180D01*
X230841323Y-107340180D01*
X230900152Y-107120630D01*
X230919962Y-106894199D01*
X230900152Y-106667768D01*
X230841323Y-106448218D01*
X230745264Y-106242218D01*
X230614893Y-106056028D01*
X230454171Y-105895306D01*
X230267981Y-105764935D01*
X230263003Y-105762614D01*
X230263000Y-105762612D01*
X230181576Y-105724644D01*
X230061981Y-105668876D01*
X229842431Y-105610047D01*
X229616000Y-105590237D01*
X229389569Y-105610047D01*
X229170019Y-105668876D01*
X229050424Y-105724644D01*
X228969000Y-105762612D01*
X228968997Y-105762614D01*
X228964019Y-105764935D01*
X228777829Y-105895306D01*
X228743341Y-105929794D01*
X228681029Y-105963820D01*
X228654246Y-105966699D01*
X228562967Y-105966699D01*
X228494846Y-105946697D01*
X228473872Y-105929794D01*
X227737189Y-105193111D01*
X227703163Y-105130799D01*
X227700285Y-105104564D01*
X227673401Y-98921157D01*
X227693106Y-98852952D01*
X227746559Y-98806226D01*
X227816788Y-98795817D01*
X227878691Y-98822689D01*
X227911985Y-98849650D01*
X227914523Y-98850899D01*
X227916734Y-98852664D01*
X227922553Y-98855477D01*
X227994703Y-98890356D01*
X227995366Y-98890679D01*
X228073125Y-98928941D01*
X228075877Y-98929597D01*
X228078422Y-98930827D01*
X228084702Y-98932277D01*
X228084705Y-98932278D01*
X228162769Y-98950301D01*
X228163623Y-98950501D01*
X228202790Y-98959831D01*
X228247826Y-98970560D01*
X228250650Y-98970590D01*
X228253411Y-98971227D01*
X228259862Y-98971250D01*
X228259866Y-98971250D01*
X228303162Y-98971401D01*
X228340140Y-98971530D01*
X228340791Y-98971534D01*
X228427407Y-98972441D01*
X228430172Y-98971843D01*
X228433000Y-98971853D01*
X228467554Y-98964129D01*
X228538395Y-98968788D01*
X228584134Y-98997999D01*
X228652040Y-99065905D01*
X228686066Y-99128217D01*
X228681001Y-99199032D01*
X228652040Y-99244095D01*
X228579307Y-99316828D01*
X228448936Y-99503018D01*
X228352877Y-99709018D01*
X228351454Y-99714329D01*
X228301460Y-99900908D01*
X228294048Y-99928568D01*
X228274238Y-100154999D01*
X228294048Y-100381430D01*
X228352877Y-100600980D01*
X228355202Y-100605965D01*
X228431103Y-100768736D01*
X228448936Y-100806980D01*
X228579307Y-100993170D01*
X228740029Y-101153892D01*
X228926219Y-101284263D01*
X228931197Y-101286584D01*
X228931200Y-101286586D01*
X229006874Y-101321873D01*
X229132219Y-101380322D01*
X229351769Y-101439151D01*
X229578200Y-101458961D01*
X229804631Y-101439151D01*
X230024181Y-101380322D01*
X230149526Y-101321873D01*
X230225200Y-101286586D01*
X230225203Y-101286584D01*
X230230181Y-101284263D01*
X230416371Y-101153892D01*
X230577093Y-100993170D01*
X230707464Y-100806980D01*
X230725298Y-100768736D01*
X230801198Y-100605965D01*
X230803523Y-100600980D01*
X230862352Y-100381430D01*
X230882162Y-100154999D01*
X230862352Y-99928568D01*
X230854941Y-99900908D01*
X230804946Y-99714329D01*
X230803523Y-99709018D01*
X230707464Y-99503018D01*
X230577093Y-99316828D01*
X230504360Y-99244095D01*
X230470334Y-99181783D01*
X230475399Y-99110968D01*
X230504360Y-99065905D01*
X230577093Y-98993172D01*
X230707464Y-98806982D01*
X230712671Y-98795817D01*
X230801198Y-98605967D01*
X230803523Y-98600982D01*
X230837608Y-98473778D01*
X230860929Y-98386743D01*
X230860929Y-98386742D01*
X230862352Y-98381432D01*
X230882162Y-98155001D01*
X230862352Y-97928570D01*
X230803523Y-97709020D01*
X230707464Y-97503020D01*
X230577093Y-97316830D01*
X230504359Y-97244096D01*
X230470333Y-97181784D01*
X230475398Y-97110969D01*
X230504358Y-97065906D01*
X230577093Y-96993171D01*
X230707464Y-96806981D01*
X230709984Y-96801578D01*
X230801198Y-96605966D01*
X230803523Y-96600981D01*
X230862352Y-96381431D01*
X230882162Y-96155000D01*
X230862352Y-95928569D01*
X230803523Y-95709019D01*
X230717686Y-95524940D01*
X230709787Y-95508000D01*
X230709785Y-95507997D01*
X230707464Y-95503019D01*
X230577093Y-95316829D01*
X230416371Y-95156107D01*
X230230181Y-95025736D01*
X230225203Y-95023415D01*
X230225200Y-95023413D01*
X230143776Y-94985445D01*
X230024181Y-94929677D01*
X229804631Y-94870848D01*
X229578200Y-94851038D01*
X229351769Y-94870848D01*
X229132219Y-94929677D01*
X229012624Y-94985445D01*
X228931200Y-95023413D01*
X228931197Y-95023415D01*
X228926219Y-95025736D01*
X228740029Y-95156107D01*
X228643202Y-95252934D01*
X228580890Y-95286960D01*
X228510075Y-95281895D01*
X228465012Y-95252934D01*
X227690603Y-94478525D01*
X227656577Y-94416213D01*
X227653700Y-94389987D01*
X227630195Y-88983861D01*
X227629966Y-88931159D01*
X227649672Y-88862952D01*
X227703125Y-88816226D01*
X227755965Y-88804611D01*
X228265335Y-88804611D01*
X228333456Y-88824613D01*
X228379949Y-88878269D01*
X228390053Y-88948543D01*
X228379530Y-88983861D01*
X228355201Y-89036033D01*
X228355199Y-89036038D01*
X228352877Y-89041018D01*
X228294048Y-89260568D01*
X228274238Y-89486999D01*
X228294048Y-89713430D01*
X228352877Y-89932980D01*
X228448936Y-90138980D01*
X228579307Y-90325170D01*
X228740029Y-90485892D01*
X228926219Y-90616263D01*
X228931197Y-90618584D01*
X228931200Y-90618586D01*
X229012624Y-90656554D01*
X229132219Y-90712322D01*
X229351769Y-90771151D01*
X229578200Y-90790961D01*
X229804631Y-90771151D01*
X230024181Y-90712322D01*
X230143776Y-90656554D01*
X230225200Y-90618586D01*
X230225203Y-90618584D01*
X230230181Y-90616263D01*
X230416371Y-90485892D01*
X230577093Y-90325170D01*
X230707464Y-90138980D01*
X230803523Y-89932980D01*
X230862352Y-89713430D01*
X230882162Y-89486999D01*
X230862352Y-89260568D01*
X230803523Y-89041018D01*
X230720490Y-88862952D01*
X230709787Y-88839999D01*
X230709785Y-88839996D01*
X230707464Y-88835018D01*
X230577093Y-88648828D01*
X230504360Y-88576095D01*
X230470334Y-88513783D01*
X230475399Y-88442968D01*
X230504360Y-88397905D01*
X230577093Y-88325172D01*
X230707464Y-88138982D01*
X230803523Y-87932982D01*
X230862352Y-87713432D01*
X230882162Y-87487001D01*
X230862352Y-87260570D01*
X230803523Y-87041020D01*
X230707464Y-86835020D01*
X230577093Y-86648830D01*
X230504359Y-86576096D01*
X230470333Y-86513784D01*
X230475398Y-86442969D01*
X230504358Y-86397906D01*
X230577093Y-86325171D01*
X230707464Y-86138981D01*
X230803523Y-85932981D01*
X230862352Y-85713431D01*
X230882162Y-85487000D01*
X230862352Y-85260569D01*
X230803523Y-85041019D01*
X230723356Y-84869099D01*
X230709787Y-84840000D01*
X230709785Y-84839997D01*
X230707464Y-84835019D01*
X230577093Y-84648829D01*
X230416371Y-84488107D01*
X230230181Y-84357736D01*
X230225203Y-84355415D01*
X230225200Y-84355413D01*
X230143776Y-84317445D01*
X230024181Y-84261677D01*
X229804631Y-84202848D01*
X229578200Y-84183038D01*
X229351769Y-84202848D01*
X229132219Y-84261677D01*
X229012624Y-84317445D01*
X228931200Y-84355413D01*
X228931197Y-84355415D01*
X228926219Y-84357736D01*
X228740029Y-84488107D01*
X228579307Y-84648829D01*
X228448936Y-84835019D01*
X228446615Y-84839997D01*
X228446613Y-84840000D01*
X228433044Y-84869099D01*
X228352877Y-85041019D01*
X228294048Y-85260569D01*
X228274238Y-85487000D01*
X228274717Y-85492475D01*
X228274717Y-85492476D01*
X228282945Y-85586527D01*
X228268955Y-85656132D01*
X228246519Y-85686603D01*
X228029527Y-85903595D01*
X227967215Y-85937621D01*
X227940432Y-85940500D01*
X227742417Y-85940500D01*
X227674296Y-85920498D01*
X227627803Y-85866842D01*
X227616418Y-85815048D01*
X227584079Y-78377117D01*
X227584079Y-78377116D01*
X227584000Y-78359000D01*
X226728307Y-78359000D01*
X226680091Y-78349410D01*
X226622262Y-78325456D01*
X226525423Y-78312707D01*
X226508948Y-78310538D01*
X226508947Y-78310538D01*
X226504861Y-78310000D01*
X225780588Y-78310000D01*
X225056140Y-78310001D01*
X225052056Y-78310539D01*
X225052050Y-78310539D01*
X224946925Y-78324378D01*
X224946923Y-78324378D01*
X224938738Y-78325456D01*
X224880909Y-78349410D01*
X224832693Y-78359000D01*
X223609198Y-78359000D01*
X223576587Y-78354707D01*
X223469892Y-78326118D01*
X223469890Y-78326118D01*
X223464577Y-78324694D01*
X223240500Y-78305090D01*
X223016423Y-78324694D01*
X223011110Y-78326118D01*
X223011108Y-78326118D01*
X222904413Y-78354707D01*
X222871802Y-78359000D01*
X221069198Y-78359000D01*
X221036587Y-78354707D01*
X220929892Y-78326118D01*
X220929890Y-78326118D01*
X220924577Y-78324694D01*
X220700500Y-78305090D01*
X220695025Y-78305569D01*
X220695024Y-78305569D01*
X220613435Y-78312707D01*
X220543831Y-78298718D01*
X220513359Y-78276281D01*
X219873905Y-77636827D01*
X219839879Y-77574515D01*
X219837000Y-77547732D01*
X219837000Y-76526511D01*
X219857002Y-76458390D01*
X219910658Y-76411897D01*
X219963000Y-76400511D01*
X223680637Y-76400511D01*
X223681958Y-76400518D01*
X223771127Y-76401452D01*
X223813016Y-76392395D01*
X223825590Y-76390336D01*
X223840197Y-76388697D01*
X223861196Y-76386342D01*
X223861198Y-76386341D01*
X223868192Y-76385557D01*
X223899479Y-76374661D01*
X223914284Y-76370500D01*
X223939781Y-76364988D01*
X223939784Y-76364987D01*
X223946662Y-76363500D01*
X223985519Y-76345381D01*
X223997302Y-76340597D01*
X224037793Y-76326496D01*
X224065887Y-76308941D01*
X224079402Y-76301603D01*
X224109427Y-76287602D01*
X224143287Y-76261337D01*
X224153744Y-76254042D01*
X224184120Y-76235061D01*
X224184123Y-76235059D01*
X224190095Y-76231327D01*
X224195093Y-76226364D01*
X224218613Y-76203008D01*
X224219235Y-76202426D01*
X224219897Y-76201912D01*
X224245757Y-76176052D01*
X224317527Y-76104781D01*
X224318179Y-76103754D01*
X224319263Y-76102546D01*
X224692904Y-75728905D01*
X224755216Y-75694879D01*
X224781999Y-75692000D01*
X225233827Y-75692000D01*
X225287077Y-75703805D01*
X225339154Y-75728089D01*
X225344462Y-75729511D01*
X225344464Y-75729512D01*
X225551108Y-75784882D01*
X225551110Y-75784882D01*
X225556423Y-75786306D01*
X225780500Y-75805910D01*
X226004577Y-75786306D01*
X226009890Y-75784882D01*
X226009892Y-75784882D01*
X226216536Y-75729512D01*
X226216538Y-75729511D01*
X226221846Y-75728089D01*
X226273923Y-75703805D01*
X226327173Y-75692000D01*
X227584000Y-75692000D01*
X227584000Y-64770000D01*
X226777807Y-64770000D01*
X226729591Y-64760410D01*
X226671762Y-64736456D01*
X226662336Y-64735215D01*
X226558448Y-64721538D01*
X226558447Y-64721538D01*
X226554361Y-64721000D01*
X225830088Y-64721000D01*
X225105640Y-64721001D01*
X225101556Y-64721539D01*
X225101550Y-64721539D01*
X224996425Y-64735378D01*
X224996423Y-64735378D01*
X224988238Y-64736456D01*
X224930409Y-64760410D01*
X224882193Y-64770000D01*
X223658698Y-64770000D01*
X223626087Y-64765707D01*
X223519392Y-64737118D01*
X223519390Y-64737118D01*
X223514077Y-64735694D01*
X223290000Y-64716090D01*
X223065923Y-64735694D01*
X223060610Y-64737118D01*
X223060608Y-64737118D01*
X222953913Y-64765707D01*
X222921302Y-64770000D01*
X221118698Y-64770000D01*
X221086087Y-64765707D01*
X220979392Y-64737118D01*
X220979390Y-64737118D01*
X220974077Y-64735694D01*
X220750000Y-64716090D01*
X220744525Y-64716569D01*
X220744524Y-64716569D01*
X220662935Y-64723707D01*
X220593331Y-64709718D01*
X220562859Y-64687281D01*
X220460130Y-64584552D01*
X220459201Y-64583614D01*
X220417862Y-64541400D01*
X220396752Y-64519843D01*
X220390832Y-64516028D01*
X220390826Y-64516023D01*
X220360720Y-64496621D01*
X220350366Y-64489181D01*
X220322385Y-64466844D01*
X220316877Y-64462447D01*
X220287052Y-64448029D01*
X220273636Y-64440500D01*
X220251720Y-64426376D01*
X220245794Y-64422557D01*
X220205520Y-64407898D01*
X220193780Y-64402939D01*
X220161527Y-64387348D01*
X220161528Y-64387348D01*
X220155189Y-64384284D01*
X220148334Y-64382701D01*
X220148330Y-64382700D01*
X220129368Y-64378323D01*
X220122913Y-64376832D01*
X220108165Y-64372463D01*
X220083656Y-64363543D01*
X220083652Y-64363542D01*
X220077033Y-64361133D01*
X220034493Y-64355759D01*
X220021974Y-64353529D01*
X219980200Y-64343885D01*
X219973159Y-64343860D01*
X219973156Y-64343860D01*
X219962557Y-64343823D01*
X219894507Y-64323582D01*
X219848203Y-64269763D01*
X219837000Y-64217824D01*
X219837000Y-62102000D01*
X219857002Y-62033879D01*
X219910658Y-61987386D01*
X219963000Y-61976000D01*
X219967913Y-61976000D01*
X220040184Y-61998787D01*
X220090301Y-62033879D01*
X220104795Y-62044028D01*
X220109777Y-62046351D01*
X220109782Y-62046354D01*
X220229116Y-62102000D01*
X220308654Y-62139089D01*
X220313962Y-62140511D01*
X220313964Y-62140512D01*
X220520608Y-62195882D01*
X220520610Y-62195882D01*
X220525923Y-62197306D01*
X220750000Y-62216910D01*
X220974077Y-62197306D01*
X220979390Y-62195882D01*
X220979392Y-62195882D01*
X221186036Y-62140512D01*
X221186038Y-62140511D01*
X221191346Y-62139089D01*
X221270884Y-62102000D01*
X221390218Y-62046354D01*
X221390223Y-62046351D01*
X221395205Y-62044028D01*
X221409700Y-62033879D01*
X221459816Y-61998787D01*
X221532087Y-61976000D01*
X222507913Y-61976000D01*
X222580184Y-61998787D01*
X222630301Y-62033879D01*
X222644795Y-62044028D01*
X222649777Y-62046351D01*
X222649782Y-62046354D01*
X222769116Y-62102000D01*
X222848654Y-62139089D01*
X222853962Y-62140511D01*
X222853964Y-62140512D01*
X223060608Y-62195882D01*
X223060610Y-62195882D01*
X223065923Y-62197306D01*
X223290000Y-62216910D01*
X223514077Y-62197306D01*
X223519390Y-62195882D01*
X223519392Y-62195882D01*
X223726036Y-62140512D01*
X223726038Y-62140511D01*
X223731346Y-62139089D01*
X223810884Y-62102000D01*
X223930218Y-62046354D01*
X223930223Y-62046351D01*
X223935205Y-62044028D01*
X223949700Y-62033879D01*
X223999816Y-61998787D01*
X224072087Y-61976000D01*
X225047913Y-61976000D01*
X225120184Y-61998787D01*
X225170301Y-62033879D01*
X225184795Y-62044028D01*
X225189777Y-62046351D01*
X225189782Y-62046354D01*
X225309116Y-62102000D01*
X225388654Y-62139089D01*
X225393962Y-62140511D01*
X225393964Y-62140512D01*
X225600608Y-62195882D01*
X225600610Y-62195882D01*
X225605923Y-62197306D01*
X225830000Y-62216910D01*
X226054077Y-62197306D01*
X226059390Y-62195882D01*
X226059392Y-62195882D01*
X226266036Y-62140512D01*
X226266038Y-62140511D01*
X226271346Y-62139089D01*
X226350884Y-62102000D01*
X226470218Y-62046354D01*
X226470223Y-62046351D01*
X226475205Y-62044028D01*
X226489700Y-62033879D01*
X226539816Y-61998787D01*
X226612087Y-61976000D01*
X235494000Y-61976000D01*
X235562121Y-61996002D01*
X235608614Y-62049658D01*
X235620000Y-62102000D01*
X235620000Y-116465072D01*
X235599998Y-116533193D01*
X235546342Y-116579686D01*
X235476068Y-116589790D01*
X235411488Y-116560296D01*
X235375826Y-116508786D01*
X235341834Y-116416893D01*
X235272663Y-116229900D01*
X235217386Y-116117065D01*
X235104665Y-115886972D01*
X235104662Y-115886966D01*
X235103264Y-115884113D01*
X234957231Y-115649501D01*
X234901475Y-115559925D01*
X234901467Y-115559914D01*
X234899788Y-115557216D01*
X234744077Y-115355749D01*
X234666271Y-115255079D01*
X234666266Y-115255074D01*
X234664319Y-115252554D01*
X234556902Y-115139360D01*
X234401466Y-114975565D01*
X234401463Y-114975563D01*
X234399267Y-114973248D01*
X234271465Y-114863321D01*
X234109762Y-114724234D01*
X234109759Y-114724232D01*
X234107347Y-114722157D01*
X233791546Y-114501851D01*
X233455099Y-114314587D01*
X233452179Y-114313329D01*
X233452174Y-114313327D01*
X233104384Y-114163545D01*
X233104374Y-114163541D01*
X233101450Y-114162282D01*
X232734221Y-114046495D01*
X232424146Y-113982282D01*
X232360295Y-113969059D01*
X232360292Y-113969059D01*
X232357170Y-113968412D01*
X232063699Y-113938084D01*
X231977314Y-113929157D01*
X231977311Y-113929157D01*
X231974158Y-113928831D01*
X231970992Y-113928825D01*
X231970983Y-113928825D01*
X231780911Y-113928494D01*
X231589108Y-113928159D01*
X231436969Y-113943344D01*
X231209134Y-113966085D01*
X231209128Y-113966086D01*
X231205961Y-113966402D01*
X231025688Y-114003079D01*
X230831764Y-114042533D01*
X230831760Y-114042534D01*
X230828639Y-114043169D01*
X230825597Y-114044116D01*
X230825591Y-114044118D01*
X230719202Y-114077255D01*
X230461008Y-114157674D01*
X230458080Y-114158923D01*
X230109759Y-114307494D01*
X230109755Y-114307496D01*
X230106829Y-114308744D01*
X230104050Y-114310278D01*
X230104044Y-114310281D01*
X230001492Y-114366893D01*
X229769731Y-114494832D01*
X229767110Y-114496647D01*
X229767105Y-114496650D01*
X229580534Y-114625838D01*
X229453163Y-114714034D01*
X229160368Y-114964104D01*
X229158168Y-114966406D01*
X229158165Y-114966409D01*
X229096761Y-115030665D01*
X228894343Y-115242484D01*
X228892386Y-115244998D01*
X228892385Y-115244999D01*
X228688348Y-115507096D01*
X228657812Y-115546321D01*
X228656116Y-115549025D01*
X228656113Y-115549029D01*
X228636038Y-115581031D01*
X228453196Y-115872507D01*
X228282591Y-116217700D01*
X228281477Y-116220681D01*
X228281476Y-116220682D01*
X228249936Y-116305040D01*
X228147743Y-116578366D01*
X228050034Y-116950814D01*
X228030203Y-117077453D01*
X227996349Y-117293637D01*
X227990462Y-117331229D01*
X227990291Y-117334391D01*
X227990290Y-117334398D01*
X227979168Y-117539760D01*
X227969639Y-117715717D01*
X227969789Y-117718898D01*
X227985546Y-118053007D01*
X227987778Y-118100340D01*
X227988249Y-118103493D01*
X227988250Y-118103501D01*
X227993226Y-118136793D01*
X228044692Y-118481162D01*
X228045478Y-118484244D01*
X228045478Y-118484246D01*
X228135614Y-118837863D01*
X228139799Y-118854283D01*
X228272126Y-119215882D01*
X228440317Y-119562258D01*
X228642650Y-119889864D01*
X228877054Y-120195345D01*
X229141129Y-120475575D01*
X229143534Y-120477659D01*
X229143540Y-120477664D01*
X229429765Y-120725599D01*
X229432172Y-120727684D01*
X229747201Y-120949090D01*
X230082992Y-121137527D01*
X230085906Y-121138794D01*
X230085910Y-121138796D01*
X230230483Y-121201658D01*
X230436107Y-121291066D01*
X230479427Y-121304891D01*
X230551727Y-121327965D01*
X230610542Y-121367731D01*
X230638521Y-121432982D01*
X230626781Y-121503001D01*
X230579049Y-121555558D01*
X230513419Y-121574000D01*
X108579848Y-121574000D01*
X108511727Y-121553998D01*
X108465234Y-121500342D01*
X108455130Y-121430068D01*
X108484624Y-121365488D01*
X108542799Y-121327570D01*
X108613476Y-121305827D01*
X108613479Y-121305826D01*
X108616518Y-121304891D01*
X108619446Y-121303654D01*
X108619452Y-121303652D01*
X108778869Y-121236312D01*
X108971221Y-121155059D01*
X108974024Y-121153525D01*
X108974029Y-121153522D01*
X109119446Y-121073908D01*
X109308968Y-120970148D01*
X109626298Y-120752053D01*
X109628737Y-120749985D01*
X109628743Y-120749980D01*
X109917525Y-120505076D01*
X109917533Y-120505068D01*
X109919965Y-120503006D01*
X109922173Y-120500711D01*
X109922181Y-120500704D01*
X110184745Y-120227859D01*
X110184747Y-120227856D01*
X110186960Y-120225557D01*
X110424550Y-119922546D01*
X110630303Y-119597077D01*
X110631723Y-119594228D01*
X110631728Y-119594220D01*
X110800692Y-119255330D01*
X110802112Y-119252482D01*
X110936304Y-118897354D01*
X110937094Y-118895263D01*
X110937095Y-118895260D01*
X110938218Y-118892288D01*
X110940709Y-118882928D01*
X111033124Y-118535603D01*
X111037227Y-118520184D01*
X111041051Y-118496314D01*
X111080680Y-118248900D01*
X111098126Y-118139979D01*
X111100230Y-118103501D01*
X111111748Y-117903731D01*
X111120291Y-117755566D01*
X111120384Y-117729000D01*
X111119873Y-117718898D01*
X111101064Y-117347615D01*
X111101063Y-117347610D01*
X111100903Y-117344442D01*
X111060048Y-117077453D01*
X111043144Y-116966981D01*
X111043142Y-116966972D01*
X111042660Y-116963821D01*
X110981058Y-116725622D01*
X110947048Y-116594115D01*
X110947045Y-116594107D01*
X110946251Y-116591035D01*
X110942702Y-116581439D01*
X110870076Y-116385107D01*
X110812663Y-116229900D01*
X110757386Y-116117065D01*
X110644665Y-115886972D01*
X110644662Y-115886966D01*
X110643264Y-115884113D01*
X110497231Y-115649501D01*
X110441475Y-115559925D01*
X110441467Y-115559914D01*
X110439788Y-115557216D01*
X110284077Y-115355749D01*
X110206271Y-115255079D01*
X110206266Y-115255074D01*
X110204319Y-115252554D01*
X110096902Y-115139360D01*
X109941466Y-114975565D01*
X109941463Y-114975563D01*
X109939267Y-114973248D01*
X109811465Y-114863321D01*
X109649762Y-114724234D01*
X109649759Y-114724232D01*
X109647347Y-114722157D01*
X109331546Y-114501851D01*
X108995099Y-114314587D01*
X108992179Y-114313329D01*
X108992174Y-114313327D01*
X108644384Y-114163545D01*
X108644374Y-114163541D01*
X108641450Y-114162282D01*
X108274221Y-114046495D01*
X107964146Y-113982282D01*
X107900295Y-113969059D01*
X107900292Y-113969059D01*
X107897170Y-113968412D01*
X107603699Y-113938084D01*
X107517314Y-113929157D01*
X107517311Y-113929157D01*
X107514158Y-113928831D01*
X107510992Y-113928825D01*
X107510983Y-113928825D01*
X107320911Y-113928494D01*
X107129108Y-113928159D01*
X106976969Y-113943344D01*
X106749134Y-113966085D01*
X106749128Y-113966086D01*
X106745961Y-113966402D01*
X106565688Y-114003079D01*
X106371764Y-114042533D01*
X106371760Y-114042534D01*
X106368639Y-114043169D01*
X106365597Y-114044116D01*
X106365591Y-114044118D01*
X106259202Y-114077255D01*
X106001008Y-114157674D01*
X105998080Y-114158923D01*
X105649759Y-114307494D01*
X105649755Y-114307496D01*
X105646829Y-114308744D01*
X105644050Y-114310278D01*
X105644044Y-114310281D01*
X105541492Y-114366893D01*
X105309731Y-114494832D01*
X105307110Y-114496647D01*
X105307105Y-114496650D01*
X105120534Y-114625838D01*
X104993163Y-114714034D01*
X104700368Y-114964104D01*
X104698168Y-114966406D01*
X104698165Y-114966409D01*
X104636761Y-115030665D01*
X104434343Y-115242484D01*
X104432386Y-115244998D01*
X104432385Y-115244999D01*
X104228348Y-115507096D01*
X104197812Y-115546321D01*
X104196116Y-115549025D01*
X104196113Y-115549029D01*
X104176038Y-115581031D01*
X103993196Y-115872507D01*
X103822591Y-116217700D01*
X103754686Y-116399321D01*
X103714021Y-116508083D01*
X103671429Y-116564885D01*
X103604889Y-116589643D01*
X103535527Y-116574497D01*
X103485365Y-116524255D01*
X103470000Y-116463957D01*
X103470000Y-51681933D01*
X103490002Y-51613812D01*
X103543658Y-51567319D01*
X103613932Y-51557215D01*
X103678512Y-51586709D01*
X103714326Y-51638632D01*
X103812126Y-51905882D01*
X103980317Y-52252258D01*
X104182650Y-52579864D01*
X104417054Y-52885345D01*
X104681129Y-53165575D01*
X104683534Y-53167659D01*
X104683540Y-53167664D01*
X104926785Y-53378369D01*
X104972172Y-53417684D01*
X105287201Y-53639090D01*
X105622992Y-53827527D01*
X105625906Y-53828794D01*
X105625910Y-53828796D01*
X105770483Y-53891658D01*
X105976107Y-53981066D01*
X106342931Y-54098134D01*
X106463126Y-54123463D01*
X106716582Y-54176875D01*
X106716592Y-54176877D01*
X106719707Y-54177533D01*
X106722870Y-54177871D01*
X106722876Y-54177872D01*
X107099411Y-54218113D01*
X107099420Y-54218114D01*
X107102578Y-54218451D01*
X107105764Y-54218468D01*
X107105770Y-54218468D01*
X107282250Y-54219392D01*
X107487624Y-54220467D01*
X107632167Y-54206549D01*
X107867737Y-54183866D01*
X107867742Y-54183865D01*
X107870902Y-54183561D01*
X107874022Y-54182938D01*
X107874026Y-54182937D01*
X108245361Y-54108737D01*
X108245360Y-54108737D01*
X108248489Y-54108112D01*
X108251525Y-54107178D01*
X108251533Y-54107176D01*
X108613476Y-53995827D01*
X108613479Y-53995826D01*
X108616518Y-53994891D01*
X108619446Y-53993654D01*
X108619452Y-53993652D01*
X108780880Y-53925462D01*
X108971221Y-53845059D01*
X108974024Y-53843525D01*
X108974029Y-53843522D01*
X109192979Y-53723650D01*
X109308968Y-53660148D01*
X109626298Y-53442053D01*
X109628737Y-53439985D01*
X109628743Y-53439980D01*
X109917525Y-53195076D01*
X109917533Y-53195068D01*
X109919965Y-53193006D01*
X109922173Y-53190711D01*
X109922181Y-53190704D01*
X110184745Y-52917859D01*
X110184747Y-52917856D01*
X110186960Y-52915557D01*
X110424550Y-52612546D01*
X110630303Y-52287077D01*
X110631723Y-52284228D01*
X110631728Y-52284220D01*
X110800692Y-51945330D01*
X110802112Y-51942482D01*
X110926306Y-51613812D01*
X110937094Y-51585263D01*
X110937095Y-51585260D01*
X110938218Y-51582288D01*
X110944890Y-51557215D01*
X111036406Y-51213269D01*
X111037227Y-51210184D01*
X111043478Y-51171162D01*
X111087003Y-50899422D01*
X111098126Y-50829979D01*
X111104946Y-50711707D01*
X111116631Y-50509034D01*
X111120291Y-50445566D01*
X111120384Y-50419000D01*
X111119322Y-50398022D01*
X111101064Y-50037615D01*
X111101063Y-50037610D01*
X111100903Y-50034442D01*
X111059383Y-49763106D01*
X111043144Y-49656981D01*
X111043142Y-49656972D01*
X111042660Y-49653821D01*
X110976410Y-49397652D01*
X110947048Y-49284115D01*
X110947045Y-49284107D01*
X110946251Y-49281035D01*
X110941003Y-49266846D01*
X110867700Y-49068685D01*
X110812663Y-48919900D01*
X110738248Y-48768000D01*
X110644665Y-48576972D01*
X110644662Y-48576966D01*
X110643264Y-48574113D01*
X110535545Y-48401055D01*
X110441475Y-48249925D01*
X110441467Y-48249914D01*
X110439788Y-48247216D01*
X110234278Y-47981316D01*
X110206271Y-47945079D01*
X110206266Y-47945074D01*
X110204319Y-47942554D01*
X110032256Y-47761238D01*
X109941466Y-47665565D01*
X109941463Y-47665563D01*
X109939267Y-47663248D01*
X109826851Y-47566555D01*
X109649762Y-47414234D01*
X109649759Y-47414232D01*
X109647347Y-47412157D01*
X109331546Y-47191851D01*
X108995099Y-47004587D01*
X108992179Y-47003329D01*
X108992174Y-47003327D01*
X108644384Y-46853545D01*
X108644374Y-46853541D01*
X108641450Y-46852282D01*
X108620953Y-46845819D01*
X108539598Y-46820168D01*
X108480645Y-46780608D01*
X108452438Y-46715455D01*
X108463934Y-46645395D01*
X108511482Y-46592672D01*
X108577487Y-46574000D01*
X122265702Y-46574000D01*
X122333823Y-46594002D01*
G37*
%TD.AperFunction*%
%TD*%
%TA.AperFunction,Conductor*%
%TO.N,40V*%
G36*
X127432526Y-81661198D02*
G01*
X127757832Y-81679466D01*
X127771864Y-81681047D01*
X127930728Y-81708039D01*
X128089587Y-81735031D01*
X128103362Y-81738175D01*
X128199228Y-81765793D01*
X128413047Y-81827394D01*
X128426368Y-81832055D01*
X128724118Y-81955387D01*
X128736841Y-81961514D01*
X128953131Y-82081053D01*
X129018906Y-82117406D01*
X129030870Y-82124924D01*
X129293694Y-82311409D01*
X129304740Y-82320218D01*
X129545043Y-82534965D01*
X129555035Y-82544957D01*
X129769782Y-82785260D01*
X129778591Y-82796306D01*
X129965076Y-83059130D01*
X129972594Y-83071094D01*
X130128484Y-83353155D01*
X130134613Y-83365882D01*
X130257945Y-83663632D01*
X130262606Y-83676953D01*
X130324207Y-83890772D01*
X130351825Y-83986638D01*
X130354969Y-84000413D01*
X130408952Y-84318131D01*
X130410534Y-84332172D01*
X130428802Y-84657474D01*
X130429000Y-84664539D01*
X130429000Y-94293694D01*
X130428770Y-94301302D01*
X130408626Y-94634327D01*
X130406792Y-94649431D01*
X130347340Y-94973847D01*
X130343699Y-94988620D01*
X130263637Y-95245550D01*
X130245576Y-95303509D01*
X130240180Y-95317736D01*
X130104820Y-95618494D01*
X130097749Y-95631967D01*
X129927120Y-95914221D01*
X129918477Y-95926743D01*
X129715065Y-96186379D01*
X129704975Y-96197767D01*
X129471767Y-96430975D01*
X129460379Y-96441065D01*
X129200743Y-96644477D01*
X129188221Y-96653120D01*
X128905967Y-96823749D01*
X128892496Y-96830819D01*
X128591732Y-96966182D01*
X128577514Y-96971574D01*
X128382163Y-97032448D01*
X128262620Y-97069699D01*
X128247847Y-97073340D01*
X127923431Y-97132792D01*
X127908327Y-97134626D01*
X127575302Y-97154770D01*
X127567694Y-97155000D01*
X124714000Y-97155000D01*
X123573226Y-98509669D01*
X123387266Y-98730496D01*
X123387262Y-98730502D01*
X122682000Y-99568000D01*
X122682000Y-101214044D01*
X122681612Y-101223930D01*
X122662451Y-101467388D01*
X122659358Y-101486916D01*
X122603509Y-101719546D01*
X122597401Y-101738345D01*
X122505845Y-101959381D01*
X122496871Y-101976992D01*
X122371865Y-102180982D01*
X122360250Y-102196970D01*
X122204873Y-102378893D01*
X122190895Y-102392871D01*
X122008970Y-102548250D01*
X121992982Y-102559865D01*
X121788992Y-102684871D01*
X121771381Y-102693845D01*
X121550345Y-102785401D01*
X121531551Y-102791507D01*
X121298916Y-102847358D01*
X121279388Y-102850451D01*
X121268728Y-102851290D01*
X121035930Y-102869612D01*
X121026044Y-102870000D01*
X115937642Y-102870000D01*
X115930531Y-102869799D01*
X115927223Y-102869612D01*
X115603108Y-102851290D01*
X115588977Y-102849687D01*
X115588896Y-102849673D01*
X115269241Y-102794998D01*
X115255379Y-102791813D01*
X114943838Y-102701438D01*
X114930424Y-102696711D01*
X114631060Y-102571806D01*
X114618264Y-102565598D01*
X114587109Y-102548244D01*
X114334865Y-102407741D01*
X114322861Y-102400136D01*
X114059063Y-102211351D01*
X114047985Y-102202437D01*
X113807147Y-101985128D01*
X113797143Y-101975019D01*
X113582331Y-101731955D01*
X113573529Y-101720784D01*
X113387480Y-101455064D01*
X113379993Y-101442972D01*
X113225068Y-101157965D01*
X113218992Y-101145106D01*
X113097182Y-100844477D01*
X113092593Y-100831015D01*
X113005432Y-100518551D01*
X113002390Y-100504658D01*
X112972346Y-100317411D01*
X112950999Y-100184364D01*
X112949543Y-100170227D01*
X112934411Y-99842620D01*
X112934284Y-99835507D01*
X112959502Y-97389407D01*
X112980205Y-97321496D01*
X112985531Y-97314004D01*
X112997507Y-97298396D01*
X112997509Y-97298392D01*
X113002536Y-97291841D01*
X113055468Y-97164053D01*
X113059884Y-97153391D01*
X113063044Y-97145762D01*
X113064752Y-97132792D01*
X113077962Y-97032448D01*
X113077962Y-97032447D01*
X113078500Y-97028361D01*
X113078499Y-95249640D01*
X113063044Y-95132238D01*
X113037847Y-95071407D01*
X113005697Y-94993789D01*
X113005695Y-94993786D01*
X113002536Y-94986159D01*
X113001069Y-94984248D01*
X112984931Y-94922749D01*
X112999464Y-93513039D01*
X113009048Y-93466120D01*
X113059884Y-93343391D01*
X113063044Y-93335762D01*
X113078500Y-93218361D01*
X113078500Y-92686172D01*
X113080776Y-92662330D01*
X113086299Y-92633669D01*
X113090044Y-92619025D01*
X113186509Y-92318296D01*
X113191981Y-92304206D01*
X113211469Y-92261762D01*
X113323765Y-92017192D01*
X113330877Y-92003873D01*
X113496086Y-91734698D01*
X113504752Y-91722313D01*
X113700991Y-91474877D01*
X113711077Y-91463618D01*
X113935549Y-91241449D01*
X113946911Y-91231480D01*
X114196363Y-91037797D01*
X114208836Y-91029260D01*
X114479694Y-90866838D01*
X114493091Y-90859861D01*
X114781440Y-90731047D01*
X114795586Y-90725720D01*
X115097294Y-90632360D01*
X115111976Y-90628766D01*
X115422688Y-90572208D01*
X115437695Y-90570398D01*
X115756722Y-90551227D01*
X115764280Y-90551000D01*
X118491000Y-90551000D01*
X119037099Y-90328515D01*
X119037105Y-90328513D01*
X120203790Y-89853197D01*
X120203800Y-89853193D01*
X121920000Y-89154000D01*
X121920000Y-84664539D01*
X121920198Y-84657474D01*
X121938466Y-84332172D01*
X121940048Y-84318131D01*
X121994031Y-84000413D01*
X121997175Y-83986638D01*
X122024793Y-83890772D01*
X122086394Y-83676953D01*
X122091055Y-83663632D01*
X122214387Y-83365882D01*
X122220516Y-83353155D01*
X122376406Y-83071094D01*
X122383924Y-83059130D01*
X122570409Y-82796306D01*
X122579218Y-82785260D01*
X122793965Y-82544957D01*
X122803957Y-82534965D01*
X123044260Y-82320218D01*
X123055306Y-82311409D01*
X123318130Y-82124924D01*
X123330094Y-82117406D01*
X123395869Y-82081053D01*
X123612159Y-81961514D01*
X123624882Y-81955387D01*
X123922632Y-81832055D01*
X123935953Y-81827394D01*
X124149772Y-81765793D01*
X124245638Y-81738175D01*
X124259413Y-81735031D01*
X124418272Y-81708039D01*
X124577136Y-81681047D01*
X124591168Y-81679466D01*
X124916474Y-81661198D01*
X124923539Y-81661000D01*
X127425461Y-81661000D01*
X127432526Y-81661198D01*
G37*
%TD.AperFunction*%
%TD*%
M02*
